<?xml version="1.0" encoding="UTF-8"?>
<svg height="20.0" width="519.4492753623188" xmlns="http://www.w3.org/2000/svg">
 <g>
  <rect x="10.0" y="-215.0" width="1.4492753623188406" height="225.0" style="fill:cyan;opacity:0.3;"/>
  <text x="10.0" y="10.0" transform="matrix(6.123233995736766E-17,-1.0,1.0,6.123233995736766E-17,0.0,20.0)" style="font-size:1.0000000000000013px;">School of Medic</text>
  <rect x="11.0" y="-166.0" width="1.4492753623188406" height="176.0" style="fill:cyan;opacity:0.3;"/>
  <text x="11.0" y="10.0" transform="matrix(6.123233995736766E-17,-1.0,1.0,6.123233995736766E-17,1.0,21.0)" style="font-size:1.0000000000000013px;">School of Medic</text>
  <rect x="12.0" y="-110.0" width="1.4492753623188406" height="120.0" style="fill:cyan;opacity:0.3;"/>
  <text x="12.0" y="10.0" transform="matrix(6.123233995736766E-17,-1.0,1.0,6.123233995736766E-17,2.0,22.0)" style="font-size:1.0000000000000013px;">Department of H</text>
  <rect x="14.0" y="-78.0" width="1.4492753623188406" height="88.0" style="fill:cyan;opacity:0.3;"/>
  <text x="14.0" y="10.0" transform="matrix(6.123233995736766E-17,-1.0,1.0,6.123233995736766E-17,4.0,24.0)" style="font-size:1.0000000000000013px;">World Health Or</text>
  <rect x="15.0" y="-78.0" width="1.4492753623188406" height="88.0" style="fill:cyan;opacity:0.3;"/>
  <text x="15.0" y="10.0" transform="matrix(6.123233995736766E-17,-1.0,1.0,6.123233995736766E-17,4.999999999999998,25.0)" style="font-size:1.0000000000000013px;">Harvard Medical</text>
  <rect x="17.0" y="-62.0" width="1.4492753623188406" height="72.0" style="fill:cyan;opacity:0.3;"/>
  <text x="17.0" y="10.0" transform="matrix(6.123233995736766E-17,-1.0,1.0,6.123233995736766E-17,6.999999999999998,27.0)" style="font-size:1.0000000000000013px;">University of C</text>
  <rect x="18.0" y="-62.0" width="1.4492753623188406" height="72.0" style="fill:cyan;opacity:0.3;"/>
  <text x="18.0" y="10.0" transform="matrix(6.123233995736766E-17,-1.0,1.0,6.123233995736766E-17,7.999999999999998,28.0)" style="font-size:1.0000000000000013px;">Health Research</text>
  <rect x="20.0" y="-54.0" width="1.4492753623188406" height="64.0" style="fill:cyan;opacity:0.3;"/>
  <text x="20.0" y="10.0" transform="matrix(6.123233995736766E-17,-1.0,1.0,6.123233995736766E-17,9.999999999999998,30.0)" style="font-size:1.0000000000000013px;">Centers for Dis</text>
  <rect x="21.0" y="-54.0" width="1.4492753623188406" height="64.0" style="fill:cyan;opacity:0.3;"/>
  <text x="21.0" y="10.0" transform="matrix(6.123233995736766E-17,-1.0,1.0,6.123233995736766E-17,10.999999999999998,31.0)" style="font-size:1.0000000000000013px;">York University</text>
  <rect x="23.0" y="-54.0" width="1.4492753623188406" height="64.0" style="fill:cyan;opacity:0.3;"/>
  <text x="23.0" y="10.0" transform="matrix(6.123233995736766E-17,-1.0,1.0,6.123233995736766E-17,12.999999999999998,33.0)" style="font-size:1.0000000000000013px;">Food and Drug A</text>
  <rect x="24.0" y="-54.0" width="1.4492753623188406" height="64.0" style="fill:cyan;opacity:0.3;"/>
  <text x="24.0" y="10.0" transform="matrix(6.123233995736766E-17,-1.0,1.0,6.123233995736766E-17,13.999999999999998,34.0)" style="font-size:1.0000000000000013px;">Sanofi</text>
  <rect x="25.0" y="-54.0" width="1.4492753623188406" height="64.0" style="fill:cyan;opacity:0.3;"/>
  <text x="25.0" y="10.0" transform="matrix(6.123233995736766E-17,-1.0,1.0,6.123233995736766E-17,14.999999999999998,35.0)" style="font-size:1.0000000000000013px;">EDS</text>
  <rect x="27.0" y="-46.0" width="1.4492753623188406" height="56.0" style="fill:cyan;opacity:0.3;"/>
  <text x="27.0" y="10.0" transform="matrix(6.123233995736766E-17,-1.0,1.0,6.123233995736766E-17,17.0,37.0)" style="font-size:1.0000000000000013px;">American Academ</text>
  <rect x="28.0" y="-46.0" width="1.4492753623188406" height="56.0" style="fill:cyan;opacity:0.3;"/>
  <text x="28.0" y="10.0" transform="matrix(6.123233995736766E-17,-1.0,1.0,6.123233995736766E-17,18.0,38.0)" style="font-size:1.0000000000000013px;">Hospital for Si</text>
  <rect x="30.0" y="-46.0" width="1.4492753623188406" height="56.0" style="fill:cyan;opacity:0.3;"/>
  <text x="30.0" y="10.0" transform="matrix(6.123233995736766E-17,-1.0,1.0,6.123233995736766E-17,20.0,40.0)" style="font-size:1.0000000000000013px;">Mayo Clinic</text>
  <rect x="31.0" y="-46.0" width="1.4492753623188406" height="56.0" style="fill:cyan;opacity:0.3;"/>
  <text x="31.0" y="10.0" transform="matrix(6.123233995736766E-17,-1.0,1.0,6.123233995736766E-17,21.0,41.0)" style="font-size:1.0000000000000013px;">Siemens</text>
  <rect x="33.0" y="-46.0" width="1.4492753623188406" height="56.0" style="fill:cyan;opacity:0.3;"/>
  <text x="33.0" y="10.0" transform="matrix(6.123233995736766E-17,-1.0,1.0,6.123233995736766E-17,23.0,43.0)" style="font-size:1.0000000000000013px;">Department of S</text>
  <rect x="34.0" y="-46.0" width="1.4492753623188406" height="56.0" style="fill:cyan;opacity:0.3;"/>
  <text x="34.0" y="10.0" transform="matrix(6.123233995736766E-17,-1.0,1.0,6.123233995736766E-17,24.0,44.0)" style="font-size:1.0000000000000013px;">York University</text>
  <rect x="36.0" y="-46.0" width="1.4492753623188406" height="56.0" style="fill:cyan;opacity:0.3;"/>
  <text x="36.0" y="10.0" transform="matrix(6.123233995736766E-17,-1.0,1.0,6.123233995736766E-17,26.0,46.0)" style="font-size:1.0000000000000013px;">University at B</text>
  <rect x="37.0" y="-38.0" width="1.4492753623188406" height="48.0" style="fill:cyan;opacity:0.3;"/>
  <text x="37.0" y="10.0" transform="matrix(6.123233995736766E-17,-1.0,1.0,6.123233995736766E-17,27.0,47.0)" style="font-size:1.0000000000000013px;">Massachusetts G</text>
  <rect x="38.0" y="-38.0" width="1.4492753623188406" height="48.0" style="fill:cyan;opacity:0.3;"/>
  <text x="38.0" y="10.0" transform="matrix(6.123233995736766E-17,-1.0,1.0,6.123233995736766E-17,28.0,48.0)" style="font-size:1.0000000000000013px;">University of C</text>
  <rect x="40.0" y="-38.0" width="1.4492753623188406" height="48.0" style="fill:cyan;opacity:0.3;"/>
  <text x="40.0" y="10.0" transform="matrix(6.123233995736766E-17,-1.0,1.0,6.123233995736766E-17,30.0,50.0)" style="font-size:1.0000000000000013px;">American Medica</text>
  <rect x="41.0" y="-38.0" width="1.4492753623188406" height="48.0" style="fill:cyan;opacity:0.3;"/>
  <text x="41.0" y="10.0" transform="matrix(6.123233995736766E-17,-1.0,1.0,6.123233995736766E-17,31.0,51.0)" style="font-size:1.0000000000000013px;">American Psycho</text>
  <rect x="43.0" y="-30.0" width="1.4492753623188406" height="40.0" style="fill:cyan;opacity:0.3;"/>
  <text x="43.0" y="10.0" transform="matrix(6.123233995736766E-17,-1.0,1.0,6.123233995736766E-17,33.0,53.0)" style="font-size:1.0000000000000013px;">Medical Researc</text>
  <rect x="44.0" y="-30.0" width="1.4492753623188406" height="40.0" style="fill:cyan;opacity:0.3;"/>
  <text x="44.0" y="10.0" transform="matrix(6.123233995736766E-17,-1.0,1.0,6.123233995736766E-17,34.0,54.0)" style="font-size:1.0000000000000013px;">World Health Or</text>
  <rect x="46.0" y="-30.0" width="1.4492753623188406" height="40.0" style="fill:cyan;opacity:0.3;"/>
  <text x="46.0" y="10.0" transform="matrix(6.123233995736766E-17,-1.0,1.0,6.123233995736766E-17,36.0,56.0)" style="font-size:1.0000000000000013px;">Ottawa Hospital</text>
  <rect x="47.0" y="-30.0" width="1.4492753623188406" height="40.0" style="fill:cyan;opacity:0.3;"/>
  <text x="47.0" y="10.0" transform="matrix(6.123233995736766E-17,-1.0,1.0,6.123233995736766E-17,37.0,57.0)" style="font-size:1.0000000000000013px;">Teva Pharmaceut</text>
  <rect x="49.0" y="-30.0" width="1.4492753623188406" height="40.0" style="fill:cyan;opacity:0.3;"/>
  <text x="49.0" y="10.0" transform="matrix(6.123233995736766E-17,-1.0,1.0,6.123233995736766E-17,39.0,59.0)" style="font-size:1.0000000000000013px;">Allergan</text>
  <rect x="50.0" y="-30.0" width="1.4492753623188406" height="40.0" style="fill:cyan;opacity:0.3;"/>
  <text x="50.0" y="10.0" transform="matrix(6.123233995736766E-17,-1.0,1.0,6.123233995736766E-17,40.0,60.0)" style="font-size:1.0000000000000013px;">Johns Hopkins U</text>
  <rect x="52.0" y="-30.0" width="1.4492753623188406" height="40.0" style="fill:cyan;opacity:0.3;"/>
  <text x="52.0" y="10.0" transform="matrix(6.123233995736766E-17,-1.0,1.0,6.123233995736766E-17,42.0,62.0)" style="font-size:1.0000000000000013px;">University Coll</text>
  <rect x="53.0" y="-30.0" width="1.4492753623188406" height="40.0" style="fill:cyan;opacity:0.3;"/>
  <text x="53.0" y="10.0" transform="matrix(6.123233995736766E-17,-1.0,1.0,6.123233995736766E-17,43.0,63.0)" style="font-size:1.0000000000000013px;">Roche</text>
  <rect x="54.0" y="-30.0" width="1.4492753623188406" height="40.0" style="fill:cyan;opacity:0.3;"/>
  <text x="54.0" y="10.0" transform="matrix(6.123233995736766E-17,-1.0,1.0,6.123233995736766E-17,44.0,64.0)" style="font-size:1.0000000000000013px;">McGill Universi</text>
  <rect x="56.0" y="-30.0" width="1.4492753623188406" height="40.0" style="fill:cyan;opacity:0.3;"/>
  <text x="56.0" y="10.0" transform="matrix(6.123233995736766E-17,-1.0,1.0,6.123233995736766E-17,46.0,66.0)" style="font-size:1.0000000000000013px;">State Universit</text>
  <rect x="57.0" y="-30.0" width="1.4492753623188406" height="40.0" style="fill:cyan;opacity:0.3;"/>
  <text x="57.0" y="10.0" transform="matrix(6.123233995736766E-17,-1.0,1.0,6.123233995736766E-17,47.0,67.0)" style="font-size:1.0000000000000013px;">Cleveland Clini</text>
  <rect x="59.0" y="-22.0" width="1.4492753623188406" height="32.0" style="fill:cyan;opacity:0.3;"/>
  <text x="59.0" y="10.0" transform="matrix(6.123233995736766E-17,-1.0,1.0,6.123233995736766E-17,49.0,69.0)" style="font-size:1.0000000000000013px;">Sun Yat-sen Uni</text>
  <rect x="60.0" y="-22.0" width="1.4492753623188406" height="32.0" style="fill:cyan;opacity:0.3;"/>
  <text x="60.0" y="10.0" transform="matrix(6.123233995736766E-17,-1.0,1.0,6.123233995736766E-17,50.0,70.0)" style="font-size:1.0000000000000013px;">International A</text>
  <rect x="62.0" y="-22.0" width="1.4492753623188406" height="32.0" style="fill:cyan;opacity:0.3;"/>
  <text x="62.0" y="10.0" transform="matrix(6.123233995736766E-17,-1.0,1.0,6.123233995736766E-17,52.0,72.0)" style="font-size:1.0000000000000013px;">McGill Universi</text>
  <rect x="63.0" y="-22.0" width="1.4492753623188406" height="32.0" style="fill:cyan;opacity:0.3;"/>
  <text x="63.0" y="10.0" transform="matrix(6.123233995736766E-17,-1.0,1.0,6.123233995736766E-17,53.0,73.0)" style="font-size:1.0000000000000013px;">Novartis</text>
  <rect x="65.0" y="-22.0" width="1.4492753623188406" height="32.0" style="fill:cyan;opacity:0.3;"/>
  <text x="65.0" y="10.0" transform="matrix(6.123233995736766E-17,-1.0,1.0,6.123233995736766E-17,55.0,75.0)" style="font-size:1.0000000000000013px;">American Academ</text>
  <rect x="66.0" y="-22.0" width="1.4492753623188406" height="32.0" style="fill:cyan;opacity:0.3;"/>
  <text x="66.0" y="10.0" transform="matrix(6.123233995736766E-17,-1.0,1.0,6.123233995736766E-17,56.0,76.0)" style="font-size:1.0000000000000013px;">Canadian Instit</text>
  <rect x="67.0" y="-22.0" width="1.4492753623188406" height="32.0" style="fill:cyan;opacity:0.3;"/>
  <text x="67.0" y="10.0" transform="matrix(6.123233995736766E-17,-1.0,1.0,6.123233995736766E-17,57.0,77.0)" style="font-size:1.0000000000000013px;">Ministry of Hea</text>
  <rect x="69.0" y="-22.0" width="1.4492753623188406" height="32.0" style="fill:cyan;opacity:0.3;"/>
  <text x="69.0" y="10.0" transform="matrix(6.123233995736766E-17,-1.0,1.0,6.123233995736766E-17,59.0,79.0)" style="font-size:1.0000000000000013px;">National Instit</text>
  <rect x="70.0" y="-22.0" width="1.4492753623188406" height="32.0" style="fill:cyan;opacity:0.3;"/>
  <text x="70.0" y="10.0" transform="matrix(6.123233995736766E-17,-1.0,1.0,6.123233995736766E-17,60.0,80.0)" style="font-size:1.0000000000000013px;">Cleveland Clini</text>
  <rect x="72.0" y="-22.0" width="1.4492753623188406" height="32.0" style="fill:cyan;opacity:0.3;"/>
  <text x="72.0" y="10.0" transform="matrix(6.123233995736766E-17,-1.0,1.0,6.123233995736766E-17,62.0,82.0)" style="font-size:1.0000000000000013px;">Beth Israel Dea</text>
  <rect x="73.0" y="-22.0" width="1.4492753623188406" height="32.0" style="fill:cyan;opacity:0.3;"/>
  <text x="73.0" y="10.0" transform="matrix(6.123233995736766E-17,-1.0,1.0,6.123233995736766E-17,62.99999999999999,83.0)" style="font-size:1.0000000000000013px;">Teva Pharmaceut</text>
  <rect x="75.0" y="-22.0" width="1.4492753623188406" height="32.0" style="fill:cyan;opacity:0.3;"/>
  <text x="75.0" y="10.0" transform="matrix(6.123233995736766E-17,-1.0,1.0,6.123233995736766E-17,65.0,85.0)" style="font-size:1.0000000000000013px;">Massachusetts G</text>
  <rect x="76.0" y="-22.0" width="1.4492753623188406" height="32.0" style="fill:cyan;opacity:0.3;"/>
  <text x="76.0" y="10.0" transform="matrix(6.123233995736766E-17,-1.0,1.0,6.123233995736766E-17,66.0,86.0)" style="font-size:1.0000000000000013px;">University of M</text>
  <rect x="78.0" y="-22.0" width="1.4492753623188406" height="32.0" style="fill:cyan;opacity:0.3;"/>
  <text x="78.0" y="10.0" transform="matrix(6.123233995736766E-17,-1.0,1.0,6.123233995736766E-17,68.0,88.0)" style="font-size:1.0000000000000013px;">National Cancer</text>
  <rect x="79.0" y="-22.0" width="1.4492753623188406" height="32.0" style="fill:cyan;opacity:0.3;"/>
  <text x="79.0" y="10.0" transform="matrix(6.123233995736766E-17,-1.0,1.0,6.123233995736766E-17,69.0,89.0)" style="font-size:1.0000000000000013px;">Samsung</text>
  <rect x="81.0" y="-22.0" width="1.4492753623188406" height="32.0" style="fill:cyan;opacity:0.3;"/>
  <text x="81.0" y="10.0" transform="matrix(6.123233995736766E-17,-1.0,1.0,6.123233995736766E-17,71.0,91.0)" style="font-size:1.0000000000000013px;">Health Research</text>
  <rect x="82.0" y="-22.0" width="1.4492753623188406" height="32.0" style="fill:cyan;opacity:0.3;"/>
  <text x="82.0" y="10.0" transform="matrix(6.123233995736766E-17,-1.0,1.0,6.123233995736766E-17,72.0,92.0)" style="font-size:1.0000000000000013px;">Canadian Pain S</text>
  <rect x="83.0" y="-22.0" width="1.4492753623188406" height="32.0" style="fill:cyan;opacity:0.3;"/>
  <text x="83.0" y="10.0" transform="matrix(6.123233995736766E-17,-1.0,1.0,6.123233995736766E-17,73.0,93.0)" style="font-size:1.0000000000000013px;">Mayo Clinic,</text>
  <rect x="85.0" y="-22.0" width="1.4492753623188406" height="32.0" style="fill:cyan;opacity:0.3;"/>
  <text x="85.0" y="10.0" transform="matrix(6.123233995736766E-17,-1.0,1.0,6.123233995736766E-17,75.0,95.0)" style="font-size:1.0000000000000013px;">Biogen</text>
  <rect x="86.0" y="-14.0" width="1.4492753623188406" height="24.0" style="fill:cyan;opacity:0.3;"/>
  <text x="86.0" y="10.0" transform="matrix(6.123233995736766E-17,-1.0,1.0,6.123233995736766E-17,76.0,96.0)" style="font-size:1.0000000000000013px;">Ottawa Hospital</text>
  <rect x="88.0" y="-14.0" width="1.4492753623188406" height="24.0" style="fill:cyan;opacity:0.3;"/>
  <text x="88.0" y="10.0" transform="matrix(6.123233995736766E-17,-1.0,1.0,6.123233995736766E-17,78.0,98.0)" style="font-size:1.0000000000000013px;">Rigshospitalet</text>
  <rect x="89.0" y="-14.0" width="1.4492753623188406" height="24.0" style="fill:cyan;opacity:0.3;"/>
  <text x="89.0" y="10.0" transform="matrix(6.123233995736766E-17,-1.0,1.0,6.123233995736766E-17,79.0,99.0)" style="font-size:1.0000000000000013px;">Charité Univers</text>
  <rect x="91.0" y="-14.0" width="1.4492753623188406" height="24.0" style="fill:cyan;opacity:0.3;"/>
  <text x="91.0" y="10.0" transform="matrix(6.123233995736766E-17,-1.0,1.0,6.123233995736766E-17,81.0,101.0)" style="font-size:1.0000000000000013px;">European Commis</text>
  <rect x="92.0" y="-14.0" width="1.4492753623188406" height="24.0" style="fill:cyan;opacity:0.3;"/>
  <text x="92.0" y="10.0" transform="matrix(6.123233995736766E-17,-1.0,1.0,6.123233995736766E-17,82.0,102.0)" style="font-size:1.0000000000000013px;">University of R</text>
  <rect x="94.0" y="-14.0" width="1.4492753623188406" height="24.0" style="fill:cyan;opacity:0.3;"/>
  <text x="94.0" y="10.0" transform="matrix(6.123233995736766E-17,-1.0,1.0,6.123233995736766E-17,84.0,104.0)" style="font-size:1.0000000000000013px;">Hospital for Si</text>
  <rect x="95.0" y="-14.0" width="1.4492753623188406" height="24.0" style="fill:cyan;opacity:0.3;"/>
  <text x="95.0" y="10.0" transform="matrix(6.123233995736766E-17,-1.0,1.0,6.123233995736766E-17,85.0,105.0)" style="font-size:1.0000000000000013px;">National Center</text>
  <rect x="96.0" y="-14.0" width="1.4492753623188406" height="24.0" style="fill:cyan;opacity:0.3;"/>
  <text x="96.0" y="10.0" transform="matrix(6.123233995736766E-17,-1.0,1.0,6.123233995736766E-17,86.0,106.0)" style="font-size:1.0000000000000013px;">Duke University</text>
  <rect x="98.0" y="-14.0" width="1.4492753623188406" height="24.0" style="fill:cyan;opacity:0.3;"/>
  <text x="98.0" y="10.0" transform="matrix(6.123233995736766E-17,-1.0,1.0,6.123233995736766E-17,88.0,108.0)" style="font-size:1.0000000000000013px;">National Instit</text>
  <rect x="99.0" y="-14.0" width="1.4492753623188406" height="24.0" style="fill:cyan;opacity:0.3;"/>
  <text x="99.0" y="10.0" transform="matrix(6.123233995736766E-17,-1.0,1.0,6.123233995736766E-17,89.0,109.0)" style="font-size:1.0000000000000013px;">SAS Institute</text>
  <rect x="101.0" y="-14.0" width="1.4492753623188406" height="24.0" style="fill:cyan;opacity:0.3;"/>
  <text x="101.0" y="10.0" transform="matrix(6.123233995736766E-17,-1.0,1.0,6.123233995736766E-17,91.0,111.0)" style="font-size:1.0000000000000013px;">Feinberg School</text>
  <rect x="102.0" y="-14.0" width="1.4492753623188406" height="24.0" style="fill:cyan;opacity:0.3;"/>
  <text x="102.0" y="10.0" transform="matrix(6.123233995736766E-17,-1.0,1.0,6.123233995736766E-17,92.0,112.0)" style="font-size:1.0000000000000013px;">Thomas Jefferso</text>
  <rect x="104.0" y="-14.0" width="1.4492753623188406" height="24.0" style="fill:cyan;opacity:0.3;"/>
  <text x="104.0" y="10.0" transform="matrix(6.123233995736766E-17,-1.0,1.0,6.123233995736766E-17,94.0,114.0)" style="font-size:1.0000000000000013px;">Istituto Superi</text>
  <rect x="105.0" y="-14.0" width="1.4492753623188406" height="24.0" style="fill:cyan;opacity:0.3;"/>
  <text x="105.0" y="10.0" transform="matrix(6.123233995736766E-17,-1.0,1.0,6.123233995736766E-17,95.0,115.0)" style="font-size:1.0000000000000013px;">Microsoft</text>
  <rect x="107.0" y="-14.0" width="1.4492753623188406" height="24.0" style="fill:cyan;opacity:0.3;"/>
  <text x="107.0" y="10.0" transform="matrix(6.123233995736766E-17,-1.0,1.0,6.123233995736766E-17,97.0,117.0)" style="font-size:1.0000000000000013px;">Wayne State Uni</text>
  <rect x="108.0" y="-14.0" width="1.4492753623188406" height="24.0" style="fill:cyan;opacity:0.3;"/>
  <text x="108.0" y="10.0" transform="matrix(6.123233995736766E-17,-1.0,1.0,6.123233995736766E-17,98.0,118.0)" style="font-size:1.0000000000000013px;">Wellcome Trust</text>
  <rect x="110.0" y="-14.0" width="1.4492753623188406" height="24.0" style="fill:cyan;opacity:0.3;"/>
  <text x="110.0" y="10.0" transform="matrix(6.123233995736766E-17,-1.0,1.0,6.123233995736766E-17,100.0,120.0)" style="font-size:1.0000000000000013px;">American Psychi</text>
  <rect x="111.0" y="-14.0" width="1.4492753623188406" height="24.0" style="fill:cyan;opacity:0.3;"/>
  <text x="111.0" y="10.0" transform="matrix(6.123233995736766E-17,-1.0,1.0,6.123233995736766E-17,101.0,121.0)" style="font-size:1.0000000000000013px;">Stanford Univer</text>
  <rect x="112.0" y="-14.0" width="1.4492753623188406" height="24.0" style="fill:cyan;opacity:0.3;"/>
  <text x="112.0" y="10.0" transform="matrix(6.123233995736766E-17,-1.0,1.0,6.123233995736766E-17,102.0,122.0)" style="font-size:1.0000000000000013px;">University of T</text>
  <rect x="114.0" y="-14.0" width="1.4492753623188406" height="24.0" style="fill:cyan;opacity:0.3;"/>
  <text x="114.0" y="10.0" transform="matrix(6.123233995736766E-17,-1.0,1.0,6.123233995736766E-17,104.0,124.0)" style="font-size:1.0000000000000013px;">Research and De</text>
  <rect x="115.0" y="-14.0" width="1.4492753623188406" height="24.0" style="fill:cyan;opacity:0.3;"/>
  <text x="115.0" y="10.0" transform="matrix(6.123233995736766E-17,-1.0,1.0,6.123233995736766E-17,105.0,125.0)" style="font-size:1.0000000000000013px;">American Academ</text>
  <rect x="117.0" y="-14.0" width="1.4492753623188406" height="24.0" style="fill:cyan;opacity:0.3;"/>
  <text x="117.0" y="10.0" transform="matrix(6.123233995736766E-17,-1.0,1.0,6.123233995736766E-17,107.0,127.0)" style="font-size:1.0000000000000013px;">Keck School of </text>
  <rect x="118.0" y="-14.0" width="1.4492753623188406" height="24.0" style="fill:cyan;opacity:0.3;"/>
  <text x="118.0" y="10.0" transform="matrix(6.123233995736766E-17,-1.0,1.0,6.123233995736766E-17,108.0,128.0)" style="font-size:1.0000000000000013px;">University of S</text>
  <rect x="120.0" y="-14.0" width="1.4492753623188406" height="24.0" style="fill:cyan;opacity:0.3;"/>
  <text x="120.0" y="10.0" transform="matrix(6.123233995736766E-17,-1.0,1.0,6.123233995736766E-17,110.0,130.0)" style="font-size:1.0000000000000013px;">Alzheimer’s Dis</text>
  <rect x="121.0" y="-14.0" width="1.4492753623188406" height="24.0" style="fill:cyan;opacity:0.3;"/>
  <text x="121.0" y="10.0" transform="matrix(6.123233995736766E-17,-1.0,1.0,6.123233995736766E-17,111.0,131.0)" style="font-size:1.0000000000000013px;">Ohio State Univ</text>
  <rect x="123.0" y="-14.0" width="1.4492753623188406" height="24.0" style="fill:cyan;opacity:0.3;"/>
  <text x="123.0" y="10.0" transform="matrix(6.123233995736766E-17,-1.0,1.0,6.123233995736766E-17,113.0,133.0)" style="font-size:1.0000000000000013px;">Pusan National </text>
  <rect x="124.0" y="-14.0" width="1.4492753623188406" height="24.0" style="fill:cyan;opacity:0.3;"/>
  <text x="124.0" y="10.0" transform="matrix(6.123233995736766E-17,-1.0,1.0,6.123233995736766E-17,114.0,134.0)" style="font-size:1.0000000000000013px;">National Center</text>
  <rect x="125.0" y="-6.0" width="1.4492753623188406" height="16.0" style="fill:cyan;opacity:0.3;"/>
  <text x="125.0" y="10.0" transform="matrix(6.123233995736766E-17,-1.0,1.0,6.123233995736766E-17,115.0,135.0)" style="font-size:1.0000000000000013px;">Nintendo</text>
  <rect x="127.0" y="-6.0" width="1.4492753623188406" height="16.0" style="fill:cyan;opacity:0.3;"/>
  <text x="127.0" y="10.0" transform="matrix(6.123233995736766E-17,-1.0,1.0,6.123233995736766E-17,117.0,137.0)" style="font-size:1.0000000000000013px;">National Heart,</text>
  <rect x="128.0" y="-6.0" width="1.4492753623188406" height="16.0" style="fill:cyan;opacity:0.3;"/>
  <text x="128.0" y="10.0" transform="matrix(6.123233995736766E-17,-1.0,1.0,6.123233995736766E-17,118.0,138.0)" style="font-size:1.0000000000000013px;">European Parlia</text>
  <rect x="130.0" y="-6.0" width="1.4492753623188406" height="16.0" style="fill:cyan;opacity:0.3;"/>
  <text x="130.0" y="10.0" transform="matrix(6.123233995736766E-17,-1.0,1.0,6.123233995736766E-17,120.0,140.0)" style="font-size:1.0000000000000013px;">Centers for Dis</text>
  <rect x="131.0" y="-6.0" width="1.4492753623188406" height="16.0" style="fill:cyan;opacity:0.3;"/>
  <text x="131.0" y="10.0" transform="matrix(6.123233995736766E-17,-1.0,1.0,6.123233995736766E-17,120.99999999999999,141.0)" style="font-size:1.0000000000000013px;">U.S. Food and D</text>
  <rect x="133.0" y="-6.0" width="1.4492753623188406" height="16.0" style="fill:cyan;opacity:0.3;"/>
  <text x="133.0" y="10.0" transform="matrix(6.123233995736766E-17,-1.0,1.0,6.123233995736766E-17,122.99999999999999,143.0)" style="font-size:1.0000000000000013px;">Chung-Ang Unive</text>
  <rect x="134.0" y="-6.0" width="1.4492753623188406" height="16.0" style="fill:cyan;opacity:0.3;"/>
  <text x="134.0" y="10.0" transform="matrix(6.123233995736766E-17,-1.0,1.0,6.123233995736766E-17,123.99999999999999,144.0)" style="font-size:1.0000000000000013px;">University of C</text>
  <rect x="136.0" y="-6.0" width="1.4492753623188406" height="16.0" style="fill:cyan;opacity:0.3;"/>
  <text x="136.0" y="10.0" transform="matrix(6.123233995736766E-17,-1.0,1.0,6.123233995736766E-17,125.99999999999999,146.0)" style="font-size:1.0000000000000013px;">Catholic Univer</text>
  <rect x="137.0" y="-6.0" width="1.4492753623188406" height="16.0" style="fill:cyan;opacity:0.3;"/>
  <text x="137.0" y="10.0" transform="matrix(6.123233995736766E-17,-1.0,1.0,6.123233995736766E-17,126.99999999999999,147.0)" style="font-size:1.0000000000000013px;">Ministero della</text>
  <rect x="138.0" y="-6.0" width="1.4492753623188406" height="16.0" style="fill:cyan;opacity:0.3;"/>
  <text x="138.0" y="10.0" transform="matrix(6.123233995736766E-17,-1.0,1.0,6.123233995736766E-17,127.99999999999999,148.0)" style="font-size:1.0000000000000013px;">University of T</text>
  <rect x="140.0" y="-6.0" width="1.4492753623188406" height="16.0" style="fill:cyan;opacity:0.3;"/>
  <text x="140.0" y="10.0" transform="matrix(6.123233995736766E-17,-1.0,1.0,6.123233995736766E-17,130.0,150.0)" style="font-size:1.0000000000000013px;">National Instit</text>
  <rect x="141.0" y="-6.0" width="1.4492753623188406" height="16.0" style="fill:cyan;opacity:0.3;"/>
  <text x="141.0" y="10.0" transform="matrix(6.123233995736766E-17,-1.0,1.0,6.123233995736766E-17,131.0,151.0)" style="font-size:1.0000000000000013px;">National Instit</text>
  <rect x="143.0" y="-6.0" width="1.4492753623188406" height="16.0" style="fill:cyan;opacity:0.3;"/>
  <text x="143.0" y="10.0" transform="matrix(6.123233995736766E-17,-1.0,1.0,6.123233995736766E-17,133.0,153.0)" style="font-size:1.0000000000000013px;">University of M</text>
  <rect x="144.0" y="-6.0" width="1.4492753623188406" height="16.0" style="fill:cyan;opacity:0.3;"/>
  <text x="144.0" y="10.0" transform="matrix(6.123233995736766E-17,-1.0,1.0,6.123233995736766E-17,134.0,154.0)" style="font-size:1.0000000000000013px;">Amgen</text>
  <rect x="146.0" y="-6.0" width="1.4492753623188406" height="16.0" style="fill:cyan;opacity:0.3;"/>
  <text x="146.0" y="10.0" transform="matrix(6.123233995736766E-17,-1.0,1.0,6.123233995736766E-17,136.0,156.0)" style="font-size:1.0000000000000013px;">New York Univer</text>
  <rect x="147.0" y="-6.0" width="1.4492753623188406" height="16.0" style="fill:cyan;opacity:0.3;"/>
  <text x="147.0" y="10.0" transform="matrix(6.123233995736766E-17,-1.0,1.0,6.123233995736766E-17,137.0,157.0)" style="font-size:1.0000000000000013px;">Quaker</text>
  <rect x="149.0" y="-6.0" width="1.4492753623188406" height="16.0" style="fill:cyan;opacity:0.3;"/>
  <text x="149.0" y="10.0" transform="matrix(6.123233995736766E-17,-1.0,1.0,6.123233995736766E-17,139.0,159.0)" style="font-size:1.0000000000000013px;">King’s College </text>
  <rect x="150.0" y="-6.0" width="1.4492753623188406" height="16.0" style="fill:cyan;opacity:0.3;"/>
  <text x="150.0" y="10.0" transform="matrix(6.123233995736766E-17,-1.0,1.0,6.123233995736766E-17,140.0,160.0)" style="font-size:1.0000000000000013px;">National Instit</text>
  <rect x="152.0" y="-6.0" width="1.4492753623188406" height="16.0" style="fill:cyan;opacity:0.3;"/>
  <text x="152.0" y="10.0" transform="matrix(6.123233995736766E-17,-1.0,1.0,6.123233995736766E-17,142.0,162.0)" style="font-size:1.0000000000000013px;">Sungkyunkwan Un</text>
  <rect x="153.0" y="-6.0" width="1.4492753623188406" height="16.0" style="fill:cyan;opacity:0.3;"/>
  <text x="153.0" y="10.0" transform="matrix(6.123233995736766E-17,-1.0,1.0,6.123233995736766E-17,143.0,163.0)" style="font-size:1.0000000000000013px;">American Thorac</text>
  <rect x="154.0" y="-6.0" width="1.4492753623188406" height="16.0" style="fill:cyan;opacity:0.3;"/>
  <text x="154.0" y="10.0" transform="matrix(6.123233995736766E-17,-1.0,1.0,6.123233995736766E-17,144.0,164.0)" style="font-size:1.0000000000000013px;">Philips</text>
  <rect x="156.0" y="-6.0" width="1.4492753623188406" height="16.0" style="fill:cyan;opacity:0.3;"/>
  <text x="156.0" y="10.0" transform="matrix(6.123233995736766E-17,-1.0,1.0,6.123233995736766E-17,146.0,166.0)" style="font-size:1.0000000000000013px;">3M</text>
  <rect x="157.0" y="-6.0" width="1.4492753623188406" height="16.0" style="fill:cyan;opacity:0.3;"/>
  <text x="157.0" y="10.0" transform="matrix(6.123233995736766E-17,-1.0,1.0,6.123233995736766E-17,147.0,167.0)" style="font-size:1.0000000000000013px;">Cornell Univers</text>
  <rect x="159.0" y="-6.0" width="1.4492753623188406" height="16.0" style="fill:cyan;opacity:0.3;"/>
  <text x="159.0" y="10.0" transform="matrix(6.123233995736766E-17,-1.0,1.0,6.123233995736766E-17,149.0,169.0)" style="font-size:1.0000000000000013px;">Mahidol Univers</text>
  <rect x="160.0" y="-6.0" width="1.4492753623188406" height="16.0" style="fill:cyan;opacity:0.3;"/>
  <text x="160.0" y="10.0" transform="matrix(6.123233995736766E-17,-1.0,1.0,6.123233995736766E-17,150.0,170.0)" style="font-size:1.0000000000000013px;">Ministry of Hea</text>
  <rect x="162.0" y="-6.0" width="1.4492753623188406" height="16.0" style="fill:cyan;opacity:0.3;"/>
  <text x="162.0" y="10.0" transform="matrix(6.123233995736766E-17,-1.0,1.0,6.123233995736766E-17,152.0,172.0)" style="font-size:1.0000000000000013px;">Ministry of Edu</text>
  <rect x="163.0" y="-6.0" width="1.4492753623188406" height="16.0" style="fill:cyan;opacity:0.3;"/>
  <text x="163.0" y="10.0" transform="matrix(6.123233995736766E-17,-1.0,1.0,6.123233995736766E-17,153.0,173.0)" style="font-size:1.0000000000000013px;">European Commis</text>
  <rect x="165.0" y="-6.0" width="1.4492753623188406" height="16.0" style="fill:cyan;opacity:0.3;"/>
  <text x="165.0" y="10.0" transform="matrix(6.123233995736766E-17,-1.0,1.0,6.123233995736766E-17,155.0,175.0)" style="font-size:1.0000000000000013px;">University of M</text>
  <rect x="166.0" y="-6.0" width="1.4492753623188406" height="16.0" style="fill:cyan;opacity:0.3;"/>
  <text x="166.0" y="10.0" transform="matrix(6.123233995736766E-17,-1.0,1.0,6.123233995736766E-17,156.0,176.0)" style="font-size:1.0000000000000013px;">University of M</text>
  <rect x="167.0" y="-6.0" width="1.4492753623188406" height="16.0" style="fill:cyan;opacity:0.3;"/>
  <text x="167.0" y="10.0" transform="matrix(6.123233995736766E-17,-1.0,1.0,6.123233995736766E-17,157.0,177.0)" style="font-size:1.0000000000000013px;">Teva Pharmaceut</text>
  <rect x="169.0" y="-6.0" width="1.4492753623188406" height="16.0" style="fill:cyan;opacity:0.3;"/>
  <text x="169.0" y="10.0" transform="matrix(6.123233995736766E-17,-1.0,1.0,6.123233995736766E-17,159.0,179.0)" style="font-size:1.0000000000000013px;">Weill Cornell M</text>
  <rect x="170.0" y="-6.0" width="1.4492753623188406" height="16.0" style="fill:cyan;opacity:0.3;"/>
  <text x="170.0" y="10.0" transform="matrix(6.123233995736766E-17,-1.0,1.0,6.123233995736766E-17,160.0,180.0)" style="font-size:1.0000000000000013px;">Research and De</text>
  <rect x="172.0" y="-6.0" width="1.4492753623188406" height="16.0" style="fill:cyan;opacity:0.3;"/>
  <text x="172.0" y="10.0" transform="matrix(6.123233995736766E-17,-1.0,1.0,6.123233995736766E-17,162.0,182.0)" style="font-size:1.0000000000000013px;">Stony Brook Uni</text>
  <rect x="173.0" y="-6.0" width="1.4492753623188406" height="16.0" style="fill:cyan;opacity:0.3;"/>
  <text x="173.0" y="10.0" transform="matrix(6.123233995736766E-17,-1.0,1.0,6.123233995736766E-17,163.0,183.0)" style="font-size:1.0000000000000013px;">Hospices Civils</text>
  <rect x="175.0" y="-6.0" width="1.4492753623188406" height="16.0" style="fill:cyan;opacity:0.3;"/>
  <text x="175.0" y="10.0" transform="matrix(6.123233995736766E-17,-1.0,1.0,6.123233995736766E-17,165.0,185.0)" style="font-size:1.0000000000000013px;">Nationwide</text>
  <rect x="176.0" y="-6.0" width="1.4492753623188406" height="16.0" style="fill:cyan;opacity:0.3;"/>
  <text x="176.0" y="10.0" transform="matrix(6.123233995736766E-17,-1.0,1.0,6.123233995736766E-17,166.0,186.0)" style="font-size:1.0000000000000013px;">NYU Langone Med</text>
  <rect x="178.0" y="-6.0" width="1.4492753623188406" height="16.0" style="fill:cyan;opacity:0.3;"/>
  <text x="178.0" y="10.0" transform="matrix(6.123233995736766E-17,-1.0,1.0,6.123233995736766E-17,168.0,188.0)" style="font-size:1.0000000000000013px;">Yale University</text>
  <rect x="179.0" y="-6.0" width="1.4492753623188406" height="16.0" style="fill:cyan;opacity:0.3;"/>
  <text x="179.0" y="10.0" transform="matrix(6.123233995736766E-17,-1.0,1.0,6.123233995736766E-17,169.0,189.0)" style="font-size:1.0000000000000013px;">University of H</text>
  <rect x="181.0" y="-6.0" width="1.4492753623188406" height="16.0" style="fill:cyan;opacity:0.3;"/>
  <text x="181.0" y="10.0" transform="matrix(6.123233995736766E-17,-1.0,1.0,6.123233995736766E-17,171.0,191.0)" style="font-size:1.0000000000000013px;">Université Pier</text>
  <rect x="182.0" y="-6.0" width="1.4492753623188406" height="16.0" style="fill:cyan;opacity:0.3;"/>
  <text x="182.0" y="10.0" transform="matrix(6.123233995736766E-17,-1.0,1.0,6.123233995736766E-17,172.0,192.0)" style="font-size:1.0000000000000013px;">Kaiser Permanen</text>
  <rect x="183.0" y="-6.0" width="1.4492753623188406" height="16.0" style="fill:cyan;opacity:0.3;"/>
  <text x="183.0" y="10.0" transform="matrix(6.123233995736766E-17,-1.0,1.0,6.123233995736766E-17,173.0,193.0)" style="font-size:1.0000000000000013px;">Sapienza Univer</text>
  <rect x="185.0" y="-6.0" width="1.4492753623188406" height="16.0" style="fill:cyan;opacity:0.3;"/>
  <text x="185.0" y="10.0" transform="matrix(6.123233995736766E-17,-1.0,1.0,6.123233995736766E-17,175.0,195.0)" style="font-size:1.0000000000000013px;">Capital Medical</text>
  <rect x="186.0" y="-6.0" width="1.4492753623188406" height="16.0" style="fill:cyan;opacity:0.3;"/>
  <text x="186.0" y="10.0" transform="matrix(6.123233995736766E-17,-1.0,1.0,6.123233995736766E-17,176.0,196.0)" style="font-size:1.0000000000000013px;">World Health Or</text>
  <rect x="188.0" y="-6.0" width="1.4492753623188406" height="16.0" style="fill:cyan;opacity:0.3;"/>
  <text x="188.0" y="10.0" transform="matrix(6.123233995736766E-17,-1.0,1.0,6.123233995736766E-17,178.0,198.0)" style="font-size:1.0000000000000013px;">Georgetown Univ</text>
  <rect x="189.0" y="-6.0" width="1.4492753623188406" height="16.0" style="fill:cyan;opacity:0.3;"/>
  <text x="189.0" y="10.0" transform="matrix(6.123233995736766E-17,-1.0,1.0,6.123233995736766E-17,179.0,199.0)" style="font-size:1.0000000000000013px;">Hallym Universi</text>
  <rect x="191.0" y="-6.0" width="1.4492753623188406" height="16.0" style="fill:cyan;opacity:0.3;"/>
  <text x="191.0" y="10.0" transform="matrix(6.123233995736766E-17,-1.0,1.0,6.123233995736766E-17,181.0,201.0)" style="font-size:1.0000000000000013px;">Georgia Regents</text>
  <rect x="192.0" y="-6.0" width="1.4492753623188406" height="16.0" style="fill:cyan;opacity:0.3;"/>
  <text x="192.0" y="10.0" transform="matrix(6.123233995736766E-17,-1.0,1.0,6.123233995736766E-17,182.0,202.0)" style="font-size:1.0000000000000013px;">World Health Or</text>
  <rect x="194.0" y="-6.0" width="1.4492753623188406" height="16.0" style="fill:cyan;opacity:0.3;"/>
  <text x="194.0" y="10.0" transform="matrix(6.123233995736766E-17,-1.0,1.0,6.123233995736766E-17,184.0,204.0)" style="font-size:1.0000000000000013px;">China Postdocto</text>
  <rect x="195.0" y="-6.0" width="1.4492753623188406" height="16.0" style="fill:cyan;opacity:0.3;"/>
  <text x="195.0" y="10.0" transform="matrix(6.123233995736766E-17,-1.0,1.0,6.123233995736766E-17,185.0,205.0)" style="font-size:1.0000000000000013px;">Orange</text>
  <rect x="196.0" y="-6.0" width="1.4492753623188406" height="16.0" style="fill:cyan;opacity:0.3;"/>
  <text x="196.0" y="10.0" transform="matrix(6.123233995736766E-17,-1.0,1.0,6.123233995736766E-17,186.0,206.0)" style="font-size:1.0000000000000013px;">Duke University</text>
  <rect x="198.0" y="-6.0" width="1.4492753623188406" height="16.0" style="fill:cyan;opacity:0.3;"/>
  <text x="198.0" y="10.0" transform="matrix(6.123233995736766E-17,-1.0,1.0,6.123233995736766E-17,188.0,208.0)" style="font-size:1.0000000000000013px;">Eli Lilly and C</text>
  <rect x="199.0" y="-6.0" width="1.4492753623188406" height="16.0" style="fill:cyan;opacity:0.3;"/>
  <text x="199.0" y="10.0" transform="matrix(6.123233995736766E-17,-1.0,1.0,6.123233995736766E-17,189.0,209.0)" style="font-size:1.0000000000000013px;">University of M</text>
  <rect x="201.0" y="-6.0" width="1.4492753623188406" height="16.0" style="fill:cyan;opacity:0.3;"/>
  <text x="201.0" y="10.0" transform="matrix(6.123233995736766E-17,-1.0,1.0,6.123233995736766E-17,191.0,211.0)" style="font-size:1.0000000000000013px;">American Heart </text>
  <rect x="202.0" y="-6.0" width="1.4492753623188406" height="16.0" style="fill:cyan;opacity:0.3;"/>
  <text x="202.0" y="10.0" transform="matrix(6.123233995736766E-17,-1.0,1.0,6.123233995736766E-17,192.0,212.0)" style="font-size:1.0000000000000013px;">Vanderbilt Univ</text>
  <rect x="204.0" y="-6.0" width="1.4492753623188406" height="16.0" style="fill:cyan;opacity:0.3;"/>
  <text x="204.0" y="10.0" transform="matrix(6.123233995736766E-17,-1.0,1.0,6.123233995736766E-17,194.0,214.0)" style="font-size:1.0000000000000013px;">University of C</text>
  <rect x="205.0" y="-6.0" width="1.4492753623188406" height="16.0" style="fill:cyan;opacity:0.3;"/>
  <text x="205.0" y="10.0" transform="matrix(6.123233995736766E-17,-1.0,1.0,6.123233995736766E-17,195.0,215.0)" style="font-size:1.0000000000000013px;">National Instit</text>
  <rect x="207.0" y="-6.0" width="1.4492753623188406" height="16.0" style="fill:cyan;opacity:0.3;"/>
  <text x="207.0" y="10.0" transform="matrix(6.123233995736766E-17,-1.0,1.0,6.123233995736766E-17,197.0,217.0)" style="font-size:1.0000000000000013px;">National Multip</text>
  <rect x="208.0" y="-6.0" width="1.4492753623188406" height="16.0" style="fill:cyan;opacity:0.3;"/>
  <text x="208.0" y="10.0" transform="matrix(6.123233995736766E-17,-1.0,1.0,6.123233995736766E-17,198.0,218.0)" style="font-size:1.0000000000000013px;">University of C</text>
  <rect x="210.0" y="-6.0" width="1.4492753623188406" height="16.0" style="fill:cyan;opacity:0.3;"/>
  <text x="210.0" y="10.0" transform="matrix(6.123233995736766E-17,-1.0,1.0,6.123233995736766E-17,200.0,220.0)" style="font-size:1.0000000000000013px;">American Colleg</text>
  <rect x="211.0" y="-6.0" width="1.4492753623188406" height="16.0" style="fill:cyan;opacity:0.3;"/>
  <text x="211.0" y="10.0" transform="matrix(6.123233995736766E-17,-1.0,1.0,6.123233995736766E-17,201.0,221.0)" style="font-size:1.0000000000000013px;">Catholic Univer</text>
  <rect x="212.0" y="-6.0" width="1.4492753623188406" height="16.0" style="fill:cyan;opacity:0.3;"/>
  <text x="212.0" y="10.0" transform="matrix(6.123233995736766E-17,-1.0,1.0,6.123233995736766E-17,202.0,222.0)" style="font-size:1.0000000000000013px;">RTI Internation</text>
  <rect x="214.0" y="-6.0" width="1.4492753623188406" height="16.0" style="fill:cyan;opacity:0.3;"/>
  <text x="214.0" y="10.0" transform="matrix(6.123233995736766E-17,-1.0,1.0,6.123233995736766E-17,204.0,224.0)" style="font-size:1.0000000000000013px;">European Centre</text>
  <rect x="215.0" y="-6.0" width="1.4492753623188406" height="16.0" style="fill:cyan;opacity:0.3;"/>
  <text x="215.0" y="10.0" transform="matrix(6.123233995736766E-17,-1.0,1.0,6.123233995736766E-17,205.0,225.0)" style="font-size:1.0000000000000013px;">American Academ</text>
  <rect x="217.0" y="-6.0" width="1.4492753623188406" height="16.0" style="fill:cyan;opacity:0.3;"/>
  <text x="217.0" y="10.0" transform="matrix(6.123233995736766E-17,-1.0,1.0,6.123233995736766E-17,207.0,227.0)" style="font-size:1.0000000000000013px;">Brown Universit</text>
  <rect x="218.0" y="-6.0" width="1.4492753623188406" height="16.0" style="fill:cyan;opacity:0.3;"/>
  <text x="218.0" y="10.0" transform="matrix(6.123233995736766E-17,-1.0,1.0,6.123233995736766E-17,208.0,228.0)" style="font-size:1.0000000000000013px;">University of F</text>
  <rect x="220.0" y="-6.0" width="1.4492753623188406" height="16.0" style="fill:cyan;opacity:0.3;"/>
  <text x="220.0" y="10.0" transform="matrix(6.123233995736766E-17,-1.0,1.0,6.123233995736766E-17,210.0,230.0)" style="font-size:1.0000000000000013px;">Agency for Heal</text>
  <rect x="221.0" y="-6.0" width="1.4492753623188406" height="16.0" style="fill:cyan;opacity:0.3;"/>
  <text x="221.0" y="10.0" transform="matrix(6.123233995736766E-17,-1.0,1.0,6.123233995736766E-17,211.0,231.0)" style="font-size:1.0000000000000013px;">Facebook</text>
  <rect x="223.0" y="-6.0" width="1.4492753623188406" height="16.0" style="fill:cyan;opacity:0.3;"/>
  <text x="223.0" y="10.0" transform="matrix(6.123233995736766E-17,-1.0,1.0,6.123233995736766E-17,213.0,233.0)" style="font-size:1.0000000000000013px;">Health Canada</text>
  <rect x="224.0" y="-6.0" width="1.4492753623188406" height="16.0" style="fill:cyan;opacity:0.3;"/>
  <text x="224.0" y="10.0" transform="matrix(6.123233995736766E-17,-1.0,1.0,6.123233995736766E-17,214.0,234.0)" style="font-size:1.0000000000000013px;">Università Catt</text>
  <rect x="225.0" y="-6.0" width="1.4492753623188406" height="16.0" style="fill:cyan;opacity:0.3;"/>
  <text x="225.0" y="10.0" transform="matrix(6.123233995736766E-17,-1.0,1.0,6.123233995736766E-17,215.0,235.0)" style="font-size:1.0000000000000013px;">Baylor College </text>
  <rect x="227.0" y="-6.0" width="1.4492753623188406" height="16.0" style="fill:cyan;opacity:0.3;"/>
  <text x="227.0" y="10.0" transform="matrix(6.123233995736766E-17,-1.0,1.0,6.123233995736766E-17,217.0,237.0)" style="font-size:1.0000000000000013px;">Columbia Univer</text>
  <rect x="228.0" y="-6.0" width="1.4492753623188406" height="16.0" style="fill:cyan;opacity:0.3;"/>
  <text x="228.0" y="10.0" transform="matrix(6.123233995736766E-17,-1.0,1.0,6.123233995736766E-17,218.0,238.0)" style="font-size:1.0000000000000013px;">Johns Hopkins U</text>
  <rect x="230.0" y="-6.0" width="1.4492753623188406" height="16.0" style="fill:cyan;opacity:0.3;"/>
  <text x="230.0" y="10.0" transform="matrix(6.123233995736766E-17,-1.0,1.0,6.123233995736766E-17,220.0,240.0)" style="font-size:1.0000000000000013px;">Fondazione IRCC</text>
  <rect x="231.0" y="-6.0" width="1.4492753623188406" height="16.0" style="fill:cyan;opacity:0.3;"/>
  <text x="231.0" y="10.0" transform="matrix(6.123233995736766E-17,-1.0,1.0,6.123233995736766E-17,221.0,241.0)" style="font-size:1.0000000000000013px;">American Psychi</text>
  <rect x="233.0" y="-6.0" width="1.4492753623188406" height="16.0" style="fill:cyan;opacity:0.3;"/>
  <text x="233.0" y="10.0" transform="matrix(6.123233995736766E-17,-1.0,1.0,6.123233995736766E-17,223.0,243.0)" style="font-size:1.0000000000000013px;">Merck</text>
  <rect x="234.0" y="-6.0" width="1.4492753623188406" height="16.0" style="fill:cyan;opacity:0.3;"/>
  <text x="234.0" y="10.0" transform="matrix(6.123233995736766E-17,-1.0,1.0,6.123233995736766E-17,224.0,244.0)" style="font-size:1.0000000000000013px;">National and Ka</text>
  <rect x="236.0" y="-6.0" width="1.4492753623188406" height="16.0" style="fill:cyan;opacity:0.3;"/>
  <text x="236.0" y="10.0" transform="matrix(6.123233995736766E-17,-1.0,1.0,6.123233995736766E-17,226.0,246.0)" style="font-size:1.0000000000000013px;">Multiple Sclero</text>
  <rect x="237.0" y="-6.0" width="1.4492753623188406" height="16.0" style="fill:cyan;opacity:0.3;"/>
  <text x="237.0" y="10.0" transform="matrix(6.123233995736766E-17,-1.0,1.0,6.123233995736766E-17,227.0,247.0)" style="font-size:1.0000000000000013px;">National Center</text>
  <rect x="238.0" y="-6.0" width="1.4492753623188406" height="16.0" style="fill:cyan;opacity:0.3;"/>
  <text x="238.0" y="10.0" transform="matrix(6.123233995736766E-17,-1.0,1.0,6.123233995736766E-17,228.0,248.0)" style="font-size:1.0000000000000013px;">University Coll</text>
  <rect x="240.0" y="-6.0" width="1.4492753623188406" height="16.0" style="fill:cyan;opacity:0.3;"/>
  <text x="240.0" y="10.0" transform="matrix(6.123233995736766E-17,-1.0,1.0,6.123233995736766E-17,230.0,250.0)" style="font-size:1.0000000000000013px;">Kyushu Universi</text>
  <rect x="241.0" y="-6.0" width="1.4492753623188406" height="16.0" style="fill:cyan;opacity:0.3;"/>
  <text x="241.0" y="10.0" transform="matrix(6.123233995736766E-17,-1.0,1.0,6.123233995736766E-17,231.0,251.0)" style="font-size:1.0000000000000013px;">Bayer</text>
  <rect x="243.0" y="-6.0" width="1.4492753623188406" height="16.0" style="fill:cyan;opacity:0.3;"/>
  <text x="243.0" y="10.0" transform="matrix(6.123233995736766E-17,-1.0,1.0,6.123233995736766E-17,233.0,253.0)" style="font-size:1.0000000000000013px;">University of P</text>
  <rect x="244.0" y="-6.0" width="1.4492753623188406" height="16.0" style="fill:cyan;opacity:0.3;"/>
  <text x="244.0" y="10.0" transform="matrix(6.123233995736766E-17,-1.0,1.0,6.123233995736766E-17,234.0,254.0)" style="font-size:1.0000000000000013px;">Griffith Univer</text>
  <rect x="246.0" y="-6.0" width="1.4492753623188406" height="16.0" style="fill:cyan;opacity:0.3;"/>
  <text x="246.0" y="10.0" transform="matrix(6.123233995736766E-17,-1.0,1.0,6.123233995736766E-17,236.0,256.0)" style="font-size:1.0000000000000013px;">University of Q</text>
  <rect x="247.0" y="2.0" width="1.4492753623188406" height="8.0" style="fill:cyan;opacity:0.3;"/>
  <text x="247.0" y="10.0" transform="matrix(6.123233995736766E-17,-1.0,1.0,6.123233995736766E-17,236.99999999999997,257.0)" style="font-size:1.0000000000000013px;">Hôpitaux Univer</text>
  <rect x="249.0" y="2.0" width="1.4492753623188406" height="8.0" style="fill:cyan;opacity:0.3;"/>
  <text x="249.0" y="10.0" transform="matrix(6.123233995736766E-17,-1.0,1.0,6.123233995736766E-17,238.99999999999997,259.0)" style="font-size:1.0000000000000013px;">Konkuk Universi</text>
  <rect x="250.0" y="2.0" width="1.4492753623188406" height="8.0" style="fill:cyan;opacity:0.3;"/>
  <text x="250.0" y="10.0" transform="matrix(6.123233995736766E-17,-1.0,1.0,6.123233995736766E-17,239.99999999999997,260.0)" style="font-size:1.0000000000000013px;">Harvard Univers</text>
  <rect x="252.0" y="2.0" width="1.4492753623188406" height="8.0" style="fill:cyan;opacity:0.3;"/>
  <text x="252.0" y="10.0" transform="matrix(6.123233995736766E-17,-1.0,1.0,6.123233995736766E-17,241.99999999999997,262.0)" style="font-size:1.0000000000000013px;">Dartmouth Colle</text>
  <rect x="253.0" y="2.0" width="1.4492753623188406" height="8.0" style="fill:cyan;opacity:0.3;"/>
  <text x="253.0" y="10.0" transform="matrix(6.123233995736766E-17,-1.0,1.0,6.123233995736766E-17,242.99999999999997,263.0)" style="font-size:1.0000000000000013px;">City College of</text>
  <rect x="254.0" y="2.0" width="1.4492753623188406" height="8.0" style="fill:cyan;opacity:0.3;"/>
  <text x="254.0" y="10.0" transform="matrix(6.123233995736766E-17,-1.0,1.0,6.123233995736766E-17,243.99999999999997,264.0)" style="font-size:1.0000000000000013px;">American Colleg</text>
  <rect x="256.0" y="2.0" width="1.4492753623188406" height="8.0" style="fill:cyan;opacity:0.3;"/>
  <text x="256.0" y="10.0" transform="matrix(6.123233995736766E-17,-1.0,1.0,6.123233995736766E-17,245.99999999999997,266.0)" style="font-size:1.0000000000000013px;">American Colleg</text>
  <rect x="257.0" y="2.0" width="1.4492753623188406" height="8.0" style="fill:cyan;opacity:0.3;"/>
  <text x="257.0" y="10.0" transform="matrix(6.123233995736766E-17,-1.0,1.0,6.123233995736766E-17,246.99999999999997,267.0)" style="font-size:1.0000000000000013px;">Istituto Superi</text>
  <rect x="259.0" y="2.0" width="1.4492753623188406" height="8.0" style="fill:cyan;opacity:0.3;"/>
  <text x="259.0" y="10.0" transform="matrix(6.123233995736766E-17,-1.0,1.0,6.123233995736766E-17,248.99999999999997,269.0)" style="font-size:1.0000000000000013px;">British Medical</text>
  <rect x="260.0" y="2.0" width="1.4492753623188406" height="8.0" style="fill:cyan;opacity:0.3;"/>
  <text x="260.0" y="10.0" transform="matrix(6.123233995736766E-17,-1.0,1.0,6.123233995736766E-17,249.99999999999997,270.0)" style="font-size:1.0000000000000013px;">Ontario Brain I</text>
  <rect x="262.0" y="2.0" width="1.4492753623188406" height="8.0" style="fill:cyan;opacity:0.3;"/>
  <text x="262.0" y="10.0" transform="matrix(6.123233995736766E-17,-1.0,1.0,6.123233995736766E-17,251.99999999999997,272.0)" style="font-size:1.0000000000000013px;">Centers for Dis</text>
  <rect x="263.0" y="2.0" width="1.4492753623188406" height="8.0" style="fill:cyan;opacity:0.3;"/>
  <text x="263.0" y="10.0" transform="matrix(6.123233995736766E-17,-1.0,1.0,6.123233995736766E-17,252.99999999999997,273.0)" style="font-size:1.0000000000000013px;">Aristotle Unive</text>
  <rect x="265.0" y="2.0" width="1.4492753623188406" height="8.0" style="fill:cyan;opacity:0.3;"/>
  <text x="265.0" y="10.0" transform="matrix(6.123233995736766E-17,-1.0,1.0,6.123233995736766E-17,254.99999999999997,275.0)" style="font-size:1.0000000000000013px;">Catholic Univer</text>
  <rect x="266.0" y="2.0" width="1.4492753623188406" height="8.0" style="fill:cyan;opacity:0.3;"/>
  <text x="266.0" y="10.0" transform="matrix(6.123233995736766E-17,-1.0,1.0,6.123233995736766E-17,255.99999999999997,276.0)" style="font-size:1.0000000000000013px;">Nanyang Technol</text>
  <rect x="267.0" y="2.0" width="1.4492753623188406" height="8.0" style="fill:cyan;opacity:0.3;"/>
  <text x="267.0" y="10.0" transform="matrix(6.123233995736766E-17,-1.0,1.0,6.123233995736766E-17,257.0,277.0)" style="font-size:1.0000000000000013px;">University of V</text>
  <rect x="269.0" y="2.0" width="1.4492753623188406" height="8.0" style="fill:cyan;opacity:0.3;"/>
  <text x="269.0" y="10.0" transform="matrix(6.123233995736766E-17,-1.0,1.0,6.123233995736766E-17,259.0,279.0)" style="font-size:1.0000000000000013px;">Great Ormond St</text>
  <rect x="270.0" y="2.0" width="1.4492753623188406" height="8.0" style="fill:cyan;opacity:0.3;"/>
  <text x="270.0" y="10.0" transform="matrix(6.123233995736766E-17,-1.0,1.0,6.123233995736766E-17,260.0,280.0)" style="font-size:1.0000000000000013px;">Project Managem</text>
  <rect x="272.0" y="2.0" width="1.4492753623188406" height="8.0" style="fill:cyan;opacity:0.3;"/>
  <text x="272.0" y="10.0" transform="matrix(6.123233995736766E-17,-1.0,1.0,6.123233995736766E-17,262.0,282.0)" style="font-size:1.0000000000000013px;">Neurofibromatos</text>
  <rect x="273.0" y="2.0" width="1.4492753623188406" height="8.0" style="fill:cyan;opacity:0.3;"/>
  <text x="273.0" y="10.0" transform="matrix(6.123233995736766E-17,-1.0,1.0,6.123233995736766E-17,263.0,283.0)" style="font-size:1.0000000000000013px;">University of S</text>
  <rect x="275.0" y="2.0" width="1.4492753623188406" height="8.0" style="fill:cyan;opacity:0.3;"/>
  <text x="275.0" y="10.0" transform="matrix(6.123233995736766E-17,-1.0,1.0,6.123233995736766E-17,265.0,285.0)" style="font-size:1.0000000000000013px;">Shanghai Jiao T</text>
  <rect x="276.0" y="2.0" width="1.4492753623188406" height="8.0" style="fill:cyan;opacity:0.3;"/>
  <text x="276.0" y="10.0" transform="matrix(6.123233995736766E-17,-1.0,1.0,6.123233995736766E-17,266.0,286.0)" style="font-size:1.0000000000000013px;">Central South U</text>
  <rect x="278.0" y="2.0" width="1.4492753623188406" height="8.0" style="fill:cyan;opacity:0.3;"/>
  <text x="278.0" y="10.0" transform="matrix(6.123233995736766E-17,-1.0,1.0,6.123233995736766E-17,268.0,288.0)" style="font-size:1.0000000000000013px;">Hallym Universi</text>
  <rect x="279.0" y="2.0" width="1.4492753623188406" height="8.0" style="fill:cyan;opacity:0.3;"/>
  <text x="279.0" y="10.0" transform="matrix(6.123233995736766E-17,-1.0,1.0,6.123233995736766E-17,269.0,289.0)" style="font-size:1.0000000000000013px;">University of T</text>
  <rect x="281.0" y="2.0" width="1.4492753623188406" height="8.0" style="fill:cyan;opacity:0.3;"/>
  <text x="281.0" y="10.0" transform="matrix(6.123233995736766E-17,-1.0,1.0,6.123233995736766E-17,271.0,291.0)" style="font-size:1.0000000000000013px;">Children's Hosp</text>
  <rect x="282.0" y="2.0" width="1.4492753623188406" height="8.0" style="fill:cyan;opacity:0.3;"/>
  <text x="282.0" y="10.0" transform="matrix(6.123233995736766E-17,-1.0,1.0,6.123233995736766E-17,272.0,292.0)" style="font-size:1.0000000000000013px;">Università degl</text>
  <rect x="283.0" y="2.0" width="1.4492753623188406" height="8.0" style="fill:cyan;opacity:0.3;"/>
  <text x="283.0" y="10.0" transform="matrix(6.123233995736766E-17,-1.0,1.0,6.123233995736766E-17,273.0,293.0)" style="font-size:1.0000000000000013px;">GE Healthcare,</text>
  <rect x="285.0" y="2.0" width="1.4492753623188406" height="8.0" style="fill:cyan;opacity:0.3;"/>
  <text x="285.0" y="10.0" transform="matrix(6.123233995736766E-17,-1.0,1.0,6.123233995736766E-17,275.0,295.0)" style="font-size:1.0000000000000013px;">Università degl</text>
  <rect x="286.0" y="2.0" width="1.4492753623188406" height="8.0" style="fill:cyan;opacity:0.3;"/>
  <text x="286.0" y="10.0" transform="matrix(6.123233995736766E-17,-1.0,1.0,6.123233995736766E-17,276.0,296.0)" style="font-size:1.0000000000000013px;">Multiple Sclero</text>
  <rect x="288.0" y="2.0" width="1.4492753623188406" height="8.0" style="fill:cyan;opacity:0.3;"/>
  <text x="288.0" y="10.0" transform="matrix(6.123233995736766E-17,-1.0,1.0,6.123233995736766E-17,278.0,298.0)" style="font-size:1.0000000000000013px;">British Thoraci</text>
  <rect x="289.0" y="2.0" width="1.4492753623188406" height="8.0" style="fill:cyan;opacity:0.3;"/>
  <text x="289.0" y="10.0" transform="matrix(6.123233995736766E-17,-1.0,1.0,6.123233995736766E-17,279.0,299.0)" style="font-size:1.0000000000000013px;">Fondazione Umbe</text>
  <rect x="291.0" y="2.0" width="1.4492753623188406" height="8.0" style="fill:cyan;opacity:0.3;"/>
  <text x="291.0" y="10.0" transform="matrix(6.123233995736766E-17,-1.0,1.0,6.123233995736766E-17,281.0,301.0)" style="font-size:1.0000000000000013px;">National Center</text>
  <rect x="292.0" y="2.0" width="1.4492753623188406" height="8.0" style="fill:cyan;opacity:0.3;"/>
  <text x="292.0" y="10.0" transform="matrix(6.123233995736766E-17,-1.0,1.0,6.123233995736766E-17,282.0,302.0)" style="font-size:1.0000000000000013px;">National Center</text>
  <rect x="294.0" y="2.0" width="1.4492753623188406" height="8.0" style="fill:cyan;opacity:0.3;"/>
  <text x="294.0" y="10.0" transform="matrix(6.123233995736766E-17,-1.0,1.0,6.123233995736766E-17,284.0,304.0)" style="font-size:1.0000000000000013px;">University of C</text>
  <rect x="295.0" y="2.0" width="1.4492753623188406" height="8.0" style="fill:cyan;opacity:0.3;"/>
  <text x="295.0" y="10.0" transform="matrix(6.123233995736766E-17,-1.0,1.0,6.123233995736766E-17,285.0,305.0)" style="font-size:1.0000000000000013px;">Emory Universit</text>
  <rect x="296.0" y="2.0" width="1.4492753623188406" height="8.0" style="fill:cyan;opacity:0.3;"/>
  <text x="296.0" y="10.0" transform="matrix(6.123233995736766E-17,-1.0,1.0,6.123233995736766E-17,286.0,306.0)" style="font-size:1.0000000000000013px;">Substance Abuse</text>
  <rect x="298.0" y="2.0" width="1.4492753623188406" height="8.0" style="fill:cyan;opacity:0.3;"/>
  <text x="298.0" y="10.0" transform="matrix(6.123233995736766E-17,-1.0,1.0,6.123233995736766E-17,288.0,308.0)" style="font-size:1.0000000000000013px;">Department of H</text>
  <rect x="299.0" y="2.0" width="1.4492753623188406" height="8.0" style="fill:cyan;opacity:0.3;"/>
  <text x="299.0" y="10.0" transform="matrix(6.123233995736766E-17,-1.0,1.0,6.123233995736766E-17,289.0,309.0)" style="font-size:1.0000000000000013px;">Seoul National </text>
  <rect x="301.0" y="2.0" width="1.4492753623188406" height="8.0" style="fill:cyan;opacity:0.3;"/>
  <text x="301.0" y="10.0" transform="matrix(6.123233995736766E-17,-1.0,1.0,6.123233995736766E-17,291.0,311.0)" style="font-size:1.0000000000000013px;">Medical College</text>
  <rect x="302.0" y="2.0" width="1.4492753623188406" height="8.0" style="fill:cyan;opacity:0.3;"/>
  <text x="302.0" y="10.0" transform="matrix(6.123233995736766E-17,-1.0,1.0,6.123233995736766E-17,292.0,312.0)" style="font-size:1.0000000000000013px;">American Academ</text>
  <rect x="304.0" y="2.0" width="1.4492753623188406" height="8.0" style="fill:cyan;opacity:0.3;"/>
  <text x="304.0" y="10.0" transform="matrix(6.123233995736766E-17,-1.0,1.0,6.123233995736766E-17,294.0,314.0)" style="font-size:1.0000000000000013px;">Osaka Universit</text>
  <rect x="305.0" y="2.0" width="1.4492753623188406" height="8.0" style="fill:cyan;opacity:0.3;"/>
  <text x="305.0" y="10.0" transform="matrix(6.123233995736766E-17,-1.0,1.0,6.123233995736766E-17,295.0,315.0)" style="font-size:1.0000000000000013px;">Washington Univ</text>
  <rect x="307.0" y="2.0" width="1.4492753623188406" height="8.0" style="fill:cyan;opacity:0.3;"/>
  <text x="307.0" y="10.0" transform="matrix(6.123233995736766E-17,-1.0,1.0,6.123233995736766E-17,297.0,317.0)" style="font-size:1.0000000000000013px;">Warwick Medical</text>
  <rect x="308.0" y="2.0" width="1.4492753623188406" height="8.0" style="fill:cyan;opacity:0.3;"/>
  <text x="308.0" y="10.0" transform="matrix(6.123233995736766E-17,-1.0,1.0,6.123233995736766E-17,298.0,318.0)" style="font-size:1.0000000000000013px;">University of W</text>
  <rect x="310.0" y="2.0" width="1.4492753623188406" height="8.0" style="fill:cyan;opacity:0.3;"/>
  <text x="310.0" y="10.0" transform="matrix(6.123233995736766E-17,-1.0,1.0,6.123233995736766E-17,300.0,320.0)" style="font-size:1.0000000000000013px;">University of C</text>
  <rect x="311.0" y="2.0" width="1.4492753623188406" height="8.0" style="fill:cyan;opacity:0.3;"/>
  <text x="311.0" y="10.0" transform="matrix(6.123233995736766E-17,-1.0,1.0,6.123233995736766E-17,301.0,321.0)" style="font-size:1.0000000000000013px;">Karolinska Inst</text>
  <rect x="312.0" y="2.0" width="1.4492753623188406" height="8.0" style="fill:cyan;opacity:0.3;"/>
  <text x="312.0" y="10.0" transform="matrix(6.123233995736766E-17,-1.0,1.0,6.123233995736766E-17,302.0,322.0)" style="font-size:1.0000000000000013px;">Fondazione IRCC</text>
  <rect x="314.0" y="2.0" width="1.4492753623188406" height="8.0" style="fill:cyan;opacity:0.3;"/>
  <text x="314.0" y="10.0" transform="matrix(6.123233995736766E-17,-1.0,1.0,6.123233995736766E-17,304.0,324.0)" style="font-size:1.0000000000000013px;">American Academ</text>
  <rect x="315.0" y="2.0" width="1.4492753623188406" height="8.0" style="fill:cyan;opacity:0.3;"/>
  <text x="315.0" y="10.0" transform="matrix(6.123233995736766E-17,-1.0,1.0,6.123233995736766E-17,305.0,325.0)" style="font-size:1.0000000000000013px;">College of Libe</text>
  <rect x="317.0" y="2.0" width="1.4492753623188406" height="8.0" style="fill:cyan;opacity:0.3;"/>
  <text x="317.0" y="10.0" transform="matrix(6.123233995736766E-17,-1.0,1.0,6.123233995736766E-17,307.0,327.0)" style="font-size:1.0000000000000013px;">Dongguk Univers</text>
  <rect x="318.0" y="2.0" width="1.4492753623188406" height="8.0" style="fill:cyan;opacity:0.3;"/>
  <text x="318.0" y="10.0" transform="matrix(6.123233995736766E-17,-1.0,1.0,6.123233995736766E-17,308.0,328.0)" style="font-size:1.0000000000000013px;">American Music </text>
  <rect x="320.0" y="2.0" width="1.4492753623188406" height="8.0" style="fill:cyan;opacity:0.3;"/>
  <text x="320.0" y="10.0" transform="matrix(6.123233995736766E-17,-1.0,1.0,6.123233995736766E-17,310.0,330.0)" style="font-size:1.0000000000000013px;">American Academ</text>
  <rect x="321.0" y="2.0" width="1.4492753623188406" height="8.0" style="fill:cyan;opacity:0.3;"/>
  <text x="321.0" y="10.0" transform="matrix(6.123233995736766E-17,-1.0,1.0,6.123233995736766E-17,311.0,331.0)" style="font-size:1.0000000000000013px;">University of K</text>
  <rect x="323.0" y="2.0" width="1.4492753623188406" height="8.0" style="fill:cyan;opacity:0.3;"/>
  <text x="323.0" y="10.0" transform="matrix(6.123233995736766E-17,-1.0,1.0,6.123233995736766E-17,313.0,333.0)" style="font-size:1.0000000000000013px;">Ministry of Hea</text>
  <rect x="324.0" y="2.0" width="1.4492753623188406" height="8.0" style="fill:cyan;opacity:0.3;"/>
  <text x="324.0" y="10.0" transform="matrix(6.123233995736766E-17,-1.0,1.0,6.123233995736766E-17,314.0,334.0)" style="font-size:1.0000000000000013px;">Université de B</text>
  <rect x="325.0" y="2.0" width="1.4492753623188406" height="8.0" style="fill:cyan;opacity:0.3;"/>
  <text x="325.0" y="10.0" transform="matrix(6.123233995736766E-17,-1.0,1.0,6.123233995736766E-17,315.0,335.0)" style="font-size:1.0000000000000013px;">University of V</text>
  <rect x="327.0" y="2.0" width="1.4492753623188406" height="8.0" style="fill:cyan;opacity:0.3;"/>
  <text x="327.0" y="10.0" transform="matrix(6.123233995736766E-17,-1.0,1.0,6.123233995736766E-17,317.0,337.0)" style="font-size:1.0000000000000013px;">Universitat de </text>
  <rect x="328.0" y="2.0" width="1.4492753623188406" height="8.0" style="fill:cyan;opacity:0.3;"/>
  <text x="328.0" y="10.0" transform="matrix(6.123233995736766E-17,-1.0,1.0,6.123233995736766E-17,318.0,338.0)" style="font-size:1.0000000000000013px;">Chung-Ang Unive</text>
  <rect x="330.0" y="2.0" width="1.4492753623188406" height="8.0" style="fill:cyan;opacity:0.3;"/>
  <text x="330.0" y="10.0" transform="matrix(6.123233995736766E-17,-1.0,1.0,6.123233995736766E-17,320.0,340.0)" style="font-size:1.0000000000000013px;">Aston Universit</text>
  <rect x="331.0" y="2.0" width="1.4492753623188406" height="8.0" style="fill:cyan;opacity:0.3;"/>
  <text x="331.0" y="10.0" transform="matrix(6.123233995736766E-17,-1.0,1.0,6.123233995736766E-17,321.0,341.0)" style="font-size:1.0000000000000013px;">Hunter Medical </text>
  <rect x="333.0" y="2.0" width="1.4492753623188406" height="8.0" style="fill:cyan;opacity:0.3;"/>
  <text x="333.0" y="10.0" transform="matrix(6.123233995736766E-17,-1.0,1.0,6.123233995736766E-17,323.0,343.0)" style="font-size:1.0000000000000013px;">Ewha Womans Uni</text>
  <rect x="334.0" y="2.0" width="1.4492753623188406" height="8.0" style="fill:cyan;opacity:0.3;"/>
  <text x="334.0" y="10.0" transform="matrix(6.123233995736766E-17,-1.0,1.0,6.123233995736766E-17,324.0,344.0)" style="font-size:1.0000000000000013px;">Technische Univ</text>
  <rect x="336.0" y="2.0" width="1.4492753623188406" height="8.0" style="fill:cyan;opacity:0.3;"/>
  <text x="336.0" y="10.0" transform="matrix(6.123233995736766E-17,-1.0,1.0,6.123233995736766E-17,326.0,346.0)" style="font-size:1.0000000000000013px;">Kaiser Permanen</text>
  <rect x="337.0" y="2.0" width="1.4492753623188406" height="8.0" style="fill:cyan;opacity:0.3;"/>
  <text x="337.0" y="10.0" transform="matrix(6.123233995736766E-17,-1.0,1.0,6.123233995736766E-17,327.0,347.0)" style="font-size:1.0000000000000013px;">Karolinska Inst</text>
  <rect x="338.0" y="2.0" width="1.4492753623188406" height="8.0" style="fill:cyan;opacity:0.3;"/>
  <text x="338.0" y="10.0" transform="matrix(6.123233995736766E-17,-1.0,1.0,6.123233995736766E-17,328.0,348.0)" style="font-size:1.0000000000000013px;">Oncology Nursin</text>
  <rect x="340.0" y="2.0" width="1.4492753623188406" height="8.0" style="fill:cyan;opacity:0.3;"/>
  <text x="340.0" y="10.0" transform="matrix(6.123233995736766E-17,-1.0,1.0,6.123233995736766E-17,330.0,350.0)" style="font-size:1.0000000000000013px;">Università degl</text>
  <rect x="341.0" y="2.0" width="1.4492753623188406" height="8.0" style="fill:cyan;opacity:0.3;"/>
  <text x="341.0" y="10.0" transform="matrix(6.123233995736766E-17,-1.0,1.0,6.123233995736766E-17,331.0,351.0)" style="font-size:1.0000000000000013px;">Solve ME/CFS In</text>
  <rect x="343.0" y="2.0" width="1.4492753623188406" height="8.0" style="fill:cyan;opacity:0.3;"/>
  <text x="343.0" y="10.0" transform="matrix(6.123233995736766E-17,-1.0,1.0,6.123233995736766E-17,333.0,353.0)" style="font-size:1.0000000000000013px;">Weizmann Instit</text>
  <rect x="344.0" y="2.0" width="1.4492753623188406" height="8.0" style="fill:cyan;opacity:0.3;"/>
  <text x="344.0" y="10.0" transform="matrix(6.123233995736766E-17,-1.0,1.0,6.123233995736766E-17,334.0,354.0)" style="font-size:1.0000000000000013px;">National Associ</text>
  <rect x="346.0" y="2.0" width="1.4492753623188406" height="8.0" style="fill:cyan;opacity:0.3;"/>
  <text x="346.0" y="10.0" transform="matrix(6.123233995736766E-17,-1.0,1.0,6.123233995736766E-17,336.0,356.0)" style="font-size:1.0000000000000013px;">Imperial Colleg</text>
  <rect x="347.0" y="2.0" width="1.4492753623188406" height="8.0" style="fill:cyan;opacity:0.3;"/>
  <text x="347.0" y="10.0" transform="matrix(6.123233995736766E-17,-1.0,1.0,6.123233995736766E-17,337.0,357.0)" style="font-size:1.0000000000000013px;">Thomas Jefferso</text>
  <rect x="349.0" y="2.0" width="1.4492753623188406" height="8.0" style="fill:cyan;opacity:0.3;"/>
  <text x="349.0" y="10.0" transform="matrix(6.123233995736766E-17,-1.0,1.0,6.123233995736766E-17,339.0,359.0)" style="font-size:1.0000000000000013px;">University of W</text>
  <rect x="350.0" y="2.0" width="1.4492753623188406" height="8.0" style="fill:cyan;opacity:0.3;"/>
  <text x="350.0" y="10.0" transform="matrix(6.123233995736766E-17,-1.0,1.0,6.123233995736766E-17,340.0,360.0)" style="font-size:1.0000000000000013px;">Arts Council En</text>
  <rect x="352.0" y="2.0" width="1.4492753623188406" height="8.0" style="fill:cyan;opacity:0.3;"/>
  <text x="352.0" y="10.0" transform="matrix(6.123233995736766E-17,-1.0,1.0,6.123233995736766E-17,342.0,362.0)" style="font-size:1.0000000000000013px;">North Bristol N</text>
  <rect x="353.0" y="2.0" width="1.4492753623188406" height="8.0" style="fill:cyan;opacity:0.3;"/>
  <text x="353.0" y="10.0" transform="matrix(6.123233995736766E-17,-1.0,1.0,6.123233995736766E-17,343.0,363.0)" style="font-size:1.0000000000000013px;">Universidade de</text>
  <rect x="354.0" y="2.0" width="1.4492753623188406" height="8.0" style="fill:cyan;opacity:0.3;"/>
  <text x="354.0" y="10.0" transform="matrix(6.123233995736766E-17,-1.0,1.0,6.123233995736766E-17,344.0,364.0)" style="font-size:1.0000000000000013px;">Ohio State Univ</text>
  <rect x="356.0" y="2.0" width="1.4492753623188406" height="8.0" style="fill:cyan;opacity:0.3;"/>
  <text x="356.0" y="10.0" transform="matrix(6.123233995736766E-17,-1.0,1.0,6.123233995736766E-17,346.0,366.0)" style="font-size:1.0000000000000013px;">Pfizer</text>
  <rect x="357.0" y="2.0" width="1.4492753623188406" height="8.0" style="fill:cyan;opacity:0.3;"/>
  <text x="357.0" y="10.0" transform="matrix(6.123233995736766E-17,-1.0,1.0,6.123233995736766E-17,347.0,367.0)" style="font-size:1.0000000000000013px;">National Instit</text>
  <rect x="359.0" y="2.0" width="1.4492753623188406" height="8.0" style="fill:cyan;opacity:0.3;"/>
  <text x="359.0" y="10.0" transform="matrix(6.123233995736766E-17,-1.0,1.0,6.123233995736766E-17,349.0,369.0)" style="font-size:1.0000000000000013px;">Aflac</text>
  <rect x="360.0" y="2.0" width="1.4492753623188406" height="8.0" style="fill:cyan;opacity:0.3;"/>
  <text x="360.0" y="10.0" transform="matrix(6.123233995736766E-17,-1.0,1.0,6.123233995736766E-17,350.0,370.0)" style="font-size:1.0000000000000013px;">Tel Aviv Univer</text>
  <rect x="362.0" y="2.0" width="1.4492753623188406" height="8.0" style="fill:cyan;opacity:0.3;"/>
  <text x="362.0" y="10.0" transform="matrix(6.123233995736766E-17,-1.0,1.0,6.123233995736766E-17,352.0,372.0)" style="font-size:1.0000000000000013px;">National Cancer</text>
  <rect x="363.0" y="2.0" width="1.4492753623188406" height="8.0" style="fill:cyan;opacity:0.3;"/>
  <text x="363.0" y="10.0" transform="matrix(6.123233995736766E-17,-1.0,1.0,6.123233995736766E-17,353.0,373.0)" style="font-size:1.0000000000000013px;">Università di C</text>
  <rect x="365.0" y="2.0" width="1.4492753623188406" height="8.0" style="fill:cyan;opacity:0.3;"/>
  <text x="365.0" y="10.0" transform="matrix(6.123233995736766E-17,-1.0,1.0,6.123233995736766E-17,355.0,375.0)" style="font-size:1.0000000000000013px;">Fudan Universit</text>
  <rect x="366.0" y="2.0" width="1.4492753623188406" height="8.0" style="fill:cyan;opacity:0.3;"/>
  <text x="366.0" y="10.0" transform="matrix(6.123233995736766E-17,-1.0,1.0,6.123233995736766E-17,356.0,376.0)" style="font-size:1.0000000000000013px;">Agency for Heal</text>
  <rect x="367.0" y="2.0" width="1.4492753623188406" height="8.0" style="fill:cyan;opacity:0.3;"/>
  <text x="367.0" y="10.0" transform="matrix(6.123233995736766E-17,-1.0,1.0,6.123233995736766E-17,357.0,377.0)" style="font-size:1.0000000000000013px;">University of O</text>
  <rect x="369.0" y="2.0" width="1.4492753623188406" height="8.0" style="fill:cyan;opacity:0.3;"/>
  <text x="369.0" y="10.0" transform="matrix(6.123233995736766E-17,-1.0,1.0,6.123233995736766E-17,359.0,379.0)" style="font-size:1.0000000000000013px;">Consiglio Nazio</text>
  <rect x="370.0" y="2.0" width="1.4492753623188406" height="8.0" style="fill:cyan;opacity:0.3;"/>
  <text x="370.0" y="10.0" transform="matrix(6.123233995736766E-17,-1.0,1.0,6.123233995736766E-17,360.0,380.0)" style="font-size:1.0000000000000013px;">National Academ</text>
  <rect x="372.0" y="2.0" width="1.4492753623188406" height="8.0" style="fill:cyan;opacity:0.3;"/>
  <text x="372.0" y="10.0" transform="matrix(6.123233995736766E-17,-1.0,1.0,6.123233995736766E-17,362.0,382.0)" style="font-size:1.0000000000000013px;">Otsuka Pharmace</text>
  <rect x="373.0" y="2.0" width="1.4492753623188406" height="8.0" style="fill:cyan;opacity:0.3;"/>
  <text x="373.0" y="10.0" transform="matrix(6.123233995736766E-17,-1.0,1.0,6.123233995736766E-17,363.0,383.0)" style="font-size:1.0000000000000013px;">University of N</text>
  <rect x="375.0" y="2.0" width="1.4492753623188406" height="8.0" style="fill:cyan;opacity:0.3;"/>
  <text x="375.0" y="10.0" transform="matrix(6.123233995736766E-17,-1.0,1.0,6.123233995736766E-17,365.0,385.0)" style="font-size:1.0000000000000013px;">National Cancer</text>
  <rect x="376.0" y="2.0" width="1.4492753623188406" height="8.0" style="fill:cyan;opacity:0.3;"/>
  <text x="376.0" y="10.0" transform="matrix(6.123233995736766E-17,-1.0,1.0,6.123233995736766E-17,366.0,386.0)" style="font-size:1.0000000000000013px;">Chiang Mai Univ</text>
  <rect x="378.0" y="2.0" width="1.4492753623188406" height="8.0" style="fill:cyan;opacity:0.3;"/>
  <text x="378.0" y="10.0" transform="matrix(6.123233995736766E-17,-1.0,1.0,6.123233995736766E-17,368.0,388.0)" style="font-size:1.0000000000000013px;">Queensland Brai</text>
  <rect x="379.0" y="2.0" width="1.4492753623188406" height="8.0" style="fill:cyan;opacity:0.3;"/>
  <text x="379.0" y="10.0" transform="matrix(6.123233995736766E-17,-1.0,1.0,6.123233995736766E-17,369.0,389.0)" style="font-size:1.0000000000000013px;">Emory Universit</text>
  <rect x="381.0" y="2.0" width="1.4492753623188406" height="8.0" style="fill:cyan;opacity:0.3;"/>
  <text x="381.0" y="10.0" transform="matrix(6.123233995736766E-17,-1.0,1.0,6.123233995736766E-17,371.0,391.0)" style="font-size:1.0000000000000013px;">Russian Academy</text>
  <rect x="382.0" y="2.0" width="1.4492753623188406" height="8.0" style="fill:cyan;opacity:0.3;"/>
  <text x="382.0" y="10.0" transform="matrix(6.123233995736766E-17,-1.0,1.0,6.123233995736766E-17,372.0,392.0)" style="font-size:1.0000000000000013px;">University of I</text>
  <rect x="383.0" y="2.0" width="1.4492753623188406" height="8.0" style="fill:cyan;opacity:0.3;"/>
  <text x="383.0" y="10.0" transform="matrix(6.123233995736766E-17,-1.0,1.0,6.123233995736766E-17,373.0,393.0)" style="font-size:1.0000000000000013px;">Beth Israel Dea</text>
  <rect x="385.0" y="2.0" width="1.4492753623188406" height="8.0" style="fill:cyan;opacity:0.3;"/>
  <text x="385.0" y="10.0" transform="matrix(6.123233995736766E-17,-1.0,1.0,6.123233995736766E-17,375.0,395.0)" style="font-size:1.0000000000000013px;">Hasbro</text>
  <rect x="386.0" y="2.0" width="1.4492753623188406" height="8.0" style="fill:cyan;opacity:0.3;"/>
  <text x="386.0" y="10.0" transform="matrix(6.123233995736766E-17,-1.0,1.0,6.123233995736766E-17,376.0,396.0)" style="font-size:1.0000000000000013px;">Bar-Ilan Univer</text>
  <rect x="388.0" y="2.0" width="1.4492753623188406" height="8.0" style="fill:cyan;opacity:0.3;"/>
  <text x="388.0" y="10.0" transform="matrix(6.123233995736766E-17,-1.0,1.0,6.123233995736766E-17,378.0,398.0)" style="font-size:1.0000000000000013px;">Università Catt</text>
  <rect x="389.0" y="2.0" width="1.4492753623188406" height="8.0" style="fill:cyan;opacity:0.3;"/>
  <text x="389.0" y="10.0" transform="matrix(6.123233995736766E-17,-1.0,1.0,6.123233995736766E-17,379.0,399.0)" style="font-size:1.0000000000000013px;">Commonwealth Fu</text>
  <rect x="391.0" y="2.0" width="1.4492753623188406" height="8.0" style="fill:cyan;opacity:0.3;"/>
  <text x="391.0" y="10.0" transform="matrix(6.123233995736766E-17,-1.0,1.0,6.123233995736766E-17,381.0,401.0)" style="font-size:1.0000000000000013px;">Hunter Medical </text>
  <rect x="392.0" y="2.0" width="1.4492753623188406" height="8.0" style="fill:cyan;opacity:0.3;"/>
  <text x="392.0" y="10.0" transform="matrix(6.123233995736766E-17,-1.0,1.0,6.123233995736766E-17,382.0,402.0)" style="font-size:1.0000000000000013px;">University of S</text>
  <rect x="394.0" y="2.0" width="1.4492753623188406" height="8.0" style="fill:cyan;opacity:0.3;"/>
  <text x="394.0" y="10.0" transform="matrix(6.123233995736766E-17,-1.0,1.0,6.123233995736766E-17,384.0,404.0)" style="font-size:1.0000000000000013px;">Society for Neu</text>
  <rect x="395.0" y="2.0" width="1.4492753623188406" height="8.0" style="fill:cyan;opacity:0.3;"/>
  <text x="395.0" y="10.0" transform="matrix(6.123233995736766E-17,-1.0,1.0,6.123233995736766E-17,385.0,405.0)" style="font-size:1.0000000000000013px;">European Associ</text>
  <rect x="396.0" y="2.0" width="1.4492753623188406" height="8.0" style="fill:cyan;opacity:0.3;"/>
  <text x="396.0" y="10.0" transform="matrix(6.123233995736766E-17,-1.0,1.0,6.123233995736766E-17,386.0,406.0)" style="font-size:1.0000000000000013px;">Migraine Trust</text>
  <rect x="398.0" y="2.0" width="1.4492753623188406" height="8.0" style="fill:cyan;opacity:0.3;"/>
  <text x="398.0" y="10.0" transform="matrix(6.123233995736766E-17,-1.0,1.0,6.123233995736766E-17,388.0,408.0)" style="font-size:1.0000000000000013px;">Dartmouth-Hitch</text>
  <rect x="399.0" y="2.0" width="1.4492753623188406" height="8.0" style="fill:cyan;opacity:0.3;"/>
  <text x="399.0" y="10.0" transform="matrix(6.123233995736766E-17,-1.0,1.0,6.123233995736766E-17,389.0,409.0)" style="font-size:1.0000000000000013px;">Patient-Centere</text>
  <rect x="401.0" y="2.0" width="1.4492753623188406" height="8.0" style="fill:cyan;opacity:0.3;"/>
  <text x="401.0" y="10.0" transform="matrix(6.123233995736766E-17,-1.0,1.0,6.123233995736766E-17,391.0,411.0)" style="font-size:1.0000000000000013px;">University of Q</text>
  <rect x="402.0" y="2.0" width="1.4492753623188406" height="8.0" style="fill:cyan;opacity:0.3;"/>
  <text x="402.0" y="10.0" transform="matrix(6.123233995736766E-17,-1.0,1.0,6.123233995736766E-17,392.0,412.0)" style="font-size:1.0000000000000013px;">American Cleft </text>
  <rect x="404.0" y="2.0" width="1.4492753623188406" height="8.0" style="fill:cyan;opacity:0.3;"/>
  <text x="404.0" y="10.0" transform="matrix(6.123233995736766E-17,-1.0,1.0,6.123233995736766E-17,394.0,414.0)" style="font-size:1.0000000000000013px;">University of M</text>
  <rect x="405.0" y="2.0" width="1.4492753623188406" height="8.0" style="fill:cyan;opacity:0.3;"/>
  <text x="405.0" y="10.0" transform="matrix(6.123233995736766E-17,-1.0,1.0,6.123233995736766E-17,395.0,415.0)" style="font-size:1.0000000000000013px;">Soonchunhyang U</text>
  <rect x="407.0" y="2.0" width="1.4492753623188406" height="8.0" style="fill:cyan;opacity:0.3;"/>
  <text x="407.0" y="10.0" transform="matrix(6.123233995736766E-17,-1.0,1.0,6.123233995736766E-17,397.0,417.0)" style="font-size:1.0000000000000013px;">Università degl</text>
  <rect x="408.0" y="2.0" width="1.4492753623188406" height="8.0" style="fill:cyan;opacity:0.3;"/>
  <text x="408.0" y="10.0" transform="matrix(6.123233995736766E-17,-1.0,1.0,6.123233995736766E-17,398.0,418.0)" style="font-size:1.0000000000000013px;">National Medica</text>
  <rect x="410.0" y="2.0" width="1.4492753623188406" height="8.0" style="fill:cyan;opacity:0.3;"/>
  <text x="410.0" y="10.0" transform="matrix(6.123233995736766E-17,-1.0,1.0,6.123233995736766E-17,400.0,420.0)" style="font-size:1.0000000000000013px;">University of M</text>
  <rect x="411.0" y="2.0" width="1.4492753623188406" height="8.0" style="fill:cyan;opacity:0.3;"/>
  <text x="411.0" y="10.0" transform="matrix(6.123233995736766E-17,-1.0,1.0,6.123233995736766E-17,401.0,421.0)" style="font-size:1.0000000000000013px;">Sungkyunkwan Un</text>
  <rect x="412.0" y="2.0" width="1.4492753623188406" height="8.0" style="fill:cyan;opacity:0.3;"/>
  <text x="412.0" y="10.0" transform="matrix(6.123233995736766E-17,-1.0,1.0,6.123233995736766E-17,402.0,422.0)" style="font-size:1.0000000000000013px;">Chonnam Nationa</text>
  <rect x="414.0" y="2.0" width="1.4492753623188406" height="8.0" style="fill:cyan;opacity:0.3;"/>
  <text x="414.0" y="10.0" transform="matrix(6.123233995736766E-17,-1.0,1.0,6.123233995736766E-17,404.0,424.0)" style="font-size:1.0000000000000013px;">Alzheimer’s Res</text>
  <rect x="415.0" y="2.0" width="1.4492753623188406" height="8.0" style="fill:cyan;opacity:0.3;"/>
  <text x="415.0" y="10.0" transform="matrix(6.123233995736766E-17,-1.0,1.0,6.123233995736766E-17,405.0,425.0)" style="font-size:1.0000000000000013px;">Health Canada,</text>
  <rect x="417.0" y="2.0" width="1.4492753623188406" height="8.0" style="fill:cyan;opacity:0.3;"/>
  <text x="417.0" y="10.0" transform="matrix(6.123233995736766E-17,-1.0,1.0,6.123233995736766E-17,407.0,427.0)" style="font-size:1.0000000000000013px;">American Psychi</text>
  <rect x="418.0" y="2.0" width="1.4492753623188406" height="8.0" style="fill:cyan;opacity:0.3;"/>
  <text x="418.0" y="10.0" transform="matrix(6.123233995736766E-17,-1.0,1.0,6.123233995736766E-17,408.0,428.0)" style="font-size:1.0000000000000013px;">American Psychi</text>
  <rect x="420.0" y="2.0" width="1.4492753623188406" height="8.0" style="fill:cyan;opacity:0.3;"/>
  <text x="420.0" y="10.0" transform="matrix(6.123233995736766E-17,-1.0,1.0,6.123233995736766E-17,410.0,430.0)" style="font-size:1.0000000000000013px;">Health Canada.</text>
  <rect x="421.0" y="2.0" width="1.4492753623188406" height="8.0" style="fill:cyan;opacity:0.3;"/>
  <text x="421.0" y="10.0" transform="matrix(6.123233995736766E-17,-1.0,1.0,6.123233995736766E-17,411.0,431.0)" style="font-size:1.0000000000000013px;">University of I</text>
  <rect x="423.0" y="2.0" width="1.4492753623188406" height="8.0" style="fill:cyan;opacity:0.3;"/>
  <text x="423.0" y="10.0" transform="matrix(6.123233995736766E-17,-1.0,1.0,6.123233995736766E-17,413.0,433.0)" style="font-size:1.0000000000000013px;">Louisiana State</text>
  <rect x="424.0" y="2.0" width="1.4492753623188406" height="8.0" style="fill:cyan;opacity:0.3;"/>
  <text x="424.0" y="10.0" transform="matrix(6.123233995736766E-17,-1.0,1.0,6.123233995736766E-17,414.0,434.0)" style="font-size:1.0000000000000013px;">Pediatric Oncol</text>
  <rect x="425.0" y="2.0" width="1.4492753623188406" height="8.0" style="fill:cyan;opacity:0.3;"/>
  <text x="425.0" y="10.0" transform="matrix(6.123233995736766E-17,-1.0,1.0,6.123233995736766E-17,415.0,435.0)" style="font-size:1.0000000000000013px;">Stanford Univer</text>
  <rect x="427.0" y="2.0" width="1.4492753623188406" height="8.0" style="fill:cyan;opacity:0.3;"/>
  <text x="427.0" y="10.0" transform="matrix(6.123233995736766E-17,-1.0,1.0,6.123233995736766E-17,417.0,437.0)" style="font-size:1.0000000000000013px;">American Psychi</text>
  <rect x="428.0" y="2.0" width="1.4492753623188406" height="8.0" style="fill:cyan;opacity:0.3;"/>
  <text x="428.0" y="10.0" transform="matrix(6.123233995736766E-17,-1.0,1.0,6.123233995736766E-17,418.0,438.0)" style="font-size:1.0000000000000013px;">Drexel Universi</text>
  <rect x="430.0" y="2.0" width="1.4492753623188406" height="8.0" style="fill:cyan;opacity:0.3;"/>
  <text x="430.0" y="10.0" transform="matrix(6.123233995736766E-17,-1.0,1.0,6.123233995736766E-17,420.0,440.0)" style="font-size:1.0000000000000013px;">Wenzhou Medical</text>
  <rect x="431.0" y="2.0" width="1.4492753623188406" height="8.0" style="fill:cyan;opacity:0.3;"/>
  <text x="431.0" y="10.0" transform="matrix(6.123233995736766E-17,-1.0,1.0,6.123233995736766E-17,421.0,441.0)" style="font-size:1.0000000000000013px;">Massachusetts G</text>
  <rect x="433.0" y="2.0" width="1.4492753623188406" height="8.0" style="fill:cyan;opacity:0.3;"/>
  <text x="433.0" y="10.0" transform="matrix(6.123233995736766E-17,-1.0,1.0,6.123233995736766E-17,423.0,443.0)" style="font-size:1.0000000000000013px;">Eulji Universit</text>
  <rect x="434.0" y="2.0" width="1.4492753623188406" height="8.0" style="fill:cyan;opacity:0.3;"/>
  <text x="434.0" y="10.0" transform="matrix(6.123233995736766E-17,-1.0,1.0,6.123233995736766E-17,424.0,444.0)" style="font-size:1.0000000000000013px;">Fondazione Ital</text>
  <rect x="436.0" y="2.0" width="1.4492753623188406" height="8.0" style="fill:cyan;opacity:0.3;"/>
  <text x="436.0" y="10.0" transform="matrix(6.123233995736766E-17,-1.0,1.0,6.123233995736766E-17,426.0,446.0)" style="font-size:1.0000000000000013px;">Utrecht Univers</text>
  <rect x="437.0" y="2.0" width="1.4492753623188406" height="8.0" style="fill:cyan;opacity:0.3;"/>
  <text x="437.0" y="10.0" transform="matrix(6.123233995736766E-17,-1.0,1.0,6.123233995736766E-17,427.0,447.0)" style="font-size:1.0000000000000013px;">University of P</text>
  <rect x="438.0" y="2.0" width="1.4492753623188406" height="8.0" style="fill:cyan;opacity:0.3;"/>
  <text x="438.0" y="10.0" transform="matrix(6.123233995736766E-17,-1.0,1.0,6.123233995736766E-17,428.0,448.0)" style="font-size:1.0000000000000013px;">National Instit</text>
  <rect x="440.0" y="2.0" width="1.4492753623188406" height="8.0" style="fill:cyan;opacity:0.3;"/>
  <text x="440.0" y="10.0" transform="matrix(6.123233995736766E-17,-1.0,1.0,6.123233995736766E-17,430.0,450.0)" style="font-size:1.0000000000000013px;">Multiple Sclero</text>
  <rect x="441.0" y="2.0" width="1.4492753623188406" height="8.0" style="fill:cyan;opacity:0.3;"/>
  <text x="441.0" y="10.0" transform="matrix(6.123233995736766E-17,-1.0,1.0,6.123233995736766E-17,431.0,451.0)" style="font-size:1.0000000000000013px;">Multiple Sclero</text>
  <rect x="443.0" y="2.0" width="1.4492753623188406" height="8.0" style="fill:cyan;opacity:0.3;"/>
  <text x="443.0" y="10.0" transform="matrix(6.123233995736766E-17,-1.0,1.0,6.123233995736766E-17,433.0,453.0)" style="font-size:1.0000000000000013px;">University of U</text>
  <rect x="444.0" y="2.0" width="1.4492753623188406" height="8.0" style="fill:cyan;opacity:0.3;"/>
  <text x="444.0" y="10.0" transform="matrix(6.123233995736766E-17,-1.0,1.0,6.123233995736766E-17,434.0,454.0)" style="font-size:1.0000000000000013px;">Lockheed Martin</text>
  <rect x="446.0" y="2.0" width="1.4492753623188406" height="8.0" style="fill:cyan;opacity:0.3;"/>
  <text x="446.0" y="10.0" transform="matrix(6.123233995736766E-17,-1.0,1.0,6.123233995736766E-17,436.0,456.0)" style="font-size:1.0000000000000013px;">Heart Rhythm So</text>
  <rect x="447.0" y="2.0" width="1.4492753623188406" height="8.0" style="fill:cyan;opacity:0.3;"/>
  <text x="447.0" y="10.0" transform="matrix(6.123233995736766E-17,-1.0,1.0,6.123233995736766E-17,437.0,457.0)" style="font-size:1.0000000000000013px;">University of U</text>
  <rect x="449.0" y="2.0" width="1.4492753623188406" height="8.0" style="fill:cyan;opacity:0.3;"/>
  <text x="449.0" y="10.0" transform="matrix(6.123233995736766E-17,-1.0,1.0,6.123233995736766E-17,439.0,459.0)" style="font-size:1.0000000000000013px;">Northwestern Un</text>
  <rect x="450.0" y="2.0" width="1.4492753623188406" height="8.0" style="fill:cyan;opacity:0.3;"/>
  <text x="450.0" y="10.0" transform="matrix(6.123233995736766E-17,-1.0,1.0,6.123233995736766E-17,440.0,460.0)" style="font-size:1.0000000000000013px;">Fondazione IRCC</text>
  <rect x="452.0" y="2.0" width="1.4492753623188406" height="8.0" style="fill:cyan;opacity:0.3;"/>
  <text x="452.0" y="10.0" transform="matrix(6.123233995736766E-17,-1.0,1.0,6.123233995736766E-17,442.0,462.0)" style="font-size:1.0000000000000013px;">Ministry of Edu</text>
  <rect x="453.0" y="2.0" width="1.4492753623188406" height="8.0" style="fill:cyan;opacity:0.3;"/>
  <text x="453.0" y="10.0" transform="matrix(6.123233995736766E-17,-1.0,1.0,6.123233995736766E-17,443.0,463.0)" style="font-size:1.0000000000000013px;">State Universit</text>
  <rect x="454.0" y="2.0" width="1.4492753623188406" height="8.0" style="fill:cyan;opacity:0.3;"/>
  <text x="454.0" y="10.0" transform="matrix(6.123233995736766E-17,-1.0,1.0,6.123233995736766E-17,444.0,464.0)" style="font-size:1.0000000000000013px;">McGraw-Hill Com</text>
  <rect x="456.0" y="2.0" width="1.4492753623188406" height="8.0" style="fill:cyan;opacity:0.3;"/>
  <text x="456.0" y="10.0" transform="matrix(6.123233995736766E-17,-1.0,1.0,6.123233995736766E-17,446.0,466.0)" style="font-size:1.0000000000000013px;">European Respir</text>
  <rect x="457.0" y="2.0" width="1.4492753623188406" height="8.0" style="fill:cyan;opacity:0.3;"/>
  <text x="457.0" y="10.0" transform="matrix(6.123233995736766E-17,-1.0,1.0,6.123233995736766E-17,447.0,467.0)" style="font-size:1.0000000000000013px;">University of P</text>
  <rect x="459.0" y="2.0" width="1.4492753623188406" height="8.0" style="fill:cyan;opacity:0.3;"/>
  <text x="459.0" y="10.0" transform="matrix(6.123233995736766E-17,-1.0,1.0,6.123233995736766E-17,449.0,469.0)" style="font-size:1.0000000000000013px;">University of U</text>
  <rect x="460.0" y="2.0" width="1.4492753623188406" height="8.0" style="fill:cyan;opacity:0.3;"/>
  <text x="460.0" y="10.0" transform="matrix(6.123233995736766E-17,-1.0,1.0,6.123233995736766E-17,450.0,470.0)" style="font-size:1.0000000000000013px;">McGill Universi</text>
  <rect x="462.0" y="2.0" width="1.4492753623188406" height="8.0" style="fill:cyan;opacity:0.3;"/>
  <text x="462.0" y="10.0" transform="matrix(6.123233995736766E-17,-1.0,1.0,6.123233995736766E-17,452.0,472.0)" style="font-size:1.0000000000000013px;">Institute for M</text>
  <rect x="463.0" y="2.0" width="1.4492753623188406" height="8.0" style="fill:cyan;opacity:0.3;"/>
  <text x="463.0" y="10.0" transform="matrix(6.123233995736766E-17,-1.0,1.0,6.123233995736766E-17,453.0,473.0)" style="font-size:1.0000000000000013px;">Icahn School of</text>
  <rect x="465.0" y="2.0" width="1.4492753623188406" height="8.0" style="fill:cyan;opacity:0.3;"/>
  <text x="465.0" y="10.0" transform="matrix(6.123233995736766E-17,-1.0,1.0,6.123233995736766E-17,455.0,475.0)" style="font-size:1.0000000000000013px;">University of B</text>
  <rect x="466.0" y="2.0" width="1.4492753623188406" height="8.0" style="fill:cyan;opacity:0.3;"/>
  <text x="466.0" y="10.0" transform="matrix(6.123233995736766E-17,-1.0,1.0,6.123233995736766E-17,456.0,476.0)" style="font-size:1.0000000000000013px;">Georgetown Univ</text>
  <rect x="467.0" y="2.0" width="1.4492753623188406" height="8.0" style="fill:cyan;opacity:0.3;"/>
  <text x="467.0" y="10.0" transform="matrix(6.123233995736766E-17,-1.0,1.0,6.123233995736766E-17,457.0,477.0)" style="font-size:1.0000000000000013px;">Loma Linda Univ</text>
  <rect x="469.0" y="2.0" width="1.4492753623188406" height="8.0" style="fill:cyan;opacity:0.3;"/>
  <text x="469.0" y="10.0" transform="matrix(6.123233995736766E-17,-1.0,1.0,6.123233995736766E-17,459.0,479.0)" style="font-size:1.0000000000000013px;">College of Emer</text>
  <rect x="470.0" y="2.0" width="1.4492753623188406" height="8.0" style="fill:cyan;opacity:0.3;"/>
  <text x="470.0" y="10.0" transform="matrix(6.123233995736766E-17,-1.0,1.0,6.123233995736766E-17,460.0,480.0)" style="font-size:1.0000000000000013px;">Kings College L</text>
  <rect x="472.0" y="2.0" width="1.4492753623188406" height="8.0" style="fill:cyan;opacity:0.3;"/>
  <text x="472.0" y="10.0" transform="matrix(6.123233995736766E-17,-1.0,1.0,6.123233995736766E-17,462.0,482.0)" style="font-size:1.0000000000000013px;">Pusan National </text>
  <rect x="473.0" y="2.0" width="1.4492753623188406" height="8.0" style="fill:cyan;opacity:0.3;"/>
  <text x="473.0" y="10.0" transform="matrix(6.123233995736766E-17,-1.0,1.0,6.123233995736766E-17,463.0,483.0)" style="font-size:1.0000000000000013px;">Pusan National </text>
  <rect x="475.0" y="2.0" width="1.4492753623188406" height="8.0" style="fill:cyan;opacity:0.3;"/>
  <text x="475.0" y="10.0" transform="matrix(6.123233995736766E-17,-1.0,1.0,6.123233995736766E-17,465.0,485.0)" style="font-size:1.0000000000000013px;">University of A</text>
  <rect x="476.0" y="2.0" width="1.4492753623188406" height="8.0" style="fill:cyan;opacity:0.3;"/>
  <text x="476.0" y="10.0" transform="matrix(6.123233995736766E-17,-1.0,1.0,6.123233995736766E-17,466.0,486.0)" style="font-size:1.0000000000000013px;">Yonsei Universi</text>
  <rect x="478.0" y="2.0" width="1.4492753623188406" height="8.0" style="fill:cyan;opacity:0.3;"/>
  <text x="478.0" y="10.0" transform="matrix(6.123233995736766E-17,-1.0,1.0,6.123233995736766E-17,468.0,488.0)" style="font-size:1.0000000000000013px;">American Heart </text>
  <rect x="479.0" y="2.0" width="1.4492753623188406" height="8.0" style="fill:cyan;opacity:0.3;"/>
  <text x="479.0" y="10.0" transform="matrix(6.123233995736766E-17,-1.0,1.0,6.123233995736766E-17,468.99999999999994,489.0)" style="font-size:1.0000000000000013px;">Columbia Univer</text>
  <rect x="481.0" y="2.0" width="1.4492753623188406" height="8.0" style="fill:cyan;opacity:0.3;"/>
  <text x="481.0" y="10.0" transform="matrix(6.123233995736766E-17,-1.0,1.0,6.123233995736766E-17,470.99999999999994,491.0)" style="font-size:1.0000000000000013px;">Institute of In</text>
  <rect x="482.0" y="2.0" width="1.4492753623188406" height="8.0" style="fill:cyan;opacity:0.3;"/>
  <text x="482.0" y="10.0" transform="matrix(6.123233995736766E-17,-1.0,1.0,6.123233995736766E-17,471.99999999999994,492.0)" style="font-size:1.0000000000000013px;">Johns Hopkins U</text>
  <rect x="483.0" y="2.0" width="1.4492753623188406" height="8.0" style="fill:cyan;opacity:0.3;"/>
  <text x="483.0" y="10.0" transform="matrix(6.123233995736766E-17,-1.0,1.0,6.123233995736766E-17,472.99999999999994,493.0)" style="font-size:1.0000000000000013px;">International A</text>
  <rect x="485.0" y="2.0" width="1.4492753623188406" height="8.0" style="fill:cyan;opacity:0.3;"/>
  <text x="485.0" y="10.0" transform="matrix(6.123233995736766E-17,-1.0,1.0,6.123233995736766E-17,474.99999999999994,495.0)" style="font-size:1.0000000000000013px;">New York Univer</text>
  <rect x="486.0" y="2.0" width="1.4492753623188406" height="8.0" style="fill:cyan;opacity:0.3;"/>
  <text x="486.0" y="10.0" transform="matrix(6.123233995736766E-17,-1.0,1.0,6.123233995736766E-17,475.99999999999994,496.0)" style="font-size:1.0000000000000013px;">Eberhard Karls </text>
  <rect x="488.0" y="2.0" width="1.4492753623188406" height="8.0" style="fill:cyan;opacity:0.3;"/>
  <text x="488.0" y="10.0" transform="matrix(6.123233995736766E-17,-1.0,1.0,6.123233995736766E-17,477.99999999999994,498.0)" style="font-size:1.0000000000000013px;">University of R</text>
  <rect x="489.0" y="2.0" width="1.4492753623188406" height="8.0" style="fill:cyan;opacity:0.3;"/>
  <text x="489.0" y="10.0" transform="matrix(6.123233995736766E-17,-1.0,1.0,6.123233995736766E-17,478.99999999999994,499.0)" style="font-size:1.0000000000000013px;">Princeton Unive</text>
  <rect x="491.0" y="2.0" width="1.4492753623188406" height="8.0" style="fill:cyan;opacity:0.3;"/>
  <text x="491.0" y="10.0" transform="matrix(6.123233995736766E-17,-1.0,1.0,6.123233995736766E-17,480.99999999999994,501.0)" style="font-size:1.0000000000000013px;">National Eye In</text>
  <rect x="492.0" y="2.0" width="1.4492753623188406" height="8.0" style="fill:cyan;opacity:0.3;"/>
  <text x="492.0" y="10.0" transform="matrix(6.123233995736766E-17,-1.0,1.0,6.123233995736766E-17,481.99999999999994,502.0)" style="font-size:1.0000000000000013px;">Society for Aca</text>
  <rect x="494.0" y="2.0" width="1.4492753623188406" height="8.0" style="fill:cyan;opacity:0.3;"/>
  <text x="494.0" y="10.0" transform="matrix(6.123233995736766E-17,-1.0,1.0,6.123233995736766E-17,483.99999999999994,504.0)" style="font-size:1.0000000000000013px;">American Psychi</text>
  <rect x="495.0" y="2.0" width="1.4492753623188406" height="8.0" style="fill:cyan;opacity:0.3;"/>
  <text x="495.0" y="10.0" transform="matrix(6.123233995736766E-17,-1.0,1.0,6.123233995736766E-17,484.99999999999994,505.0)" style="font-size:1.0000000000000013px;">Cardiff Univers</text>
  <rect x="496.0" y="2.0" width="1.4492753623188406" height="8.0" style="fill:cyan;opacity:0.3;"/>
  <text x="496.0" y="10.0" transform="matrix(6.123233995736766E-17,-1.0,1.0,6.123233995736766E-17,485.99999999999994,506.0)" style="font-size:1.0000000000000013px;">U.S. Department</text>
  <rect x="498.0" y="2.0" width="1.4492753623188406" height="8.0" style="fill:cyan;opacity:0.3;"/>
  <text x="498.0" y="10.0" transform="matrix(6.123233995736766E-17,-1.0,1.0,6.123233995736766E-17,487.99999999999994,508.0)" style="font-size:1.0000000000000013px;">University of M</text>
  <rect x="499.0" y="2.0" width="1.4492753623188406" height="8.0" style="fill:cyan;opacity:0.3;"/>
  <text x="499.0" y="10.0" transform="matrix(6.123233995736766E-17,-1.0,1.0,6.123233995736766E-17,488.99999999999994,509.0)" style="font-size:1.0000000000000013px;">British Associa</text>
  <rect x="501.0" y="2.0" width="1.4492753623188406" height="8.0" style="fill:cyan;opacity:0.3;"/>
  <text x="501.0" y="10.0" transform="matrix(6.123233995736766E-17,-1.0,1.0,6.123233995736766E-17,490.99999999999994,511.0)" style="font-size:1.0000000000000013px;">National Scienc</text>
  <rect x="502.0" y="2.0" width="1.4492753623188406" height="8.0" style="fill:cyan;opacity:0.3;"/>
  <text x="502.0" y="10.0" transform="matrix(6.123233995736766E-17,-1.0,1.0,6.123233995736766E-17,491.99999999999994,512.0)" style="font-size:1.0000000000000013px;">Genesis Pharma,</text>
  <rect x="504.0" y="2.0" width="1.4492753623188406" height="8.0" style="fill:cyan;opacity:0.3;"/>
  <text x="504.0" y="10.0" transform="matrix(6.123233995736766E-17,-1.0,1.0,6.123233995736766E-17,493.99999999999994,514.0)" style="font-size:1.0000000000000013px;">Shahid Beheshti</text>
  <rect x="505.0" y="2.0" width="1.4492753623188406" height="8.0" style="fill:cyan;opacity:0.3;"/>
  <text x="505.0" y="10.0" transform="matrix(6.123233995736766E-17,-1.0,1.0,6.123233995736766E-17,494.99999999999994,515.0)" style="font-size:1.0000000000000013px;">National Resear</text>
  <rect x="507.0" y="2.0" width="1.4492753623188406" height="8.0" style="fill:cyan;opacity:0.3;"/>
  <text x="507.0" y="10.0" transform="matrix(6.123233995736766E-17,-1.0,1.0,6.123233995736766E-17,496.99999999999994,517.0)" style="font-size:1.0000000000000013px;">Jichi Medical U</text>
  <rect x="508.0" y="2.0" width="1.4492753623188406" height="8.0" style="fill:cyan;opacity:0.3;"/>
  <text x="508.0" y="10.0" transform="matrix(6.123233995736766E-17,-1.0,1.0,6.123233995736766E-17,497.99999999999994,518.0)" style="font-size:1.0000000000000013px;">Colorado State </text>
 </g>
</svg>
