<?xml version="1.0" encoding="UTF-8"?>
<svg height="20.0" width="519.3763440860215" xmlns="http://www.w3.org/2000/svg">
 <g>
  <rect x="10.0" y="-215.0" width="5.376344086021505" height="225.0" style="fill:cyan;opacity:0.3;"/>
  <text x="10.0" y="10.0" transform="matrix(6.123233995736766E-17,-1.0,1.0,6.123233995736766E-17,0.0,20.0)" style="font-size:1.0000000000000013px;">Italy</text>
  <rect x="15.0" y="-123.0" width="5.376344086021505" height="133.0" style="fill:cyan;opacity:0.3;"/>
  <text x="15.0" y="10.0" transform="matrix(6.123233995736766E-17,-1.0,1.0,6.123233995736766E-17,4.999999999999998,25.0)" style="font-size:1.0000000000000013px;">United States</text>
  <rect x="20.0" y="-55.0" width="5.376344086021505" height="65.0" style="fill:cyan;opacity:0.3;"/>
  <text x="20.0" y="10.0" transform="matrix(6.123233995736766E-17,-1.0,1.0,6.123233995736766E-17,9.999999999999998,30.0)" style="font-size:1.0000000000000013px;">Canada</text>
  <rect x="26.0" y="-49.0" width="5.376344086021505" height="59.0" style="fill:cyan;opacity:0.3;"/>
  <text x="26.0" y="10.0" transform="matrix(6.123233995736766E-17,-1.0,1.0,6.123233995736766E-17,15.999999999999998,36.0)" style="font-size:1.0000000000000013px;">China</text>
  <rect x="31.0" y="-47.0" width="5.376344086021505" height="57.0" style="fill:cyan;opacity:0.3;"/>
  <text x="31.0" y="10.0" transform="matrix(6.123233995736766E-17,-1.0,1.0,6.123233995736766E-17,21.0,41.0)" style="font-size:1.0000000000000013px;">India</text>
  <rect x="36.0" y="-43.0" width="5.376344086021505" height="53.0" style="fill:cyan;opacity:0.3;"/>
  <text x="36.0" y="10.0" transform="matrix(6.123233995736766E-17,-1.0,1.0,6.123233995736766E-17,26.0,46.0)" style="font-size:1.0000000000000013px;">Germany</text>
  <rect x="42.0" y="-34.0" width="5.376344086021505" height="44.0" style="fill:cyan;opacity:0.3;"/>
  <text x="42.0" y="10.0" transform="matrix(6.123233995736766E-17,-1.0,1.0,6.123233995736766E-17,32.0,52.0)" style="font-size:1.0000000000000013px;">Japan</text>
  <rect x="47.0" y="-34.0" width="5.376344086021505" height="44.0" style="fill:cyan;opacity:0.3;"/>
  <text x="47.0" y="10.0" transform="matrix(6.123233995736766E-17,-1.0,1.0,6.123233995736766E-17,37.0,57.0)" style="font-size:1.0000000000000013px;">France</text>
  <rect x="53.0" y="-34.0" width="5.376344086021505" height="44.0" style="fill:cyan;opacity:0.3;"/>
  <text x="53.0" y="10.0" transform="matrix(6.123233995736766E-17,-1.0,1.0,6.123233995736766E-17,43.0,63.0)" style="font-size:1.0000000000000013px;">Denmark</text>
  <rect x="58.0" y="-30.0" width="5.376344086021505" height="40.0" style="fill:cyan;opacity:0.3;"/>
  <text x="58.0" y="10.0" transform="matrix(6.123233995736766E-17,-1.0,1.0,6.123233995736766E-17,48.0,68.0)" style="font-size:1.0000000000000013px;">Spain</text>
  <rect x="63.0" y="-25.0" width="5.376344086021505" height="35.0" style="fill:cyan;opacity:0.3;"/>
  <text x="63.0" y="10.0" transform="matrix(6.123233995736766E-17,-1.0,1.0,6.123233995736766E-17,53.0,73.0)" style="font-size:1.0000000000000013px;">Brazil</text>
  <rect x="69.0" y="-25.0" width="5.376344086021505" height="35.0" style="fill:cyan;opacity:0.3;"/>
  <text x="69.0" y="10.0" transform="matrix(6.123233995736766E-17,-1.0,1.0,6.123233995736766E-17,59.0,79.0)" style="font-size:1.0000000000000013px;">Israel</text>
  <rect x="74.0" y="-23.0" width="5.376344086021505" height="33.0" style="fill:cyan;opacity:0.3;"/>
  <text x="74.0" y="10.0" transform="matrix(6.123233995736766E-17,-1.0,1.0,6.123233995736766E-17,63.99999999999999,84.0)" style="font-size:1.0000000000000013px;">United Kingdom</text>
  <rect x="79.0" y="-23.0" width="5.376344086021505" height="33.0" style="fill:cyan;opacity:0.3;"/>
  <text x="79.0" y="10.0" transform="matrix(6.123233995736766E-17,-1.0,1.0,6.123233995736766E-17,69.0,89.0)" style="font-size:1.0000000000000013px;">Norway</text>
  <rect x="85.0" y="-21.0" width="5.376344086021505" height="31.0" style="fill:cyan;opacity:0.3;"/>
  <text x="85.0" y="10.0" transform="matrix(6.123233995736766E-17,-1.0,1.0,6.123233995736766E-17,75.0,95.0)" style="font-size:1.0000000000000013px;">Netherlands</text>
  <rect x="90.0" y="-21.0" width="5.376344086021505" height="31.0" style="fill:cyan;opacity:0.3;"/>
  <text x="90.0" y="10.0" transform="matrix(6.123233995736766E-17,-1.0,1.0,6.123233995736766E-17,80.0,100.0)" style="font-size:1.0000000000000013px;">Jordan</text>
  <rect x="96.0" y="-17.0" width="5.376344086021505" height="27.0" style="fill:cyan;opacity:0.3;"/>
  <text x="96.0" y="10.0" transform="matrix(6.123233995736766E-17,-1.0,1.0,6.123233995736766E-17,86.0,106.0)" style="font-size:1.0000000000000013px;">Switzerland</text>
  <rect x="101.0" y="-12.0" width="5.376344086021505" height="22.0" style="fill:cyan;opacity:0.3;"/>
  <text x="101.0" y="10.0" transform="matrix(6.123233995736766E-17,-1.0,1.0,6.123233995736766E-17,91.0,111.0)" style="font-size:1.0000000000000013px;">Turkey</text>
  <rect x="106.0" y="-12.0" width="5.376344086021505" height="22.0" style="fill:cyan;opacity:0.3;"/>
  <text x="106.0" y="10.0" transform="matrix(6.123233995736766E-17,-1.0,1.0,6.123233995736766E-17,96.0,116.0)" style="font-size:1.0000000000000013px;">Sweden</text>
  <rect x="112.0" y="-10.0" width="5.376344086021505" height="20.0" style="fill:cyan;opacity:0.3;"/>
  <text x="112.0" y="10.0" transform="matrix(6.123233995736766E-17,-1.0,1.0,6.123233995736766E-17,102.0,122.0)" style="font-size:1.0000000000000013px;">United States,</text>
  <rect x="117.0" y="-8.0" width="5.376344086021505" height="18.0" style="fill:cyan;opacity:0.3;"/>
  <text x="117.0" y="10.0" transform="matrix(6.123233995736766E-17,-1.0,1.0,6.123233995736766E-17,107.0,127.0)" style="font-size:1.0000000000000013px;">United States.</text>
  <rect x="122.0" y="-6.0" width="5.376344086021505" height="16.0" style="fill:cyan;opacity:0.3;"/>
  <text x="122.0" y="10.0" transform="matrix(6.123233995736766E-17,-1.0,1.0,6.123233995736766E-17,112.0,132.0)" style="font-size:1.0000000000000013px;">United States;</text>
  <rect x="128.0" y="-6.0" width="5.376344086021505" height="16.0" style="fill:cyan;opacity:0.3;"/>
  <text x="128.0" y="10.0" transform="matrix(6.123233995736766E-17,-1.0,1.0,6.123233995736766E-17,118.0,138.0)" style="font-size:1.0000000000000013px;">Finland</text>
  <rect x="133.0" y="-4.0" width="5.376344086021505" height="14.0" style="fill:cyan;opacity:0.3;"/>
  <text x="133.0" y="10.0" transform="matrix(6.123233995736766E-17,-1.0,1.0,6.123233995736766E-17,122.99999999999999,143.0)" style="font-size:1.0000000000000013px;">Greece</text>
  <rect x="139.0" y="-3.0" width="5.376344086021505" height="13.0" style="fill:cyan;opacity:0.3;"/>
  <text x="139.0" y="10.0" transform="matrix(6.123233995736766E-17,-1.0,1.0,6.123233995736766E-17,129.0,149.0)" style="font-size:1.0000000000000013px;">Kuwait</text>
  <rect x="144.0" y="-1.0" width="5.376344086021505" height="11.0" style="fill:cyan;opacity:0.3;"/>
  <text x="144.0" y="10.0" transform="matrix(6.123233995736766E-17,-1.0,1.0,6.123233995736766E-17,134.0,154.0)" style="font-size:1.0000000000000013px;">Morocco</text>
  <rect x="149.0" y="-1.0" width="5.376344086021505" height="11.0" style="fill:cyan;opacity:0.3;"/>
  <text x="149.0" y="10.0" transform="matrix(6.123233995736766E-17,-1.0,1.0,6.123233995736766E-17,139.0,159.0)" style="font-size:1.0000000000000013px;">Argentina</text>
  <rect x="155.0" y="-1.0" width="5.376344086021505" height="11.0" style="fill:cyan;opacity:0.3;"/>
  <text x="155.0" y="10.0" transform="matrix(6.123233995736766E-17,-1.0,1.0,6.123233995736766E-17,145.0,165.0)" style="font-size:1.0000000000000013px;">Croatia</text>
  <rect x="160.0" y="-1.0" width="5.376344086021505" height="11.0" style="fill:cyan;opacity:0.3;"/>
  <text x="160.0" y="10.0" transform="matrix(6.123233995736766E-17,-1.0,1.0,6.123233995736766E-17,150.0,170.0)" style="font-size:1.0000000000000013px;">Mexico</text>
  <rect x="165.0" y="-1.0" width="5.376344086021505" height="11.0" style="fill:cyan;opacity:0.3;"/>
  <text x="165.0" y="10.0" transform="matrix(6.123233995736766E-17,-1.0,1.0,6.123233995736766E-17,155.0,175.0)" style="font-size:1.0000000000000013px;">United Kingdom;</text>
  <rect x="171.0" y="1.0" width="5.376344086021505" height="9.0" style="fill:cyan;opacity:0.3;"/>
  <text x="171.0" y="10.0" transform="matrix(6.123233995736766E-17,-1.0,1.0,6.123233995736766E-17,161.0,181.0)" style="font-size:1.0000000000000013px;">Austria</text>
  <rect x="176.0" y="1.0" width="5.376344086021505" height="9.0" style="fill:cyan;opacity:0.3;"/>
  <text x="176.0" y="10.0" transform="matrix(6.123233995736766E-17,-1.0,1.0,6.123233995736766E-17,166.0,186.0)" style="font-size:1.0000000000000013px;">Australia</text>
  <rect x="182.0" y="3.0" width="5.376344086021505" height="7.0" style="fill:cyan;opacity:0.3;"/>
  <text x="182.0" y="10.0" transform="matrix(6.123233995736766E-17,-1.0,1.0,6.123233995736766E-17,172.0,192.0)" style="font-size:1.0000000000000013px;">Jersey</text>
  <rect x="187.0" y="3.0" width="5.376344086021505" height="7.0" style="fill:cyan;opacity:0.3;"/>
  <text x="187.0" y="10.0" transform="matrix(6.123233995736766E-17,-1.0,1.0,6.123233995736766E-17,177.0,197.0)" style="font-size:1.0000000000000013px;">Slovenia</text>
  <rect x="192.0" y="3.0" width="5.376344086021505" height="7.0" style="fill:cyan;opacity:0.3;"/>
  <text x="192.0" y="10.0" transform="matrix(6.123233995736766E-17,-1.0,1.0,6.123233995736766E-17,182.0,202.0)" style="font-size:1.0000000000000013px;">New Zealand</text>
  <rect x="198.0" y="3.0" width="5.376344086021505" height="7.0" style="fill:cyan;opacity:0.3;"/>
  <text x="198.0" y="10.0" transform="matrix(6.123233995736766E-17,-1.0,1.0,6.123233995736766E-17,188.0,208.0)" style="font-size:1.0000000000000013px;">Belgium</text>
  <rect x="203.0" y="3.0" width="5.376344086021505" height="7.0" style="fill:cyan;opacity:0.3;"/>
  <text x="203.0" y="10.0" transform="matrix(6.123233995736766E-17,-1.0,1.0,6.123233995736766E-17,193.0,213.0)" style="font-size:1.0000000000000013px;">Ireland</text>
  <rect x="208.0" y="3.0" width="5.376344086021505" height="7.0" style="fill:cyan;opacity:0.3;"/>
  <text x="208.0" y="10.0" transform="matrix(6.123233995736766E-17,-1.0,1.0,6.123233995736766E-17,198.0,218.0)" style="font-size:1.0000000000000013px;">Sri Lanka</text>
  <rect x="214.0" y="5.0" width="5.376344086021505" height="5.0" style="fill:cyan;opacity:0.3;"/>
  <text x="214.0" y="10.0" transform="matrix(6.123233995736766E-17,-1.0,1.0,6.123233995736766E-17,204.0,224.0)" style="font-size:1.0000000000000013px;">Portugal</text>
  <rect x="219.0" y="5.0" width="5.376344086021505" height="5.0" style="fill:cyan;opacity:0.3;"/>
  <text x="219.0" y="10.0" transform="matrix(6.123233995736766E-17,-1.0,1.0,6.123233995736766E-17,209.0,229.0)" style="font-size:1.0000000000000013px;">Chile</text>
  <rect x="225.0" y="5.0" width="5.376344086021505" height="5.0" style="fill:cyan;opacity:0.3;"/>
  <text x="225.0" y="10.0" transform="matrix(6.123233995736766E-17,-1.0,1.0,6.123233995736766E-17,215.0,235.0)" style="font-size:1.0000000000000013px;">Hungary</text>
  <rect x="230.0" y="5.0" width="5.376344086021505" height="5.0" style="fill:cyan;opacity:0.3;"/>
  <text x="230.0" y="10.0" transform="matrix(6.123233995736766E-17,-1.0,1.0,6.123233995736766E-17,220.0,240.0)" style="font-size:1.0000000000000013px;">Ukraine</text>
  <rect x="235.0" y="5.0" width="5.376344086021505" height="5.0" style="fill:cyan;opacity:0.3;"/>
  <text x="235.0" y="10.0" transform="matrix(6.123233995736766E-17,-1.0,1.0,6.123233995736766E-17,225.0,245.0)" style="font-size:1.0000000000000013px;">Norfolk Island</text>
  <rect x="241.0" y="5.0" width="5.376344086021505" height="5.0" style="fill:cyan;opacity:0.3;"/>
  <text x="241.0" y="10.0" transform="matrix(6.123233995736766E-17,-1.0,1.0,6.123233995736766E-17,231.0,251.0)" style="font-size:1.0000000000000013px;">Sri Lanka.</text>
  <rect x="246.0" y="5.0" width="5.376344086021505" height="5.0" style="fill:cyan;opacity:0.3;"/>
  <text x="246.0" y="10.0" transform="matrix(6.123233995736766E-17,-1.0,1.0,6.123233995736766E-17,236.0,256.0)" style="font-size:1.0000000000000013px;">Hong Kong</text>
  <rect x="251.0" y="5.0" width="5.376344086021505" height="5.0" style="fill:cyan;opacity:0.3;"/>
  <text x="251.0" y="10.0" transform="matrix(6.123233995736766E-17,-1.0,1.0,6.123233995736766E-17,240.99999999999997,261.0)" style="font-size:1.0000000000000013px;">Saudi Arabia</text>
  <rect x="257.0" y="5.0" width="5.376344086021505" height="5.0" style="fill:cyan;opacity:0.3;"/>
  <text x="257.0" y="10.0" transform="matrix(6.123233995736766E-17,-1.0,1.0,6.123233995736766E-17,246.99999999999997,267.0)" style="font-size:1.0000000000000013px;">Pakistan</text>
  <rect x="262.0" y="7.0" width="5.376344086021505" height="3.0" style="fill:cyan;opacity:0.3;"/>
  <text x="262.0" y="10.0" transform="matrix(6.123233995736766E-17,-1.0,1.0,6.123233995736766E-17,251.99999999999997,272.0)" style="font-size:1.0000000000000013px;">Malaysia</text>
  <rect x="268.0" y="7.0" width="5.376344086021505" height="3.0" style="fill:cyan;opacity:0.3;"/>
  <text x="268.0" y="10.0" transform="matrix(6.123233995736766E-17,-1.0,1.0,6.123233995736766E-17,258.0,278.0)" style="font-size:1.0000000000000013px;">Mongolia</text>
  <rect x="273.0" y="7.0" width="5.376344086021505" height="3.0" style="fill:cyan;opacity:0.3;"/>
  <text x="273.0" y="10.0" transform="matrix(6.123233995736766E-17,-1.0,1.0,6.123233995736766E-17,263.0,283.0)" style="font-size:1.0000000000000013px;">Czech Republic;</text>
  <rect x="278.0" y="7.0" width="5.376344086021505" height="3.0" style="fill:cyan;opacity:0.3;"/>
  <text x="278.0" y="10.0" transform="matrix(6.123233995736766E-17,-1.0,1.0,6.123233995736766E-17,268.0,288.0)" style="font-size:1.0000000000000013px;">Albania</text>
  <rect x="284.0" y="7.0" width="5.376344086021505" height="3.0" style="fill:cyan;opacity:0.3;"/>
  <text x="284.0" y="10.0" transform="matrix(6.123233995736766E-17,-1.0,1.0,6.123233995736766E-17,274.0,294.0)" style="font-size:1.0000000000000013px;">South Africa</text>
  <rect x="289.0" y="7.0" width="5.376344086021505" height="3.0" style="fill:cyan;opacity:0.3;"/>
  <text x="289.0" y="10.0" transform="matrix(6.123233995736766E-17,-1.0,1.0,6.123233995736766E-17,279.0,299.0)" style="font-size:1.0000000000000013px;">Bosnia and Herz</text>
  <rect x="294.0" y="7.0" width="5.376344086021505" height="3.0" style="fill:cyan;opacity:0.3;"/>
  <text x="294.0" y="10.0" transform="matrix(6.123233995736766E-17,-1.0,1.0,6.123233995736766E-17,284.0,304.0)" style="font-size:1.0000000000000013px;">Egypt</text>
  <rect x="300.0" y="7.0" width="5.376344086021505" height="3.0" style="fill:cyan;opacity:0.3;"/>
  <text x="300.0" y="10.0" transform="matrix(6.123233995736766E-17,-1.0,1.0,6.123233995736766E-17,290.0,310.0)" style="font-size:1.0000000000000013px;">Thailand</text>
  <rect x="305.0" y="7.0" width="5.376344086021505" height="3.0" style="fill:cyan;opacity:0.3;"/>
  <text x="305.0" y="10.0" transform="matrix(6.123233995736766E-17,-1.0,1.0,6.123233995736766E-17,295.0,315.0)" style="font-size:1.0000000000000013px;">United Kingdom,</text>
  <rect x="311.0" y="7.0" width="5.376344086021505" height="3.0" style="fill:cyan;opacity:0.3;"/>
  <text x="311.0" y="10.0" transform="matrix(6.123233995736766E-17,-1.0,1.0,6.123233995736766E-17,301.0,321.0)" style="font-size:1.0000000000000013px;">Poland</text>
  <rect x="316.0" y="7.0" width="5.376344086021505" height="3.0" style="fill:cyan;opacity:0.3;"/>
  <text x="316.0" y="10.0" transform="matrix(6.123233995736766E-17,-1.0,1.0,6.123233995736766E-17,306.0,326.0)" style="font-size:1.0000000000000013px;">Serbia</text>
  <rect x="321.0" y="7.0" width="5.376344086021505" height="3.0" style="fill:cyan;opacity:0.3;"/>
  <text x="321.0" y="10.0" transform="matrix(6.123233995736766E-17,-1.0,1.0,6.123233995736766E-17,311.0,331.0)" style="font-size:1.0000000000000013px;">Lithuania</text>
  <rect x="327.0" y="7.0" width="5.376344086021505" height="3.0" style="fill:cyan;opacity:0.3;"/>
  <text x="327.0" y="10.0" transform="matrix(6.123233995736766E-17,-1.0,1.0,6.123233995736766E-17,317.0,337.0)" style="font-size:1.0000000000000013px;">Tunisia</text>
  <rect x="332.0" y="7.0" width="5.376344086021505" height="3.0" style="fill:cyan;opacity:0.3;"/>
  <text x="332.0" y="10.0" transform="matrix(6.123233995736766E-17,-1.0,1.0,6.123233995736766E-17,322.0,342.0)" style="font-size:1.0000000000000013px;">Romania</text>
  <rect x="337.0" y="7.0" width="5.376344086021505" height="3.0" style="fill:cyan;opacity:0.3;"/>
  <text x="337.0" y="10.0" transform="matrix(6.123233995736766E-17,-1.0,1.0,6.123233995736766E-17,327.0,347.0)" style="font-size:1.0000000000000013px;">San Marino</text>
  <rect x="343.0" y="7.0" width="5.376344086021505" height="3.0" style="fill:cyan;opacity:0.3;"/>
  <text x="343.0" y="10.0" transform="matrix(6.123233995736766E-17,-1.0,1.0,6.123233995736766E-17,333.0,353.0)" style="font-size:1.0000000000000013px;">Estonia</text>
  <rect x="348.0" y="9.0" width="5.376344086021505" height="1.0" style="fill:cyan;opacity:0.3;"/>
  <text x="348.0" y="10.0" transform="matrix(6.123233995736766E-17,-1.0,1.0,6.123233995736766E-17,338.0,358.0)" style="font-size:1.0000000000000013px;">Cameroon</text>
  <rect x="354.0" y="9.0" width="5.376344086021505" height="1.0" style="fill:cyan;opacity:0.3;"/>
  <text x="354.0" y="10.0" transform="matrix(6.123233995736766E-17,-1.0,1.0,6.123233995736766E-17,344.0,364.0)" style="font-size:1.0000000000000013px;">Sudan</text>
  <rect x="359.0" y="9.0" width="5.376344086021505" height="1.0" style="fill:cyan;opacity:0.3;"/>
  <text x="359.0" y="10.0" transform="matrix(6.123233995736766E-17,-1.0,1.0,6.123233995736766E-17,349.0,369.0)" style="font-size:1.0000000000000013px;">Iceland</text>
  <rect x="364.0" y="9.0" width="5.376344086021505" height="1.0" style="fill:cyan;opacity:0.3;"/>
  <text x="364.0" y="10.0" transform="matrix(6.123233995736766E-17,-1.0,1.0,6.123233995736766E-17,354.0,374.0)" style="font-size:1.0000000000000013px;">Oman</text>
  <rect x="370.0" y="9.0" width="5.376344086021505" height="1.0" style="fill:cyan;opacity:0.3;"/>
  <text x="370.0" y="10.0" transform="matrix(6.123233995736766E-17,-1.0,1.0,6.123233995736766E-17,360.0,380.0)" style="font-size:1.0000000000000013px;">Monaco</text>
  <rect x="375.0" y="9.0" width="5.376344086021505" height="1.0" style="fill:cyan;opacity:0.3;"/>
  <text x="375.0" y="10.0" transform="matrix(6.123233995736766E-17,-1.0,1.0,6.123233995736766E-17,365.0,385.0)" style="font-size:1.0000000000000013px;">Mali</text>
  <rect x="380.0" y="9.0" width="5.376344086021505" height="1.0" style="fill:cyan;opacity:0.3;"/>
  <text x="380.0" y="10.0" transform="matrix(6.123233995736766E-17,-1.0,1.0,6.123233995736766E-17,370.0,390.0)" style="font-size:1.0000000000000013px;">Puerto Rico,</text>
  <rect x="386.0" y="9.0" width="5.376344086021505" height="1.0" style="fill:cyan;opacity:0.3;"/>
  <text x="386.0" y="10.0" transform="matrix(6.123233995736766E-17,-1.0,1.0,6.123233995736766E-17,376.0,396.0)" style="font-size:1.0000000000000013px;">Nepal</text>
  <rect x="391.0" y="9.0" width="5.376344086021505" height="1.0" style="fill:cyan;opacity:0.3;"/>
  <text x="391.0" y="10.0" transform="matrix(6.123233995736766E-17,-1.0,1.0,6.123233995736766E-17,381.0,401.0)" style="font-size:1.0000000000000013px;">Ecuador</text>
  <rect x="397.0" y="9.0" width="5.376344086021505" height="1.0" style="fill:cyan;opacity:0.3;"/>
  <text x="397.0" y="10.0" transform="matrix(6.123233995736766E-17,-1.0,1.0,6.123233995736766E-17,387.0,407.0)" style="font-size:1.0000000000000013px;">Hong Kong,</text>
  <rect x="402.0" y="9.0" width="5.376344086021505" height="1.0" style="fill:cyan;opacity:0.3;"/>
  <text x="402.0" y="10.0" transform="matrix(6.123233995736766E-17,-1.0,1.0,6.123233995736766E-17,392.0,412.0)" style="font-size:1.0000000000000013px;">Ghana</text>
  <rect x="407.0" y="9.0" width="5.376344086021505" height="1.0" style="fill:cyan;opacity:0.3;"/>
  <text x="407.0" y="10.0" transform="matrix(6.123233995736766E-17,-1.0,1.0,6.123233995736766E-17,397.0,417.0)" style="font-size:1.0000000000000013px;">Saudi Arabia.</text>
  <rect x="413.0" y="9.0" width="5.376344086021505" height="1.0" style="fill:cyan;opacity:0.3;"/>
  <text x="413.0" y="10.0" transform="matrix(6.123233995736766E-17,-1.0,1.0,6.123233995736766E-17,403.0,423.0)" style="font-size:1.0000000000000013px;">Russian Federat</text>
  <rect x="418.0" y="9.0" width="5.376344086021505" height="1.0" style="fill:cyan;opacity:0.3;"/>
  <text x="418.0" y="10.0" transform="matrix(6.123233995736766E-17,-1.0,1.0,6.123233995736766E-17,408.0,428.0)" style="font-size:1.0000000000000013px;">Saudi Arabia,</text>
  <rect x="423.0" y="9.0" width="5.376344086021505" height="1.0" style="fill:cyan;opacity:0.3;"/>
  <text x="423.0" y="10.0" transform="matrix(6.123233995736766E-17,-1.0,1.0,6.123233995736766E-17,413.0,433.0)" style="font-size:1.0000000000000013px;">Sri Lanka,</text>
  <rect x="429.0" y="9.0" width="5.376344086021505" height="1.0" style="fill:cyan;opacity:0.3;"/>
  <text x="429.0" y="10.0" transform="matrix(6.123233995736766E-17,-1.0,1.0,6.123233995736766E-17,419.0,439.0)" style="font-size:1.0000000000000013px;">New Zealand,</text>
  <rect x="434.0" y="9.0" width="5.376344086021505" height="1.0" style="fill:cyan;opacity:0.3;"/>
  <text x="434.0" y="10.0" transform="matrix(6.123233995736766E-17,-1.0,1.0,6.123233995736766E-17,424.0,444.0)" style="font-size:1.0000000000000013px;">Peru</text>
  <rect x="440.0" y="9.0" width="5.376344086021505" height="1.0" style="fill:cyan;opacity:0.3;"/>
  <text x="440.0" y="10.0" transform="matrix(6.123233995736766E-17,-1.0,1.0,6.123233995736766E-17,430.0,450.0)" style="font-size:1.0000000000000013px;">Puerto Rico</text>
  <rect x="445.0" y="9.0" width="5.376344086021505" height="1.0" style="fill:cyan;opacity:0.3;"/>
  <text x="445.0" y="10.0" transform="matrix(6.123233995736766E-17,-1.0,1.0,6.123233995736766E-17,435.0,455.0)" style="font-size:1.0000000000000013px;">Russian Federat</text>
  <rect x="450.0" y="9.0" width="5.376344086021505" height="1.0" style="fill:cyan;opacity:0.3;"/>
  <text x="450.0" y="10.0" transform="matrix(6.123233995736766E-17,-1.0,1.0,6.123233995736766E-17,440.0,460.0)" style="font-size:1.0000000000000013px;">Singapore</text>
  <rect x="456.0" y="9.0" width="5.376344086021505" height="1.0" style="fill:cyan;opacity:0.3;"/>
  <text x="456.0" y="10.0" transform="matrix(6.123233995736766E-17,-1.0,1.0,6.123233995736766E-17,446.0,466.0)" style="font-size:1.0000000000000013px;">Chad</text>
  <rect x="461.0" y="9.0" width="5.376344086021505" height="1.0" style="fill:cyan;opacity:0.3;"/>
  <text x="461.0" y="10.0" transform="matrix(6.123233995736766E-17,-1.0,1.0,6.123233995736766E-17,451.0,471.0)" style="font-size:1.0000000000000013px;">Costa Rica,</text>
  <rect x="466.0" y="9.0" width="5.376344086021505" height="1.0" style="fill:cyan;opacity:0.3;"/>
  <text x="466.0" y="10.0" transform="matrix(6.123233995736766E-17,-1.0,1.0,6.123233995736766E-17,456.0,476.0)" style="font-size:1.0000000000000013px;">Costa Rica</text>
  <rect x="472.0" y="9.0" width="5.376344086021505" height="1.0" style="fill:cyan;opacity:0.3;"/>
  <text x="472.0" y="10.0" transform="matrix(6.123233995736766E-17,-1.0,1.0,6.123233995736766E-17,462.0,482.0)" style="font-size:1.0000000000000013px;">Qatar</text>
  <rect x="477.0" y="9.0" width="5.376344086021505" height="1.0" style="fill:cyan;opacity:0.3;"/>
  <text x="477.0" y="10.0" transform="matrix(6.123233995736766E-17,-1.0,1.0,6.123233995736766E-17,467.0,487.0)" style="font-size:1.0000000000000013px;">Nigeria</text>
  <rect x="483.0" y="9.0" width="5.376344086021505" height="1.0" style="fill:cyan;opacity:0.3;"/>
  <text x="483.0" y="10.0" transform="matrix(6.123233995736766E-17,-1.0,1.0,6.123233995736766E-17,472.99999999999994,493.0)" style="font-size:1.0000000000000013px;">Bosnia and Herz</text>
  <rect x="488.0" y="9.0" width="5.376344086021505" height="1.0" style="fill:cyan;opacity:0.3;"/>
  <text x="488.0" y="10.0" transform="matrix(6.123233995736766E-17,-1.0,1.0,6.123233995736766E-17,477.99999999999994,498.0)" style="font-size:1.0000000000000013px;">United Arab Emi</text>
  <rect x="493.0" y="9.0" width="5.376344086021505" height="1.0" style="fill:cyan;opacity:0.3;"/>
  <text x="493.0" y="10.0" transform="matrix(6.123233995736766E-17,-1.0,1.0,6.123233995736766E-17,482.99999999999994,503.0)" style="font-size:1.0000000000000013px;">Czech Republic</text>
  <rect x="499.0" y="9.0" width="5.376344086021505" height="1.0" style="fill:cyan;opacity:0.3;"/>
  <text x="499.0" y="10.0" transform="matrix(6.123233995736766E-17,-1.0,1.0,6.123233995736766E-17,488.99999999999994,509.0)" style="font-size:1.0000000000000013px;">United Kingdom.</text>
  <rect x="504.0" y="9.0" width="5.376344086021505" height="1.0" style="fill:cyan;opacity:0.3;"/>
  <text x="504.0" y="10.0" transform="matrix(6.123233995736766E-17,-1.0,1.0,6.123233995736766E-17,493.99999999999994,514.0)" style="font-size:1.0000000000000013px;">Uganda</text>
 </g>
</svg>
