<?xml version="1.0" encoding="UTF-8"?>
<svg height="20.0" width="519.3966480446927" xmlns="http://www.w3.org/2000/svg">
 <g>
  <rect x="10.0" y="-215.0" width="1.3966480446927374" height="225.0" style="fill:cyan;opacity:0.3;"/>
  <text x="10.0" y="10.0" transform="matrix(6.123233995736766E-17,-1.0,1.0,6.123233995736766E-17,0.0,20.0)" style="font-size:1.0000000000000013px;">acetaminophen</text>
  <rect x="11.0" y="-140.0" width="1.3966480446927374" height="150.0" style="fill:cyan;opacity:0.3;"/>
  <text x="11.0" y="10.0" transform="matrix(6.123233995736766E-17,-1.0,1.0,6.123233995736766E-17,1.0,21.0)" style="font-size:1.0000000000000013px;">propranolol</text>
  <rect x="12.0" y="-133.0" width="1.3966480446927374" height="143.0" style="fill:cyan;opacity:0.3;"/>
  <text x="12.0" y="10.0" transform="matrix(6.123233995736766E-17,-1.0,1.0,6.123233995736766E-17,2.0,22.0)" style="font-size:1.0000000000000013px;">fingolimod</text>
  <rect x="14.0" y="-126.0" width="1.3966480446927374" height="136.0" style="fill:cyan;opacity:0.3;"/>
  <text x="14.0" y="10.0" transform="matrix(6.123233995736766E-17,-1.0,1.0,6.123233995736766E-17,4.0,24.0)" style="font-size:1.0000000000000013px;">oxycodone</text>
  <rect x="15.0" y="-126.0" width="1.3966480446927374" height="136.0" style="fill:cyan;opacity:0.3;"/>
  <text x="15.0" y="10.0" transform="matrix(6.123233995736766E-17,-1.0,1.0,6.123233995736766E-17,4.999999999999998,25.0)" style="font-size:1.0000000000000013px;">amitriptyline</text>
  <rect x="16.0" y="-126.0" width="1.3966480446927374" height="136.0" style="fill:cyan;opacity:0.3;"/>
  <text x="16.0" y="10.0" transform="matrix(6.123233995736766E-17,-1.0,1.0,6.123233995736766E-17,5.999999999999998,26.0)" style="font-size:1.0000000000000013px;">natalizumab</text>
  <rect x="18.0" y="-112.0" width="1.3966480446927374" height="122.0" style="fill:cyan;opacity:0.3;"/>
  <text x="18.0" y="10.0" transform="matrix(6.123233995736766E-17,-1.0,1.0,6.123233995736766E-17,7.999999999999998,28.0)" style="font-size:1.0000000000000013px;">alprazolam</text>
  <rect x="19.0" y="-105.0" width="1.3966480446927374" height="115.0" style="fill:cyan;opacity:0.3;"/>
  <text x="19.0" y="10.0" transform="matrix(6.123233995736766E-17,-1.0,1.0,6.123233995736766E-17,8.999999999999998,29.0)" style="font-size:1.0000000000000013px;">codeine</text>
  <rect x="21.0" y="-99.0" width="1.3966480446927374" height="109.0" style="fill:cyan;opacity:0.3;"/>
  <text x="21.0" y="10.0" transform="matrix(6.123233995736766E-17,-1.0,1.0,6.123233995736766E-17,10.999999999999998,31.0)" style="font-size:1.0000000000000013px;">ibuprofen</text>
  <rect x="22.0" y="-99.0" width="1.3966480446927374" height="109.0" style="fill:cyan;opacity:0.3;"/>
  <text x="22.0" y="10.0" transform="matrix(6.123233995736766E-17,-1.0,1.0,6.123233995736766E-17,11.999999999999998,32.0)" style="font-size:1.0000000000000013px;">diphenhydramine</text>
  <rect x="23.0" y="-99.0" width="1.3966480446927374" height="109.0" style="fill:cyan;opacity:0.3;"/>
  <text x="23.0" y="10.0" transform="matrix(6.123233995736766E-17,-1.0,1.0,6.123233995736766E-17,12.999999999999998,33.0)" style="font-size:1.0000000000000013px;">methadone</text>
  <rect x="25.0" y="-92.0" width="1.3966480446927374" height="102.0" style="fill:cyan;opacity:0.3;"/>
  <text x="25.0" y="10.0" transform="matrix(6.123233995736766E-17,-1.0,1.0,6.123233995736766E-17,14.999999999999998,35.0)" style="font-size:1.0000000000000013px;">alemtuzumab</text>
  <rect x="26.0" y="-92.0" width="1.3966480446927374" height="102.0" style="fill:cyan;opacity:0.3;"/>
  <text x="26.0" y="10.0" transform="matrix(6.123233995736766E-17,-1.0,1.0,6.123233995736766E-17,15.999999999999998,36.0)" style="font-size:1.0000000000000013px;">topiramate</text>
  <rect x="28.0" y="-92.0" width="1.3966480446927374" height="102.0" style="fill:cyan;opacity:0.3;"/>
  <text x="28.0" y="10.0" transform="matrix(6.123233995736766E-17,-1.0,1.0,6.123233995736766E-17,18.0,38.0)" style="font-size:1.0000000000000013px;">lidocaine</text>
  <rect x="29.0" y="-78.0" width="1.3966480446927374" height="88.0" style="fill:cyan;opacity:0.3;"/>
  <text x="29.0" y="10.0" transform="matrix(6.123233995736766E-17,-1.0,1.0,6.123233995736766E-17,19.0,39.0)" style="font-size:1.0000000000000013px;">quetiapine</text>
  <rect x="30.0" y="-71.0" width="1.3966480446927374" height="81.0" style="fill:cyan;opacity:0.3;"/>
  <text x="30.0" y="10.0" transform="matrix(6.123233995736766E-17,-1.0,1.0,6.123233995736766E-17,20.0,40.0)" style="font-size:1.0000000000000013px;">glatiramer acet</text>
  <rect x="32.0" y="-71.0" width="1.3966480446927374" height="81.0" style="fill:cyan;opacity:0.3;"/>
  <text x="32.0" y="10.0" transform="matrix(6.123233995736766E-17,-1.0,1.0,6.123233995736766E-17,22.0,42.0)" style="font-size:1.0000000000000013px;">teriflunomide</text>
  <rect x="33.0" y="-65.0" width="1.3966480446927374" height="75.0" style="fill:cyan;opacity:0.3;"/>
  <text x="33.0" y="10.0" transform="matrix(6.123233995736766E-17,-1.0,1.0,6.123233995736766E-17,23.0,43.0)" style="font-size:1.0000000000000013px;">diazepam</text>
  <rect x="35.0" y="-65.0" width="1.3966480446927374" height="75.0" style="fill:cyan;opacity:0.3;"/>
  <text x="35.0" y="10.0" transform="matrix(6.123233995736766E-17,-1.0,1.0,6.123233995736766E-17,25.0,45.0)" style="font-size:1.0000000000000013px;">citalopram</text>
  <rect x="36.0" y="-65.0" width="1.3966480446927374" height="75.0" style="fill:cyan;opacity:0.3;"/>
  <text x="36.0" y="10.0" transform="matrix(6.123233995736766E-17,-1.0,1.0,6.123233995736766E-17,26.0,46.0)" style="font-size:1.0000000000000013px;">methamphetamine</text>
  <rect x="37.0" y="-58.0" width="1.3966480446927374" height="68.0" style="fill:cyan;opacity:0.3;"/>
  <text x="37.0" y="10.0" transform="matrix(6.123233995736766E-17,-1.0,1.0,6.123233995736766E-17,27.0,47.0)" style="font-size:1.0000000000000013px;">hydromorphone</text>
  <rect x="39.0" y="-58.0" width="1.3966480446927374" height="68.0" style="fill:cyan;opacity:0.3;"/>
  <text x="39.0" y="10.0" transform="matrix(6.123233995736766E-17,-1.0,1.0,6.123233995736766E-17,29.0,49.0)" style="font-size:1.0000000000000013px;">fentanyl</text>
  <rect x="40.0" y="-58.0" width="1.3966480446927374" height="68.0" style="fill:cyan;opacity:0.3;"/>
  <text x="40.0" y="10.0" transform="matrix(6.123233995736766E-17,-1.0,1.0,6.123233995736766E-17,30.0,50.0)" style="font-size:1.0000000000000013px;">clonazepam</text>
  <rect x="42.0" y="-58.0" width="1.3966480446927374" height="68.0" style="fill:cyan;opacity:0.3;"/>
  <text x="42.0" y="10.0" transform="matrix(6.123233995736766E-17,-1.0,1.0,6.123233995736766E-17,32.0,52.0)" style="font-size:1.0000000000000013px;">paracetamol</text>
  <rect x="43.0" y="-58.0" width="1.3966480446927374" height="68.0" style="fill:cyan;opacity:0.3;"/>
  <text x="43.0" y="10.0" transform="matrix(6.123233995736766E-17,-1.0,1.0,6.123233995736766E-17,33.0,53.0)" style="font-size:1.0000000000000013px;">amphetamine</text>
  <rect x="44.0" y="-58.0" width="1.3966480446927374" height="68.0" style="fill:cyan;opacity:0.3;"/>
  <text x="44.0" y="10.0" transform="matrix(6.123233995736766E-17,-1.0,1.0,6.123233995736766E-17,34.0,54.0)" style="font-size:1.0000000000000013px;">sertraline</text>
  <rect x="46.0" y="-58.0" width="1.3966480446927374" height="68.0" style="fill:cyan;opacity:0.3;"/>
  <text x="46.0" y="10.0" transform="matrix(6.123233995736766E-17,-1.0,1.0,6.123233995736766E-17,36.0,56.0)" style="font-size:1.0000000000000013px;">nitric oxide</text>
  <rect x="47.0" y="-58.0" width="1.3966480446927374" height="68.0" style="fill:cyan;opacity:0.3;"/>
  <text x="47.0" y="10.0" transform="matrix(6.123233995736766E-17,-1.0,1.0,6.123233995736766E-17,37.0,57.0)" style="font-size:1.0000000000000013px;">tramadol</text>
  <rect x="49.0" y="-58.0" width="1.3966480446927374" height="68.0" style="fill:cyan;opacity:0.3;"/>
  <text x="49.0" y="10.0" transform="matrix(6.123233995736766E-17,-1.0,1.0,6.123233995736766E-17,39.0,59.0)" style="font-size:1.0000000000000013px;">trazodone</text>
  <rect x="50.0" y="-58.0" width="1.3966480446927374" height="68.0" style="fill:cyan;opacity:0.3;"/>
  <text x="50.0" y="10.0" transform="matrix(6.123233995736766E-17,-1.0,1.0,6.123233995736766E-17,40.0,60.0)" style="font-size:1.0000000000000013px;">hydrocodone</text>
  <rect x="51.0" y="-58.0" width="1.3966480446927374" height="68.0" style="fill:cyan;opacity:0.3;"/>
  <text x="51.0" y="10.0" transform="matrix(6.123233995736766E-17,-1.0,1.0,6.123233995736766E-17,41.0,61.0)" style="font-size:1.0000000000000013px;">ketamine</text>
  <rect x="53.0" y="-51.0" width="1.3966480446927374" height="61.0" style="fill:cyan;opacity:0.3;"/>
  <text x="53.0" y="10.0" transform="matrix(6.123233995736766E-17,-1.0,1.0,6.123233995736766E-17,43.0,63.0)" style="font-size:1.0000000000000013px;">interferon beta</text>
  <rect x="54.0" y="-51.0" width="1.3966480446927374" height="61.0" style="fill:cyan;opacity:0.3;"/>
  <text x="54.0" y="10.0" transform="matrix(6.123233995736766E-17,-1.0,1.0,6.123233995736766E-17,44.0,64.0)" style="font-size:1.0000000000000013px;">rituximab</text>
  <rect x="56.0" y="-51.0" width="1.3966480446927374" height="61.0" style="fill:cyan;opacity:0.3;"/>
  <text x="56.0" y="10.0" transform="matrix(6.123233995736766E-17,-1.0,1.0,6.123233995736766E-17,46.0,66.0)" style="font-size:1.0000000000000013px;">metformin</text>
  <rect x="57.0" y="-51.0" width="1.3966480446927374" height="61.0" style="fill:cyan;opacity:0.3;"/>
  <text x="57.0" y="10.0" transform="matrix(6.123233995736766E-17,-1.0,1.0,6.123233995736766E-17,47.0,67.0)" style="font-size:1.0000000000000013px;">lithium</text>
  <rect x="58.0" y="-51.0" width="1.3966480446927374" height="61.0" style="fill:cyan;opacity:0.3;"/>
  <text x="58.0" y="10.0" transform="matrix(6.123233995736766E-17,-1.0,1.0,6.123233995736766E-17,48.0,68.0)" style="font-size:1.0000000000000013px;">melatonin</text>
  <rect x="60.0" y="-51.0" width="1.3966480446927374" height="61.0" style="fill:cyan;opacity:0.3;"/>
  <text x="60.0" y="10.0" transform="matrix(6.123233995736766E-17,-1.0,1.0,6.123233995736766E-17,50.0,70.0)" style="font-size:1.0000000000000013px;">fluoxetine</text>
  <rect x="61.0" y="-51.0" width="1.3966480446927374" height="61.0" style="fill:cyan;opacity:0.3;"/>
  <text x="61.0" y="10.0" transform="matrix(6.123233995736766E-17,-1.0,1.0,6.123233995736766E-17,51.0,71.0)" style="font-size:1.0000000000000013px;">gabapentin</text>
  <rect x="63.0" y="-51.0" width="1.3966480446927374" height="61.0" style="fill:cyan;opacity:0.3;"/>
  <text x="63.0" y="10.0" transform="matrix(6.123233995736766E-17,-1.0,1.0,6.123233995736766E-17,53.0,73.0)" style="font-size:1.0000000000000013px;">fampridine</text>
  <rect x="64.0" y="-51.0" width="1.3966480446927374" height="61.0" style="fill:cyan;opacity:0.3;"/>
  <text x="64.0" y="10.0" transform="matrix(6.123233995736766E-17,-1.0,1.0,6.123233995736766E-17,54.0,74.0)" style="font-size:1.0000000000000013px;">verapamil</text>
  <rect x="65.0" y="-51.0" width="1.3966480446927374" height="61.0" style="fill:cyan;opacity:0.3;"/>
  <text x="65.0" y="10.0" transform="matrix(6.123233995736766E-17,-1.0,1.0,6.123233995736766E-17,55.0,75.0)" style="font-size:1.0000000000000013px;">bupropion</text>
  <rect x="67.0" y="-44.0" width="1.3966480446927374" height="54.0" style="fill:cyan;opacity:0.3;"/>
  <text x="67.0" y="10.0" transform="matrix(6.123233995736766E-17,-1.0,1.0,6.123233995736766E-17,57.0,77.0)" style="font-size:1.0000000000000013px;">cyclobenzaprine</text>
  <rect x="68.0" y="-44.0" width="1.3966480446927374" height="54.0" style="fill:cyan;opacity:0.3;"/>
  <text x="68.0" y="10.0" transform="matrix(6.123233995736766E-17,-1.0,1.0,6.123233995736766E-17,58.0,78.0)" style="font-size:1.0000000000000013px;">zolpidem</text>
  <rect x="70.0" y="-44.0" width="1.3966480446927374" height="54.0" style="fill:cyan;opacity:0.3;"/>
  <text x="70.0" y="10.0" transform="matrix(6.123233995736766E-17,-1.0,1.0,6.123233995736766E-17,60.0,80.0)" style="font-size:1.0000000000000013px;">venlafaxine</text>
  <rect x="71.0" y="-44.0" width="1.3966480446927374" height="54.0" style="fill:cyan;opacity:0.3;"/>
  <text x="71.0" y="10.0" transform="matrix(6.123233995736766E-17,-1.0,1.0,6.123233995736766E-17,61.0,81.0)" style="font-size:1.0000000000000013px;">lamotrigine</text>
  <rect x="72.0" y="-44.0" width="1.3966480446927374" height="54.0" style="fill:cyan;opacity:0.3;"/>
  <text x="72.0" y="10.0" transform="matrix(6.123233995736766E-17,-1.0,1.0,6.123233995736766E-17,62.0,82.0)" style="font-size:1.0000000000000013px;">dopamine</text>
  <rect x="74.0" y="-44.0" width="1.3966480446927374" height="54.0" style="fill:cyan;opacity:0.3;"/>
  <text x="74.0" y="10.0" transform="matrix(6.123233995736766E-17,-1.0,1.0,6.123233995736766E-17,63.99999999999999,84.0)" style="font-size:1.0000000000000013px;">epinephrine</text>
  <rect x="75.0" y="-44.0" width="1.3966480446927374" height="54.0" style="fill:cyan;opacity:0.3;"/>
  <text x="75.0" y="10.0" transform="matrix(6.123233995736766E-17,-1.0,1.0,6.123233995736766E-17,65.0,85.0)" style="font-size:1.0000000000000013px;">metoprolol</text>
  <rect x="77.0" y="-44.0" width="1.3966480446927374" height="54.0" style="fill:cyan;opacity:0.3;"/>
  <text x="77.0" y="10.0" transform="matrix(6.123233995736766E-17,-1.0,1.0,6.123233995736766E-17,67.0,87.0)" style="font-size:1.0000000000000013px;">tryptophan</text>
  <rect x="78.0" y="-44.0" width="1.3966480446927374" height="54.0" style="fill:cyan;opacity:0.3;"/>
  <text x="78.0" y="10.0" transform="matrix(6.123233995736766E-17,-1.0,1.0,6.123233995736766E-17,68.0,88.0)" style="font-size:1.0000000000000013px;">minocycline</text>
  <rect x="79.0" y="-37.0" width="1.3966480446927374" height="47.0" style="fill:cyan;opacity:0.3;"/>
  <text x="79.0" y="10.0" transform="matrix(6.123233995736766E-17,-1.0,1.0,6.123233995736766E-17,69.0,89.0)" style="font-size:1.0000000000000013px;">norepinephrine</text>
  <rect x="81.0" y="-37.0" width="1.3966480446927374" height="47.0" style="fill:cyan;opacity:0.3;"/>
  <text x="81.0" y="10.0" transform="matrix(6.123233995736766E-17,-1.0,1.0,6.123233995736766E-17,71.0,91.0)" style="font-size:1.0000000000000013px;">carisoprodol</text>
  <rect x="82.0" y="-37.0" width="1.3966480446927374" height="47.0" style="fill:cyan;opacity:0.3;"/>
  <text x="82.0" y="10.0" transform="matrix(6.123233995736766E-17,-1.0,1.0,6.123233995736766E-17,72.0,92.0)" style="font-size:1.0000000000000013px;">testosterone</text>
  <rect x="84.0" y="-37.0" width="1.3966480446927374" height="47.0" style="fill:cyan;opacity:0.3;"/>
  <text x="84.0" y="10.0" transform="matrix(6.123233995736766E-17,-1.0,1.0,6.123233995736766E-17,74.0,94.0)" style="font-size:1.0000000000000013px;">amoxicillin</text>
  <rect x="85.0" y="-37.0" width="1.3966480446927374" height="47.0" style="fill:cyan;opacity:0.3;"/>
  <text x="85.0" y="10.0" transform="matrix(6.123233995736766E-17,-1.0,1.0,6.123233995736766E-17,75.0,95.0)" style="font-size:1.0000000000000013px;">amlodipine</text>
  <rect x="86.0" y="-37.0" width="1.3966480446927374" height="47.0" style="fill:cyan;opacity:0.3;"/>
  <text x="86.0" y="10.0" transform="matrix(6.123233995736766E-17,-1.0,1.0,6.123233995736766E-17,76.0,96.0)" style="font-size:1.0000000000000013px;">diltiazem</text>
  <rect x="88.0" y="-37.0" width="1.3966480446927374" height="47.0" style="fill:cyan;opacity:0.3;"/>
  <text x="88.0" y="10.0" transform="matrix(6.123233995736766E-17,-1.0,1.0,6.123233995736766E-17,78.0,98.0)" style="font-size:1.0000000000000013px;">methylphenidate</text>
  <rect x="89.0" y="-37.0" width="1.3966480446927374" height="47.0" style="fill:cyan;opacity:0.3;"/>
  <text x="89.0" y="10.0" transform="matrix(6.123233995736766E-17,-1.0,1.0,6.123233995736766E-17,79.0,99.0)" style="font-size:1.0000000000000013px;">clonidine</text>
  <rect x="91.0" y="-37.0" width="1.3966480446927374" height="47.0" style="fill:cyan;opacity:0.3;"/>
  <text x="91.0" y="10.0" transform="matrix(6.123233995736766E-17,-1.0,1.0,6.123233995736766E-17,81.0,101.0)" style="font-size:1.0000000000000013px;">valproic acid</text>
  <rect x="92.0" y="-37.0" width="1.3966480446927374" height="47.0" style="fill:cyan;opacity:0.3;"/>
  <text x="92.0" y="10.0" transform="matrix(6.123233995736766E-17,-1.0,1.0,6.123233995736766E-17,82.0,102.0)" style="font-size:1.0000000000000013px;">carbamazepine</text>
  <rect x="93.0" y="-37.0" width="1.3966480446927374" height="47.0" style="fill:cyan;opacity:0.3;"/>
  <text x="93.0" y="10.0" transform="matrix(6.123233995736766E-17,-1.0,1.0,6.123233995736766E-17,83.0,103.0)" style="font-size:1.0000000000000013px;">methylprednisol</text>
  <rect x="95.0" y="-37.0" width="1.3966480446927374" height="47.0" style="fill:cyan;opacity:0.3;"/>
  <text x="95.0" y="10.0" transform="matrix(6.123233995736766E-17,-1.0,1.0,6.123233995736766E-17,85.0,105.0)" style="font-size:1.0000000000000013px;">lorazepam</text>
  <rect x="96.0" y="-30.0" width="1.3966480446927374" height="40.0" style="fill:cyan;opacity:0.3;"/>
  <text x="96.0" y="10.0" transform="matrix(6.123233995736766E-17,-1.0,1.0,6.123233995736766E-17,86.0,106.0)" style="font-size:1.0000000000000013px;">memantine</text>
  <rect x="97.0" y="-30.0" width="1.3966480446927374" height="40.0" style="fill:cyan;opacity:0.3;"/>
  <text x="97.0" y="10.0" transform="matrix(6.123233995736766E-17,-1.0,1.0,6.123233995736766E-17,87.0,107.0)" style="font-size:1.0000000000000013px;">paroxetine</text>
  <rect x="99.0" y="-30.0" width="1.3966480446927374" height="40.0" style="fill:cyan;opacity:0.3;"/>
  <text x="99.0" y="10.0" transform="matrix(6.123233995736766E-17,-1.0,1.0,6.123233995736766E-17,89.0,109.0)" style="font-size:1.0000000000000013px;">acetazolamide</text>
  <rect x="100.0" y="-30.0" width="1.3966480446927374" height="40.0" style="fill:cyan;opacity:0.3;"/>
  <text x="100.0" y="10.0" transform="matrix(6.123233995736766E-17,-1.0,1.0,6.123233995736766E-17,90.0,110.0)" style="font-size:1.0000000000000013px;">hydroxyzine</text>
  <rect x="102.0" y="-30.0" width="1.3966480446927374" height="40.0" style="fill:cyan;opacity:0.3;"/>
  <text x="102.0" y="10.0" transform="matrix(6.123233995736766E-17,-1.0,1.0,6.123233995736766E-17,92.0,112.0)" style="font-size:1.0000000000000013px;">digoxin</text>
  <rect x="103.0" y="-30.0" width="1.3966480446927374" height="40.0" style="fill:cyan;opacity:0.3;"/>
  <text x="103.0" y="10.0" transform="matrix(6.123233995736766E-17,-1.0,1.0,6.123233995736766E-17,93.0,113.0)" style="font-size:1.0000000000000013px;">calcitriol</text>
  <rect x="104.0" y="-30.0" width="1.3966480446927374" height="40.0" style="fill:cyan;opacity:0.3;"/>
  <text x="104.0" y="10.0" transform="matrix(6.123233995736766E-17,-1.0,1.0,6.123233995736766E-17,94.0,114.0)" style="font-size:1.0000000000000013px;">methotrexate</text>
  <rect x="106.0" y="-30.0" width="1.3966480446927374" height="40.0" style="fill:cyan;opacity:0.3;"/>
  <text x="106.0" y="10.0" transform="matrix(6.123233995736766E-17,-1.0,1.0,6.123233995736766E-17,96.0,116.0)" style="font-size:1.0000000000000013px;">nortriptyline</text>
  <rect x="107.0" y="-30.0" width="1.3966480446927374" height="40.0" style="fill:cyan;opacity:0.3;"/>
  <text x="107.0" y="10.0" transform="matrix(6.123233995736766E-17,-1.0,1.0,6.123233995736766E-17,97.0,117.0)" style="font-size:1.0000000000000013px;">baclofen</text>
  <rect x="109.0" y="-30.0" width="1.3966480446927374" height="40.0" style="fill:cyan;opacity:0.3;"/>
  <text x="109.0" y="10.0" transform="matrix(6.123233995736766E-17,-1.0,1.0,6.123233995736766E-17,99.0,119.0)" style="font-size:1.0000000000000013px;">duloxetine</text>
  <rect x="110.0" y="-30.0" width="1.3966480446927374" height="40.0" style="fill:cyan;opacity:0.3;"/>
  <text x="110.0" y="10.0" transform="matrix(6.123233995736766E-17,-1.0,1.0,6.123233995736766E-17,100.0,120.0)" style="font-size:1.0000000000000013px;">daclizumab</text>
  <rect x="111.0" y="-30.0" width="1.3966480446927374" height="40.0" style="fill:cyan;opacity:0.3;"/>
  <text x="111.0" y="10.0" transform="matrix(6.123233995736766E-17,-1.0,1.0,6.123233995736766E-17,101.0,121.0)" style="font-size:1.0000000000000013px;">doxylamine</text>
  <rect x="113.0" y="-30.0" width="1.3966480446927374" height="40.0" style="fill:cyan;opacity:0.3;"/>
  <text x="113.0" y="10.0" transform="matrix(6.123233995736766E-17,-1.0,1.0,6.123233995736766E-17,103.0,123.0)" style="font-size:1.0000000000000013px;">oxymorphone</text>
  <rect x="114.0" y="-30.0" width="1.3966480446927374" height="40.0" style="fill:cyan;opacity:0.3;"/>
  <text x="114.0" y="10.0" transform="matrix(6.123233995736766E-17,-1.0,1.0,6.123233995736766E-17,104.0,124.0)" style="font-size:1.0000000000000013px;">valproate</text>
  <rect x="116.0" y="-30.0" width="1.3966480446927374" height="40.0" style="fill:cyan;opacity:0.3;"/>
  <text x="116.0" y="10.0" transform="matrix(6.123233995736766E-17,-1.0,1.0,6.123233995736766E-17,106.0,126.0)" style="font-size:1.0000000000000013px;">sumatriptan</text>
  <rect x="117.0" y="-30.0" width="1.3966480446927374" height="40.0" style="fill:cyan;opacity:0.3;"/>
  <text x="117.0" y="10.0" transform="matrix(6.123233995736766E-17,-1.0,1.0,6.123233995736766E-17,107.0,127.0)" style="font-size:1.0000000000000013px;">promethazine</text>
  <rect x="118.0" y="-30.0" width="1.3966480446927374" height="40.0" style="fill:cyan;opacity:0.3;"/>
  <text x="118.0" y="10.0" transform="matrix(6.123233995736766E-17,-1.0,1.0,6.123233995736766E-17,108.0,128.0)" style="font-size:1.0000000000000013px;">doxepin</text>
  <rect x="120.0" y="-24.0" width="1.3966480446927374" height="34.0" style="fill:cyan;opacity:0.3;"/>
  <text x="120.0" y="10.0" transform="matrix(6.123233995736766E-17,-1.0,1.0,6.123233995736766E-17,110.0,130.0)" style="font-size:1.0000000000000013px;">phenytoin</text>
  <rect x="121.0" y="-24.0" width="1.3966480446927374" height="34.0" style="fill:cyan;opacity:0.3;"/>
  <text x="121.0" y="10.0" transform="matrix(6.123233995736766E-17,-1.0,1.0,6.123233995736766E-17,111.0,131.0)" style="font-size:1.0000000000000013px;">doxycycline</text>
  <rect x="123.0" y="-24.0" width="1.3966480446927374" height="34.0" style="fill:cyan;opacity:0.3;"/>
  <text x="123.0" y="10.0" transform="matrix(6.123233995736766E-17,-1.0,1.0,6.123233995736766E-17,113.0,133.0)" style="font-size:1.0000000000000013px;">furosemide</text>
  <rect x="124.0" y="-24.0" width="1.3966480446927374" height="34.0" style="fill:cyan;opacity:0.3;"/>
  <text x="124.0" y="10.0" transform="matrix(6.123233995736766E-17,-1.0,1.0,6.123233995736766E-17,114.0,134.0)" style="font-size:1.0000000000000013px;">nitroglycerin</text>
  <rect x="125.0" y="-24.0" width="1.3966480446927374" height="34.0" style="fill:cyan;opacity:0.3;"/>
  <text x="125.0" y="10.0" transform="matrix(6.123233995736766E-17,-1.0,1.0,6.123233995736766E-17,115.0,135.0)" style="font-size:1.0000000000000013px;">naloxone</text>
  <rect x="127.0" y="-24.0" width="1.3966480446927374" height="34.0" style="fill:cyan;opacity:0.3;"/>
  <text x="127.0" y="10.0" transform="matrix(6.123233995736766E-17,-1.0,1.0,6.123233995736766E-17,117.0,137.0)" style="font-size:1.0000000000000013px;">propofol</text>
  <rect x="128.0" y="-24.0" width="1.3966480446927374" height="34.0" style="fill:cyan;opacity:0.3;"/>
  <text x="128.0" y="10.0" transform="matrix(6.123233995736766E-17,-1.0,1.0,6.123233995736766E-17,118.0,138.0)" style="font-size:1.0000000000000013px;">risperidone</text>
  <rect x="130.0" y="-24.0" width="1.3966480446927374" height="34.0" style="fill:cyan;opacity:0.3;"/>
  <text x="130.0" y="10.0" transform="matrix(6.123233995736766E-17,-1.0,1.0,6.123233995736766E-17,120.0,140.0)" style="font-size:1.0000000000000013px;">phencyclidine</text>
  <rect x="131.0" y="-24.0" width="1.3966480446927374" height="34.0" style="fill:cyan;opacity:0.3;"/>
  <text x="131.0" y="10.0" transform="matrix(6.123233995736766E-17,-1.0,1.0,6.123233995736766E-17,120.99999999999999,141.0)" style="font-size:1.0000000000000013px;">meprobamate</text>
  <rect x="132.0" y="-24.0" width="1.3966480446927374" height="34.0" style="fill:cyan;opacity:0.3;"/>
  <text x="132.0" y="10.0" transform="matrix(6.123233995736766E-17,-1.0,1.0,6.123233995736766E-17,121.99999999999999,142.0)" style="font-size:1.0000000000000013px;">sildenafil</text>
  <rect x="134.0" y="-24.0" width="1.3966480446927374" height="34.0" style="fill:cyan;opacity:0.3;"/>
  <text x="134.0" y="10.0" transform="matrix(6.123233995736766E-17,-1.0,1.0,6.123233995736766E-17,123.99999999999999,144.0)" style="font-size:1.0000000000000013px;">temazepam</text>
  <rect x="135.0" y="-24.0" width="1.3966480446927374" height="34.0" style="fill:cyan;opacity:0.3;"/>
  <text x="135.0" y="10.0" transform="matrix(6.123233995736766E-17,-1.0,1.0,6.123233995736766E-17,124.99999999999999,145.0)" style="font-size:1.0000000000000013px;">calcitonin</text>
  <rect x="137.0" y="-24.0" width="1.3966480446927374" height="34.0" style="fill:cyan;opacity:0.3;"/>
  <text x="137.0" y="10.0" transform="matrix(6.123233995736766E-17,-1.0,1.0,6.123233995736766E-17,126.99999999999999,147.0)" style="font-size:1.0000000000000013px;">warfarin</text>
  <rect x="138.0" y="-24.0" width="1.3966480446927374" height="34.0" style="fill:cyan;opacity:0.3;"/>
  <text x="138.0" y="10.0" transform="matrix(6.123233995736766E-17,-1.0,1.0,6.123233995736766E-17,127.99999999999999,148.0)" style="font-size:1.0000000000000013px;">cotinine</text>
  <rect x="139.0" y="-24.0" width="1.3966480446927374" height="34.0" style="fill:cyan;opacity:0.3;"/>
  <text x="139.0" y="10.0" transform="matrix(6.123233995736766E-17,-1.0,1.0,6.123233995736766E-17,129.0,149.0)" style="font-size:1.0000000000000013px;">escitalopram</text>
  <rect x="141.0" y="-24.0" width="1.3966480446927374" height="34.0" style="fill:cyan;opacity:0.3;"/>
  <text x="141.0" y="10.0" transform="matrix(6.123233995736766E-17,-1.0,1.0,6.123233995736766E-17,131.0,151.0)" style="font-size:1.0000000000000013px;">glatiramer acet</text>
  <rect x="142.0" y="-17.0" width="1.3966480446927374" height="27.0" style="fill:cyan;opacity:0.3;"/>
  <text x="142.0" y="10.0" transform="matrix(6.123233995736766E-17,-1.0,1.0,6.123233995736766E-17,132.0,152.0)" style="font-size:1.0000000000000013px;">buspirone</text>
  <rect x="144.0" y="-17.0" width="1.3966480446927374" height="27.0" style="fill:cyan;opacity:0.3;"/>
  <text x="144.0" y="10.0" transform="matrix(6.123233995736766E-17,-1.0,1.0,6.123233995736766E-17,134.0,154.0)" style="font-size:1.0000000000000013px;">midazolam</text>
  <rect x="145.0" y="-17.0" width="1.3966480446927374" height="27.0" style="fill:cyan;opacity:0.3;"/>
  <text x="145.0" y="10.0" transform="matrix(6.123233995736766E-17,-1.0,1.0,6.123233995736766E-17,135.0,155.0)" style="font-size:1.0000000000000013px;">nitrous oxide</text>
  <rect x="146.0" y="-17.0" width="1.3966480446927374" height="27.0" style="fill:cyan;opacity:0.3;"/>
  <text x="146.0" y="10.0" transform="matrix(6.123233995736766E-17,-1.0,1.0,6.123233995736766E-17,136.0,156.0)" style="font-size:1.0000000000000013px;">interferon beta</text>
  <rect x="148.0" y="-17.0" width="1.3966480446927374" height="27.0" style="fill:cyan;opacity:0.3;"/>
  <text x="148.0" y="10.0" transform="matrix(6.123233995736766E-17,-1.0,1.0,6.123233995736766E-17,138.0,158.0)" style="font-size:1.0000000000000013px;">prednisolone</text>
  <rect x="149.0" y="-17.0" width="1.3966480446927374" height="27.0" style="fill:cyan;opacity:0.3;"/>
  <text x="149.0" y="10.0" transform="matrix(6.123233995736766E-17,-1.0,1.0,6.123233995736766E-17,139.0,159.0)" style="font-size:1.0000000000000013px;">cetirizine</text>
  <rect x="151.0" y="-17.0" width="1.3966480446927374" height="27.0" style="fill:cyan;opacity:0.3;"/>
  <text x="151.0" y="10.0" transform="matrix(6.123233995736766E-17,-1.0,1.0,6.123233995736766E-17,141.0,161.0)" style="font-size:1.0000000000000013px;">prednisone</text>
  <rect x="152.0" y="-17.0" width="1.3966480446927374" height="27.0" style="fill:cyan;opacity:0.3;"/>
  <text x="152.0" y="10.0" transform="matrix(6.123233995736766E-17,-1.0,1.0,6.123233995736766E-17,142.0,162.0)" style="font-size:1.0000000000000013px;">mirtazapine</text>
  <rect x="153.0" y="-17.0" width="1.3966480446927374" height="27.0" style="fill:cyan;opacity:0.3;"/>
  <text x="153.0" y="10.0" transform="matrix(6.123233995736766E-17,-1.0,1.0,6.123233995736766E-17,143.0,163.0)" style="font-size:1.0000000000000013px;">dalfampridine</text>
  <rect x="155.0" y="-17.0" width="1.3966480446927374" height="27.0" style="fill:cyan;opacity:0.3;"/>
  <text x="155.0" y="10.0" transform="matrix(6.123233995736766E-17,-1.0,1.0,6.123233995736766E-17,145.0,165.0)" style="font-size:1.0000000000000013px;">levetiracetam</text>
  <rect x="156.0" y="-17.0" width="1.3966480446927374" height="27.0" style="fill:cyan;opacity:0.3;"/>
  <text x="156.0" y="10.0" transform="matrix(6.123233995736766E-17,-1.0,1.0,6.123233995736766E-17,146.0,166.0)" style="font-size:1.0000000000000013px;">chlordiazepoxid</text>
  <rect x="158.0" y="-17.0" width="1.3966480446927374" height="27.0" style="fill:cyan;opacity:0.3;"/>
  <text x="158.0" y="10.0" transform="matrix(6.123233995736766E-17,-1.0,1.0,6.123233995736766E-17,148.0,168.0)" style="font-size:1.0000000000000013px;">cholecalciferol</text>
  <rect x="159.0" y="-17.0" width="1.3966480446927374" height="27.0" style="fill:cyan;opacity:0.3;"/>
  <text x="159.0" y="10.0" transform="matrix(6.123233995736766E-17,-1.0,1.0,6.123233995736766E-17,149.0,169.0)" style="font-size:1.0000000000000013px;">amiloride</text>
  <rect x="160.0" y="-17.0" width="1.3966480446927374" height="27.0" style="fill:cyan;opacity:0.3;"/>
  <text x="160.0" y="10.0" transform="matrix(6.123233995736766E-17,-1.0,1.0,6.123233995736766E-17,150.0,170.0)" style="font-size:1.0000000000000013px;">phenobarbital</text>
  <rect x="162.0" y="-17.0" width="1.3966480446927374" height="27.0" style="fill:cyan;opacity:0.3;"/>
  <text x="162.0" y="10.0" transform="matrix(6.123233995736766E-17,-1.0,1.0,6.123233995736766E-17,152.0,172.0)" style="font-size:1.0000000000000013px;">peginterferon b</text>
  <rect x="163.0" y="-17.0" width="1.3966480446927374" height="27.0" style="fill:cyan;opacity:0.3;"/>
  <text x="163.0" y="10.0" transform="matrix(6.123233995736766E-17,-1.0,1.0,6.123233995736766E-17,153.0,173.0)" style="font-size:1.0000000000000013px;">hydroxyurea</text>
  <rect x="165.0" y="-17.0" width="1.3966480446927374" height="27.0" style="fill:cyan;opacity:0.3;"/>
  <text x="165.0" y="10.0" transform="matrix(6.123233995736766E-17,-1.0,1.0,6.123233995736766E-17,155.0,175.0)" style="font-size:1.0000000000000013px;">pregabalin</text>
  <rect x="166.0" y="-17.0" width="1.3966480446927374" height="27.0" style="fill:cyan;opacity:0.3;"/>
  <text x="166.0" y="10.0" transform="matrix(6.123233995736766E-17,-1.0,1.0,6.123233995736766E-17,156.0,176.0)" style="font-size:1.0000000000000013px;">rifampicin</text>
  <rect x="167.0" y="-17.0" width="1.3966480446927374" height="27.0" style="fill:cyan;opacity:0.3;"/>
  <text x="167.0" y="10.0" transform="matrix(6.123233995736766E-17,-1.0,1.0,6.123233995736766E-17,157.0,177.0)" style="font-size:1.0000000000000013px;">adalimumab</text>
  <rect x="169.0" y="-17.0" width="1.3966480446927374" height="27.0" style="fill:cyan;opacity:0.3;"/>
  <text x="169.0" y="10.0" transform="matrix(6.123233995736766E-17,-1.0,1.0,6.123233995736766E-17,159.0,179.0)" style="font-size:1.0000000000000013px;">buprenorphine</text>
  <rect x="170.0" y="-17.0" width="1.3966480446927374" height="27.0" style="fill:cyan;opacity:0.3;"/>
  <text x="170.0" y="10.0" transform="matrix(6.123233995736766E-17,-1.0,1.0,6.123233995736766E-17,160.0,180.0)" style="font-size:1.0000000000000013px;">zonisamide</text>
  <rect x="172.0" y="-17.0" width="1.3966480446927374" height="27.0" style="fill:cyan;opacity:0.3;"/>
  <text x="172.0" y="10.0" transform="matrix(6.123233995736766E-17,-1.0,1.0,6.123233995736766E-17,162.0,182.0)" style="font-size:1.0000000000000013px;">carvedilol</text>
  <rect x="173.0" y="-17.0" width="1.3966480446927374" height="27.0" style="fill:cyan;opacity:0.3;"/>
  <text x="173.0" y="10.0" transform="matrix(6.123233995736766E-17,-1.0,1.0,6.123233995736766E-17,163.0,183.0)" style="font-size:1.0000000000000013px;">olanzapine</text>
  <rect x="174.0" y="-17.0" width="1.3966480446927374" height="27.0" style="fill:cyan;opacity:0.3;"/>
  <text x="174.0" y="10.0" transform="matrix(6.123233995736766E-17,-1.0,1.0,6.123233995736766E-17,164.0,184.0)" style="font-size:1.0000000000000013px;">atenolol</text>
  <rect x="176.0" y="-17.0" width="1.3966480446927374" height="27.0" style="fill:cyan;opacity:0.3;"/>
  <text x="176.0" y="10.0" transform="matrix(6.123233995736766E-17,-1.0,1.0,6.123233995736766E-17,166.0,186.0)" style="font-size:1.0000000000000013px;">glatiramer acet</text>
  <rect x="177.0" y="-10.0" width="1.3966480446927374" height="20.0" style="fill:cyan;opacity:0.3;"/>
  <text x="177.0" y="10.0" transform="matrix(6.123233995736766E-17,-1.0,1.0,6.123233995736766E-17,167.0,187.0)" style="font-size:1.0000000000000013px;">oxazepam</text>
  <rect x="178.0" y="-10.0" width="1.3966480446927374" height="20.0" style="fill:cyan;opacity:0.3;"/>
  <text x="178.0" y="10.0" transform="matrix(6.123233995736766E-17,-1.0,1.0,6.123233995736766E-17,168.0,188.0)" style="font-size:1.0000000000000013px;">flecainide</text>
  <rect x="180.0" y="-10.0" width="1.3966480446927374" height="20.0" style="fill:cyan;opacity:0.3;"/>
  <text x="180.0" y="10.0" transform="matrix(6.123233995736766E-17,-1.0,1.0,6.123233995736766E-17,170.0,190.0)" style="font-size:1.0000000000000013px;">tranexamic acid</text>
  <rect x="181.0" y="-10.0" width="1.3966480446927374" height="20.0" style="fill:cyan;opacity:0.3;"/>
  <text x="181.0" y="10.0" transform="matrix(6.123233995736766E-17,-1.0,1.0,6.123233995736766E-17,171.0,191.0)" style="font-size:1.0000000000000013px;">primidone</text>
  <rect x="183.0" y="-10.0" width="1.3966480446927374" height="20.0" style="fill:cyan;opacity:0.3;"/>
  <text x="183.0" y="10.0" transform="matrix(6.123233995736766E-17,-1.0,1.0,6.123233995736766E-17,173.0,193.0)" style="font-size:1.0000000000000013px;">amantadine</text>
  <rect x="184.0" y="-10.0" width="1.3966480446927374" height="20.0" style="fill:cyan;opacity:0.3;"/>
  <text x="184.0" y="10.0" transform="matrix(6.123233995736766E-17,-1.0,1.0,6.123233995736766E-17,174.0,194.0)" style="font-size:1.0000000000000013px;">atorvastatin</text>
  <rect x="185.0" y="-10.0" width="1.3966480446927374" height="20.0" style="fill:cyan;opacity:0.3;"/>
  <text x="185.0" y="10.0" transform="matrix(6.123233995736766E-17,-1.0,1.0,6.123233995736766E-17,175.0,195.0)" style="font-size:1.0000000000000013px;">pentobarbital</text>
  <rect x="187.0" y="-10.0" width="1.3966480446927374" height="20.0" style="fill:cyan;opacity:0.3;"/>
  <text x="187.0" y="10.0" transform="matrix(6.123233995736766E-17,-1.0,1.0,6.123233995736766E-17,177.0,197.0)" style="font-size:1.0000000000000013px;">donepezil</text>
  <rect x="188.0" y="-10.0" width="1.3966480446927374" height="20.0" style="fill:cyan;opacity:0.3;"/>
  <text x="188.0" y="10.0" transform="matrix(6.123233995736766E-17,-1.0,1.0,6.123233995736766E-17,178.0,198.0)" style="font-size:1.0000000000000013px;">bupivacaine</text>
  <rect x="190.0" y="-10.0" width="1.3966480446927374" height="20.0" style="fill:cyan;opacity:0.3;"/>
  <text x="190.0" y="10.0" transform="matrix(6.123233995736766E-17,-1.0,1.0,6.123233995736766E-17,180.0,200.0)" style="font-size:1.0000000000000013px;">cladribine</text>
  <rect x="191.0" y="-10.0" width="1.3966480446927374" height="20.0" style="fill:cyan;opacity:0.3;"/>
  <text x="191.0" y="10.0" transform="matrix(6.123233995736766E-17,-1.0,1.0,6.123233995736766E-17,181.0,201.0)" style="font-size:1.0000000000000013px;">midodrine</text>
  <rect x="192.0" y="-10.0" width="1.3966480446927374" height="20.0" style="fill:cyan;opacity:0.3;"/>
  <text x="192.0" y="10.0" transform="matrix(6.123233995736766E-17,-1.0,1.0,6.123233995736766E-17,182.0,202.0)" style="font-size:1.0000000000000013px;">levamisole</text>
  <rect x="194.0" y="-10.0" width="1.3966480446927374" height="20.0" style="fill:cyan;opacity:0.3;"/>
  <text x="194.0" y="10.0" transform="matrix(6.123233995736766E-17,-1.0,1.0,6.123233995736766E-17,184.0,204.0)" style="font-size:1.0000000000000013px;">phenylephrine</text>
  <rect x="195.0" y="-10.0" width="1.3966480446927374" height="20.0" style="fill:cyan;opacity:0.3;"/>
  <text x="195.0" y="10.0" transform="matrix(6.123233995736766E-17,-1.0,1.0,6.123233995736766E-17,185.0,205.0)" style="font-size:1.0000000000000013px;">atropine</text>
  <rect x="197.0" y="-10.0" width="1.3966480446927374" height="20.0" style="fill:cyan;opacity:0.3;"/>
  <text x="197.0" y="10.0" transform="matrix(6.123233995736766E-17,-1.0,1.0,6.123233995736766E-17,187.0,207.0)" style="font-size:1.0000000000000013px;">pseudoephedrine</text>
  <rect x="198.0" y="-10.0" width="1.3966480446927374" height="20.0" style="fill:cyan;opacity:0.3;"/>
  <text x="198.0" y="10.0" transform="matrix(6.123233995736766E-17,-1.0,1.0,6.123233995736766E-17,188.0,208.0)" style="font-size:1.0000000000000013px;">zolmitriptan</text>
  <rect x="199.0" y="-10.0" width="1.3966480446927374" height="20.0" style="fill:cyan;opacity:0.3;"/>
  <text x="199.0" y="10.0" transform="matrix(6.123233995736766E-17,-1.0,1.0,6.123233995736766E-17,189.0,209.0)" style="font-size:1.0000000000000013px;">deferoxamine</text>
  <rect x="201.0" y="-10.0" width="1.3966480446927374" height="20.0" style="fill:cyan;opacity:0.3;"/>
  <text x="201.0" y="10.0" transform="matrix(6.123233995736766E-17,-1.0,1.0,6.123233995736766E-17,191.0,211.0)" style="font-size:1.0000000000000013px;">chlorpromazine</text>
  <rect x="202.0" y="-10.0" width="1.3966480446927374" height="20.0" style="fill:cyan;opacity:0.3;"/>
  <text x="202.0" y="10.0" transform="matrix(6.123233995736766E-17,-1.0,1.0,6.123233995736766E-17,192.0,212.0)" style="font-size:1.0000000000000013px;">pramipexole</text>
  <rect x="204.0" y="-10.0" width="1.3966480446927374" height="20.0" style="fill:cyan;opacity:0.3;"/>
  <text x="204.0" y="10.0" transform="matrix(6.123233995736766E-17,-1.0,1.0,6.123233995736766E-17,194.0,214.0)" style="font-size:1.0000000000000013px;">sevoflurane</text>
  <rect x="205.0" y="-10.0" width="1.3966480446927374" height="20.0" style="fill:cyan;opacity:0.3;"/>
  <text x="205.0" y="10.0" transform="matrix(6.123233995736766E-17,-1.0,1.0,6.123233995736766E-17,195.0,215.0)" style="font-size:1.0000000000000013px;">folic acid</text>
  <rect x="206.0" y="-10.0" width="1.3966480446927374" height="20.0" style="fill:cyan;opacity:0.3;"/>
  <text x="206.0" y="10.0" transform="matrix(6.123233995736766E-17,-1.0,1.0,6.123233995736766E-17,196.0,216.0)" style="font-size:1.0000000000000013px;">phentermine</text>
  <rect x="208.0" y="-10.0" width="1.3966480446927374" height="20.0" style="fill:cyan;opacity:0.3;"/>
  <text x="208.0" y="10.0" transform="matrix(6.123233995736766E-17,-1.0,1.0,6.123233995736766E-17,198.0,218.0)" style="font-size:1.0000000000000013px;">fludrocortisone</text>
  <rect x="209.0" y="-10.0" width="1.3966480446927374" height="20.0" style="fill:cyan;opacity:0.3;"/>
  <text x="209.0" y="10.0" transform="matrix(6.123233995736766E-17,-1.0,1.0,6.123233995736766E-17,199.0,219.0)" style="font-size:1.0000000000000013px;">tizanidine</text>
  <rect x="211.0" y="-10.0" width="1.3966480446927374" height="20.0" style="fill:cyan;opacity:0.3;"/>
  <text x="211.0" y="10.0" transform="matrix(6.123233995736766E-17,-1.0,1.0,6.123233995736766E-17,201.0,221.0)" style="font-size:1.0000000000000013px;">tocilizumab</text>
  <rect x="212.0" y="-10.0" width="1.3966480446927374" height="20.0" style="fill:cyan;opacity:0.3;"/>
  <text x="212.0" y="10.0" transform="matrix(6.123233995736766E-17,-1.0,1.0,6.123233995736766E-17,202.0,222.0)" style="font-size:1.0000000000000013px;">ziprasidone</text>
  <rect x="213.0" y="-10.0" width="1.3966480446927374" height="20.0" style="fill:cyan;opacity:0.3;"/>
  <text x="213.0" y="10.0" transform="matrix(6.123233995736766E-17,-1.0,1.0,6.123233995736766E-17,203.0,223.0)" style="font-size:1.0000000000000013px;">nebivolol</text>
  <rect x="215.0" y="-10.0" width="1.3966480446927374" height="20.0" style="fill:cyan;opacity:0.3;"/>
  <text x="215.0" y="10.0" transform="matrix(6.123233995736766E-17,-1.0,1.0,6.123233995736766E-17,205.0,225.0)" style="font-size:1.0000000000000013px;">hydrochlorothia</text>
  <rect x="216.0" y="-10.0" width="1.3966480446927374" height="20.0" style="fill:cyan;opacity:0.3;"/>
  <text x="216.0" y="10.0" transform="matrix(6.123233995736766E-17,-1.0,1.0,6.123233995736766E-17,206.0,226.0)" style="font-size:1.0000000000000013px;">naproxen</text>
  <rect x="218.0" y="-10.0" width="1.3966480446927374" height="20.0" style="fill:cyan;opacity:0.3;"/>
  <text x="218.0" y="10.0" transform="matrix(6.123233995736766E-17,-1.0,1.0,6.123233995736766E-17,208.0,228.0)" style="font-size:1.0000000000000013px;">meloxicam</text>
  <rect x="219.0" y="-10.0" width="1.3966480446927374" height="20.0" style="fill:cyan;opacity:0.3;"/>
  <text x="219.0" y="10.0" transform="matrix(6.123233995736766E-17,-1.0,1.0,6.123233995736766E-17,209.0,229.0)" style="font-size:1.0000000000000013px;">ketorolac</text>
  <rect x="220.0" y="-10.0" width="1.3966480446927374" height="20.0" style="fill:cyan;opacity:0.3;"/>
  <text x="220.0" y="10.0" transform="matrix(6.123233995736766E-17,-1.0,1.0,6.123233995736766E-17,210.0,230.0)" style="font-size:1.0000000000000013px;">estradiol</text>
  <rect x="222.0" y="-10.0" width="1.3966480446927374" height="20.0" style="fill:cyan;opacity:0.3;"/>
  <text x="222.0" y="10.0" transform="matrix(6.123233995736766E-17,-1.0,1.0,6.123233995736766E-17,212.0,232.0)" style="font-size:1.0000000000000013px;">nifedipine</text>
  <rect x="223.0" y="-10.0" width="1.3966480446927374" height="20.0" style="fill:cyan;opacity:0.3;"/>
  <text x="223.0" y="10.0" transform="matrix(6.123233995736766E-17,-1.0,1.0,6.123233995736766E-17,213.0,233.0)" style="font-size:1.0000000000000013px;">simvastatin</text>
  <rect x="225.0" y="-10.0" width="1.3966480446927374" height="20.0" style="fill:cyan;opacity:0.3;"/>
  <text x="225.0" y="10.0" transform="matrix(6.123233995736766E-17,-1.0,1.0,6.123233995736766E-17,215.0,235.0)" style="font-size:1.0000000000000013px;">butalbital</text>
  <rect x="226.0" y="-10.0" width="1.3966480446927374" height="20.0" style="fill:cyan;opacity:0.3;"/>
  <text x="226.0" y="10.0" transform="matrix(6.123233995736766E-17,-1.0,1.0,6.123233995736766E-17,216.0,236.0)" style="font-size:1.0000000000000013px;">rivaroxaban</text>
  <rect x="227.0" y="-10.0" width="1.3966480446927374" height="20.0" style="fill:cyan;opacity:0.3;"/>
  <text x="227.0" y="10.0" transform="matrix(6.123233995736766E-17,-1.0,1.0,6.123233995736766E-17,217.0,237.0)" style="font-size:1.0000000000000013px;">omalizumab</text>
  <rect x="229.0" y="-10.0" width="1.3966480446927374" height="20.0" style="fill:cyan;opacity:0.3;"/>
  <text x="229.0" y="10.0" transform="matrix(6.123233995736766E-17,-1.0,1.0,6.123233995736766E-17,219.0,239.0)" style="font-size:1.0000000000000013px;">omeprazole</text>
  <rect x="230.0" y="-10.0" width="1.3966480446927374" height="20.0" style="fill:cyan;opacity:0.3;"/>
  <text x="230.0" y="10.0" transform="matrix(6.123233995736766E-17,-1.0,1.0,6.123233995736766E-17,220.0,240.0)" style="font-size:1.0000000000000013px;">dexamethasone</text>
  <rect x="232.0" y="-10.0" width="1.3966480446927374" height="20.0" style="fill:cyan;opacity:0.3;"/>
  <text x="232.0" y="10.0" transform="matrix(6.123233995736766E-17,-1.0,1.0,6.123233995736766E-17,222.0,242.0)" style="font-size:1.0000000000000013px;">loratadine</text>
  <rect x="233.0" y="-10.0" width="1.3966480446927374" height="20.0" style="fill:cyan;opacity:0.3;"/>
  <text x="233.0" y="10.0" transform="matrix(6.123233995736766E-17,-1.0,1.0,6.123233995736766E-17,223.0,243.0)" style="font-size:1.0000000000000013px;">ciprofloxacin</text>
  <rect x="234.0" y="-3.0" width="1.3966480446927374" height="13.0" style="fill:cyan;opacity:0.3;"/>
  <text x="234.0" y="10.0" transform="matrix(6.123233995736766E-17,-1.0,1.0,6.123233995736766E-17,224.0,244.0)" style="font-size:1.0000000000000013px;">bleomycin</text>
  <rect x="236.0" y="-3.0" width="1.3966480446927374" height="13.0" style="fill:cyan;opacity:0.3;"/>
  <text x="236.0" y="10.0" transform="matrix(6.123233995736766E-17,-1.0,1.0,6.123233995736766E-17,226.0,246.0)" style="font-size:1.0000000000000013px;">pravastatin</text>
  <rect x="237.0" y="-3.0" width="1.3966480446927374" height="13.0" style="fill:cyan;opacity:0.3;"/>
  <text x="237.0" y="10.0" transform="matrix(6.123233995736766E-17,-1.0,1.0,6.123233995736766E-17,227.0,247.0)" style="font-size:1.0000000000000013px;">infliximab</text>
  <rect x="239.0" y="-3.0" width="1.3966480446927374" height="13.0" style="fill:cyan;opacity:0.3;"/>
  <text x="239.0" y="10.0" transform="matrix(6.123233995736766E-17,-1.0,1.0,6.123233995736766E-17,229.0,249.0)" style="font-size:1.0000000000000013px;">cyclophosphamid</text>
  <rect x="240.0" y="-3.0" width="1.3966480446927374" height="13.0" style="fill:cyan;opacity:0.3;"/>
  <text x="240.0" y="10.0" transform="matrix(6.123233995736766E-17,-1.0,1.0,6.123233995736766E-17,230.0,250.0)" style="font-size:1.0000000000000013px;">belatacept</text>
  <rect x="241.0" y="-3.0" width="1.3966480446927374" height="13.0" style="fill:cyan;opacity:0.3;"/>
  <text x="241.0" y="10.0" transform="matrix(6.123233995736766E-17,-1.0,1.0,6.123233995736766E-17,231.0,251.0)" style="font-size:1.0000000000000013px;">minoxidil</text>
  <rect x="243.0" y="-3.0" width="1.3966480446927374" height="13.0" style="fill:cyan;opacity:0.3;"/>
  <text x="243.0" y="10.0" transform="matrix(6.123233995736766E-17,-1.0,1.0,6.123233995736766E-17,233.0,253.0)" style="font-size:1.0000000000000013px;">losartan</text>
  <rect x="244.0" y="-3.0" width="1.3966480446927374" height="13.0" style="fill:cyan;opacity:0.3;"/>
  <text x="244.0" y="10.0" transform="matrix(6.123233995736766E-17,-1.0,1.0,6.123233995736766E-17,234.0,254.0)" style="font-size:1.0000000000000013px;">ropinirole</text>
  <rect x="246.0" y="-3.0" width="1.3966480446927374" height="13.0" style="fill:cyan;opacity:0.3;"/>
  <text x="246.0" y="10.0" transform="matrix(6.123233995736766E-17,-1.0,1.0,6.123233995736766E-17,236.0,256.0)" style="font-size:1.0000000000000013px;">clodronate</text>
  <rect x="247.0" y="-3.0" width="1.3966480446927374" height="13.0" style="fill:cyan;opacity:0.3;"/>
  <text x="247.0" y="10.0" transform="matrix(6.123233995736766E-17,-1.0,1.0,6.123233995736766E-17,236.99999999999997,257.0)" style="font-size:1.0000000000000013px;">pioglitazone</text>
  <rect x="248.0" y="-3.0" width="1.3966480446927374" height="13.0" style="fill:cyan;opacity:0.3;"/>
  <text x="248.0" y="10.0" transform="matrix(6.123233995736766E-17,-1.0,1.0,6.123233995736766E-17,237.99999999999997,258.0)" style="font-size:1.0000000000000013px;">tafluprost</text>
  <rect x="250.0" y="-3.0" width="1.3966480446927374" height="13.0" style="fill:cyan;opacity:0.3;"/>
  <text x="250.0" y="10.0" transform="matrix(6.123233995736766E-17,-1.0,1.0,6.123233995736766E-17,239.99999999999997,260.0)" style="font-size:1.0000000000000013px;">elosulfase alfa</text>
  <rect x="251.0" y="-3.0" width="1.3966480446927374" height="13.0" style="fill:cyan;opacity:0.3;"/>
  <text x="251.0" y="10.0" transform="matrix(6.123233995736766E-17,-1.0,1.0,6.123233995736766E-17,240.99999999999997,261.0)" style="font-size:1.0000000000000013px;">rizatriptan</text>
  <rect x="253.0" y="-3.0" width="1.3966480446927374" height="13.0" style="fill:cyan;opacity:0.3;"/>
  <text x="253.0" y="10.0" transform="matrix(6.123233995736766E-17,-1.0,1.0,6.123233995736766E-17,242.99999999999997,263.0)" style="font-size:1.0000000000000013px;">celecoxib</text>
  <rect x="254.0" y="-3.0" width="1.3966480446927374" height="13.0" style="fill:cyan;opacity:0.3;"/>
  <text x="254.0" y="10.0" transform="matrix(6.123233995736766E-17,-1.0,1.0,6.123233995736766E-17,243.99999999999997,264.0)" style="font-size:1.0000000000000013px;">budesonide</text>
  <rect x="255.0" y="-3.0" width="1.3966480446927374" height="13.0" style="fill:cyan;opacity:0.3;"/>
  <text x="255.0" y="10.0" transform="matrix(6.123233995736766E-17,-1.0,1.0,6.123233995736766E-17,244.99999999999997,265.0)" style="font-size:1.0000000000000013px;">glibenclamide</text>
  <rect x="257.0" y="-3.0" width="1.3966480446927374" height="13.0" style="fill:cyan;opacity:0.3;"/>
  <text x="257.0" y="10.0" transform="matrix(6.123233995736766E-17,-1.0,1.0,6.123233995736766E-17,246.99999999999997,267.0)" style="font-size:1.0000000000000013px;">desvenlafaxine</text>
  <rect x="258.0" y="-3.0" width="1.3966480446927374" height="13.0" style="fill:cyan;opacity:0.3;"/>
  <text x="258.0" y="10.0" transform="matrix(6.123233995736766E-17,-1.0,1.0,6.123233995736766E-17,247.99999999999997,268.0)" style="font-size:1.0000000000000013px;">canakinumab</text>
  <rect x="260.0" y="-3.0" width="1.3966480446927374" height="13.0" style="fill:cyan;opacity:0.3;"/>
  <text x="260.0" y="10.0" transform="matrix(6.123233995736766E-17,-1.0,1.0,6.123233995736766E-17,249.99999999999997,270.0)" style="font-size:1.0000000000000013px;">labetalol</text>
  <rect x="261.0" y="-3.0" width="1.3966480446927374" height="13.0" style="fill:cyan;opacity:0.3;"/>
  <text x="261.0" y="10.0" transform="matrix(6.123233995736766E-17,-1.0,1.0,6.123233995736766E-17,250.99999999999997,271.0)" style="font-size:1.0000000000000013px;">dihydrocodeine</text>
  <rect x="262.0" y="-3.0" width="1.3966480446927374" height="13.0" style="fill:cyan;opacity:0.3;"/>
  <text x="262.0" y="10.0" transform="matrix(6.123233995736766E-17,-1.0,1.0,6.123233995736766E-17,251.99999999999997,272.0)" style="font-size:1.0000000000000013px;">flunitrazepam</text>
  <rect x="264.0" y="-3.0" width="1.3966480446927374" height="13.0" style="fill:cyan;opacity:0.3;"/>
  <text x="264.0" y="10.0" transform="matrix(6.123233995736766E-17,-1.0,1.0,6.123233995736766E-17,253.99999999999997,274.0)" style="font-size:1.0000000000000013px;">benzonatate</text>
  <rect x="265.0" y="-3.0" width="1.3966480446927374" height="13.0" style="fill:cyan;opacity:0.3;"/>
  <text x="265.0" y="10.0" transform="matrix(6.123233995736766E-17,-1.0,1.0,6.123233995736766E-17,254.99999999999997,275.0)" style="font-size:1.0000000000000013px;">loperamide</text>
  <rect x="266.0" y="-3.0" width="1.3966480446927374" height="13.0" style="fill:cyan;opacity:0.3;"/>
  <text x="266.0" y="10.0" transform="matrix(6.123233995736766E-17,-1.0,1.0,6.123233995736766E-17,255.99999999999997,276.0)" style="font-size:1.0000000000000013px;">glipizide</text>
  <rect x="268.0" y="-3.0" width="1.3966480446927374" height="13.0" style="fill:cyan;opacity:0.3;"/>
  <text x="268.0" y="10.0" transform="matrix(6.123233995736766E-17,-1.0,1.0,6.123233995736766E-17,258.0,278.0)" style="font-size:1.0000000000000013px;">hyaluronidase</text>
  <rect x="269.0" y="-3.0" width="1.3966480446927374" height="13.0" style="fill:cyan;opacity:0.3;"/>
  <text x="269.0" y="10.0" transform="matrix(6.123233995736766E-17,-1.0,1.0,6.123233995736766E-17,259.0,279.0)" style="font-size:1.0000000000000013px;">ribavirin</text>
  <rect x="271.0" y="-3.0" width="1.3966480446927374" height="13.0" style="fill:cyan;opacity:0.3;"/>
  <text x="271.0" y="10.0" transform="matrix(6.123233995736766E-17,-1.0,1.0,6.123233995736766E-17,261.0,281.0)" style="font-size:1.0000000000000013px;">sofosbuvir</text>
  <rect x="272.0" y="-3.0" width="1.3966480446927374" height="13.0" style="fill:cyan;opacity:0.3;"/>
  <text x="272.0" y="10.0" transform="matrix(6.123233995736766E-17,-1.0,1.0,6.123233995736766E-17,262.0,282.0)" style="font-size:1.0000000000000013px;">ondansetron</text>
  <rect x="273.0" y="-3.0" width="1.3966480446927374" height="13.0" style="fill:cyan;opacity:0.3;"/>
  <text x="273.0" y="10.0" transform="matrix(6.123233995736766E-17,-1.0,1.0,6.123233995736766E-17,263.0,283.0)" style="font-size:1.0000000000000013px;">clozapine</text>
  <rect x="275.0" y="-3.0" width="1.3966480446927374" height="13.0" style="fill:cyan;opacity:0.3;"/>
  <text x="275.0" y="10.0" transform="matrix(6.123233995736766E-17,-1.0,1.0,6.123233995736766E-17,265.0,285.0)" style="font-size:1.0000000000000013px;">bumetanide</text>
  <rect x="276.0" y="-3.0" width="1.3966480446927374" height="13.0" style="fill:cyan;opacity:0.3;"/>
  <text x="276.0" y="10.0" transform="matrix(6.123233995736766E-17,-1.0,1.0,6.123233995736766E-17,266.0,286.0)" style="font-size:1.0000000000000013px;">esomeprazole</text>
  <rect x="278.0" y="-3.0" width="1.3966480446927374" height="13.0" style="fill:cyan;opacity:0.3;"/>
  <text x="278.0" y="10.0" transform="matrix(6.123233995736766E-17,-1.0,1.0,6.123233995736766E-17,268.0,288.0)" style="font-size:1.0000000000000013px;">itraconazole</text>
  <rect x="279.0" y="-3.0" width="1.3966480446927374" height="13.0" style="fill:cyan;opacity:0.3;"/>
  <text x="279.0" y="10.0" transform="matrix(6.123233995736766E-17,-1.0,1.0,6.123233995736766E-17,269.0,289.0)" style="font-size:1.0000000000000013px;">nitroprusside</text>
  <rect x="280.0" y="-3.0" width="1.3966480446927374" height="13.0" style="fill:cyan;opacity:0.3;"/>
  <text x="280.0" y="10.0" transform="matrix(6.123233995736766E-17,-1.0,1.0,6.123233995736766E-17,270.0,290.0)" style="font-size:1.0000000000000013px;">metaxalone</text>
  <rect x="282.0" y="-3.0" width="1.3966480446927374" height="13.0" style="fill:cyan;opacity:0.3;"/>
  <text x="282.0" y="10.0" transform="matrix(6.123233995736766E-17,-1.0,1.0,6.123233995736766E-17,272.0,292.0)" style="font-size:1.0000000000000013px;">fluconazole</text>
  <rect x="283.0" y="-3.0" width="1.3966480446927374" height="13.0" style="fill:cyan;opacity:0.3;"/>
  <text x="283.0" y="10.0" transform="matrix(6.123233995736766E-17,-1.0,1.0,6.123233995736766E-17,273.0,293.0)" style="font-size:1.0000000000000013px;">oxybutynin</text>
  <rect x="285.0" y="-3.0" width="1.3966480446927374" height="13.0" style="fill:cyan;opacity:0.3;"/>
  <text x="285.0" y="10.0" transform="matrix(6.123233995736766E-17,-1.0,1.0,6.123233995736766E-17,275.0,295.0)" style="font-size:1.0000000000000013px;">famotidine</text>
  <rect x="286.0" y="-3.0" width="1.3966480446927374" height="13.0" style="fill:cyan;opacity:0.3;"/>
  <text x="286.0" y="10.0" transform="matrix(6.123233995736766E-17,-1.0,1.0,6.123233995736766E-17,276.0,296.0)" style="font-size:1.0000000000000013px;">cephalexin</text>
  <rect x="287.0" y="-3.0" width="1.3966480446927374" height="13.0" style="fill:cyan;opacity:0.3;"/>
  <text x="287.0" y="10.0" transform="matrix(6.123233995736766E-17,-1.0,1.0,6.123233995736766E-17,277.0,297.0)" style="font-size:1.0000000000000013px;">mupirocin</text>
  <rect x="289.0" y="-3.0" width="1.3966480446927374" height="13.0" style="fill:cyan;opacity:0.3;"/>
  <text x="289.0" y="10.0" transform="matrix(6.123233995736766E-17,-1.0,1.0,6.123233995736766E-17,279.0,299.0)" style="font-size:1.0000000000000013px;">hydroxocobalami</text>
  <rect x="290.0" y="-3.0" width="1.3966480446927374" height="13.0" style="fill:cyan;opacity:0.3;"/>
  <text x="290.0" y="10.0" transform="matrix(6.123233995736766E-17,-1.0,1.0,6.123233995736766E-17,280.0,300.0)" style="font-size:1.0000000000000013px;">lysergic acid d</text>
  <rect x="292.0" y="-3.0" width="1.3966480446927374" height="13.0" style="fill:cyan;opacity:0.3;"/>
  <text x="292.0" y="10.0" transform="matrix(6.123233995736766E-17,-1.0,1.0,6.123233995736766E-17,282.0,302.0)" style="font-size:1.0000000000000013px;">hydroxychloroqu</text>
  <rect x="293.0" y="-3.0" width="1.3966480446927374" height="13.0" style="fill:cyan;opacity:0.3;"/>
  <text x="293.0" y="10.0" transform="matrix(6.123233995736766E-17,-1.0,1.0,6.123233995736766E-17,283.0,303.0)" style="font-size:1.0000000000000013px;">orphenadrine</text>
  <rect x="294.0" y="-3.0" width="1.3966480446927374" height="13.0" style="fill:cyan;opacity:0.3;"/>
  <text x="294.0" y="10.0" transform="matrix(6.123233995736766E-17,-1.0,1.0,6.123233995736766E-17,284.0,304.0)" style="font-size:1.0000000000000013px;">dabigatran</text>
  <rect x="296.0" y="-3.0" width="1.3966480446927374" height="13.0" style="fill:cyan;opacity:0.3;"/>
  <text x="296.0" y="10.0" transform="matrix(6.123233995736766E-17,-1.0,1.0,6.123233995736766E-17,286.0,306.0)" style="font-size:1.0000000000000013px;">lovastatin</text>
  <rect x="297.0" y="-3.0" width="1.3966480446927374" height="13.0" style="fill:cyan;opacity:0.3;"/>
  <text x="297.0" y="10.0" transform="matrix(6.123233995736766E-17,-1.0,1.0,6.123233995736766E-17,287.0,307.0)" style="font-size:1.0000000000000013px;">glucagon</text>
  <rect x="299.0" y="-3.0" width="1.3966480446927374" height="13.0" style="fill:cyan;opacity:0.3;"/>
  <text x="299.0" y="10.0" transform="matrix(6.123233995736766E-17,-1.0,1.0,6.123233995736766E-17,289.0,309.0)" style="font-size:1.0000000000000013px;">diclofenac</text>
  <rect x="300.0" y="-3.0" width="1.3966480446927374" height="13.0" style="fill:cyan;opacity:0.3;"/>
  <text x="300.0" y="10.0" transform="matrix(6.123233995736766E-17,-1.0,1.0,6.123233995736766E-17,290.0,310.0)" style="font-size:1.0000000000000013px;">indomethacin</text>
  <rect x="301.0" y="-3.0" width="1.3966480446927374" height="13.0" style="fill:cyan;opacity:0.3;"/>
  <text x="301.0" y="10.0" transform="matrix(6.123233995736766E-17,-1.0,1.0,6.123233995736766E-17,291.0,311.0)" style="font-size:1.0000000000000013px;">propafenone</text>
  <rect x="303.0" y="-3.0" width="1.3966480446927374" height="13.0" style="fill:cyan;opacity:0.3;"/>
  <text x="303.0" y="10.0" transform="matrix(6.123233995736766E-17,-1.0,1.0,6.123233995736766E-17,293.0,313.0)" style="font-size:1.0000000000000013px;">flunarizine</text>
  <rect x="304.0" y="-3.0" width="1.3966480446927374" height="13.0" style="fill:cyan;opacity:0.3;"/>
  <text x="304.0" y="10.0" transform="matrix(6.123233995736766E-17,-1.0,1.0,6.123233995736766E-17,294.0,314.0)" style="font-size:1.0000000000000013px;">riboflavin</text>
  <rect x="306.0" y="-3.0" width="1.3966480446927374" height="13.0" style="fill:cyan;opacity:0.3;"/>
  <text x="306.0" y="10.0" transform="matrix(6.123233995736766E-17,-1.0,1.0,6.123233995736766E-17,296.0,316.0)" style="font-size:1.0000000000000013px;">imipramine</text>
  <rect x="307.0" y="-3.0" width="1.3966480446927374" height="13.0" style="fill:cyan;opacity:0.3;"/>
  <text x="307.0" y="10.0" transform="matrix(6.123233995736766E-17,-1.0,1.0,6.123233995736766E-17,297.0,317.0)" style="font-size:1.0000000000000013px;">fluvoxamine</text>
  <rect x="308.0" y="-3.0" width="1.3966480446927374" height="13.0" style="fill:cyan;opacity:0.3;"/>
  <text x="308.0" y="10.0" transform="matrix(6.123233995736766E-17,-1.0,1.0,6.123233995736766E-17,298.0,318.0)" style="font-size:1.0000000000000013px;">acetylsalicylic</text>
  <rect x="310.0" y="-3.0" width="1.3966480446927374" height="13.0" style="fill:cyan;opacity:0.3;"/>
  <text x="310.0" y="10.0" transform="matrix(6.123233995736766E-17,-1.0,1.0,6.123233995736766E-17,300.0,320.0)" style="font-size:1.0000000000000013px;">anakinra</text>
  <rect x="311.0" y="-3.0" width="1.3966480446927374" height="13.0" style="fill:cyan;opacity:0.3;"/>
  <text x="311.0" y="10.0" transform="matrix(6.123233995736766E-17,-1.0,1.0,6.123233995736766E-17,301.0,321.0)" style="font-size:1.0000000000000013px;">aripiprazole</text>
  <rect x="313.0" y="-3.0" width="1.3966480446927374" height="13.0" style="fill:cyan;opacity:0.3;"/>
  <text x="313.0" y="10.0" transform="matrix(6.123233995736766E-17,-1.0,1.0,6.123233995736766E-17,303.0,323.0)" style="font-size:1.0000000000000013px;">nabumetone</text>
  <rect x="314.0" y="-3.0" width="1.3966480446927374" height="13.0" style="fill:cyan;opacity:0.3;"/>
  <text x="314.0" y="10.0" transform="matrix(6.123233995736766E-17,-1.0,1.0,6.123233995736766E-17,304.0,324.0)" style="font-size:1.0000000000000013px;">sotalol</text>
  <rect x="315.0" y="-3.0" width="1.3966480446927374" height="13.0" style="fill:cyan;opacity:0.3;"/>
  <text x="315.0" y="10.0" transform="matrix(6.123233995736766E-17,-1.0,1.0,6.123233995736766E-17,305.0,325.0)" style="font-size:1.0000000000000013px;">interferon beta</text>
  <rect x="317.0" y="-3.0" width="1.3966480446927374" height="13.0" style="fill:cyan;opacity:0.3;"/>
  <text x="317.0" y="10.0" transform="matrix(6.123233995736766E-17,-1.0,1.0,6.123233995736766E-17,307.0,327.0)" style="font-size:1.0000000000000013px;">flurazepam</text>
  <rect x="318.0" y="-3.0" width="1.3966480446927374" height="13.0" style="fill:cyan;opacity:0.3;"/>
  <text x="318.0" y="10.0" transform="matrix(6.123233995736766E-17,-1.0,1.0,6.123233995736766E-17,308.0,328.0)" style="font-size:1.0000000000000013px;">montelukast</text>
  <rect x="320.0" y="-3.0" width="1.3966480446927374" height="13.0" style="fill:cyan;opacity:0.3;"/>
  <text x="320.0" y="10.0" transform="matrix(6.123233995736766E-17,-1.0,1.0,6.123233995736766E-17,310.0,330.0)" style="font-size:1.0000000000000013px;">interferon beta</text>
  <rect x="321.0" y="-3.0" width="1.3966480446927374" height="13.0" style="fill:cyan;opacity:0.3;"/>
  <text x="321.0" y="10.0" transform="matrix(6.123233995736766E-17,-1.0,1.0,6.123233995736766E-17,311.0,331.0)" style="font-size:1.0000000000000013px;">amobarbital</text>
  <rect x="322.0" y="-3.0" width="1.3966480446927374" height="13.0" style="fill:cyan;opacity:0.3;"/>
  <text x="322.0" y="10.0" transform="matrix(6.123233995736766E-17,-1.0,1.0,6.123233995736766E-17,312.0,332.0)" style="font-size:1.0000000000000013px;">ceftriaxone</text>
  <rect x="324.0" y="-3.0" width="1.3966480446927374" height="13.0" style="fill:cyan;opacity:0.3;"/>
  <text x="324.0" y="10.0" transform="matrix(6.123233995736766E-17,-1.0,1.0,6.123233995736766E-17,314.0,334.0)" style="font-size:1.0000000000000013px;">sodium nitrite</text>
  <rect x="325.0" y="-3.0" width="1.3966480446927374" height="13.0" style="fill:cyan;opacity:0.3;"/>
  <text x="325.0" y="10.0" transform="matrix(6.123233995736766E-17,-1.0,1.0,6.123233995736766E-17,315.0,335.0)" style="font-size:1.0000000000000013px;">tetracycline</text>
  <rect x="327.0" y="-3.0" width="1.3966480446927374" height="13.0" style="fill:cyan;opacity:0.3;"/>
  <text x="327.0" y="10.0" transform="matrix(6.123233995736766E-17,-1.0,1.0,6.123233995736766E-17,317.0,337.0)" style="font-size:1.0000000000000013px;">mitoxantrone</text>
  <rect x="328.0" y="-3.0" width="1.3966480446927374" height="13.0" style="fill:cyan;opacity:0.3;"/>
  <text x="328.0" y="10.0" transform="matrix(6.123233995736766E-17,-1.0,1.0,6.123233995736766E-17,318.0,338.0)" style="font-size:1.0000000000000013px;">glyburide</text>
  <rect x="329.0" y="-3.0" width="1.3966480446927374" height="13.0" style="fill:cyan;opacity:0.3;"/>
  <text x="329.0" y="10.0" transform="matrix(6.123233995736766E-17,-1.0,1.0,6.123233995736766E-17,319.0,339.0)" style="font-size:1.0000000000000013px;">desipramine</text>
  <rect x="331.0" y="-3.0" width="1.3966480446927374" height="13.0" style="fill:cyan;opacity:0.3;"/>
  <text x="331.0" y="10.0" transform="matrix(6.123233995736766E-17,-1.0,1.0,6.123233995736766E-17,321.0,341.0)" style="font-size:1.0000000000000013px;">lisdexamfetamin</text>
  <rect x="332.0" y="-3.0" width="1.3966480446927374" height="13.0" style="fill:cyan;opacity:0.3;"/>
  <text x="332.0" y="10.0" transform="matrix(6.123233995736766E-17,-1.0,1.0,6.123233995736766E-17,322.0,342.0)" style="font-size:1.0000000000000013px;">pizotifen</text>
  <rect x="334.0" y="-3.0" width="1.3966480446927374" height="13.0" style="fill:cyan;opacity:0.3;"/>
  <text x="334.0" y="10.0" transform="matrix(6.123233995736766E-17,-1.0,1.0,6.123233995736766E-17,324.0,344.0)" style="font-size:1.0000000000000013px;">pantoprazole</text>
  <rect x="335.0" y="-3.0" width="1.3966480446927374" height="13.0" style="fill:cyan;opacity:0.3;"/>
  <text x="335.0" y="10.0" transform="matrix(6.123233995736766E-17,-1.0,1.0,6.123233995736766E-17,325.0,345.0)" style="font-size:1.0000000000000013px;">metoclopramide</text>
  <rect x="336.0" y="-3.0" width="1.3966480446927374" height="13.0" style="fill:cyan;opacity:0.3;"/>
  <text x="336.0" y="10.0" transform="matrix(6.123233995736766E-17,-1.0,1.0,6.123233995736766E-17,326.0,346.0)" style="font-size:1.0000000000000013px;">levofloxacin</text>
  <rect x="338.0" y="-3.0" width="1.3966480446927374" height="13.0" style="fill:cyan;opacity:0.3;"/>
  <text x="338.0" y="10.0" transform="matrix(6.123233995736766E-17,-1.0,1.0,6.123233995736766E-17,328.0,348.0)" style="font-size:1.0000000000000013px;">levodopa</text>
  <rect x="339.0" y="-3.0" width="1.3966480446927374" height="13.0" style="fill:cyan;opacity:0.3;"/>
  <text x="339.0" y="10.0" transform="matrix(6.123233995736766E-17,-1.0,1.0,6.123233995736766E-17,329.0,349.0)" style="font-size:1.0000000000000013px;">meclizine</text>
  <rect x="341.0" y="-3.0" width="1.3966480446927374" height="13.0" style="fill:cyan;opacity:0.3;"/>
  <text x="341.0" y="10.0" transform="matrix(6.123233995736766E-17,-1.0,1.0,6.123233995736766E-17,331.0,351.0)" style="font-size:1.0000000000000013px;">iloprost</text>
  <rect x="342.0" y="-3.0" width="1.3966480446927374" height="13.0" style="fill:cyan;opacity:0.3;"/>
  <text x="342.0" y="10.0" transform="matrix(6.123233995736766E-17,-1.0,1.0,6.123233995736766E-17,332.0,352.0)" style="font-size:1.0000000000000013px;">tacrolimus</text>
  <rect x="343.0" y="-3.0" width="1.3966480446927374" height="13.0" style="fill:cyan;opacity:0.3;"/>
  <text x="343.0" y="10.0" transform="matrix(6.123233995736766E-17,-1.0,1.0,6.123233995736766E-17,333.0,353.0)" style="font-size:1.0000000000000013px;">succinylcholine</text>
  <rect x="345.0" y="-3.0" width="1.3966480446927374" height="13.0" style="fill:cyan;opacity:0.3;"/>
  <text x="345.0" y="10.0" transform="matrix(6.123233995736766E-17,-1.0,1.0,6.123233995736766E-17,335.0,355.0)" style="font-size:1.0000000000000013px;">filgrastim</text>
  <rect x="346.0" y="-3.0" width="1.3966480446927374" height="13.0" style="fill:cyan;opacity:0.3;"/>
  <text x="346.0" y="10.0" transform="matrix(6.123233995736766E-17,-1.0,1.0,6.123233995736766E-17,336.0,356.0)" style="font-size:1.0000000000000013px;">asenapine</text>
  <rect x="347.0" y="4.0" width="1.3966480446927374" height="6.0" style="fill:cyan;opacity:0.3;"/>
  <text x="347.0" y="10.0" transform="matrix(6.123233995736766E-17,-1.0,1.0,6.123233995736766E-17,337.0,357.0)" style="font-size:1.0000000000000013px;">roxithromycin</text>
  <rect x="349.0" y="4.0" width="1.3966480446927374" height="6.0" style="fill:cyan;opacity:0.3;"/>
  <text x="349.0" y="10.0" transform="matrix(6.123233995736766E-17,-1.0,1.0,6.123233995736766E-17,339.0,359.0)" style="font-size:1.0000000000000013px;">desogestrel</text>
  <rect x="350.0" y="4.0" width="1.3966480446927374" height="6.0" style="fill:cyan;opacity:0.3;"/>
  <text x="350.0" y="10.0" transform="matrix(6.123233995736766E-17,-1.0,1.0,6.123233995736766E-17,340.0,360.0)" style="font-size:1.0000000000000013px;">laronidase</text>
  <rect x="352.0" y="4.0" width="1.3966480446927374" height="6.0" style="fill:cyan;opacity:0.3;"/>
  <text x="352.0" y="10.0" transform="matrix(6.123233995736766E-17,-1.0,1.0,6.123233995736766E-17,342.0,362.0)" style="font-size:1.0000000000000013px;">folic acid.</text>
  <rect x="353.0" y="4.0" width="1.3966480446927374" height="6.0" style="fill:cyan;opacity:0.3;"/>
  <text x="353.0" y="10.0" transform="matrix(6.123233995736766E-17,-1.0,1.0,6.123233995736766E-17,343.0,363.0)" style="font-size:1.0000000000000013px;">folic acid,</text>
  <rect x="354.0" y="4.0" width="1.3966480446927374" height="6.0" style="fill:cyan;opacity:0.3;"/>
  <text x="354.0" y="10.0" transform="matrix(6.123233995736766E-17,-1.0,1.0,6.123233995736766E-17,344.0,364.0)" style="font-size:1.0000000000000013px;">linaclotide</text>
  <rect x="356.0" y="4.0" width="1.3966480446927374" height="6.0" style="fill:cyan;opacity:0.3;"/>
  <text x="356.0" y="10.0" transform="matrix(6.123233995736766E-17,-1.0,1.0,6.123233995736766E-17,346.0,366.0)" style="font-size:1.0000000000000013px;">ritonavir</text>
  <rect x="357.0" y="4.0" width="1.3966480446927374" height="6.0" style="fill:cyan;opacity:0.3;"/>
  <text x="357.0" y="10.0" transform="matrix(6.123233995736766E-17,-1.0,1.0,6.123233995736766E-17,347.0,367.0)" style="font-size:1.0000000000000013px;">nilvadipine</text>
  <rect x="359.0" y="4.0" width="1.3966480446927374" height="6.0" style="fill:cyan;opacity:0.3;"/>
  <text x="359.0" y="10.0" transform="matrix(6.123233995736766E-17,-1.0,1.0,6.123233995736766E-17,349.0,369.0)" style="font-size:1.0000000000000013px;">tamoxifen</text>
  <rect x="360.0" y="4.0" width="1.3966480446927374" height="6.0" style="fill:cyan;opacity:0.3;"/>
  <text x="360.0" y="10.0" transform="matrix(6.123233995736766E-17,-1.0,1.0,6.123233995736766E-17,350.0,370.0)" style="font-size:1.0000000000000013px;">vincristine</text>
  <rect x="361.0" y="4.0" width="1.3966480446927374" height="6.0" style="fill:cyan;opacity:0.3;"/>
  <text x="361.0" y="10.0" transform="matrix(6.123233995736766E-17,-1.0,1.0,6.123233995736766E-17,351.0,371.0)" style="font-size:1.0000000000000013px;">etanercept</text>
  <rect x="363.0" y="4.0" width="1.3966480446927374" height="6.0" style="fill:cyan;opacity:0.3;"/>
  <text x="363.0" y="10.0" transform="matrix(6.123233995736766E-17,-1.0,1.0,6.123233995736766E-17,353.0,373.0)" style="font-size:1.0000000000000013px;">azathioprine</text>
  <rect x="364.0" y="4.0" width="1.3966480446927374" height="6.0" style="fill:cyan;opacity:0.3;"/>
  <text x="364.0" y="10.0" transform="matrix(6.123233995736766E-17,-1.0,1.0,6.123233995736766E-17,354.0,374.0)" style="font-size:1.0000000000000013px;">zafirlukast</text>
  <rect x="366.0" y="4.0" width="1.3966480446927374" height="6.0" style="fill:cyan;opacity:0.3;"/>
  <text x="366.0" y="10.0" transform="matrix(6.123233995736766E-17,-1.0,1.0,6.123233995736766E-17,356.0,376.0)" style="font-size:1.0000000000000013px;">plerixafor</text>
  <rect x="367.0" y="4.0" width="1.3966480446927374" height="6.0" style="fill:cyan;opacity:0.3;"/>
  <text x="367.0" y="10.0" transform="matrix(6.123233995736766E-17,-1.0,1.0,6.123233995736766E-17,357.0,377.0)" style="font-size:1.0000000000000013px;">nimesulide</text>
  <rect x="368.0" y="4.0" width="1.3966480446927374" height="6.0" style="fill:cyan;opacity:0.3;"/>
  <text x="368.0" y="10.0" transform="matrix(6.123233995736766E-17,-1.0,1.0,6.123233995736766E-17,358.0,378.0)" style="font-size:1.0000000000000013px;">ramipril</text>
  <rect x="370.0" y="4.0" width="1.3966480446927374" height="6.0" style="fill:cyan;opacity:0.3;"/>
  <text x="370.0" y="10.0" transform="matrix(6.123233995736766E-17,-1.0,1.0,6.123233995736766E-17,360.0,380.0)" style="font-size:1.0000000000000013px;">oxcarbazepine</text>
  <rect x="371.0" y="4.0" width="1.3966480446927374" height="6.0" style="fill:cyan;opacity:0.3;"/>
  <text x="371.0" y="10.0" transform="matrix(6.123233995736766E-17,-1.0,1.0,6.123233995736766E-17,361.0,381.0)" style="font-size:1.0000000000000013px;">phenazopyridine</text>
  <rect x="373.0" y="4.0" width="1.3966480446927374" height="6.0" style="fill:cyan;opacity:0.3;"/>
  <text x="373.0" y="10.0" transform="matrix(6.123233995736766E-17,-1.0,1.0,6.123233995736766E-17,363.0,383.0)" style="font-size:1.0000000000000013px;">allopurinol</text>
  <rect x="374.0" y="4.0" width="1.3966480446927374" height="6.0" style="fill:cyan;opacity:0.3;"/>
  <text x="374.0" y="10.0" transform="matrix(6.123233995736766E-17,-1.0,1.0,6.123233995736766E-17,364.0,384.0)" style="font-size:1.0000000000000013px;">liothyronine</text>
  <rect x="375.0" y="4.0" width="1.3966480446927374" height="6.0" style="fill:cyan;opacity:0.3;"/>
  <text x="375.0" y="10.0" transform="matrix(6.123233995736766E-17,-1.0,1.0,6.123233995736766E-17,365.0,385.0)" style="font-size:1.0000000000000013px;">salicylic acid.</text>
  <rect x="377.0" y="4.0" width="1.3966480446927374" height="6.0" style="fill:cyan;opacity:0.3;"/>
  <text x="377.0" y="10.0" transform="matrix(6.123233995736766E-17,-1.0,1.0,6.123233995736766E-17,367.0,387.0)" style="font-size:1.0000000000000013px;">paclitaxel</text>
  <rect x="378.0" y="4.0" width="1.3966480446927374" height="6.0" style="fill:cyan;opacity:0.3;"/>
  <text x="378.0" y="10.0" transform="matrix(6.123233995736766E-17,-1.0,1.0,6.123233995736766E-17,368.0,388.0)" style="font-size:1.0000000000000013px;">nystatin</text>
  <rect x="380.0" y="4.0" width="1.3966480446927374" height="6.0" style="fill:cyan;opacity:0.3;"/>
  <text x="380.0" y="10.0" transform="matrix(6.123233995736766E-17,-1.0,1.0,6.123233995736766E-17,370.0,390.0)" style="font-size:1.0000000000000013px;">urokinase</text>
  <rect x="381.0" y="4.0" width="1.3966480446927374" height="6.0" style="fill:cyan;opacity:0.3;"/>
  <text x="381.0" y="10.0" transform="matrix(6.123233995736766E-17,-1.0,1.0,6.123233995736766E-17,371.0,391.0)" style="font-size:1.0000000000000013px;">eletriptan</text>
  <rect x="382.0" y="4.0" width="1.3966480446927374" height="6.0" style="fill:cyan;opacity:0.3;"/>
  <text x="382.0" y="10.0" transform="matrix(6.123233995736766E-17,-1.0,1.0,6.123233995736766E-17,372.0,392.0)" style="font-size:1.0000000000000013px;">triamcinolone</text>
  <rect x="384.0" y="4.0" width="1.3966480446927374" height="6.0" style="fill:cyan;opacity:0.3;"/>
  <text x="384.0" y="10.0" transform="matrix(6.123233995736766E-17,-1.0,1.0,6.123233995736766E-17,374.0,394.0)" style="font-size:1.0000000000000013px;">isradipine</text>
  <rect x="385.0" y="4.0" width="1.3966480446927374" height="6.0" style="fill:cyan;opacity:0.3;"/>
  <text x="385.0" y="10.0" transform="matrix(6.123233995736766E-17,-1.0,1.0,6.123233995736766E-17,375.0,395.0)" style="font-size:1.0000000000000013px;">dextroamphetami</text>
  <rect x="387.0" y="4.0" width="1.3966480446927374" height="6.0" style="fill:cyan;opacity:0.3;"/>
  <text x="387.0" y="10.0" transform="matrix(6.123233995736766E-17,-1.0,1.0,6.123233995736766E-17,377.0,397.0)" style="font-size:1.0000000000000013px;">methocarbamol</text>
  <rect x="388.0" y="4.0" width="1.3966480446927374" height="6.0" style="fill:cyan;opacity:0.3;"/>
  <text x="388.0" y="10.0" transform="matrix(6.123233995736766E-17,-1.0,1.0,6.123233995736766E-17,378.0,398.0)" style="font-size:1.0000000000000013px;">guanfacine</text>
  <rect x="389.0" y="4.0" width="1.3966480446927374" height="6.0" style="fill:cyan;opacity:0.3;"/>
  <text x="389.0" y="10.0" transform="matrix(6.123233995736766E-17,-1.0,1.0,6.123233995736766E-17,379.0,399.0)" style="font-size:1.0000000000000013px;">thiamine</text>
  <rect x="391.0" y="4.0" width="1.3966480446927374" height="6.0" style="fill:cyan;opacity:0.3;"/>
  <text x="391.0" y="10.0" transform="matrix(6.123233995736766E-17,-1.0,1.0,6.123233995736766E-17,381.0,401.0)" style="font-size:1.0000000000000013px;">cefixime</text>
  <rect x="392.0" y="4.0" width="1.3966480446927374" height="6.0" style="fill:cyan;opacity:0.3;"/>
  <text x="392.0" y="10.0" transform="matrix(6.123233995736766E-17,-1.0,1.0,6.123233995736766E-17,382.0,402.0)" style="font-size:1.0000000000000013px;">clomipramine</text>
  <rect x="394.0" y="4.0" width="1.3966480446927374" height="6.0" style="fill:cyan;opacity:0.3;"/>
  <text x="394.0" y="10.0" transform="matrix(6.123233995736766E-17,-1.0,1.0,6.123233995736766E-17,384.0,404.0)" style="font-size:1.0000000000000013px;">dicyclomine</text>
  <rect x="395.0" y="4.0" width="1.3966480446927374" height="6.0" style="fill:cyan;opacity:0.3;"/>
  <text x="395.0" y="10.0" transform="matrix(6.123233995736766E-17,-1.0,1.0,6.123233995736766E-17,385.0,405.0)" style="font-size:1.0000000000000013px;">oxymetazoline</text>
  <rect x="396.0" y="4.0" width="1.3966480446927374" height="6.0" style="fill:cyan;opacity:0.3;"/>
  <text x="396.0" y="10.0" transform="matrix(6.123233995736766E-17,-1.0,1.0,6.123233995736766E-17,386.0,406.0)" style="font-size:1.0000000000000013px;">medroxyprogeste</text>
  <rect x="398.0" y="4.0" width="1.3966480446927374" height="6.0" style="fill:cyan;opacity:0.3;"/>
  <text x="398.0" y="10.0" transform="matrix(6.123233995736766E-17,-1.0,1.0,6.123233995736766E-17,388.0,408.0)" style="font-size:1.0000000000000013px;">levonorgestrel</text>
  <rect x="399.0" y="4.0" width="1.3966480446927374" height="6.0" style="fill:cyan;opacity:0.3;"/>
  <text x="399.0" y="10.0" transform="matrix(6.123233995736766E-17,-1.0,1.0,6.123233995736766E-17,389.0,409.0)" style="font-size:1.0000000000000013px;">thioridazine</text>
  <rect x="401.0" y="4.0" width="1.3966480446927374" height="6.0" style="fill:cyan;opacity:0.3;"/>
  <text x="401.0" y="10.0" transform="matrix(6.123233995736766E-17,-1.0,1.0,6.123233995736766E-17,391.0,411.0)" style="font-size:1.0000000000000013px;">ethinyl estradi</text>
  <rect x="402.0" y="4.0" width="1.3966480446927374" height="6.0" style="fill:cyan;opacity:0.3;"/>
  <text x="402.0" y="10.0" transform="matrix(6.123233995736766E-17,-1.0,1.0,6.123233995736766E-17,392.0,412.0)" style="font-size:1.0000000000000013px;">daclatasvir</text>
  <rect x="403.0" y="4.0" width="1.3966480446927374" height="6.0" style="fill:cyan;opacity:0.3;"/>
  <text x="403.0" y="10.0" transform="matrix(6.123233995736766E-17,-1.0,1.0,6.123233995736766E-17,393.0,413.0)" style="font-size:1.0000000000000013px;">sitagliptin</text>
  <rect x="405.0" y="4.0" width="1.3966480446927374" height="6.0" style="fill:cyan;opacity:0.3;"/>
  <text x="405.0" y="10.0" transform="matrix(6.123233995736766E-17,-1.0,1.0,6.123233995736766E-17,395.0,415.0)" style="font-size:1.0000000000000013px;">tranexamic acid</text>
  <rect x="406.0" y="4.0" width="1.3966480446927374" height="6.0" style="fill:cyan;opacity:0.3;"/>
  <text x="406.0" y="10.0" transform="matrix(6.123233995736766E-17,-1.0,1.0,6.123233995736766E-17,396.0,416.0)" style="font-size:1.0000000000000013px;">metronidazole</text>
  <rect x="408.0" y="4.0" width="1.3966480446927374" height="6.0" style="fill:cyan;opacity:0.3;"/>
  <text x="408.0" y="10.0" transform="matrix(6.123233995736766E-17,-1.0,1.0,6.123233995736766E-17,398.0,418.0)" style="font-size:1.0000000000000013px;">nicardipine</text>
  <rect x="409.0" y="4.0" width="1.3966480446927374" height="6.0" style="fill:cyan;opacity:0.3;"/>
  <text x="409.0" y="10.0" transform="matrix(6.123233995736766E-17,-1.0,1.0,6.123233995736766E-17,399.0,419.0)" style="font-size:1.0000000000000013px;">finasteride</text>
  <rect x="410.0" y="4.0" width="1.3966480446927374" height="6.0" style="fill:cyan;opacity:0.3;"/>
  <text x="410.0" y="10.0" transform="matrix(6.123233995736766E-17,-1.0,1.0,6.123233995736766E-17,400.0,420.0)" style="font-size:1.0000000000000013px;">tranexamic acid</text>
  <rect x="412.0" y="4.0" width="1.3966480446927374" height="6.0" style="fill:cyan;opacity:0.3;"/>
  <text x="412.0" y="10.0" transform="matrix(6.123233995736766E-17,-1.0,1.0,6.123233995736766E-17,402.0,422.0)" style="font-size:1.0000000000000013px;">fluticasone</text>
  <rect x="413.0" y="4.0" width="1.3966480446927374" height="6.0" style="fill:cyan;opacity:0.3;"/>
  <text x="413.0" y="10.0" transform="matrix(6.123233995736766E-17,-1.0,1.0,6.123233995736766E-17,403.0,423.0)" style="font-size:1.0000000000000013px;">naltrexone</text>
  <rect x="415.0" y="4.0" width="1.3966480446927374" height="6.0" style="fill:cyan;opacity:0.3;"/>
  <text x="415.0" y="10.0" transform="matrix(6.123233995736766E-17,-1.0,1.0,6.123233995736766E-17,405.0,425.0)" style="font-size:1.0000000000000013px;">hydralazine</text>
  <rect x="416.0" y="4.0" width="1.3966480446927374" height="6.0" style="fill:cyan;opacity:0.3;"/>
  <text x="416.0" y="10.0" transform="matrix(6.123233995736766E-17,-1.0,1.0,6.123233995736766E-17,406.0,426.0)" style="font-size:1.0000000000000013px;">etodolac</text>
  <rect x="417.0" y="4.0" width="1.3966480446927374" height="6.0" style="fill:cyan;opacity:0.3;"/>
  <text x="417.0" y="10.0" transform="matrix(6.123233995736766E-17,-1.0,1.0,6.123233995736766E-17,407.0,427.0)" style="font-size:1.0000000000000013px;">pheniramine</text>
  <rect x="419.0" y="4.0" width="1.3966480446927374" height="6.0" style="fill:cyan;opacity:0.3;"/>
  <text x="419.0" y="10.0" transform="matrix(6.123233995736766E-17,-1.0,1.0,6.123233995736766E-17,409.0,429.0)" style="font-size:1.0000000000000013px;">atomoxetine</text>
  <rect x="420.0" y="4.0" width="1.3966480446927374" height="6.0" style="fill:cyan;opacity:0.3;"/>
  <text x="420.0" y="10.0" transform="matrix(6.123233995736766E-17,-1.0,1.0,6.123233995736766E-17,410.0,430.0)" style="font-size:1.0000000000000013px;">tobramycin</text>
  <rect x="422.0" y="4.0" width="1.3966480446927374" height="6.0" style="fill:cyan;opacity:0.3;"/>
  <text x="422.0" y="10.0" transform="matrix(6.123233995736766E-17,-1.0,1.0,6.123233995736766E-17,412.0,432.0)" style="font-size:1.0000000000000013px;">haloperidol</text>
  <rect x="423.0" y="4.0" width="1.3966480446927374" height="6.0" style="fill:cyan;opacity:0.3;"/>
  <text x="423.0" y="10.0" transform="matrix(6.123233995736766E-17,-1.0,1.0,6.123233995736766E-17,413.0,433.0)" style="font-size:1.0000000000000013px;">cyproheptadine</text>
  <rect x="424.0" y="4.0" width="1.3966480446927374" height="6.0" style="fill:cyan;opacity:0.3;"/>
  <text x="424.0" y="10.0" transform="matrix(6.123233995736766E-17,-1.0,1.0,6.123233995736766E-17,414.0,434.0)" style="font-size:1.0000000000000013px;">atazanavir</text>
  <rect x="426.0" y="4.0" width="1.3966480446927374" height="6.0" style="fill:cyan;opacity:0.3;"/>
  <text x="426.0" y="10.0" transform="matrix(6.123233995736766E-17,-1.0,1.0,6.123233995736766E-17,416.0,436.0)" style="font-size:1.0000000000000013px;">flupirtine</text>
  <rect x="427.0" y="4.0" width="1.3966480446927374" height="6.0" style="fill:cyan;opacity:0.3;"/>
  <text x="427.0" y="10.0" transform="matrix(6.123233995736766E-17,-1.0,1.0,6.123233995736766E-17,417.0,437.0)" style="font-size:1.0000000000000013px;">dextran</text>
  <rect x="428.0" y="4.0" width="1.3966480446927374" height="6.0" style="fill:cyan;opacity:0.3;"/>
  <text x="428.0" y="10.0" transform="matrix(6.123233995736766E-17,-1.0,1.0,6.123233995736766E-17,418.0,438.0)" style="font-size:1.0000000000000013px;">paliperidone</text>
  <rect x="430.0" y="4.0" width="1.3966480446927374" height="6.0" style="fill:cyan;opacity:0.3;"/>
  <text x="430.0" y="10.0" transform="matrix(6.123233995736766E-17,-1.0,1.0,6.123233995736766E-17,420.0,440.0)" style="font-size:1.0000000000000013px;">isoflurane</text>
  <rect x="431.0" y="4.0" width="1.3966480446927374" height="6.0" style="fill:cyan;opacity:0.3;"/>
  <text x="431.0" y="10.0" transform="matrix(6.123233995736766E-17,-1.0,1.0,6.123233995736766E-17,421.0,441.0)" style="font-size:1.0000000000000013px;">flumazenil</text>
  <rect x="433.0" y="4.0" width="1.3966480446927374" height="6.0" style="fill:cyan;opacity:0.3;"/>
  <text x="433.0" y="10.0" transform="matrix(6.123233995736766E-17,-1.0,1.0,6.123233995736766E-17,423.0,443.0)" style="font-size:1.0000000000000013px;">tazobactam</text>
  <rect x="434.0" y="4.0" width="1.3966480446927374" height="6.0" style="fill:cyan;opacity:0.3;"/>
  <text x="434.0" y="10.0" transform="matrix(6.123233995736766E-17,-1.0,1.0,6.123233995736766E-17,424.0,444.0)" style="font-size:1.0000000000000013px;">carboplatin</text>
  <rect x="435.0" y="4.0" width="1.3966480446927374" height="6.0" style="fill:cyan;opacity:0.3;"/>
  <text x="435.0" y="10.0" transform="matrix(6.123233995736766E-17,-1.0,1.0,6.123233995736766E-17,425.0,445.0)" style="font-size:1.0000000000000013px;">theobromine</text>
  <rect x="437.0" y="4.0" width="1.3966480446927374" height="6.0" style="fill:cyan;opacity:0.3;"/>
  <text x="437.0" y="10.0" transform="matrix(6.123233995736766E-17,-1.0,1.0,6.123233995736766E-17,427.0,447.0)" style="font-size:1.0000000000000013px;">eprazinone</text>
  <rect x="438.0" y="4.0" width="1.3966480446927374" height="6.0" style="fill:cyan;opacity:0.3;"/>
  <text x="438.0" y="10.0" transform="matrix(6.123233995736766E-17,-1.0,1.0,6.123233995736766E-17,428.0,448.0)" style="font-size:1.0000000000000013px;">ipilimumab</text>
  <rect x="440.0" y="4.0" width="1.3966480446927374" height="6.0" style="fill:cyan;opacity:0.3;"/>
  <text x="440.0" y="10.0" transform="matrix(6.123233995736766E-17,-1.0,1.0,6.123233995736766E-17,430.0,450.0)" style="font-size:1.0000000000000013px;">vancomycin</text>
  <rect x="441.0" y="4.0" width="1.3966480446927374" height="6.0" style="fill:cyan;opacity:0.3;"/>
  <text x="441.0" y="10.0" transform="matrix(6.123233995736766E-17,-1.0,1.0,6.123233995736766E-17,431.0,451.0)" style="font-size:1.0000000000000013px;">rosuvastatin</text>
  <rect x="442.0" y="4.0" width="1.3966480446927374" height="6.0" style="fill:cyan;opacity:0.3;"/>
  <text x="442.0" y="10.0" transform="matrix(6.123233995736766E-17,-1.0,1.0,6.123233995736766E-17,432.0,452.0)" style="font-size:1.0000000000000013px;">nadolol</text>
  <rect x="444.0" y="4.0" width="1.3966480446927374" height="6.0" style="fill:cyan;opacity:0.3;"/>
  <text x="444.0" y="10.0" transform="matrix(6.123233995736766E-17,-1.0,1.0,6.123233995736766E-17,434.0,454.0)" style="font-size:1.0000000000000013px;">ethinyl estradi</text>
  <rect x="445.0" y="4.0" width="1.3966480446927374" height="6.0" style="fill:cyan;opacity:0.3;"/>
  <text x="445.0" y="10.0" transform="matrix(6.123233995736766E-17,-1.0,1.0,6.123233995736766E-17,435.0,455.0)" style="font-size:1.0000000000000013px;">modafinil</text>
  <rect x="447.0" y="4.0" width="1.3966480446927374" height="6.0" style="fill:cyan;opacity:0.3;"/>
  <text x="447.0" y="10.0" transform="matrix(6.123233995736766E-17,-1.0,1.0,6.123233995736766E-17,437.0,457.0)" style="font-size:1.0000000000000013px;">salbutamol</text>
  <rect x="448.0" y="4.0" width="1.3966480446927374" height="6.0" style="fill:cyan;opacity:0.3;"/>
  <text x="448.0" y="10.0" transform="matrix(6.123233995736766E-17,-1.0,1.0,6.123233995736766E-17,438.0,458.0)" style="font-size:1.0000000000000013px;">azithromycin</text>
  <rect x="449.0" y="4.0" width="1.3966480446927374" height="6.0" style="fill:cyan;opacity:0.3;"/>
  <text x="449.0" y="10.0" transform="matrix(6.123233995736766E-17,-1.0,1.0,6.123233995736766E-17,439.0,459.0)" style="font-size:1.0000000000000013px;">galsulfase</text>
  <rect x="451.0" y="4.0" width="1.3966480446927374" height="6.0" style="fill:cyan;opacity:0.3;"/>
  <text x="451.0" y="10.0" transform="matrix(6.123233995736766E-17,-1.0,1.0,6.123233995736766E-17,441.0,461.0)" style="font-size:1.0000000000000013px;">fluphenazine</text>
  <rect x="452.0" y="4.0" width="1.3966480446927374" height="6.0" style="fill:cyan;opacity:0.3;"/>
  <text x="452.0" y="10.0" transform="matrix(6.123233995736766E-17,-1.0,1.0,6.123233995736766E-17,442.0,462.0)" style="font-size:1.0000000000000013px;">nitrous oxide,</text>
  <rect x="454.0" y="4.0" width="1.3966480446927374" height="6.0" style="fill:cyan;opacity:0.3;"/>
  <text x="454.0" y="10.0" transform="matrix(6.123233995736766E-17,-1.0,1.0,6.123233995736766E-17,444.0,464.0)" style="font-size:1.0000000000000013px;">thyroglobulin</text>
  <rect x="455.0" y="4.0" width="1.3966480446927374" height="6.0" style="fill:cyan;opacity:0.3;"/>
  <text x="455.0" y="10.0" transform="matrix(6.123233995736766E-17,-1.0,1.0,6.123233995736766E-17,445.0,465.0)" style="font-size:1.0000000000000013px;">nitric oxide,</text>
  <rect x="456.0" y="4.0" width="1.3966480446927374" height="6.0" style="fill:cyan;opacity:0.3;"/>
  <text x="456.0" y="10.0" transform="matrix(6.123233995736766E-17,-1.0,1.0,6.123233995736766E-17,446.0,466.0)" style="font-size:1.0000000000000013px;">guaifenesin</text>
  <rect x="458.0" y="4.0" width="1.3966480446927374" height="6.0" style="fill:cyan;opacity:0.3;"/>
  <text x="458.0" y="10.0" transform="matrix(6.123233995736766E-17,-1.0,1.0,6.123233995736766E-17,448.0,468.0)" style="font-size:1.0000000000000013px;">nitrous oxide.</text>
  <rect x="459.0" y="4.0" width="1.3966480446927374" height="6.0" style="fill:cyan;opacity:0.3;"/>
  <text x="459.0" y="10.0" transform="matrix(6.123233995736766E-17,-1.0,1.0,6.123233995736766E-17,449.0,469.0)" style="font-size:1.0000000000000013px;">esmolol</text>
  <rect x="461.0" y="4.0" width="1.3966480446927374" height="6.0" style="fill:cyan;opacity:0.3;"/>
  <text x="461.0" y="10.0" transform="matrix(6.123233995736766E-17,-1.0,1.0,6.123233995736766E-17,451.0,471.0)" style="font-size:1.0000000000000013px;">dimercaprol</text>
  <rect x="462.0" y="4.0" width="1.3966480446927374" height="6.0" style="fill:cyan;opacity:0.3;"/>
  <text x="462.0" y="10.0" transform="matrix(6.123233995736766E-17,-1.0,1.0,6.123233995736766E-17,452.0,472.0)" style="font-size:1.0000000000000013px;">ergocalciferol</text>
  <rect x="463.0" y="4.0" width="1.3966480446927374" height="6.0" style="fill:cyan;opacity:0.3;"/>
  <text x="463.0" y="10.0" transform="matrix(6.123233995736766E-17,-1.0,1.0,6.123233995736766E-17,453.0,473.0)" style="font-size:1.0000000000000013px;">varenicline</text>
  <rect x="465.0" y="4.0" width="1.3966480446927374" height="6.0" style="fill:cyan;opacity:0.3;"/>
  <text x="465.0" y="10.0" transform="matrix(6.123233995736766E-17,-1.0,1.0,6.123233995736766E-17,455.0,475.0)" style="font-size:1.0000000000000013px;">cyclosporine</text>
  <rect x="466.0" y="4.0" width="1.3966480446927374" height="6.0" style="fill:cyan;opacity:0.3;"/>
  <text x="466.0" y="10.0" transform="matrix(6.123233995736766E-17,-1.0,1.0,6.123233995736766E-17,456.0,476.0)" style="font-size:1.0000000000000013px;">maraviroc</text>
  <rect x="468.0" y="4.0" width="1.3966480446927374" height="6.0" style="fill:cyan;opacity:0.3;"/>
  <text x="468.0" y="10.0" transform="matrix(6.123233995736766E-17,-1.0,1.0,6.123233995736766E-17,458.0,478.0)" style="font-size:1.0000000000000013px;">tenoxicam</text>
  <rect x="469.0" y="4.0" width="1.3966480446927374" height="6.0" style="fill:cyan;opacity:0.3;"/>
  <text x="469.0" y="10.0" transform="matrix(6.123233995736766E-17,-1.0,1.0,6.123233995736766E-17,459.0,479.0)" style="font-size:1.0000000000000013px;">tapentadol</text>
  <rect x="470.0" y="4.0" width="1.3966480446927374" height="6.0" style="fill:cyan;opacity:0.3;"/>
  <text x="470.0" y="10.0" transform="matrix(6.123233995736766E-17,-1.0,1.0,6.123233995736766E-17,460.0,480.0)" style="font-size:1.0000000000000013px;">dexmedetomidine</text>
  <rect x="472.0" y="4.0" width="1.3966480446927374" height="6.0" style="fill:cyan;opacity:0.3;"/>
  <text x="472.0" y="10.0" transform="matrix(6.123233995736766E-17,-1.0,1.0,6.123233995736766E-17,462.0,482.0)" style="font-size:1.0000000000000013px;">olmesartan</text>
  <rect x="473.0" y="4.0" width="1.3966480446927374" height="6.0" style="fill:cyan;opacity:0.3;"/>
  <text x="473.0" y="10.0" transform="matrix(6.123233995736766E-17,-1.0,1.0,6.123233995736766E-17,463.0,483.0)" style="font-size:1.0000000000000013px;">nicotinamide</text>
  <rect x="475.0" y="4.0" width="1.3966480446927374" height="6.0" style="fill:cyan;opacity:0.3;"/>
  <text x="475.0" y="10.0" transform="matrix(6.123233995736766E-17,-1.0,1.0,6.123233995736766E-17,465.0,485.0)" style="font-size:1.0000000000000013px;">meropenem</text>
  <rect x="476.0" y="4.0" width="1.3966480446927374" height="6.0" style="fill:cyan;opacity:0.3;"/>
  <text x="476.0" y="10.0" transform="matrix(6.123233995736766E-17,-1.0,1.0,6.123233995736766E-17,466.0,486.0)" style="font-size:1.0000000000000013px;">acetylsalicylic</text>
  <rect x="477.0" y="4.0" width="1.3966480446927374" height="6.0" style="fill:cyan;opacity:0.3;"/>
  <text x="477.0" y="10.0" transform="matrix(6.123233995736766E-17,-1.0,1.0,6.123233995736766E-17,467.0,487.0)" style="font-size:1.0000000000000013px;">norethindrone</text>
  <rect x="479.0" y="4.0" width="1.3966480446927374" height="6.0" style="fill:cyan;opacity:0.3;"/>
  <text x="479.0" y="10.0" transform="matrix(6.123233995736766E-17,-1.0,1.0,6.123233995736766E-17,468.99999999999994,489.0)" style="font-size:1.0000000000000013px;">valganciclovir</text>
  <rect x="480.0" y="4.0" width="1.3966480446927374" height="6.0" style="fill:cyan;opacity:0.3;"/>
  <text x="480.0" y="10.0" transform="matrix(6.123233995736766E-17,-1.0,1.0,6.123233995736766E-17,469.99999999999994,490.0)" style="font-size:1.0000000000000013px;">desmopressin</text>
  <rect x="482.0" y="4.0" width="1.3966480446927374" height="6.0" style="fill:cyan;opacity:0.3;"/>
  <text x="482.0" y="10.0" transform="matrix(6.123233995736766E-17,-1.0,1.0,6.123233995736766E-17,471.99999999999994,492.0)" style="font-size:1.0000000000000013px;">ampicillin</text>
  <rect x="483.0" y="4.0" width="1.3966480446927374" height="6.0" style="fill:cyan;opacity:0.3;"/>
  <text x="483.0" y="10.0" transform="matrix(6.123233995736766E-17,-1.0,1.0,6.123233995736766E-17,472.99999999999994,493.0)" style="font-size:1.0000000000000013px;">pralidoxime</text>
  <rect x="484.0" y="4.0" width="1.3966480446927374" height="6.0" style="fill:cyan;opacity:0.3;"/>
  <text x="484.0" y="10.0" transform="matrix(6.123233995736766E-17,-1.0,1.0,6.123233995736766E-17,473.99999999999994,494.0)" style="font-size:1.0000000000000013px;">interferon beta</text>
  <rect x="486.0" y="4.0" width="1.3966480446927374" height="6.0" style="fill:cyan;opacity:0.3;"/>
  <text x="486.0" y="10.0" transform="matrix(6.123233995736766E-17,-1.0,1.0,6.123233995736766E-17,475.99999999999994,496.0)" style="font-size:1.0000000000000013px;">valproic acid,</text>
  <rect x="487.0" y="4.0" width="1.3966480446927374" height="6.0" style="fill:cyan;opacity:0.3;"/>
  <text x="487.0" y="10.0" transform="matrix(6.123233995736766E-17,-1.0,1.0,6.123233995736766E-17,476.99999999999994,497.0)" style="font-size:1.0000000000000013px;">ephedrine</text>
  <rect x="489.0" y="4.0" width="1.3966480446927374" height="6.0" style="fill:cyan;opacity:0.3;"/>
  <text x="489.0" y="10.0" transform="matrix(6.123233995736766E-17,-1.0,1.0,6.123233995736766E-17,478.99999999999994,499.0)" style="font-size:1.0000000000000013px;">valproic acid.</text>
  <rect x="490.0" y="4.0" width="1.3966480446927374" height="6.0" style="fill:cyan;opacity:0.3;"/>
  <text x="490.0" y="10.0" transform="matrix(6.123233995736766E-17,-1.0,1.0,6.123233995736766E-17,479.99999999999994,500.0)" style="font-size:1.0000000000000013px;">hydrocortisone</text>
  <rect x="491.0" y="4.0" width="1.3966480446927374" height="6.0" style="fill:cyan;opacity:0.3;"/>
  <text x="491.0" y="10.0" transform="matrix(6.123233995736766E-17,-1.0,1.0,6.123233995736766E-17,480.99999999999994,501.0)" style="font-size:1.0000000000000013px;">piperacillin</text>
  <rect x="493.0" y="4.0" width="1.3966480446927374" height="6.0" style="fill:cyan;opacity:0.3;"/>
  <text x="493.0" y="10.0" transform="matrix(6.123233995736766E-17,-1.0,1.0,6.123233995736766E-17,482.99999999999994,503.0)" style="font-size:1.0000000000000013px;">prasugrel</text>
  <rect x="494.0" y="4.0" width="1.3966480446927374" height="6.0" style="fill:cyan;opacity:0.3;"/>
  <text x="494.0" y="10.0" transform="matrix(6.123233995736766E-17,-1.0,1.0,6.123233995736766E-17,483.99999999999994,504.0)" style="font-size:1.0000000000000013px;">progesterone</text>
  <rect x="496.0" y="4.0" width="1.3966480446927374" height="6.0" style="fill:cyan;opacity:0.3;"/>
  <text x="496.0" y="10.0" transform="matrix(6.123233995736766E-17,-1.0,1.0,6.123233995736766E-17,485.99999999999994,506.0)" style="font-size:1.0000000000000013px;">disulfiram</text>
  <rect x="497.0" y="4.0" width="1.3966480446927374" height="6.0" style="fill:cyan;opacity:0.3;"/>
  <text x="497.0" y="10.0" transform="matrix(6.123233995736766E-17,-1.0,1.0,6.123233995736766E-17,486.99999999999994,507.0)" style="font-size:1.0000000000000013px;">triazolam</text>
  <rect x="498.0" y="4.0" width="1.3966480446927374" height="6.0" style="fill:cyan;opacity:0.3;"/>
  <text x="498.0" y="10.0" transform="matrix(6.123233995736766E-17,-1.0,1.0,6.123233995736766E-17,487.99999999999994,508.0)" style="font-size:1.0000000000000013px;">methimazole</text>
  <rect x="500.0" y="4.0" width="1.3966480446927374" height="6.0" style="fill:cyan;opacity:0.3;"/>
  <text x="500.0" y="10.0" transform="matrix(6.123233995736766E-17,-1.0,1.0,6.123233995736766E-17,489.99999999999994,510.0)" style="font-size:1.0000000000000013px;">lubiprostone</text>
  <rect x="501.0" y="4.0" width="1.3966480446927374" height="6.0" style="fill:cyan;opacity:0.3;"/>
  <text x="501.0" y="10.0" transform="matrix(6.123233995736766E-17,-1.0,1.0,6.123233995736766E-17,490.99999999999994,511.0)" style="font-size:1.0000000000000013px;">linezolid</text>
  <rect x="503.0" y="4.0" width="1.3966480446927374" height="6.0" style="fill:cyan;opacity:0.3;"/>
  <text x="503.0" y="10.0" transform="matrix(6.123233995736766E-17,-1.0,1.0,6.123233995736766E-17,492.99999999999994,513.0)" style="font-size:1.0000000000000013px;">chlorhexidine</text>
  <rect x="504.0" y="4.0" width="1.3966480446927374" height="6.0" style="fill:cyan;opacity:0.3;"/>
  <text x="504.0" y="10.0" transform="matrix(6.123233995736766E-17,-1.0,1.0,6.123233995736766E-17,493.99999999999994,514.0)" style="font-size:1.0000000000000013px;">propylthiouraci</text>
  <rect x="505.0" y="4.0" width="1.3966480446927374" height="6.0" style="fill:cyan;opacity:0.3;"/>
  <text x="505.0" y="10.0" transform="matrix(6.123233995736766E-17,-1.0,1.0,6.123233995736766E-17,494.99999999999994,515.0)" style="font-size:1.0000000000000013px;">piracetam</text>
  <rect x="507.0" y="4.0" width="1.3966480446927374" height="6.0" style="fill:cyan;opacity:0.3;"/>
  <text x="507.0" y="10.0" transform="matrix(6.123233995736766E-17,-1.0,1.0,6.123233995736766E-17,496.99999999999994,517.0)" style="font-size:1.0000000000000013px;">almotriptan</text>
  <rect x="508.0" y="4.0" width="1.3966480446927374" height="6.0" style="fill:cyan;opacity:0.3;"/>
  <text x="508.0" y="10.0" transform="matrix(6.123233995736766E-17,-1.0,1.0,6.123233995736766E-17,497.99999999999994,518.0)" style="font-size:1.0000000000000013px;">chorionic gonad</text>
 </g>
</svg>
