<?xml version="1.0" encoding="UTF-8"?>
<svg height="20.0" width="519.9047619047619" xmlns="http://www.w3.org/2000/svg">
 <g>
  <rect x="10.0" y="-215.0" width="11.904761904761905" height="225.0" style="fill:cyan;opacity:0.3;"/>
  <text x="10.0" y="10.0" transform="matrix(6.123233995736766E-17,-1.0,1.0,6.123233995736766E-17,0.0,20.0)" style="font-size:1.0000000000000013px;">Helicobacter py</text>
  <rect x="21.0" y="-125.0" width="11.904761904761905" height="135.0" style="fill:cyan;opacity:0.3;"/>
  <text x="21.0" y="10.0" transform="matrix(6.123233995736766E-17,-1.0,1.0,6.123233995736766E-17,10.999999999999998,31.0)" style="font-size:1.0000000000000013px;">Mycoplasma pneu</text>
  <rect x="33.0" y="-80.0" width="11.904761904761905" height="90.0" style="fill:cyan;opacity:0.3;"/>
  <text x="33.0" y="10.0" transform="matrix(6.123233995736766E-17,-1.0,1.0,6.123233995736766E-17,23.0,43.0)" style="font-size:1.0000000000000013px;">Absolute displa</text>
  <rect x="45.0" y="-80.0" width="11.904761904761905" height="90.0" style="fill:cyan;opacity:0.3;"/>
  <text x="45.0" y="10.0" transform="matrix(6.123233995736766E-17,-1.0,1.0,6.123233995736766E-17,35.0,55.0)" style="font-size:1.0000000000000013px;">Escherichia col</text>
  <rect x="57.0" y="-80.0" width="11.904761904761905" height="90.0" style="fill:cyan;opacity:0.3;"/>
  <text x="57.0" y="10.0" transform="matrix(6.123233995736766E-17,-1.0,1.0,6.123233995736766E-17,47.0,67.0)" style="font-size:1.0000000000000013px;">Bifidobacterium</text>
  <rect x="69.0" y="-80.0" width="11.904761904761905" height="90.0" style="fill:cyan;opacity:0.3;"/>
  <text x="69.0" y="10.0" transform="matrix(6.123233995736766E-17,-1.0,1.0,6.123233995736766E-17,59.0,79.0)" style="font-size:1.0000000000000013px;">Lactobacillus r</text>
  <rect x="81.0" y="-80.0" width="11.904761904761905" height="90.0" style="fill:cyan;opacity:0.3;"/>
  <text x="81.0" y="10.0" transform="matrix(6.123233995736766E-17,-1.0,1.0,6.123233995736766E-17,71.0,91.0)" style="font-size:1.0000000000000013px;">Tanacetum parth</text>
  <rect x="93.0" y="-80.0" width="11.904761904761905" height="90.0" style="fill:cyan;opacity:0.3;"/>
  <text x="93.0" y="10.0" transform="matrix(6.123233995736766E-17,-1.0,1.0,6.123233995736766E-17,83.0,103.0)" style="font-size:1.0000000000000013px;">Relative displa</text>
  <rect x="105.0" y="-80.0" width="11.904761904761905" height="90.0" style="fill:cyan;opacity:0.3;"/>
  <text x="105.0" y="10.0" transform="matrix(6.123233995736766E-17,-1.0,1.0,6.123233995736766E-17,95.0,115.0)" style="font-size:1.0000000000000013px;">Fisher test</text>
  <rect x="117.0" y="-80.0" width="11.904761904761905" height="90.0" style="fill:cyan;opacity:0.3;"/>
  <text x="117.0" y="10.0" transform="matrix(6.123233995736766E-17,-1.0,1.0,6.123233995736766E-17,107.0,127.0)" style="font-size:1.0000000000000013px;">Bacillus coagul</text>
  <rect x="129.0" y="-80.0" width="11.904761904761905" height="90.0" style="fill:cyan;opacity:0.3;"/>
  <text x="129.0" y="10.0" transform="matrix(6.123233995736766E-17,-1.0,1.0,6.123233995736766E-17,119.0,139.0)" style="font-size:1.0000000000000013px;">Bartonella hens</text>
  <rect x="140.0" y="-80.0" width="11.904761904761905" height="90.0" style="fill:cyan;opacity:0.3;"/>
  <text x="140.0" y="10.0" transform="matrix(6.123233995736766E-17,-1.0,1.0,6.123233995736766E-17,130.0,150.0)" style="font-size:1.0000000000000013px;">Andrographis pa</text>
  <rect x="152.0" y="-35.0" width="11.904761904761905" height="45.0" style="fill:cyan;opacity:0.3;"/>
  <text x="152.0" y="10.0" transform="matrix(6.123233995736766E-17,-1.0,1.0,6.123233995736766E-17,142.0,162.0)" style="font-size:1.0000000000000013px;">Infantile colic</text>
  <rect x="164.0" y="-35.0" width="11.904761904761905" height="45.0" style="fill:cyan;opacity:0.3;"/>
  <text x="164.0" y="10.0" transform="matrix(6.123233995736766E-17,-1.0,1.0,6.123233995736766E-17,154.0,174.0)" style="font-size:1.0000000000000013px;">Diagnostic test</text>
  <rect x="176.0" y="-35.0" width="11.904761904761905" height="45.0" style="fill:cyan;opacity:0.3;"/>
  <text x="176.0" y="10.0" transform="matrix(6.123233995736766E-17,-1.0,1.0,6.123233995736766E-17,166.0,186.0)" style="font-size:1.0000000000000013px;">Clostridium bot</text>
  <rect x="188.0" y="-35.0" width="11.904761904761905" height="45.0" style="fill:cyan;opacity:0.3;"/>
  <text x="188.0" y="10.0" transform="matrix(6.123233995736766E-17,-1.0,1.0,6.123233995736766E-17,178.0,198.0)" style="font-size:1.0000000000000013px;">Dyalisis headac</text>
  <rect x="200.0" y="-35.0" width="11.904761904761905" height="45.0" style="fill:cyan;opacity:0.3;"/>
  <text x="200.0" y="10.0" transform="matrix(6.123233995736766E-17,-1.0,1.0,6.123233995736766E-17,190.0,210.0)" style="font-size:1.0000000000000013px;">Cardiac cephala</text>
  <rect x="212.0" y="-35.0" width="11.904761904761905" height="45.0" style="fill:cyan;opacity:0.3;"/>
  <text x="212.0" y="10.0" transform="matrix(6.123233995736766E-17,-1.0,1.0,6.123233995736766E-17,202.0,222.0)" style="font-size:1.0000000000000013px;">Friedman test</text>
  <rect x="224.0" y="-35.0" width="11.904761904761905" height="45.0" style="fill:cyan;opacity:0.3;"/>
  <text x="224.0" y="10.0" transform="matrix(6.123233995736766E-17,-1.0,1.0,6.123233995736766E-17,214.0,234.0)" style="font-size:1.0000000000000013px;">H. pylori</text>
  <rect x="236.0" y="-35.0" width="11.904761904761905" height="45.0" style="fill:cyan;opacity:0.3;"/>
  <text x="236.0" y="10.0" transform="matrix(6.123233995736766E-17,-1.0,1.0,6.123233995736766E-17,226.0,246.0)" style="font-size:1.0000000000000013px;">Diving headache</text>
  <rect x="248.0" y="-35.0" width="11.904761904761905" height="45.0" style="fill:cyan;opacity:0.3;"/>
  <text x="248.0" y="10.0" transform="matrix(6.123233995736766E-17,-1.0,1.0,6.123233995736766E-17,237.99999999999997,258.0)" style="font-size:1.0000000000000013px;">Haemophilus inf</text>
  <rect x="260.0" y="-35.0" width="11.904761904761905" height="45.0" style="fill:cyan;opacity:0.3;"/>
  <text x="260.0" y="10.0" transform="matrix(6.123233995736766E-17,-1.0,1.0,6.123233995736766E-17,249.99999999999997,270.0)" style="font-size:1.0000000000000013px;">Abdominal migra</text>
  <rect x="271.0" y="-35.0" width="11.904761904761905" height="45.0" style="fill:cyan;opacity:0.3;"/>
  <text x="271.0" y="10.0" transform="matrix(6.123233995736766E-17,-1.0,1.0,6.123233995736766E-17,261.0,281.0)" style="font-size:1.0000000000000013px;">Recurrent gastr</text>
  <rect x="283.0" y="-35.0" width="11.904761904761905" height="45.0" style="fill:cyan;opacity:0.3;"/>
  <text x="283.0" y="10.0" transform="matrix(6.123233995736766E-17,-1.0,1.0,6.123233995736766E-17,273.0,293.0)" style="font-size:1.0000000000000013px;">Pseudomonas aer</text>
  <rect x="295.0" y="-35.0" width="11.904761904761905" height="45.0" style="fill:cyan;opacity:0.3;"/>
  <text x="295.0" y="10.0" transform="matrix(6.123233995736766E-17,-1.0,1.0,6.123233995736766E-17,285.0,305.0)" style="font-size:1.0000000000000013px;">Bacillus longum</text>
  <rect x="307.0" y="-35.0" width="11.904761904761905" height="45.0" style="fill:cyan;opacity:0.3;"/>
  <text x="307.0" y="10.0" transform="matrix(6.123233995736766E-17,-1.0,1.0,6.123233995736766E-17,297.0,317.0)" style="font-size:1.0000000000000013px;">Opioid medicati</text>
  <rect x="319.0" y="-35.0" width="11.904761904761905" height="45.0" style="fill:cyan;opacity:0.3;"/>
  <text x="319.0" y="10.0" transform="matrix(6.123233995736766E-17,-1.0,1.0,6.123233995736766E-17,309.0,329.0)" style="font-size:1.0000000000000013px;">Lactobacillus r</text>
  <rect x="331.0" y="-35.0" width="11.904761904761905" height="45.0" style="fill:cyan;opacity:0.3;"/>
  <text x="331.0" y="10.0" transform="matrix(6.123233995736766E-17,-1.0,1.0,6.123233995736766E-17,321.0,341.0)" style="font-size:1.0000000000000013px;">Desulfovibrio s</text>
  <rect x="343.0" y="-35.0" width="11.904761904761905" height="45.0" style="fill:cyan;opacity:0.3;"/>
  <text x="343.0" y="10.0" transform="matrix(6.123233995736766E-17,-1.0,1.0,6.123233995736766E-17,333.0,353.0)" style="font-size:1.0000000000000013px;">Streptococcus t</text>
  <rect x="355.0" y="-35.0" width="11.904761904761905" height="45.0" style="fill:cyan;opacity:0.3;"/>
  <text x="355.0" y="10.0" transform="matrix(6.123233995736766E-17,-1.0,1.0,6.123233995736766E-17,345.0,365.0)" style="font-size:1.0000000000000013px;">L. rhamnosus</text>
  <rect x="367.0" y="-35.0" width="11.904761904761905" height="45.0" style="fill:cyan;opacity:0.3;"/>
  <text x="367.0" y="10.0" transform="matrix(6.123233995736766E-17,-1.0,1.0,6.123233995736766E-17,357.0,377.0)" style="font-size:1.0000000000000013px;">Comparison grou</text>
  <rect x="379.0" y="-35.0" width="11.904761904761905" height="45.0" style="fill:cyan;opacity:0.3;"/>
  <text x="379.0" y="10.0" transform="matrix(6.123233995736766E-17,-1.0,1.0,6.123233995736766E-17,369.0,389.0)" style="font-size:1.0000000000000013px;">Relative risk</text>
  <rect x="390.0" y="-35.0" width="11.904761904761905" height="45.0" style="fill:cyan;opacity:0.3;"/>
  <text x="390.0" y="10.0" transform="matrix(6.123233995736766E-17,-1.0,1.0,6.123233995736766E-17,380.0,400.0)" style="font-size:1.0000000000000013px;">Ginkgo biloba</text>
  <rect x="402.0" y="-35.0" width="11.904761904761905" height="45.0" style="fill:cyan;opacity:0.3;"/>
  <text x="402.0" y="10.0" transform="matrix(6.123233995736766E-17,-1.0,1.0,6.123233995736766E-17,392.0,412.0)" style="font-size:1.0000000000000013px;">Caenorhabditis </text>
  <rect x="414.0" y="-35.0" width="11.904761904761905" height="45.0" style="fill:cyan;opacity:0.3;"/>
  <text x="414.0" y="10.0" transform="matrix(6.123233995736766E-17,-1.0,1.0,6.123233995736766E-17,404.0,424.0)" style="font-size:1.0000000000000013px;">Clinical presen</text>
  <rect x="426.0" y="-35.0" width="11.904761904761905" height="45.0" style="fill:cyan;opacity:0.3;"/>
  <text x="426.0" y="10.0" transform="matrix(6.123233995736766E-17,-1.0,1.0,6.123233995736766E-17,416.0,436.0)" style="font-size:1.0000000000000013px;">Curcuma longa</text>
  <rect x="438.0" y="-35.0" width="11.904761904761905" height="45.0" style="fill:cyan;opacity:0.3;"/>
  <text x="438.0" y="10.0" transform="matrix(6.123233995736766E-17,-1.0,1.0,6.123233995736766E-17,428.0,448.0)" style="font-size:1.0000000000000013px;">Bifidobacterium</text>
  <rect x="450.0" y="-35.0" width="11.904761904761905" height="45.0" style="fill:cyan;opacity:0.3;"/>
  <text x="450.0" y="10.0" transform="matrix(6.123233995736766E-17,-1.0,1.0,6.123233995736766E-17,440.0,460.0)" style="font-size:1.0000000000000013px;">Umbellularia ca</text>
  <rect x="462.0" y="-35.0" width="11.904761904761905" height="45.0" style="fill:cyan;opacity:0.3;"/>
  <text x="462.0" y="10.0" transform="matrix(6.123233995736766E-17,-1.0,1.0,6.123233995736766E-17,452.0,472.0)" style="font-size:1.0000000000000013px;">Akkermansia muc</text>
  <rect x="474.0" y="-35.0" width="11.904761904761905" height="45.0" style="fill:cyan;opacity:0.3;"/>
  <text x="474.0" y="10.0" transform="matrix(6.123233995736766E-17,-1.0,1.0,6.123233995736766E-17,464.0,484.0)" style="font-size:1.0000000000000013px;">Bacillus breve</text>
  <rect x="486.0" y="-35.0" width="11.904761904761905" height="45.0" style="fill:cyan;opacity:0.3;"/>
  <text x="486.0" y="10.0" transform="matrix(6.123233995736766E-17,-1.0,1.0,6.123233995736766E-17,475.99999999999994,496.0)" style="font-size:1.0000000000000013px;">Blastocystis ho</text>
  <rect x="498.0" y="-35.0" width="11.904761904761905" height="45.0" style="fill:cyan;opacity:0.3;"/>
  <text x="498.0" y="10.0" transform="matrix(6.123233995736766E-17,-1.0,1.0,6.123233995736766E-17,487.99999999999994,508.0)" style="font-size:1.0000000000000013px;">Although botuli</text>
 </g>
</svg>
