<?xml version="1.0" encoding="UTF-8"?>
<svg height="20.0" width="519.9607843137255" xmlns="http://www.w3.org/2000/svg">
 <g>
  <rect x="10.0" y="-215.0" width="1.9607843137254901" height="225.0" style="fill:cyan;opacity:0.3;"/>
  <text x="10.0" y="10.0" transform="matrix(6.123233995736766E-17,-1.0,1.0,6.123233995736766E-17,0.0,20.0)" style="font-size:1.0000000000000013px;">dopamine</text>
  <rect x="11.0" y="-133.0" width="1.9607843137254901" height="143.0" style="fill:cyan;opacity:0.3;"/>
  <text x="11.0" y="10.0" transform="matrix(6.123233995736766E-17,-1.0,1.0,6.123233995736766E-17,1.0,21.0)" style="font-size:1.0000000000000013px;">propranolol</text>
  <rect x="13.0" y="-112.0" width="1.9607843137254901" height="122.0" style="fill:cyan;opacity:0.3;"/>
  <text x="13.0" y="10.0" transform="matrix(6.123233995736766E-17,-1.0,1.0,6.123233995736766E-17,3.0,23.0)" style="font-size:1.0000000000000013px;">norepinephrine</text>
  <rect x="15.0" y="-97.0" width="1.9607843137254901" height="107.0" style="fill:cyan;opacity:0.3;"/>
  <text x="15.0" y="10.0" transform="matrix(6.123233995736766E-17,-1.0,1.0,6.123233995736766E-17,4.999999999999998,25.0)" style="font-size:1.0000000000000013px;">lidocaine</text>
  <rect x="17.0" y="-87.0" width="1.9607843137254901" height="97.0" style="fill:cyan;opacity:0.3;"/>
  <text x="17.0" y="10.0" transform="matrix(6.123233995736766E-17,-1.0,1.0,6.123233995736766E-17,6.999999999999998,27.0)" style="font-size:1.0000000000000013px;">ibuprofen</text>
  <rect x="19.0" y="-71.0" width="1.9607843137254901" height="81.0" style="fill:cyan;opacity:0.3;"/>
  <text x="19.0" y="10.0" transform="matrix(6.123233995736766E-17,-1.0,1.0,6.123233995736766E-17,8.999999999999998,29.0)" style="font-size:1.0000000000000013px;">topiramate</text>
  <rect x="21.0" y="-66.0" width="1.9607843137254901" height="76.0" style="fill:cyan;opacity:0.3;"/>
  <text x="21.0" y="10.0" transform="matrix(6.123233995736766E-17,-1.0,1.0,6.123233995736766E-17,10.999999999999998,31.0)" style="font-size:1.0000000000000013px;">amitriptyline</text>
  <rect x="23.0" y="-61.0" width="1.9607843137254901" height="71.0" style="fill:cyan;opacity:0.3;"/>
  <text x="23.0" y="10.0" transform="matrix(6.123233995736766E-17,-1.0,1.0,6.123233995736766E-17,12.999999999999998,33.0)" style="font-size:1.0000000000000013px;">ketamine</text>
  <rect x="25.0" y="-56.0" width="1.9607843137254901" height="66.0" style="fill:cyan;opacity:0.3;"/>
  <text x="25.0" y="10.0" transform="matrix(6.123233995736766E-17,-1.0,1.0,6.123233995736766E-17,14.999999999999998,35.0)" style="font-size:1.0000000000000013px;">acetaminophen</text>
  <rect x="27.0" y="-56.0" width="1.9607843137254901" height="66.0" style="fill:cyan;opacity:0.3;"/>
  <text x="27.0" y="10.0" transform="matrix(6.123233995736766E-17,-1.0,1.0,6.123233995736766E-17,17.0,37.0)" style="font-size:1.0000000000000013px;">paracetamol</text>
  <rect x="29.0" y="-56.0" width="1.9607843137254901" height="66.0" style="fill:cyan;opacity:0.3;"/>
  <text x="29.0" y="10.0" transform="matrix(6.123233995736766E-17,-1.0,1.0,6.123233995736766E-17,19.0,39.0)" style="font-size:1.0000000000000013px;">oxytocin</text>
  <rect x="31.0" y="-56.0" width="1.9607843137254901" height="66.0" style="fill:cyan;opacity:0.3;"/>
  <text x="31.0" y="10.0" transform="matrix(6.123233995736766E-17,-1.0,1.0,6.123233995736766E-17,21.0,41.0)" style="font-size:1.0000000000000013px;">nitric oxide</text>
  <rect x="33.0" y="-51.0" width="1.9607843137254901" height="61.0" style="fill:cyan;opacity:0.3;"/>
  <text x="33.0" y="10.0" transform="matrix(6.123233995736766E-17,-1.0,1.0,6.123233995736766E-17,23.0,43.0)" style="font-size:1.0000000000000013px;">gabapentin</text>
  <rect x="35.0" y="-46.0" width="1.9607843137254901" height="56.0" style="fill:cyan;opacity:0.3;"/>
  <text x="35.0" y="10.0" transform="matrix(6.123233995736766E-17,-1.0,1.0,6.123233995736766E-17,25.0,45.0)" style="font-size:1.0000000000000013px;">adenosine</text>
  <rect x="37.0" y="-46.0" width="1.9607843137254901" height="56.0" style="fill:cyan;opacity:0.3;"/>
  <text x="37.0" y="10.0" transform="matrix(6.123233995736766E-17,-1.0,1.0,6.123233995736766E-17,27.0,47.0)" style="font-size:1.0000000000000013px;">carbamazepine</text>
  <rect x="39.0" y="-46.0" width="1.9607843137254901" height="56.0" style="fill:cyan;opacity:0.3;"/>
  <text x="39.0" y="10.0" transform="matrix(6.123233995736766E-17,-1.0,1.0,6.123233995736766E-17,29.0,49.0)" style="font-size:1.0000000000000013px;">valproate</text>
  <rect x="41.0" y="-46.0" width="1.9607843137254901" height="56.0" style="fill:cyan;opacity:0.3;"/>
  <text x="41.0" y="10.0" transform="matrix(6.123233995736766E-17,-1.0,1.0,6.123233995736766E-17,31.0,51.0)" style="font-size:1.0000000000000013px;">sumatriptan</text>
  <rect x="43.0" y="-41.0" width="1.9607843137254901" height="51.0" style="fill:cyan;opacity:0.3;"/>
  <text x="43.0" y="10.0" transform="matrix(6.123233995736766E-17,-1.0,1.0,6.123233995736766E-17,33.0,53.0)" style="font-size:1.0000000000000013px;">methylphenidate</text>
  <rect x="45.0" y="-41.0" width="1.9607843137254901" height="51.0" style="fill:cyan;opacity:0.3;"/>
  <text x="45.0" y="10.0" transform="matrix(6.123233995736766E-17,-1.0,1.0,6.123233995736766E-17,35.0,55.0)" style="font-size:1.0000000000000013px;">duloxetine</text>
  <rect x="47.0" y="-36.0" width="1.9607843137254901" height="46.0" style="fill:cyan;opacity:0.3;"/>
  <text x="47.0" y="10.0" transform="matrix(6.123233995736766E-17,-1.0,1.0,6.123233995736766E-17,37.0,57.0)" style="font-size:1.0000000000000013px;">epinephrine</text>
  <rect x="49.0" y="-36.0" width="1.9607843137254901" height="46.0" style="fill:cyan;opacity:0.3;"/>
  <text x="49.0" y="10.0" transform="matrix(6.123233995736766E-17,-1.0,1.0,6.123233995736766E-17,39.0,59.0)" style="font-size:1.0000000000000013px;">melatonin</text>
  <rect x="51.0" y="-36.0" width="1.9607843137254901" height="46.0" style="fill:cyan;opacity:0.3;"/>
  <text x="51.0" y="10.0" transform="matrix(6.123233995736766E-17,-1.0,1.0,6.123233995736766E-17,41.0,61.0)" style="font-size:1.0000000000000013px;">tryptophan</text>
  <rect x="53.0" y="-30.0" width="1.9607843137254901" height="40.0" style="fill:cyan;opacity:0.3;"/>
  <text x="53.0" y="10.0" transform="matrix(6.123233995736766E-17,-1.0,1.0,6.123233995736766E-17,43.0,63.0)" style="font-size:1.0000000000000013px;">clonidine</text>
  <rect x="55.0" y="-30.0" width="1.9607843137254901" height="40.0" style="fill:cyan;opacity:0.3;"/>
  <text x="55.0" y="10.0" transform="matrix(6.123233995736766E-17,-1.0,1.0,6.123233995736766E-17,45.0,65.0)" style="font-size:1.0000000000000013px;">methamphetamine</text>
  <rect x="57.0" y="-30.0" width="1.9607843137254901" height="40.0" style="fill:cyan;opacity:0.3;"/>
  <text x="57.0" y="10.0" transform="matrix(6.123233995736766E-17,-1.0,1.0,6.123233995736766E-17,47.0,67.0)" style="font-size:1.0000000000000013px;">minocycline</text>
  <rect x="59.0" y="-25.0" width="1.9607843137254901" height="35.0" style="fill:cyan;opacity:0.3;"/>
  <text x="59.0" y="10.0" transform="matrix(6.123233995736766E-17,-1.0,1.0,6.123233995736766E-17,49.0,69.0)" style="font-size:1.0000000000000013px;">rizatriptan</text>
  <rect x="60.0" y="-25.0" width="1.9607843137254901" height="35.0" style="fill:cyan;opacity:0.3;"/>
  <text x="60.0" y="10.0" transform="matrix(6.123233995736766E-17,-1.0,1.0,6.123233995736766E-17,50.0,70.0)" style="font-size:1.0000000000000013px;">codeine</text>
  <rect x="62.0" y="-25.0" width="1.9607843137254901" height="35.0" style="fill:cyan;opacity:0.3;"/>
  <text x="62.0" y="10.0" transform="matrix(6.123233995736766E-17,-1.0,1.0,6.123233995736766E-17,52.0,72.0)" style="font-size:1.0000000000000013px;">naloxone</text>
  <rect x="64.0" y="-25.0" width="1.9607843137254901" height="35.0" style="fill:cyan;opacity:0.3;"/>
  <text x="64.0" y="10.0" transform="matrix(6.123233995736766E-17,-1.0,1.0,6.123233995736766E-17,54.0,74.0)" style="font-size:1.0000000000000013px;">fluoxetine</text>
  <rect x="66.0" y="-25.0" width="1.9607843137254901" height="35.0" style="fill:cyan;opacity:0.3;"/>
  <text x="66.0" y="10.0" transform="matrix(6.123233995736766E-17,-1.0,1.0,6.123233995736766E-17,56.0,76.0)" style="font-size:1.0000000000000013px;">calcitonin</text>
  <rect x="68.0" y="-25.0" width="1.9607843137254901" height="35.0" style="fill:cyan;opacity:0.3;"/>
  <text x="68.0" y="10.0" transform="matrix(6.123233995736766E-17,-1.0,1.0,6.123233995736766E-17,58.0,78.0)" style="font-size:1.0000000000000013px;">hydrocortisone</text>
  <rect x="70.0" y="-20.0" width="1.9607843137254901" height="30.0" style="fill:cyan;opacity:0.3;"/>
  <text x="70.0" y="10.0" transform="matrix(6.123233995736766E-17,-1.0,1.0,6.123233995736766E-17,60.0,80.0)" style="font-size:1.0000000000000013px;">acetazolamide</text>
  <rect x="72.0" y="-20.0" width="1.9607843137254901" height="30.0" style="fill:cyan;opacity:0.3;"/>
  <text x="72.0" y="10.0" transform="matrix(6.123233995736766E-17,-1.0,1.0,6.123233995736766E-17,62.0,82.0)" style="font-size:1.0000000000000013px;">sertraline</text>
  <rect x="74.0" y="-20.0" width="1.9607843137254901" height="30.0" style="fill:cyan;opacity:0.3;"/>
  <text x="74.0" y="10.0" transform="matrix(6.123233995736766E-17,-1.0,1.0,6.123233995736766E-17,63.99999999999999,84.0)" style="font-size:1.0000000000000013px;">phenobarbital</text>
  <rect x="76.0" y="-20.0" width="1.9607843137254901" height="30.0" style="fill:cyan;opacity:0.3;"/>
  <text x="76.0" y="10.0" transform="matrix(6.123233995736766E-17,-1.0,1.0,6.123233995736766E-17,66.0,86.0)" style="font-size:1.0000000000000013px;">progesterone</text>
  <rect x="78.0" y="-15.0" width="1.9607843137254901" height="25.0" style="fill:cyan;opacity:0.3;"/>
  <text x="78.0" y="10.0" transform="matrix(6.123233995736766E-17,-1.0,1.0,6.123233995736766E-17,68.0,88.0)" style="font-size:1.0000000000000013px;">tamoxifen</text>
  <rect x="80.0" y="-15.0" width="1.9607843137254901" height="25.0" style="fill:cyan;opacity:0.3;"/>
  <text x="80.0" y="10.0" transform="matrix(6.123233995736766E-17,-1.0,1.0,6.123233995736766E-17,70.0,90.0)" style="font-size:1.0000000000000013px;">venlafaxine</text>
  <rect x="82.0" y="-15.0" width="1.9607843137254901" height="25.0" style="fill:cyan;opacity:0.3;"/>
  <text x="82.0" y="10.0" transform="matrix(6.123233995736766E-17,-1.0,1.0,6.123233995736766E-17,72.0,92.0)" style="font-size:1.0000000000000013px;">zolmitriptan</text>
  <rect x="84.0" y="-15.0" width="1.9607843137254901" height="25.0" style="fill:cyan;opacity:0.3;"/>
  <text x="84.0" y="10.0" transform="matrix(6.123233995736766E-17,-1.0,1.0,6.123233995736766E-17,74.0,94.0)" style="font-size:1.0000000000000013px;">amoxicillin</text>
  <rect x="86.0" y="-15.0" width="1.9607843137254901" height="25.0" style="fill:cyan;opacity:0.3;"/>
  <text x="86.0" y="10.0" transform="matrix(6.123233995736766E-17,-1.0,1.0,6.123233995736766E-17,76.0,96.0)" style="font-size:1.0000000000000013px;">thalidomide</text>
  <rect x="88.0" y="-15.0" width="1.9607843137254901" height="25.0" style="fill:cyan;opacity:0.3;"/>
  <text x="88.0" y="10.0" transform="matrix(6.123233995736766E-17,-1.0,1.0,6.123233995736766E-17,78.0,98.0)" style="font-size:1.0000000000000013px;">oxycodone</text>
  <rect x="90.0" y="-15.0" width="1.9607843137254901" height="25.0" style="fill:cyan;opacity:0.3;"/>
  <text x="90.0" y="10.0" transform="matrix(6.123233995736766E-17,-1.0,1.0,6.123233995736766E-17,80.0,100.0)" style="font-size:1.0000000000000013px;">amphetamine</text>
  <rect x="92.0" y="-15.0" width="1.9607843137254901" height="25.0" style="fill:cyan;opacity:0.3;"/>
  <text x="92.0" y="10.0" transform="matrix(6.123233995736766E-17,-1.0,1.0,6.123233995736766E-17,82.0,102.0)" style="font-size:1.0000000000000013px;">tramadol</text>
  <rect x="94.0" y="-15.0" width="1.9607843137254901" height="25.0" style="fill:cyan;opacity:0.3;"/>
  <text x="94.0" y="10.0" transform="matrix(6.123233995736766E-17,-1.0,1.0,6.123233995736766E-17,84.0,104.0)" style="font-size:1.0000000000000013px;">pregabalin</text>
  <rect x="96.0" y="-10.0" width="1.9607843137254901" height="20.0" style="fill:cyan;opacity:0.3;"/>
  <text x="96.0" y="10.0" transform="matrix(6.123233995736766E-17,-1.0,1.0,6.123233995736766E-17,86.0,106.0)" style="font-size:1.0000000000000013px;">doxycycline</text>
  <rect x="98.0" y="-10.0" width="1.9607843137254901" height="20.0" style="fill:cyan;opacity:0.3;"/>
  <text x="98.0" y="10.0" transform="matrix(6.123233995736766E-17,-1.0,1.0,6.123233995736766E-17,88.0,108.0)" style="font-size:1.0000000000000013px;">testosterone</text>
  <rect x="100.0" y="-10.0" width="1.9607843137254901" height="20.0" style="fill:cyan;opacity:0.3;"/>
  <text x="100.0" y="10.0" transform="matrix(6.123233995736766E-17,-1.0,1.0,6.123233995736766E-17,90.0,110.0)" style="font-size:1.0000000000000013px;">paroxetine</text>
  <rect x="102.0" y="-10.0" width="1.9607843137254901" height="20.0" style="fill:cyan;opacity:0.3;"/>
  <text x="102.0" y="10.0" transform="matrix(6.123233995736766E-17,-1.0,1.0,6.123233995736766E-17,92.0,112.0)" style="font-size:1.0000000000000013px;">lithium</text>
  <rect x="104.0" y="-10.0" width="1.9607843137254901" height="20.0" style="fill:cyan;opacity:0.3;"/>
  <text x="104.0" y="10.0" transform="matrix(6.123233995736766E-17,-1.0,1.0,6.123233995736766E-17,94.0,114.0)" style="font-size:1.0000000000000013px;">fentanyl</text>
  <rect x="106.0" y="-10.0" width="1.9607843137254901" height="20.0" style="fill:cyan;opacity:0.3;"/>
  <text x="106.0" y="10.0" transform="matrix(6.123233995736766E-17,-1.0,1.0,6.123233995736766E-17,96.0,116.0)" style="font-size:1.0000000000000013px;">metoprolol</text>
  <rect x="108.0" y="-10.0" width="1.9607843137254901" height="20.0" style="fill:cyan;opacity:0.3;"/>
  <text x="108.0" y="10.0" transform="matrix(6.123233995736766E-17,-1.0,1.0,6.123233995736766E-17,98.0,118.0)" style="font-size:1.0000000000000013px;">ketorolac</text>
  <rect x="110.0" y="-10.0" width="1.9607843137254901" height="20.0" style="fill:cyan;opacity:0.3;"/>
  <text x="110.0" y="10.0" transform="matrix(6.123233995736766E-17,-1.0,1.0,6.123233995736766E-17,100.0,120.0)" style="font-size:1.0000000000000013px;">flunarizine</text>
  <rect x="111.0" y="-10.0" width="1.9607843137254901" height="20.0" style="fill:cyan;opacity:0.3;"/>
  <text x="111.0" y="10.0" transform="matrix(6.123233995736766E-17,-1.0,1.0,6.123233995736766E-17,101.0,121.0)" style="font-size:1.0000000000000013px;">imipramine</text>
  <rect x="113.0" y="-10.0" width="1.9607843137254901" height="20.0" style="fill:cyan;opacity:0.3;"/>
  <text x="113.0" y="10.0" transform="matrix(6.123233995736766E-17,-1.0,1.0,6.123233995736766E-17,103.0,123.0)" style="font-size:1.0000000000000013px;">hydroxyurea</text>
  <rect x="115.0" y="-10.0" width="1.9607843137254901" height="20.0" style="fill:cyan;opacity:0.3;"/>
  <text x="115.0" y="10.0" transform="matrix(6.123233995736766E-17,-1.0,1.0,6.123233995736766E-17,105.0,125.0)" style="font-size:1.0000000000000013px;">tapentadol</text>
  <rect x="117.0" y="-10.0" width="1.9607843137254901" height="20.0" style="fill:cyan;opacity:0.3;"/>
  <text x="117.0" y="10.0" transform="matrix(6.123233995736766E-17,-1.0,1.0,6.123233995736766E-17,107.0,127.0)" style="font-size:1.0000000000000013px;">rifampicin</text>
  <rect x="119.0" y="-10.0" width="1.9607843137254901" height="20.0" style="fill:cyan;opacity:0.3;"/>
  <text x="119.0" y="10.0" transform="matrix(6.123233995736766E-17,-1.0,1.0,6.123233995736766E-17,109.0,129.0)" style="font-size:1.0000000000000013px;">verapamil</text>
  <rect x="121.0" y="-10.0" width="1.9607843137254901" height="20.0" style="fill:cyan;opacity:0.3;"/>
  <text x="121.0" y="10.0" transform="matrix(6.123233995736766E-17,-1.0,1.0,6.123233995736766E-17,111.0,131.0)" style="font-size:1.0000000000000013px;">ceftriaxone</text>
  <rect x="123.0" y="-10.0" width="1.9607843137254901" height="20.0" style="fill:cyan;opacity:0.3;"/>
  <text x="123.0" y="10.0" transform="matrix(6.123233995736766E-17,-1.0,1.0,6.123233995736766E-17,113.0,133.0)" style="font-size:1.0000000000000013px;">dexamethasone</text>
  <rect x="125.0" y="-5.0" width="1.9607843137254901" height="15.0" style="fill:cyan;opacity:0.3;"/>
  <text x="125.0" y="10.0" transform="matrix(6.123233995736766E-17,-1.0,1.0,6.123233995736766E-17,115.0,135.0)" style="font-size:1.0000000000000013px;">tranexamic acid</text>
  <rect x="127.0" y="-5.0" width="1.9607843137254901" height="15.0" style="fill:cyan;opacity:0.3;"/>
  <text x="127.0" y="10.0" transform="matrix(6.123233995736766E-17,-1.0,1.0,6.123233995736766E-17,117.0,137.0)" style="font-size:1.0000000000000013px;">vincristine</text>
  <rect x="129.0" y="-5.0" width="1.9607843137254901" height="15.0" style="fill:cyan;opacity:0.3;"/>
  <text x="129.0" y="10.0" transform="matrix(6.123233995736766E-17,-1.0,1.0,6.123233995736766E-17,119.0,139.0)" style="font-size:1.0000000000000013px;">yohimbine</text>
  <rect x="131.0" y="-5.0" width="1.9607843137254901" height="15.0" style="fill:cyan;opacity:0.3;"/>
  <text x="131.0" y="10.0" transform="matrix(6.123233995736766E-17,-1.0,1.0,6.123233995736766E-17,120.99999999999999,141.0)" style="font-size:1.0000000000000013px;">hydromorphone</text>
  <rect x="133.0" y="-5.0" width="1.9607843137254901" height="15.0" style="fill:cyan;opacity:0.3;"/>
  <text x="133.0" y="10.0" transform="matrix(6.123233995736766E-17,-1.0,1.0,6.123233995736766E-17,122.99999999999999,143.0)" style="font-size:1.0000000000000013px;">bupivacaine</text>
  <rect x="135.0" y="-5.0" width="1.9607843137254901" height="15.0" style="fill:cyan;opacity:0.3;"/>
  <text x="135.0" y="10.0" transform="matrix(6.123233995736766E-17,-1.0,1.0,6.123233995736766E-17,124.99999999999999,145.0)" style="font-size:1.0000000000000013px;">midodrine</text>
  <rect x="137.0" y="-5.0" width="1.9607843137254901" height="15.0" style="fill:cyan;opacity:0.3;"/>
  <text x="137.0" y="10.0" transform="matrix(6.123233995736766E-17,-1.0,1.0,6.123233995736766E-17,126.99999999999999,147.0)" style="font-size:1.0000000000000013px;">diazepam</text>
  <rect x="139.0" y="-5.0" width="1.9607843137254901" height="15.0" style="fill:cyan;opacity:0.3;"/>
  <text x="139.0" y="10.0" transform="matrix(6.123233995736766E-17,-1.0,1.0,6.123233995736766E-17,129.0,149.0)" style="font-size:1.0000000000000013px;">nitrous oxide</text>
  <rect x="141.0" y="-5.0" width="1.9607843137254901" height="15.0" style="fill:cyan;opacity:0.3;"/>
  <text x="141.0" y="10.0" transform="matrix(6.123233995736766E-17,-1.0,1.0,6.123233995736766E-17,131.0,151.0)" style="font-size:1.0000000000000013px;">budesonide</text>
  <rect x="143.0" y="-5.0" width="1.9607843137254901" height="15.0" style="fill:cyan;opacity:0.3;"/>
  <text x="143.0" y="10.0" transform="matrix(6.123233995736766E-17,-1.0,1.0,6.123233995736766E-17,133.0,153.0)" style="font-size:1.0000000000000013px;">vigabatrin</text>
  <rect x="145.0" y="-5.0" width="1.9607843137254901" height="15.0" style="fill:cyan;opacity:0.3;"/>
  <text x="145.0" y="10.0" transform="matrix(6.123233995736766E-17,-1.0,1.0,6.123233995736766E-17,135.0,155.0)" style="font-size:1.0000000000000013px;">prednisolone</text>
  <rect x="147.0" y="-5.0" width="1.9607843137254901" height="15.0" style="fill:cyan;opacity:0.3;"/>
  <text x="147.0" y="10.0" transform="matrix(6.123233995736766E-17,-1.0,1.0,6.123233995736766E-17,137.0,157.0)" style="font-size:1.0000000000000013px;">quetiapine</text>
  <rect x="149.0" y="-5.0" width="1.9607843137254901" height="15.0" style="fill:cyan;opacity:0.3;"/>
  <text x="149.0" y="10.0" transform="matrix(6.123233995736766E-17,-1.0,1.0,6.123233995736766E-17,139.0,159.0)" style="font-size:1.0000000000000013px;">ondansetron</text>
  <rect x="151.0" y="-5.0" width="1.9607843137254901" height="15.0" style="fill:cyan;opacity:0.3;"/>
  <text x="151.0" y="10.0" transform="matrix(6.123233995736766E-17,-1.0,1.0,6.123233995736766E-17,141.0,161.0)" style="font-size:1.0000000000000013px;">risedronate</text>
  <rect x="153.0" y="-5.0" width="1.9607843137254901" height="15.0" style="fill:cyan;opacity:0.3;"/>
  <text x="153.0" y="10.0" transform="matrix(6.123233995736766E-17,-1.0,1.0,6.123233995736766E-17,143.0,163.0)" style="font-size:1.0000000000000013px;">fludrocortisone</text>
  <rect x="155.0" y="-5.0" width="1.9607843137254901" height="15.0" style="fill:cyan;opacity:0.3;"/>
  <text x="155.0" y="10.0" transform="matrix(6.123233995736766E-17,-1.0,1.0,6.123233995736766E-17,145.0,165.0)" style="font-size:1.0000000000000013px;">liraglutide</text>
  <rect x="157.0" y="-5.0" width="1.9607843137254901" height="15.0" style="fill:cyan;opacity:0.3;"/>
  <text x="157.0" y="10.0" transform="matrix(6.123233995736766E-17,-1.0,1.0,6.123233995736766E-17,147.0,167.0)" style="font-size:1.0000000000000013px;">valproic acid</text>
  <rect x="159.0" y="-5.0" width="1.9607843137254901" height="15.0" style="fill:cyan;opacity:0.3;"/>
  <text x="159.0" y="10.0" transform="matrix(6.123233995736766E-17,-1.0,1.0,6.123233995736766E-17,149.0,169.0)" style="font-size:1.0000000000000013px;">methysergide</text>
  <rect x="160.0" y="-5.0" width="1.9607843137254901" height="15.0" style="fill:cyan;opacity:0.3;"/>
  <text x="160.0" y="10.0" transform="matrix(6.123233995736766E-17,-1.0,1.0,6.123233995736766E-17,150.0,170.0)" style="font-size:1.0000000000000013px;">indomethacin</text>
  <rect x="162.0" y="-5.0" width="1.9607843137254901" height="15.0" style="fill:cyan;opacity:0.3;"/>
  <text x="162.0" y="10.0" transform="matrix(6.123233995736766E-17,-1.0,1.0,6.123233995736766E-17,152.0,172.0)" style="font-size:1.0000000000000013px;">naproxen</text>
  <rect x="164.0" y="-5.0" width="1.9607843137254901" height="15.0" style="fill:cyan;opacity:0.3;"/>
  <text x="164.0" y="10.0" transform="matrix(6.123233995736766E-17,-1.0,1.0,6.123233995736766E-17,154.0,174.0)" style="font-size:1.0000000000000013px;">sildenafil</text>
  <rect x="166.0" y="-5.0" width="1.9607843137254901" height="15.0" style="fill:cyan;opacity:0.3;"/>
  <text x="166.0" y="10.0" transform="matrix(6.123233995736766E-17,-1.0,1.0,6.123233995736766E-17,156.0,176.0)" style="font-size:1.0000000000000013px;">acetylsalicylic</text>
  <rect x="168.0" y="-5.0" width="1.9607843137254901" height="15.0" style="fill:cyan;opacity:0.3;"/>
  <text x="168.0" y="10.0" transform="matrix(6.123233995736766E-17,-1.0,1.0,6.123233995736766E-17,158.0,178.0)" style="font-size:1.0000000000000013px;">valproic acid,</text>
  <rect x="170.0" y="-5.0" width="1.9607843137254901" height="15.0" style="fill:cyan;opacity:0.3;"/>
  <text x="170.0" y="10.0" transform="matrix(6.123233995736766E-17,-1.0,1.0,6.123233995736766E-17,160.0,180.0)" style="font-size:1.0000000000000013px;">zonisamide</text>
  <rect x="172.0" y="-5.0" width="1.9607843137254901" height="15.0" style="fill:cyan;opacity:0.3;"/>
  <text x="172.0" y="10.0" transform="matrix(6.123233995736766E-17,-1.0,1.0,6.123233995736766E-17,162.0,182.0)" style="font-size:1.0000000000000013px;">omalizumab</text>
  <rect x="174.0" y="-5.0" width="1.9607843137254901" height="15.0" style="fill:cyan;opacity:0.3;"/>
  <text x="174.0" y="10.0" transform="matrix(6.123233995736766E-17,-1.0,1.0,6.123233995736766E-17,164.0,184.0)" style="font-size:1.0000000000000013px;">pizotifen</text>
  <rect x="176.0" y="-5.0" width="1.9607843137254901" height="15.0" style="fill:cyan;opacity:0.3;"/>
  <text x="176.0" y="10.0" transform="matrix(6.123233995736766E-17,-1.0,1.0,6.123233995736766E-17,166.0,186.0)" style="font-size:1.0000000000000013px;">almotriptan</text>
  <rect x="178.0" y="0.0" width="1.9607843137254901" height="10.0" style="fill:cyan;opacity:0.3;"/>
  <text x="178.0" y="10.0" transform="matrix(6.123233995736766E-17,-1.0,1.0,6.123233995736766E-17,168.0,188.0)" style="font-size:1.0000000000000013px;">alprazolam</text>
  <rect x="180.0" y="0.0" width="1.9607843137254901" height="10.0" style="fill:cyan;opacity:0.3;"/>
  <text x="180.0" y="10.0" transform="matrix(6.123233995736766E-17,-1.0,1.0,6.123233995736766E-17,170.0,190.0)" style="font-size:1.0000000000000013px;">bleomycin</text>
  <rect x="182.0" y="0.0" width="1.9607843137254901" height="10.0" style="fill:cyan;opacity:0.3;"/>
  <text x="182.0" y="10.0" transform="matrix(6.123233995736766E-17,-1.0,1.0,6.123233995736766E-17,172.0,192.0)" style="font-size:1.0000000000000013px;">infliximab</text>
  <rect x="184.0" y="0.0" width="1.9607843137254901" height="10.0" style="fill:cyan;opacity:0.3;"/>
  <text x="184.0" y="10.0" transform="matrix(6.123233995736766E-17,-1.0,1.0,6.123233995736766E-17,174.0,194.0)" style="font-size:1.0000000000000013px;">phenytoin</text>
  <rect x="186.0" y="0.0" width="1.9607843137254901" height="10.0" style="fill:cyan;opacity:0.3;"/>
  <text x="186.0" y="10.0" transform="matrix(6.123233995736766E-17,-1.0,1.0,6.123233995736766E-17,176.0,196.0)" style="font-size:1.0000000000000013px;">folic acid,</text>
  <rect x="188.0" y="0.0" width="1.9607843137254901" height="10.0" style="fill:cyan;opacity:0.3;"/>
  <text x="188.0" y="10.0" transform="matrix(6.123233995736766E-17,-1.0,1.0,6.123233995736766E-17,178.0,198.0)" style="font-size:1.0000000000000013px;">furosemide</text>
  <rect x="190.0" y="0.0" width="1.9607843137254901" height="10.0" style="fill:cyan;opacity:0.3;"/>
  <text x="190.0" y="10.0" transform="matrix(6.123233995736766E-17,-1.0,1.0,6.123233995736766E-17,180.0,200.0)" style="font-size:1.0000000000000013px;">belatacept</text>
  <rect x="192.0" y="0.0" width="1.9607843137254901" height="10.0" style="fill:cyan;opacity:0.3;"/>
  <text x="192.0" y="10.0" transform="matrix(6.123233995736766E-17,-1.0,1.0,6.123233995736766E-17,182.0,202.0)" style="font-size:1.0000000000000013px;">minoxidil</text>
  <rect x="194.0" y="0.0" width="1.9607843137254901" height="10.0" style="fill:cyan;opacity:0.3;"/>
  <text x="194.0" y="10.0" transform="matrix(6.123233995736766E-17,-1.0,1.0,6.123233995736766E-17,184.0,204.0)" style="font-size:1.0000000000000013px;">clodronate</text>
  <rect x="196.0" y="0.0" width="1.9607843137254901" height="10.0" style="fill:cyan;opacity:0.3;"/>
  <text x="196.0" y="10.0" transform="matrix(6.123233995736766E-17,-1.0,1.0,6.123233995736766E-17,186.0,206.0)" style="font-size:1.0000000000000013px;">pindolol</text>
  <rect x="198.0" y="0.0" width="1.9607843137254901" height="10.0" style="fill:cyan;opacity:0.3;"/>
  <text x="198.0" y="10.0" transform="matrix(6.123233995736766E-17,-1.0,1.0,6.123233995736766E-17,188.0,208.0)" style="font-size:1.0000000000000013px;">donepezil</text>
  <rect x="200.0" y="0.0" width="1.9607843137254901" height="10.0" style="fill:cyan;opacity:0.3;"/>
  <text x="200.0" y="10.0" transform="matrix(6.123233995736766E-17,-1.0,1.0,6.123233995736766E-17,190.0,210.0)" style="font-size:1.0000000000000013px;">etomidate</text>
  <rect x="202.0" y="0.0" width="1.9607843137254901" height="10.0" style="fill:cyan;opacity:0.3;"/>
  <text x="202.0" y="10.0" transform="matrix(6.123233995736766E-17,-1.0,1.0,6.123233995736766E-17,192.0,212.0)" style="font-size:1.0000000000000013px;">tafluprost</text>
  <rect x="204.0" y="0.0" width="1.9607843137254901" height="10.0" style="fill:cyan;opacity:0.3;"/>
  <text x="204.0" y="10.0" transform="matrix(6.123233995736766E-17,-1.0,1.0,6.123233995736766E-17,194.0,214.0)" style="font-size:1.0000000000000013px;">elosulfase alfa</text>
  <rect x="206.0" y="0.0" width="1.9607843137254901" height="10.0" style="fill:cyan;opacity:0.3;"/>
  <text x="206.0" y="10.0" transform="matrix(6.123233995736766E-17,-1.0,1.0,6.123233995736766E-17,196.0,216.0)" style="font-size:1.0000000000000013px;">memantine</text>
  <rect x="208.0" y="0.0" width="1.9607843137254901" height="10.0" style="fill:cyan;opacity:0.3;"/>
  <text x="208.0" y="10.0" transform="matrix(6.123233995736766E-17,-1.0,1.0,6.123233995736766E-17,198.0,218.0)" style="font-size:1.0000000000000013px;">lamotrigine</text>
  <rect x="210.0" y="0.0" width="1.9607843137254901" height="10.0" style="fill:cyan;opacity:0.3;"/>
  <text x="210.0" y="10.0" transform="matrix(6.123233995736766E-17,-1.0,1.0,6.123233995736766E-17,200.0,220.0)" style="font-size:1.0000000000000013px;">canakinumab</text>
  <rect x="211.0" y="0.0" width="1.9607843137254901" height="10.0" style="fill:cyan;opacity:0.3;"/>
  <text x="211.0" y="10.0" transform="matrix(6.123233995736766E-17,-1.0,1.0,6.123233995736766E-17,201.0,221.0)" style="font-size:1.0000000000000013px;">chlorpromazine</text>
  <rect x="213.0" y="0.0" width="1.9607843137254901" height="10.0" style="fill:cyan;opacity:0.3;"/>
  <text x="213.0" y="10.0" transform="matrix(6.123233995736766E-17,-1.0,1.0,6.123233995736766E-17,203.0,223.0)" style="font-size:1.0000000000000013px;">somatostatin</text>
  <rect x="215.0" y="0.0" width="1.9607843137254901" height="10.0" style="fill:cyan;opacity:0.3;"/>
  <text x="215.0" y="10.0" transform="matrix(6.123233995736766E-17,-1.0,1.0,6.123233995736766E-17,205.0,225.0)" style="font-size:1.0000000000000013px;">prochlorperazin</text>
  <rect x="217.0" y="0.0" width="1.9607843137254901" height="10.0" style="fill:cyan;opacity:0.3;"/>
  <text x="217.0" y="10.0" transform="matrix(6.123233995736766E-17,-1.0,1.0,6.123233995736766E-17,207.0,227.0)" style="font-size:1.0000000000000013px;">felbamate</text>
  <rect x="219.0" y="0.0" width="1.9607843137254901" height="10.0" style="fill:cyan;opacity:0.3;"/>
  <text x="219.0" y="10.0" transform="matrix(6.123233995736766E-17,-1.0,1.0,6.123233995736766E-17,209.0,229.0)" style="font-size:1.0000000000000013px;">cetirizine</text>
  <rect x="221.0" y="0.0" width="1.9607843137254901" height="10.0" style="fill:cyan;opacity:0.3;"/>
  <text x="221.0" y="10.0" transform="matrix(6.123233995736766E-17,-1.0,1.0,6.123233995736766E-17,211.0,231.0)" style="font-size:1.0000000000000013px;">clonazepam</text>
  <rect x="223.0" y="0.0" width="1.9607843137254901" height="10.0" style="fill:cyan;opacity:0.3;"/>
  <text x="223.0" y="10.0" transform="matrix(6.123233995736766E-17,-1.0,1.0,6.123233995736766E-17,213.0,233.0)" style="font-size:1.0000000000000013px;">methadone</text>
  <rect x="225.0" y="0.0" width="1.9607843137254901" height="10.0" style="fill:cyan;opacity:0.3;"/>
  <text x="225.0" y="10.0" transform="matrix(6.123233995736766E-17,-1.0,1.0,6.123233995736766E-17,215.0,235.0)" style="font-size:1.0000000000000013px;">hyaluronidase</text>
  <rect x="227.0" y="0.0" width="1.9607843137254901" height="10.0" style="fill:cyan;opacity:0.3;"/>
  <text x="227.0" y="10.0" transform="matrix(6.123233995736766E-17,-1.0,1.0,6.123233995736766E-17,217.0,237.0)" style="font-size:1.0000000000000013px;">ribavirin</text>
  <rect x="229.0" y="0.0" width="1.9607843137254901" height="10.0" style="fill:cyan;opacity:0.3;"/>
  <text x="229.0" y="10.0" transform="matrix(6.123233995736766E-17,-1.0,1.0,6.123233995736766E-17,219.0,239.0)" style="font-size:1.0000000000000013px;">digoxin</text>
  <rect x="231.0" y="0.0" width="1.9607843137254901" height="10.0" style="fill:cyan;opacity:0.3;"/>
  <text x="231.0" y="10.0" transform="matrix(6.123233995736766E-17,-1.0,1.0,6.123233995736766E-17,221.0,241.0)" style="font-size:1.0000000000000013px;">thioridazine</text>
  <rect x="233.0" y="0.0" width="1.9607843137254901" height="10.0" style="fill:cyan;opacity:0.3;"/>
  <text x="233.0" y="10.0" transform="matrix(6.123233995736766E-17,-1.0,1.0,6.123233995736766E-17,223.0,243.0)" style="font-size:1.0000000000000013px;">sofosbuvir</text>
  <rect x="235.0" y="0.0" width="1.9607843137254901" height="10.0" style="fill:cyan;opacity:0.3;"/>
  <text x="235.0" y="10.0" transform="matrix(6.123233995736766E-17,-1.0,1.0,6.123233995736766E-17,225.0,245.0)" style="font-size:1.0000000000000013px;">calcitriol</text>
  <rect x="237.0" y="0.0" width="1.9607843137254901" height="10.0" style="fill:cyan;opacity:0.3;"/>
  <text x="237.0" y="10.0" transform="matrix(6.123233995736766E-17,-1.0,1.0,6.123233995736766E-17,227.0,247.0)" style="font-size:1.0000000000000013px;">prednisone</text>
  <rect x="239.0" y="0.0" width="1.9607843137254901" height="10.0" style="fill:cyan;opacity:0.3;"/>
  <text x="239.0" y="10.0" transform="matrix(6.123233995736766E-17,-1.0,1.0,6.123233995736766E-17,229.0,249.0)" style="font-size:1.0000000000000013px;">alpha-ethyltryp</text>
  <rect x="241.0" y="0.0" width="1.9607843137254901" height="10.0" style="fill:cyan;opacity:0.3;"/>
  <text x="241.0" y="10.0" transform="matrix(6.123233995736766E-17,-1.0,1.0,6.123233995736766E-17,231.0,251.0)" style="font-size:1.0000000000000013px;">fluticasone</text>
  <rect x="243.0" y="0.0" width="1.9607843137254901" height="10.0" style="fill:cyan;opacity:0.3;"/>
  <text x="243.0" y="10.0" transform="matrix(6.123233995736766E-17,-1.0,1.0,6.123233995736766E-17,233.0,253.0)" style="font-size:1.0000000000000013px;">bumetanide</text>
  <rect x="245.0" y="0.0" width="1.9607843137254901" height="10.0" style="fill:cyan;opacity:0.3;"/>
  <text x="245.0" y="10.0" transform="matrix(6.123233995736766E-17,-1.0,1.0,6.123233995736766E-17,235.0,255.0)" style="font-size:1.0000000000000013px;">haloperidol</text>
  <rect x="247.0" y="0.0" width="1.9607843137254901" height="10.0" style="fill:cyan;opacity:0.3;"/>
  <text x="247.0" y="10.0" transform="matrix(6.123233995736766E-17,-1.0,1.0,6.123233995736766E-17,236.99999999999997,257.0)" style="font-size:1.0000000000000013px;">cyproheptadine</text>
  <rect x="249.0" y="0.0" width="1.9607843137254901" height="10.0" style="fill:cyan;opacity:0.3;"/>
  <text x="249.0" y="10.0" transform="matrix(6.123233995736766E-17,-1.0,1.0,6.123233995736766E-17,238.99999999999997,259.0)" style="font-size:1.0000000000000013px;">lacosamide</text>
  <rect x="251.0" y="0.0" width="1.9607843137254901" height="10.0" style="fill:cyan;opacity:0.3;"/>
  <text x="251.0" y="10.0" transform="matrix(6.123233995736766E-17,-1.0,1.0,6.123233995736766E-17,240.99999999999997,261.0)" style="font-size:1.0000000000000013px;">nitroglycerin</text>
  <rect x="253.0" y="0.0" width="1.9607843137254901" height="10.0" style="fill:cyan;opacity:0.3;"/>
  <text x="253.0" y="10.0" transform="matrix(6.123233995736766E-17,-1.0,1.0,6.123233995736766E-17,242.99999999999997,263.0)" style="font-size:1.0000000000000013px;">dexfenfluramine</text>
  <rect x="255.0" y="0.0" width="1.9607843137254901" height="10.0" style="fill:cyan;opacity:0.3;"/>
  <text x="255.0" y="10.0" transform="matrix(6.123233995736766E-17,-1.0,1.0,6.123233995736766E-17,244.99999999999997,265.0)" style="font-size:1.0000000000000013px;">maprotiline</text>
  <rect x="257.0" y="0.0" width="1.9607843137254901" height="10.0" style="fill:cyan;opacity:0.3;"/>
  <text x="257.0" y="10.0" transform="matrix(6.123233995736766E-17,-1.0,1.0,6.123233995736766E-17,246.99999999999997,267.0)" style="font-size:1.0000000000000013px;">levetiracetam</text>
  <rect x="259.0" y="0.0" width="1.9607843137254901" height="10.0" style="fill:cyan;opacity:0.3;"/>
  <text x="259.0" y="10.0" transform="matrix(6.123233995736766E-17,-1.0,1.0,6.123233995736766E-17,248.99999999999997,269.0)" style="font-size:1.0000000000000013px;">propofol</text>
  <rect x="260.0" y="0.0" width="1.9607843137254901" height="10.0" style="fill:cyan;opacity:0.3;"/>
  <text x="260.0" y="10.0" transform="matrix(6.123233995736766E-17,-1.0,1.0,6.123233995736766E-17,249.99999999999997,270.0)" style="font-size:1.0000000000000013px;">risperidone</text>
  <rect x="262.0" y="0.0" width="1.9607843137254901" height="10.0" style="fill:cyan;opacity:0.3;"/>
  <text x="262.0" y="10.0" transform="matrix(6.123233995736766E-17,-1.0,1.0,6.123233995736766E-17,251.99999999999997,272.0)" style="font-size:1.0000000000000013px;">mupirocin</text>
  <rect x="264.0" y="0.0" width="1.9607843137254901" height="10.0" style="fill:cyan;opacity:0.3;"/>
  <text x="264.0" y="10.0" transform="matrix(6.123233995736766E-17,-1.0,1.0,6.123233995736766E-17,253.99999999999997,274.0)" style="font-size:1.0000000000000013px;">nortriptyline</text>
  <rect x="266.0" y="0.0" width="1.9607843137254901" height="10.0" style="fill:cyan;opacity:0.3;"/>
  <text x="266.0" y="10.0" transform="matrix(6.123233995736766E-17,-1.0,1.0,6.123233995736766E-17,255.99999999999997,276.0)" style="font-size:1.0000000000000013px;">amiloride</text>
  <rect x="268.0" y="0.0" width="1.9607843137254901" height="10.0" style="fill:cyan;opacity:0.3;"/>
  <text x="268.0" y="10.0" transform="matrix(6.123233995736766E-17,-1.0,1.0,6.123233995736766E-17,258.0,278.0)" style="font-size:1.0000000000000013px;">exemestane</text>
  <rect x="270.0" y="0.0" width="1.9607843137254901" height="10.0" style="fill:cyan;opacity:0.3;"/>
  <text x="270.0" y="10.0" transform="matrix(6.123233995736766E-17,-1.0,1.0,6.123233995736766E-17,260.0,280.0)" style="font-size:1.0000000000000013px;">baclofen</text>
  <rect x="272.0" y="0.0" width="1.9607843137254901" height="10.0" style="fill:cyan;opacity:0.3;"/>
  <text x="272.0" y="10.0" transform="matrix(6.123233995736766E-17,-1.0,1.0,6.123233995736766E-17,262.0,282.0)" style="font-size:1.0000000000000013px;">beclomethasone</text>
  <rect x="274.0" y="0.0" width="1.9607843137254901" height="10.0" style="fill:cyan;opacity:0.3;"/>
  <text x="274.0" y="10.0" transform="matrix(6.123233995736766E-17,-1.0,1.0,6.123233995736766E-17,264.0,284.0)" style="font-size:1.0000000000000013px;">diclofenac</text>
  <rect x="276.0" y="0.0" width="1.9607843137254901" height="10.0" style="fill:cyan;opacity:0.3;"/>
  <text x="276.0" y="10.0" transform="matrix(6.123233995736766E-17,-1.0,1.0,6.123233995736766E-17,266.0,286.0)" style="font-size:1.0000000000000013px;">meloxicam</text>
  <rect x="278.0" y="0.0" width="1.9607843137254901" height="10.0" style="fill:cyan;opacity:0.3;"/>
  <text x="278.0" y="10.0" transform="matrix(6.123233995736766E-17,-1.0,1.0,6.123233995736766E-17,268.0,288.0)" style="font-size:1.0000000000000013px;">riboflavin</text>
  <rect x="280.0" y="0.0" width="1.9607843137254901" height="10.0" style="fill:cyan;opacity:0.3;"/>
  <text x="280.0" y="10.0" transform="matrix(6.123233995736766E-17,-1.0,1.0,6.123233995736766E-17,270.0,290.0)" style="font-size:1.0000000000000013px;">perampanel</text>
  <rect x="282.0" y="0.0" width="1.9607843137254901" height="10.0" style="fill:cyan;opacity:0.3;"/>
  <text x="282.0" y="10.0" transform="matrix(6.123233995736766E-17,-1.0,1.0,6.123233995736766E-17,272.0,292.0)" style="font-size:1.0000000000000013px;">nifedipine</text>
  <rect x="284.0" y="0.0" width="1.9607843137254901" height="10.0" style="fill:cyan;opacity:0.3;"/>
  <text x="284.0" y="10.0" transform="matrix(6.123233995736766E-17,-1.0,1.0,6.123233995736766E-17,274.0,294.0)" style="font-size:1.0000000000000013px;">trazodone</text>
  <rect x="286.0" y="0.0" width="1.9607843137254901" height="10.0" style="fill:cyan;opacity:0.3;"/>
  <text x="286.0" y="10.0" transform="matrix(6.123233995736766E-17,-1.0,1.0,6.123233995736766E-17,276.0,296.0)" style="font-size:1.0000000000000013px;">anakinra</text>
  <rect x="288.0" y="0.0" width="1.9607843137254901" height="10.0" style="fill:cyan;opacity:0.3;"/>
  <text x="288.0" y="10.0" transform="matrix(6.123233995736766E-17,-1.0,1.0,6.123233995736766E-17,278.0,298.0)" style="font-size:1.0000000000000013px;">aripiprazole</text>
  <rect x="290.0" y="0.0" width="1.9607843137254901" height="10.0" style="fill:cyan;opacity:0.3;"/>
  <text x="290.0" y="10.0" transform="matrix(6.123233995736766E-17,-1.0,1.0,6.123233995736766E-17,280.0,300.0)" style="font-size:1.0000000000000013px;">adalimumab</text>
  <rect x="292.0" y="0.0" width="1.9607843137254901" height="10.0" style="fill:cyan;opacity:0.3;"/>
  <text x="292.0" y="10.0" transform="matrix(6.123233995736766E-17,-1.0,1.0,6.123233995736766E-17,282.0,302.0)" style="font-size:1.0000000000000013px;">montelukast</text>
  <rect x="294.0" y="0.0" width="1.9607843137254901" height="10.0" style="fill:cyan;opacity:0.3;"/>
  <text x="294.0" y="10.0" transform="matrix(6.123233995736766E-17,-1.0,1.0,6.123233995736766E-17,284.0,304.0)" style="font-size:1.0000000000000013px;">ezogabine</text>
  <rect x="296.0" y="0.0" width="1.9607843137254901" height="10.0" style="fill:cyan;opacity:0.3;"/>
  <text x="296.0" y="10.0" transform="matrix(6.123233995736766E-17,-1.0,1.0,6.123233995736766E-17,286.0,306.0)" style="font-size:1.0000000000000013px;">lorazepam</text>
  <rect x="298.0" y="0.0" width="1.9607843137254901" height="10.0" style="fill:cyan;opacity:0.3;"/>
  <text x="298.0" y="10.0" transform="matrix(6.123233995736766E-17,-1.0,1.0,6.123233995736766E-17,288.0,308.0)" style="font-size:1.0000000000000013px;">amobarbital</text>
  <rect x="300.0" y="0.0" width="1.9607843137254901" height="10.0" style="fill:cyan;opacity:0.3;"/>
  <text x="300.0" y="10.0" transform="matrix(6.123233995736766E-17,-1.0,1.0,6.123233995736766E-17,290.0,310.0)" style="font-size:1.0000000000000013px;">warfarin</text>
  <rect x="302.0" y="0.0" width="1.9607843137254901" height="10.0" style="fill:cyan;opacity:0.3;"/>
  <text x="302.0" y="10.0" transform="matrix(6.123233995736766E-17,-1.0,1.0,6.123233995736766E-17,292.0,312.0)" style="font-size:1.0000000000000013px;">bupropion</text>
  <rect x="304.0" y="0.0" width="1.9607843137254901" height="10.0" style="fill:cyan;opacity:0.3;"/>
  <text x="304.0" y="10.0" transform="matrix(6.123233995736766E-17,-1.0,1.0,6.123233995736766E-17,294.0,314.0)" style="font-size:1.0000000000000013px;">levodopa</text>
  <rect x="306.0" y="0.0" width="1.9607843137254901" height="10.0" style="fill:cyan;opacity:0.3;"/>
  <text x="306.0" y="10.0" transform="matrix(6.123233995736766E-17,-1.0,1.0,6.123233995736766E-17,296.0,316.0)" style="font-size:1.0000000000000013px;">idazoxan</text>
  <rect x="308.0" y="0.0" width="1.9607843137254901" height="10.0" style="fill:cyan;opacity:0.3;"/>
  <text x="308.0" y="10.0" transform="matrix(6.123233995736766E-17,-1.0,1.0,6.123233995736766E-17,298.0,318.0)" style="font-size:1.0000000000000013px;">anastrozole</text>
  <rect x="310.0" y="0.0" width="1.9607843137254901" height="10.0" style="fill:cyan;opacity:0.3;"/>
  <text x="310.0" y="10.0" transform="matrix(6.123233995736766E-17,-1.0,1.0,6.123233995736766E-17,300.0,320.0)" style="font-size:1.0000000000000013px;">cisplatin</text>
  <rect x="311.0" y="0.0" width="1.9607843137254901" height="10.0" style="fill:cyan;opacity:0.3;"/>
  <text x="311.0" y="10.0" transform="matrix(6.123233995736766E-17,-1.0,1.0,6.123233995736766E-17,301.0,321.0)" style="font-size:1.0000000000000013px;">iloprost</text>
  <rect x="313.0" y="0.0" width="1.9607843137254901" height="10.0" style="fill:cyan;opacity:0.3;"/>
  <text x="313.0" y="10.0" transform="matrix(6.123233995736766E-17,-1.0,1.0,6.123233995736766E-17,303.0,323.0)" style="font-size:1.0000000000000013px;">tacrolimus</text>
  <rect x="315.0" y="0.0" width="1.9607843137254901" height="10.0" style="fill:cyan;opacity:0.3;"/>
  <text x="315.0" y="10.0" transform="matrix(6.123233995736766E-17,-1.0,1.0,6.123233995736766E-17,305.0,325.0)" style="font-size:1.0000000000000013px;">loratadine</text>
  <rect x="317.0" y="0.0" width="1.9607843137254901" height="10.0" style="fill:cyan;opacity:0.3;"/>
  <text x="317.0" y="10.0" transform="matrix(6.123233995736766E-17,-1.0,1.0,6.123233995736766E-17,307.0,327.0)" style="font-size:1.0000000000000013px;">ciprofloxacin</text>
  <rect x="319.0" y="5.0" width="1.9607843137254901" height="5.0" style="fill:cyan;opacity:0.3;"/>
  <text x="319.0" y="10.0" transform="matrix(6.123233995736766E-17,-1.0,1.0,6.123233995736766E-17,309.0,329.0)" style="font-size:1.0000000000000013px;">roxithromycin</text>
  <rect x="321.0" y="5.0" width="1.9607843137254901" height="5.0" style="fill:cyan;opacity:0.3;"/>
  <text x="321.0" y="10.0" transform="matrix(6.123233995736766E-17,-1.0,1.0,6.123233995736766E-17,311.0,331.0)" style="font-size:1.0000000000000013px;">desogestrel</text>
  <rect x="323.0" y="5.0" width="1.9607843137254901" height="5.0" style="fill:cyan;opacity:0.3;"/>
  <text x="323.0" y="10.0" transform="matrix(6.123233995736766E-17,-1.0,1.0,6.123233995736766E-17,313.0,333.0)" style="font-size:1.0000000000000013px;">clobazam</text>
  <rect x="325.0" y="5.0" width="1.9607843137254901" height="5.0" style="fill:cyan;opacity:0.3;"/>
  <text x="325.0" y="10.0" transform="matrix(6.123233995736766E-17,-1.0,1.0,6.123233995736766E-17,315.0,335.0)" style="font-size:1.0000000000000013px;">laronidase</text>
  <rect x="327.0" y="5.0" width="1.9607843137254901" height="5.0" style="fill:cyan;opacity:0.3;"/>
  <text x="327.0" y="10.0" transform="matrix(6.123233995736766E-17,-1.0,1.0,6.123233995736766E-17,317.0,337.0)" style="font-size:1.0000000000000013px;">folic acid.</text>
  <rect x="329.0" y="5.0" width="1.9607843137254901" height="5.0" style="fill:cyan;opacity:0.3;"/>
  <text x="329.0" y="10.0" transform="matrix(6.123233995736766E-17,-1.0,1.0,6.123233995736766E-17,319.0,339.0)" style="font-size:1.0000000000000013px;">nilvadipine</text>
  <rect x="331.0" y="5.0" width="1.9607843137254901" height="5.0" style="fill:cyan;opacity:0.3;"/>
  <text x="331.0" y="10.0" transform="matrix(6.123233995736766E-17,-1.0,1.0,6.123233995736766E-17,321.0,341.0)" style="font-size:1.0000000000000013px;">primidone</text>
  <rect x="333.0" y="5.0" width="1.9607843137254901" height="5.0" style="fill:cyan;opacity:0.3;"/>
  <text x="333.0" y="10.0" transform="matrix(6.123233995736766E-17,-1.0,1.0,6.123233995736766E-17,323.0,343.0)" style="font-size:1.0000000000000013px;">etanercept</text>
  <rect x="335.0" y="5.0" width="1.9607843137254901" height="5.0" style="fill:cyan;opacity:0.3;"/>
  <text x="335.0" y="10.0" transform="matrix(6.123233995736766E-17,-1.0,1.0,6.123233995736766E-17,325.0,345.0)" style="font-size:1.0000000000000013px;">zafirlukast</text>
  <rect x="337.0" y="5.0" width="1.9607843137254901" height="5.0" style="fill:cyan;opacity:0.3;"/>
  <text x="337.0" y="10.0" transform="matrix(6.123233995736766E-17,-1.0,1.0,6.123233995736766E-17,327.0,347.0)" style="font-size:1.0000000000000013px;">alendronic acid</text>
  <rect x="339.0" y="5.0" width="1.9607843137254901" height="5.0" style="fill:cyan;opacity:0.3;"/>
  <text x="339.0" y="10.0" transform="matrix(6.123233995736766E-17,-1.0,1.0,6.123233995736766E-17,329.0,349.0)" style="font-size:1.0000000000000013px;">dexketoprofen</text>
  <rect x="341.0" y="5.0" width="1.9607843137254901" height="5.0" style="fill:cyan;opacity:0.3;"/>
  <text x="341.0" y="10.0" transform="matrix(6.123233995736766E-17,-1.0,1.0,6.123233995736766E-17,331.0,351.0)" style="font-size:1.0000000000000013px;">plerixafor</text>
  <rect x="343.0" y="5.0" width="1.9607843137254901" height="5.0" style="fill:cyan;opacity:0.3;"/>
  <text x="343.0" y="10.0" transform="matrix(6.123233995736766E-17,-1.0,1.0,6.123233995736766E-17,333.0,353.0)" style="font-size:1.0000000000000013px;">pentobarbital</text>
  <rect x="345.0" y="5.0" width="1.9607843137254901" height="5.0" style="fill:cyan;opacity:0.3;"/>
  <text x="345.0" y="10.0" transform="matrix(6.123233995736766E-17,-1.0,1.0,6.123233995736766E-17,335.0,355.0)" style="font-size:1.0000000000000013px;">ethosuximide</text>
  <rect x="347.0" y="5.0" width="1.9607843137254901" height="5.0" style="fill:cyan;opacity:0.3;"/>
  <text x="347.0" y="10.0" transform="matrix(6.123233995736766E-17,-1.0,1.0,6.123233995736766E-17,337.0,357.0)" style="font-size:1.0000000000000013px;">celecoxib</text>
  <rect x="349.0" y="5.0" width="1.9607843137254901" height="5.0" style="fill:cyan;opacity:0.3;"/>
  <text x="349.0" y="10.0" transform="matrix(6.123233995736766E-17,-1.0,1.0,6.123233995736766E-17,339.0,359.0)" style="font-size:1.0000000000000013px;">nimesulide</text>
  <rect x="351.0" y="5.0" width="1.9607843137254901" height="5.0" style="fill:cyan;opacity:0.3;"/>
  <text x="351.0" y="10.0" transform="matrix(6.123233995736766E-17,-1.0,1.0,6.123233995736766E-17,341.0,361.0)" style="font-size:1.0000000000000013px;">chondroitin sul</text>
  <rect x="353.0" y="5.0" width="1.9607843137254901" height="5.0" style="fill:cyan;opacity:0.3;"/>
  <text x="353.0" y="10.0" transform="matrix(6.123233995736766E-17,-1.0,1.0,6.123233995736766E-17,343.0,363.0)" style="font-size:1.0000000000000013px;">oxcarbazepine</text>
  <rect x="355.0" y="5.0" width="1.9607843137254901" height="5.0" style="fill:cyan;opacity:0.3;"/>
  <text x="355.0" y="10.0" transform="matrix(6.123233995736766E-17,-1.0,1.0,6.123233995736766E-17,345.0,365.0)" style="font-size:1.0000000000000013px;">phenylephrine</text>
  <rect x="357.0" y="5.0" width="1.9607843137254901" height="5.0" style="fill:cyan;opacity:0.3;"/>
  <text x="357.0" y="10.0" transform="matrix(6.123233995736766E-17,-1.0,1.0,6.123233995736766E-17,347.0,367.0)" style="font-size:1.0000000000000013px;">rituximab</text>
  <rect x="359.0" y="5.0" width="1.9607843137254901" height="5.0" style="fill:cyan;opacity:0.3;"/>
  <text x="359.0" y="10.0" transform="matrix(6.123233995736766E-17,-1.0,1.0,6.123233995736766E-17,349.0,369.0)" style="font-size:1.0000000000000013px;">nystatin</text>
  <rect x="360.0" y="5.0" width="1.9607843137254901" height="5.0" style="fill:cyan;opacity:0.3;"/>
  <text x="360.0" y="10.0" transform="matrix(6.123233995736766E-17,-1.0,1.0,6.123233995736766E-17,350.0,370.0)" style="font-size:1.0000000000000013px;">deferoxamine</text>
  <rect x="362.0" y="5.0" width="1.9607843137254901" height="5.0" style="fill:cyan;opacity:0.3;"/>
  <text x="362.0" y="10.0" transform="matrix(6.123233995736766E-17,-1.0,1.0,6.123233995736766E-17,352.0,372.0)" style="font-size:1.0000000000000013px;">rufinamide</text>
  <rect x="364.0" y="5.0" width="1.9607843137254901" height="5.0" style="fill:cyan;opacity:0.3;"/>
  <text x="364.0" y="10.0" transform="matrix(6.123233995736766E-17,-1.0,1.0,6.123233995736766E-17,354.0,374.0)" style="font-size:1.0000000000000013px;">eletriptan</text>
  <rect x="366.0" y="5.0" width="1.9607843137254901" height="5.0" style="fill:cyan;opacity:0.3;"/>
  <text x="366.0" y="10.0" transform="matrix(6.123233995736766E-17,-1.0,1.0,6.123233995736766E-17,356.0,376.0)" style="font-size:1.0000000000000013px;">labetalol</text>
  <rect x="368.0" y="5.0" width="1.9607843137254901" height="5.0" style="fill:cyan;opacity:0.3;"/>
  <text x="368.0" y="10.0" transform="matrix(6.123233995736766E-17,-1.0,1.0,6.123233995736766E-17,358.0,378.0)" style="font-size:1.0000000000000013px;">triamcinolone</text>
  <rect x="370.0" y="5.0" width="1.9607843137254901" height="5.0" style="fill:cyan;opacity:0.3;"/>
  <text x="370.0" y="10.0" transform="matrix(6.123233995736766E-17,-1.0,1.0,6.123233995736766E-17,360.0,380.0)" style="font-size:1.0000000000000013px;">diphenhydramine</text>
  <rect x="372.0" y="5.0" width="1.9607843137254901" height="5.0" style="fill:cyan;opacity:0.3;"/>
  <text x="372.0" y="10.0" transform="matrix(6.123233995736766E-17,-1.0,1.0,6.123233995736766E-17,362.0,382.0)" style="font-size:1.0000000000000013px;">menthol</text>
  <rect x="374.0" y="5.0" width="1.9607843137254901" height="5.0" style="fill:cyan;opacity:0.3;"/>
  <text x="374.0" y="10.0" transform="matrix(6.123233995736766E-17,-1.0,1.0,6.123233995736766E-17,364.0,384.0)" style="font-size:1.0000000000000013px;">bimatoprost</text>
  <rect x="376.0" y="5.0" width="1.9607843137254901" height="5.0" style="fill:cyan;opacity:0.3;"/>
  <text x="376.0" y="10.0" transform="matrix(6.123233995736766E-17,-1.0,1.0,6.123233995736766E-17,366.0,386.0)" style="font-size:1.0000000000000013px;">pramipexole</text>
  <rect x="378.0" y="5.0" width="1.9607843137254901" height="5.0" style="fill:cyan;opacity:0.3;"/>
  <text x="378.0" y="10.0" transform="matrix(6.123233995736766E-17,-1.0,1.0,6.123233995736766E-17,368.0,388.0)" style="font-size:1.0000000000000013px;">ergotamine</text>
  <rect x="380.0" y="5.0" width="1.9607843137254901" height="5.0" style="fill:cyan;opacity:0.3;"/>
  <text x="380.0" y="10.0" transform="matrix(6.123233995736766E-17,-1.0,1.0,6.123233995736766E-17,370.0,390.0)" style="font-size:1.0000000000000013px;">dextroamphetami</text>
  <rect x="382.0" y="5.0" width="1.9607843137254901" height="5.0" style="fill:cyan;opacity:0.3;"/>
  <text x="382.0" y="10.0" transform="matrix(6.123233995736766E-17,-1.0,1.0,6.123233995736766E-17,372.0,392.0)" style="font-size:1.0000000000000013px;">betahistine</text>
  <rect x="384.0" y="5.0" width="1.9607843137254901" height="5.0" style="fill:cyan;opacity:0.3;"/>
  <text x="384.0" y="10.0" transform="matrix(6.123233995736766E-17,-1.0,1.0,6.123233995736766E-17,374.0,394.0)" style="font-size:1.0000000000000013px;">citalopram</text>
  <rect x="386.0" y="5.0" width="1.9607843137254901" height="5.0" style="fill:cyan;opacity:0.3;"/>
  <text x="386.0" y="10.0" transform="matrix(6.123233995736766E-17,-1.0,1.0,6.123233995736766E-17,376.0,396.0)" style="font-size:1.0000000000000013px;">nimodipine</text>
  <rect x="388.0" y="5.0" width="1.9607843137254901" height="5.0" style="fill:cyan;opacity:0.3;"/>
  <text x="388.0" y="10.0" transform="matrix(6.123233995736766E-17,-1.0,1.0,6.123233995736766E-17,378.0,398.0)" style="font-size:1.0000000000000013px;">niacin</text>
  <rect x="390.0" y="5.0" width="1.9607843137254901" height="5.0" style="fill:cyan;opacity:0.3;"/>
  <text x="390.0" y="10.0" transform="matrix(6.123233995736766E-17,-1.0,1.0,6.123233995736766E-17,380.0,400.0)" style="font-size:1.0000000000000013px;">oxymetazoline</text>
  <rect x="392.0" y="5.0" width="1.9607843137254901" height="5.0" style="fill:cyan;opacity:0.3;"/>
  <text x="392.0" y="10.0" transform="matrix(6.123233995736766E-17,-1.0,1.0,6.123233995736766E-17,382.0,402.0)" style="font-size:1.0000000000000013px;">tianeptine</text>
  <rect x="394.0" y="5.0" width="1.9607843137254901" height="5.0" style="fill:cyan;opacity:0.3;"/>
  <text x="394.0" y="10.0" transform="matrix(6.123233995736766E-17,-1.0,1.0,6.123233995736766E-17,384.0,404.0)" style="font-size:1.0000000000000013px;">daclatasvir</text>
  <rect x="396.0" y="5.0" width="1.9607843137254901" height="5.0" style="fill:cyan;opacity:0.3;"/>
  <text x="396.0" y="10.0" transform="matrix(6.123233995736766E-17,-1.0,1.0,6.123233995736766E-17,386.0,406.0)" style="font-size:1.0000000000000013px;">tranexamic acid</text>
  <rect x="398.0" y="5.0" width="1.9607843137254901" height="5.0" style="fill:cyan;opacity:0.3;"/>
  <text x="398.0" y="10.0" transform="matrix(6.123233995736766E-17,-1.0,1.0,6.123233995736766E-17,388.0,408.0)" style="font-size:1.0000000000000013px;">metronidazole</text>
  <rect x="400.0" y="5.0" width="1.9607843137254901" height="5.0" style="fill:cyan;opacity:0.3;"/>
  <text x="400.0" y="10.0" transform="matrix(6.123233995736766E-17,-1.0,1.0,6.123233995736766E-17,390.0,410.0)" style="font-size:1.0000000000000013px;">tranexamic acid</text>
  <rect x="402.0" y="5.0" width="1.9607843137254901" height="5.0" style="fill:cyan;opacity:0.3;"/>
  <text x="402.0" y="10.0" transform="matrix(6.123233995736766E-17,-1.0,1.0,6.123233995736766E-17,392.0,412.0)" style="font-size:1.0000000000000013px;">methotrexate</text>
  <rect x="404.0" y="5.0" width="1.9607843137254901" height="5.0" style="fill:cyan;opacity:0.3;"/>
  <text x="404.0" y="10.0" transform="matrix(6.123233995736766E-17,-1.0,1.0,6.123233995736766E-17,394.0,414.0)" style="font-size:1.0000000000000013px;">flupirtine</text>
  <rect x="406.0" y="5.0" width="1.9607843137254901" height="5.0" style="fill:cyan;opacity:0.3;"/>
  <text x="406.0" y="10.0" transform="matrix(6.123233995736766E-17,-1.0,1.0,6.123233995736766E-17,396.0,416.0)" style="font-size:1.0000000000000013px;">dextran</text>
  <rect x="408.0" y="5.0" width="1.9607843137254901" height="5.0" style="fill:cyan;opacity:0.3;"/>
  <text x="408.0" y="10.0" transform="matrix(6.123233995736766E-17,-1.0,1.0,6.123233995736766E-17,398.0,418.0)" style="font-size:1.0000000000000013px;">folic acid</text>
  <rect x="410.0" y="5.0" width="1.9607843137254901" height="5.0" style="fill:cyan;opacity:0.3;"/>
  <text x="410.0" y="10.0" transform="matrix(6.123233995736766E-17,-1.0,1.0,6.123233995736766E-17,400.0,420.0)" style="font-size:1.0000000000000013px;">lactulose</text>
  <rect x="411.0" y="5.0" width="1.9607843137254901" height="5.0" style="fill:cyan;opacity:0.3;"/>
  <text x="411.0" y="10.0" transform="matrix(6.123233995736766E-17,-1.0,1.0,6.123233995736766E-17,401.0,421.0)" style="font-size:1.0000000000000013px;">fluconazole</text>
  <rect x="413.0" y="5.0" width="1.9607843137254901" height="5.0" style="fill:cyan;opacity:0.3;"/>
  <text x="413.0" y="10.0" transform="matrix(6.123233995736766E-17,-1.0,1.0,6.123233995736766E-17,403.0,423.0)" style="font-size:1.0000000000000013px;">tamsulosin</text>
  <rect x="415.0" y="5.0" width="1.9607843137254901" height="5.0" style="fill:cyan;opacity:0.3;"/>
  <text x="415.0" y="10.0" transform="matrix(6.123233995736766E-17,-1.0,1.0,6.123233995736766E-17,405.0,425.0)" style="font-size:1.0000000000000013px;">famotidine</text>
  <rect x="417.0" y="5.0" width="1.9607843137254901" height="5.0" style="fill:cyan;opacity:0.3;"/>
  <text x="417.0" y="10.0" transform="matrix(6.123233995736766E-17,-1.0,1.0,6.123233995736766E-17,407.0,427.0)" style="font-size:1.0000000000000013px;">rasagiline</text>
  <rect x="419.0" y="5.0" width="1.9607843137254901" height="5.0" style="fill:cyan;opacity:0.3;"/>
  <text x="419.0" y="10.0" transform="matrix(6.123233995736766E-17,-1.0,1.0,6.123233995736766E-17,409.0,429.0)" style="font-size:1.0000000000000013px;">lysergic acid d</text>
  <rect x="421.0" y="5.0" width="1.9607843137254901" height="5.0" style="fill:cyan;opacity:0.3;"/>
  <text x="421.0" y="10.0" transform="matrix(6.123233995736766E-17,-1.0,1.0,6.123233995736766E-17,411.0,431.0)" style="font-size:1.0000000000000013px;">tocilizumab</text>
  <rect x="423.0" y="5.0" width="1.9607843137254901" height="5.0" style="fill:cyan;opacity:0.3;"/>
  <text x="423.0" y="10.0" transform="matrix(6.123233995736766E-17,-1.0,1.0,6.123233995736766E-17,413.0,433.0)" style="font-size:1.0000000000000013px;">cholecalciferol</text>
  <rect x="425.0" y="5.0" width="1.9607843137254901" height="5.0" style="fill:cyan;opacity:0.3;"/>
  <text x="425.0" y="10.0" transform="matrix(6.123233995736766E-17,-1.0,1.0,6.123233995736766E-17,415.0,435.0)" style="font-size:1.0000000000000013px;">vancomycin</text>
  <rect x="427.0" y="5.0" width="1.9607843137254901" height="5.0" style="fill:cyan;opacity:0.3;"/>
  <text x="427.0" y="10.0" transform="matrix(6.123233995736766E-17,-1.0,1.0,6.123233995736766E-17,417.0,437.0)" style="font-size:1.0000000000000013px;">remifentanil</text>
  <rect x="429.0" y="5.0" width="1.9607843137254901" height="5.0" style="fill:cyan;opacity:0.3;"/>
  <text x="429.0" y="10.0" transform="matrix(6.123233995736766E-17,-1.0,1.0,6.123233995736766E-17,419.0,439.0)" style="font-size:1.0000000000000013px;">stiripentol</text>
  <rect x="431.0" y="5.0" width="1.9607843137254901" height="5.0" style="fill:cyan;opacity:0.3;"/>
  <text x="431.0" y="10.0" transform="matrix(6.123233995736766E-17,-1.0,1.0,6.123233995736766E-17,421.0,441.0)" style="font-size:1.0000000000000013px;">modafinil</text>
  <rect x="433.0" y="5.0" width="1.9607843137254901" height="5.0" style="fill:cyan;opacity:0.3;"/>
  <text x="433.0" y="10.0" transform="matrix(6.123233995736766E-17,-1.0,1.0,6.123233995736766E-17,423.0,443.0)" style="font-size:1.0000000000000013px;">salbutamol</text>
  <rect x="435.0" y="5.0" width="1.9607843137254901" height="5.0" style="fill:cyan;opacity:0.3;"/>
  <text x="435.0" y="10.0" transform="matrix(6.123233995736766E-17,-1.0,1.0,6.123233995736766E-17,425.0,445.0)" style="font-size:1.0000000000000013px;">galsulfase</text>
  <rect x="437.0" y="5.0" width="1.9607843137254901" height="5.0" style="fill:cyan;opacity:0.3;"/>
  <text x="437.0" y="10.0" transform="matrix(6.123233995736766E-17,-1.0,1.0,6.123233995736766E-17,427.0,447.0)" style="font-size:1.0000000000000013px;">nebivolol</text>
  <rect x="439.0" y="5.0" width="1.9607843137254901" height="5.0" style="fill:cyan;opacity:0.3;"/>
  <text x="439.0" y="10.0" transform="matrix(6.123233995736766E-17,-1.0,1.0,6.123233995736766E-17,429.0,449.0)" style="font-size:1.0000000000000013px;">nitrous oxide,</text>
  <rect x="441.0" y="5.0" width="1.9607843137254901" height="5.0" style="fill:cyan;opacity:0.3;"/>
  <text x="441.0" y="10.0" transform="matrix(6.123233995736766E-17,-1.0,1.0,6.123233995736766E-17,431.0,451.0)" style="font-size:1.0000000000000013px;">thyroglobulin</text>
  <rect x="443.0" y="5.0" width="1.9607843137254901" height="5.0" style="fill:cyan;opacity:0.3;"/>
  <text x="443.0" y="10.0" transform="matrix(6.123233995736766E-17,-1.0,1.0,6.123233995736766E-17,433.0,453.0)" style="font-size:1.0000000000000013px;">nitrous oxide.</text>
  <rect x="445.0" y="5.0" width="1.9607843137254901" height="5.0" style="fill:cyan;opacity:0.3;"/>
  <text x="445.0" y="10.0" transform="matrix(6.123233995736766E-17,-1.0,1.0,6.123233995736766E-17,435.0,455.0)" style="font-size:1.0000000000000013px;">esmolol</text>
  <rect x="447.0" y="5.0" width="1.9607843137254901" height="5.0" style="fill:cyan;opacity:0.3;"/>
  <text x="447.0" y="10.0" transform="matrix(6.123233995736766E-17,-1.0,1.0,6.123233995736766E-17,437.0,457.0)" style="font-size:1.0000000000000013px;">ibutilide</text>
  <rect x="449.0" y="5.0" width="1.9607843137254901" height="5.0" style="fill:cyan;opacity:0.3;"/>
  <text x="449.0" y="10.0" transform="matrix(6.123233995736766E-17,-1.0,1.0,6.123233995736766E-17,439.0,459.0)" style="font-size:1.0000000000000013px;">tiagabine</text>
  <rect x="451.0" y="5.0" width="1.9607843137254901" height="5.0" style="fill:cyan;opacity:0.3;"/>
  <text x="451.0" y="10.0" transform="matrix(6.123233995736766E-17,-1.0,1.0,6.123233995736766E-17,441.0,461.0)" style="font-size:1.0000000000000013px;">dihydroergotami</text>
  <rect x="453.0" y="5.0" width="1.9607843137254901" height="5.0" style="fill:cyan;opacity:0.3;"/>
  <text x="453.0" y="10.0" transform="matrix(6.123233995736766E-17,-1.0,1.0,6.123233995736766E-17,443.0,463.0)" style="font-size:1.0000000000000013px;">estradiol</text>
  <rect x="455.0" y="5.0" width="1.9607843137254901" height="5.0" style="fill:cyan;opacity:0.3;"/>
  <text x="455.0" y="10.0" transform="matrix(6.123233995736766E-17,-1.0,1.0,6.123233995736766E-17,445.0,465.0)" style="font-size:1.0000000000000013px;">cyclosporine</text>
  <rect x="457.0" y="5.0" width="1.9607843137254901" height="5.0" style="fill:cyan;opacity:0.3;"/>
  <text x="457.0" y="10.0" transform="matrix(6.123233995736766E-17,-1.0,1.0,6.123233995736766E-17,447.0,467.0)" style="font-size:1.0000000000000013px;">simvastatin</text>
  <rect x="459.0" y="5.0" width="1.9607843137254901" height="5.0" style="fill:cyan;opacity:0.3;"/>
  <text x="459.0" y="10.0" transform="matrix(6.123233995736766E-17,-1.0,1.0,6.123233995736766E-17,449.0,469.0)" style="font-size:1.0000000000000013px;">methylprednisol</text>
  <rect x="460.0" y="5.0" width="1.9607843137254901" height="5.0" style="fill:cyan;opacity:0.3;"/>
  <text x="460.0" y="10.0" transform="matrix(6.123233995736766E-17,-1.0,1.0,6.123233995736766E-17,450.0,470.0)" style="font-size:1.0000000000000013px;">fluvoxamine</text>
  <rect x="462.0" y="5.0" width="1.9607843137254901" height="5.0" style="fill:cyan;opacity:0.3;"/>
  <text x="462.0" y="10.0" transform="matrix(6.123233995736766E-17,-1.0,1.0,6.123233995736766E-17,452.0,472.0)" style="font-size:1.0000000000000013px;">tenoxicam</text>
  <rect x="464.0" y="5.0" width="1.9607843137254901" height="5.0" style="fill:cyan;opacity:0.3;"/>
  <text x="464.0" y="10.0" transform="matrix(6.123233995736766E-17,-1.0,1.0,6.123233995736766E-17,454.0,474.0)" style="font-size:1.0000000000000013px;">hydrocodone</text>
  <rect x="466.0" y="5.0" width="1.9607843137254901" height="5.0" style="fill:cyan;opacity:0.3;"/>
  <text x="466.0" y="10.0" transform="matrix(6.123233995736766E-17,-1.0,1.0,6.123233995736766E-17,456.0,476.0)" style="font-size:1.0000000000000013px;">retigabine</text>
  <rect x="468.0" y="5.0" width="1.9607843137254901" height="5.0" style="fill:cyan;opacity:0.3;"/>
  <text x="468.0" y="10.0" transform="matrix(6.123233995736766E-17,-1.0,1.0,6.123233995736766E-17,458.0,478.0)" style="font-size:1.0000000000000013px;">dexmedetomidine</text>
  <rect x="470.0" y="5.0" width="1.9607843137254901" height="5.0" style="fill:cyan;opacity:0.3;"/>
  <text x="470.0" y="10.0" transform="matrix(6.123233995736766E-17,-1.0,1.0,6.123233995736766E-17,460.0,480.0)" style="font-size:1.0000000000000013px;">oxymorphone</text>
  <rect x="472.0" y="5.0" width="1.9607843137254901" height="5.0" style="fill:cyan;opacity:0.3;"/>
  <text x="472.0" y="10.0" transform="matrix(6.123233995736766E-17,-1.0,1.0,6.123233995736766E-17,462.0,482.0)" style="font-size:1.0000000000000013px;">acetylsalicylic</text>
  <rect x="474.0" y="5.0" width="1.9607843137254901" height="5.0" style="fill:cyan;opacity:0.3;"/>
  <text x="474.0" y="10.0" transform="matrix(6.123233995736766E-17,-1.0,1.0,6.123233995736766E-17,464.0,484.0)" style="font-size:1.0000000000000013px;">meropenem</text>
  <rect x="476.0" y="5.0" width="1.9607843137254901" height="5.0" style="fill:cyan;opacity:0.3;"/>
  <text x="476.0" y="10.0" transform="matrix(6.123233995736766E-17,-1.0,1.0,6.123233995736766E-17,466.0,486.0)" style="font-size:1.0000000000000013px;">phentolamine</text>
  <rect x="478.0" y="5.0" width="1.9607843137254901" height="5.0" style="fill:cyan;opacity:0.3;"/>
  <text x="478.0" y="10.0" transform="matrix(6.123233995736766E-17,-1.0,1.0,6.123233995736766E-17,468.0,488.0)" style="font-size:1.0000000000000013px;">valganciclovir</text>
  <rect x="480.0" y="5.0" width="1.9607843137254901" height="5.0" style="fill:cyan;opacity:0.3;"/>
  <text x="480.0" y="10.0" transform="matrix(6.123233995736766E-17,-1.0,1.0,6.123233995736766E-17,469.99999999999994,490.0)" style="font-size:1.0000000000000013px;">astemizole</text>
  <rect x="482.0" y="5.0" width="1.9607843137254901" height="5.0" style="fill:cyan;opacity:0.3;"/>
  <text x="482.0" y="10.0" transform="matrix(6.123233995736766E-17,-1.0,1.0,6.123233995736766E-17,471.99999999999994,492.0)" style="font-size:1.0000000000000013px;">valproic acid.</text>
  <rect x="484.0" y="5.0" width="1.9607843137254901" height="5.0" style="fill:cyan;opacity:0.3;"/>
  <text x="484.0" y="10.0" transform="matrix(6.123233995736766E-17,-1.0,1.0,6.123233995736766E-17,473.99999999999994,494.0)" style="font-size:1.0000000000000013px;">buprenorphine</text>
  <rect x="486.0" y="5.0" width="1.9607843137254901" height="5.0" style="fill:cyan;opacity:0.3;"/>
  <text x="486.0" y="10.0" transform="matrix(6.123233995736766E-17,-1.0,1.0,6.123233995736766E-17,475.99999999999994,496.0)" style="font-size:1.0000000000000013px;">mercaptopurine</text>
  <rect x="488.0" y="5.0" width="1.9607843137254901" height="5.0" style="fill:cyan;opacity:0.3;"/>
  <text x="488.0" y="10.0" transform="matrix(6.123233995736766E-17,-1.0,1.0,6.123233995736766E-17,477.99999999999994,498.0)" style="font-size:1.0000000000000013px;">tetracycline</text>
  <rect x="490.0" y="5.0" width="1.9607843137254901" height="5.0" style="fill:cyan;opacity:0.3;"/>
  <text x="490.0" y="10.0" transform="matrix(6.123233995736766E-17,-1.0,1.0,6.123233995736766E-17,479.99999999999994,500.0)" style="font-size:1.0000000000000013px;">ascorbic acid</text>
  <rect x="492.0" y="5.0" width="1.9607843137254901" height="5.0" style="fill:cyan;opacity:0.3;"/>
  <text x="492.0" y="10.0" transform="matrix(6.123233995736766E-17,-1.0,1.0,6.123233995736766E-17,481.99999999999994,502.0)" style="font-size:1.0000000000000013px;">cyclandelate</text>
  <rect x="494.0" y="5.0" width="1.9607843137254901" height="5.0" style="fill:cyan;opacity:0.3;"/>
  <text x="494.0" y="10.0" transform="matrix(6.123233995736766E-17,-1.0,1.0,6.123233995736766E-17,483.99999999999994,504.0)" style="font-size:1.0000000000000013px;">cotinine</text>
  <rect x="496.0" y="5.0" width="1.9607843137254901" height="5.0" style="fill:cyan;opacity:0.3;"/>
  <text x="496.0" y="10.0" transform="matrix(6.123233995736766E-17,-1.0,1.0,6.123233995736766E-17,485.99999999999994,506.0)" style="font-size:1.0000000000000013px;">lisdexamfetamin</text>
  <rect x="498.0" y="5.0" width="1.9607843137254901" height="5.0" style="fill:cyan;opacity:0.3;"/>
  <text x="498.0" y="10.0" transform="matrix(6.123233995736766E-17,-1.0,1.0,6.123233995736766E-17,487.99999999999994,508.0)" style="font-size:1.0000000000000013px;">promethazine</text>
  <rect x="500.0" y="5.0" width="1.9607843137254901" height="5.0" style="fill:cyan;opacity:0.3;"/>
  <text x="500.0" y="10.0" transform="matrix(6.123233995736766E-17,-1.0,1.0,6.123233995736766E-17,489.99999999999994,510.0)" style="font-size:1.0000000000000013px;">linezolid</text>
  <rect x="502.0" y="5.0" width="1.9607843137254901" height="5.0" style="fill:cyan;opacity:0.3;"/>
  <text x="502.0" y="10.0" transform="matrix(6.123233995736766E-17,-1.0,1.0,6.123233995736766E-17,491.99999999999994,512.0)" style="font-size:1.0000000000000013px;">amiodarone</text>
  <rect x="504.0" y="5.0" width="1.9607843137254901" height="5.0" style="fill:cyan;opacity:0.3;"/>
  <text x="504.0" y="10.0" transform="matrix(6.123233995736766E-17,-1.0,1.0,6.123233995736766E-17,493.99999999999994,514.0)" style="font-size:1.0000000000000013px;">etoricoxib</text>
  <rect x="506.0" y="5.0" width="1.9607843137254901" height="5.0" style="fill:cyan;opacity:0.3;"/>
  <text x="506.0" y="10.0" transform="matrix(6.123233995736766E-17,-1.0,1.0,6.123233995736766E-17,495.99999999999994,516.0)" style="font-size:1.0000000000000013px;">escitalopram</text>
  <rect x="508.0" y="5.0" width="1.9607843137254901" height="5.0" style="fill:cyan;opacity:0.3;"/>
  <text x="508.0" y="10.0" transform="matrix(6.123233995736766E-17,-1.0,1.0,6.123233995736766E-17,497.99999999999994,518.0)" style="font-size:1.0000000000000013px;">silodosin</text>
 </g>
</svg>
