<?xml version="1.0" encoding="UTF-8"?>
<svg height="20.0" width="519.0576131687243" xmlns="http://www.w3.org/2000/svg">
 <g>
  <rect x="10.0" y="-215.0" width="2.05761316872428" height="225.0" style="fill:cyan;opacity:0.3;"/>
  <text x="10.0" y="10.0" transform="matrix(6.123233995736766E-17,-1.0,1.0,6.123233995736766E-17,0.0,20.0)" style="font-size:1.0000000000000013px;">topiramate</text>
  <rect x="12.0" y="-123.0" width="2.05761316872428" height="133.0" style="fill:cyan;opacity:0.3;"/>
  <text x="12.0" y="10.0" transform="matrix(6.123233995736766E-17,-1.0,1.0,6.123233995736766E-17,2.0,22.0)" style="font-size:1.0000000000000013px;">amitriptyline</text>
  <rect x="14.0" y="-104.0" width="2.05761316872428" height="114.0" style="fill:cyan;opacity:0.3;"/>
  <text x="14.0" y="10.0" transform="matrix(6.123233995736766E-17,-1.0,1.0,6.123233995736766E-17,4.0,24.0)" style="font-size:1.0000000000000013px;">propranolol</text>
  <rect x="16.0" y="-102.0" width="2.05761316872428" height="112.0" style="fill:cyan;opacity:0.3;"/>
  <text x="16.0" y="10.0" transform="matrix(6.123233995736766E-17,-1.0,1.0,6.123233995736766E-17,5.999999999999998,26.0)" style="font-size:1.0000000000000013px;">calcitonin</text>
  <rect x="18.0" y="-81.0" width="2.05761316872428" height="91.0" style="fill:cyan;opacity:0.3;"/>
  <text x="18.0" y="10.0" transform="matrix(6.123233995736766E-17,-1.0,1.0,6.123233995736766E-17,7.999999999999998,28.0)" style="font-size:1.0000000000000013px;">sumatriptan</text>
  <rect x="20.0" y="-77.0" width="2.05761316872428" height="87.0" style="fill:cyan;opacity:0.3;"/>
  <text x="20.0" y="10.0" transform="matrix(6.123233995736766E-17,-1.0,1.0,6.123233995736766E-17,9.999999999999998,30.0)" style="font-size:1.0000000000000013px;">valproate</text>
  <rect x="22.0" y="-58.0" width="2.05761316872428" height="68.0" style="fill:cyan;opacity:0.3;"/>
  <text x="22.0" y="10.0" transform="matrix(6.123233995736766E-17,-1.0,1.0,6.123233995736766E-17,11.999999999999998,32.0)" style="font-size:1.0000000000000013px;">ibuprofen</text>
  <rect x="24.0" y="-58.0" width="2.05761316872428" height="68.0" style="fill:cyan;opacity:0.3;"/>
  <text x="24.0" y="10.0" transform="matrix(6.123233995736766E-17,-1.0,1.0,6.123233995736766E-17,13.999999999999998,34.0)" style="font-size:1.0000000000000013px;">nitric oxide</text>
  <rect x="26.0" y="-56.0" width="2.05761316872428" height="66.0" style="fill:cyan;opacity:0.3;"/>
  <text x="26.0" y="10.0" transform="matrix(6.123233995736766E-17,-1.0,1.0,6.123233995736766E-17,15.999999999999998,36.0)" style="font-size:1.0000000000000013px;">flunarizine</text>
  <rect x="28.0" y="-52.0" width="2.05761316872428" height="62.0" style="fill:cyan;opacity:0.3;"/>
  <text x="28.0" y="10.0" transform="matrix(6.123233995736766E-17,-1.0,1.0,6.123233995736766E-17,18.0,38.0)" style="font-size:1.0000000000000013px;">dopamine</text>
  <rect x="30.0" y="-50.0" width="2.05761316872428" height="60.0" style="fill:cyan;opacity:0.3;"/>
  <text x="30.0" y="10.0" transform="matrix(6.123233995736766E-17,-1.0,1.0,6.123233995736766E-17,20.0,40.0)" style="font-size:1.0000000000000013px;">acetaminophen</text>
  <rect x="32.0" y="-48.0" width="2.05761316872428" height="58.0" style="fill:cyan;opacity:0.3;"/>
  <text x="32.0" y="10.0" transform="matrix(6.123233995736766E-17,-1.0,1.0,6.123233995736766E-17,22.0,42.0)" style="font-size:1.0000000000000013px;">riboflavin</text>
  <rect x="34.0" y="-40.0" width="2.05761316872428" height="50.0" style="fill:cyan;opacity:0.3;"/>
  <text x="34.0" y="10.0" transform="matrix(6.123233995736766E-17,-1.0,1.0,6.123233995736766E-17,24.0,44.0)" style="font-size:1.0000000000000013px;">melatonin</text>
  <rect x="36.0" y="-37.0" width="2.05761316872428" height="47.0" style="fill:cyan;opacity:0.3;"/>
  <text x="36.0" y="10.0" transform="matrix(6.123233995736766E-17,-1.0,1.0,6.123233995736766E-17,26.0,46.0)" style="font-size:1.0000000000000013px;">valproic acid</text>
  <rect x="38.0" y="-35.0" width="2.05761316872428" height="45.0" style="fill:cyan;opacity:0.3;"/>
  <text x="38.0" y="10.0" transform="matrix(6.123233995736766E-17,-1.0,1.0,6.123233995736766E-17,28.0,48.0)" style="font-size:1.0000000000000013px;">naproxen</text>
  <rect x="40.0" y="-23.0" width="2.05761316872428" height="33.0" style="fill:cyan;opacity:0.3;"/>
  <text x="40.0" y="10.0" transform="matrix(6.123233995736766E-17,-1.0,1.0,6.123233995736766E-17,30.0,50.0)" style="font-size:1.0000000000000013px;">cyproheptadine</text>
  <rect x="42.0" y="-21.0" width="2.05761316872428" height="31.0" style="fill:cyan;opacity:0.3;"/>
  <text x="42.0" y="10.0" transform="matrix(6.123233995736766E-17,-1.0,1.0,6.123233995736766E-17,32.0,52.0)" style="font-size:1.0000000000000013px;">paracetamol</text>
  <rect x="44.0" y="-21.0" width="2.05761316872428" height="31.0" style="fill:cyan;opacity:0.3;"/>
  <text x="44.0" y="10.0" transform="matrix(6.123233995736766E-17,-1.0,1.0,6.123233995736766E-17,34.0,54.0)" style="font-size:1.0000000000000013px;">levetiracetam</text>
  <rect x="47.0" y="-21.0" width="2.05761316872428" height="31.0" style="fill:cyan;opacity:0.3;"/>
  <text x="47.0" y="10.0" transform="matrix(6.123233995736766E-17,-1.0,1.0,6.123233995736766E-17,37.0,57.0)" style="font-size:1.0000000000000013px;">estradiol</text>
  <rect x="49.0" y="-19.0" width="2.05761316872428" height="29.0" style="fill:cyan;opacity:0.3;"/>
  <text x="49.0" y="10.0" transform="matrix(6.123233995736766E-17,-1.0,1.0,6.123233995736766E-17,39.0,59.0)" style="font-size:1.0000000000000013px;">nitroglycerin</text>
  <rect x="51.0" y="-15.0" width="2.05761316872428" height="25.0" style="fill:cyan;opacity:0.3;"/>
  <text x="51.0" y="10.0" transform="matrix(6.123233995736766E-17,-1.0,1.0,6.123233995736766E-17,41.0,61.0)" style="font-size:1.0000000000000013px;">zolmitriptan</text>
  <rect x="53.0" y="-15.0" width="2.05761316872428" height="25.0" style="fill:cyan;opacity:0.3;"/>
  <text x="53.0" y="10.0" transform="matrix(6.123233995736766E-17,-1.0,1.0,6.123233995736766E-17,43.0,63.0)" style="font-size:1.0000000000000013px;">pizotifen</text>
  <rect x="55.0" y="-12.0" width="2.05761316872428" height="22.0" style="fill:cyan;opacity:0.3;"/>
  <text x="55.0" y="10.0" transform="matrix(6.123233995736766E-17,-1.0,1.0,6.123233995736766E-17,45.0,65.0)" style="font-size:1.0000000000000013px;">aprepitant</text>
  <rect x="57.0" y="-12.0" width="2.05761316872428" height="22.0" style="fill:cyan;opacity:0.3;"/>
  <text x="57.0" y="10.0" transform="matrix(6.123233995736766E-17,-1.0,1.0,6.123233995736766E-17,47.0,67.0)" style="font-size:1.0000000000000013px;">lidocaine</text>
  <rect x="59.0" y="-10.0" width="2.05761316872428" height="20.0" style="fill:cyan;opacity:0.3;"/>
  <text x="59.0" y="10.0" transform="matrix(6.123233995736766E-17,-1.0,1.0,6.123233995736766E-17,49.0,69.0)" style="font-size:1.0000000000000013px;">ondansetron</text>
  <rect x="61.0" y="-10.0" width="2.05761316872428" height="20.0" style="fill:cyan;opacity:0.3;"/>
  <text x="61.0" y="10.0" transform="matrix(6.123233995736766E-17,-1.0,1.0,6.123233995736766E-17,51.0,71.0)" style="font-size:1.0000000000000013px;">nortriptyline</text>
  <rect x="63.0" y="-10.0" width="2.05761316872428" height="20.0" style="fill:cyan;opacity:0.3;"/>
  <text x="63.0" y="10.0" transform="matrix(6.123233995736766E-17,-1.0,1.0,6.123233995736766E-17,53.0,73.0)" style="font-size:1.0000000000000013px;">dihydroergotami</text>
  <rect x="65.0" y="-10.0" width="2.05761316872428" height="20.0" style="fill:cyan;opacity:0.3;"/>
  <text x="65.0" y="10.0" transform="matrix(6.123233995736766E-17,-1.0,1.0,6.123233995736766E-17,55.0,75.0)" style="font-size:1.0000000000000013px;">pregabalin</text>
  <rect x="67.0" y="-8.0" width="2.05761316872428" height="18.0" style="fill:cyan;opacity:0.3;"/>
  <text x="67.0" y="10.0" transform="matrix(6.123233995736766E-17,-1.0,1.0,6.123233995736766E-17,57.0,77.0)" style="font-size:1.0000000000000013px;">norepinephrine</text>
  <rect x="69.0" y="-8.0" width="2.05761316872428" height="18.0" style="fill:cyan;opacity:0.3;"/>
  <text x="69.0" y="10.0" transform="matrix(6.123233995736766E-17,-1.0,1.0,6.123233995736766E-17,59.0,79.0)" style="font-size:1.0000000000000013px;">ketorolac</text>
  <rect x="71.0" y="-8.0" width="2.05761316872428" height="18.0" style="fill:cyan;opacity:0.3;"/>
  <text x="71.0" y="10.0" transform="matrix(6.123233995736766E-17,-1.0,1.0,6.123233995736766E-17,61.0,81.0)" style="font-size:1.0000000000000013px;">ketamine</text>
  <rect x="73.0" y="-8.0" width="2.05761316872428" height="18.0" style="fill:cyan;opacity:0.3;"/>
  <text x="73.0" y="10.0" transform="matrix(6.123233995736766E-17,-1.0,1.0,6.123233995736766E-17,62.99999999999999,83.0)" style="font-size:1.0000000000000013px;">zonisamide</text>
  <rect x="75.0" y="-6.0" width="2.05761316872428" height="16.0" style="fill:cyan;opacity:0.3;"/>
  <text x="75.0" y="10.0" transform="matrix(6.123233995736766E-17,-1.0,1.0,6.123233995736766E-17,65.0,85.0)" style="font-size:1.0000000000000013px;">desogestrel</text>
  <rect x="77.0" y="-6.0" width="2.05761316872428" height="16.0" style="fill:cyan;opacity:0.3;"/>
  <text x="77.0" y="10.0" transform="matrix(6.123233995736766E-17,-1.0,1.0,6.123233995736766E-17,67.0,87.0)" style="font-size:1.0000000000000013px;">fingolimod</text>
  <rect x="79.0" y="-6.0" width="2.05761316872428" height="16.0" style="fill:cyan;opacity:0.3;"/>
  <text x="79.0" y="10.0" transform="matrix(6.123233995736766E-17,-1.0,1.0,6.123233995736766E-17,69.0,89.0)" style="font-size:1.0000000000000013px;">prochlorperazin</text>
  <rect x="82.0" y="-6.0" width="2.05761316872428" height="16.0" style="fill:cyan;opacity:0.3;"/>
  <text x="82.0" y="10.0" transform="matrix(6.123233995736766E-17,-1.0,1.0,6.123233995736766E-17,72.0,92.0)" style="font-size:1.0000000000000013px;">indomethacin</text>
  <rect x="84.0" y="-6.0" width="2.05761316872428" height="16.0" style="fill:cyan;opacity:0.3;"/>
  <text x="84.0" y="10.0" transform="matrix(6.123233995736766E-17,-1.0,1.0,6.123233995736766E-17,74.0,94.0)" style="font-size:1.0000000000000013px;">methylprednisol</text>
  <rect x="86.0" y="-6.0" width="2.05761316872428" height="16.0" style="fill:cyan;opacity:0.3;"/>
  <text x="86.0" y="10.0" transform="matrix(6.123233995736766E-17,-1.0,1.0,6.123233995736766E-17,76.0,96.0)" style="font-size:1.0000000000000013px;">sildenafil</text>
  <rect x="88.0" y="-4.0" width="2.05761316872428" height="14.0" style="fill:cyan;opacity:0.3;"/>
  <text x="88.0" y="10.0" transform="matrix(6.123233995736766E-17,-1.0,1.0,6.123233995736766E-17,78.0,98.0)" style="font-size:1.0000000000000013px;">rizatriptan</text>
  <rect x="90.0" y="-4.0" width="2.05761316872428" height="14.0" style="fill:cyan;opacity:0.3;"/>
  <text x="90.0" y="10.0" transform="matrix(6.123233995736766E-17,-1.0,1.0,6.123233995736766E-17,80.0,100.0)" style="font-size:1.0000000000000013px;">testosterone</text>
  <rect x="92.0" y="-4.0" width="2.05761316872428" height="14.0" style="fill:cyan;opacity:0.3;"/>
  <text x="92.0" y="10.0" transform="matrix(6.123233995736766E-17,-1.0,1.0,6.123233995736766E-17,82.0,102.0)" style="font-size:1.0000000000000013px;">metoprolol</text>
  <rect x="94.0" y="-4.0" width="2.05761316872428" height="14.0" style="fill:cyan;opacity:0.3;"/>
  <text x="94.0" y="10.0" transform="matrix(6.123233995736766E-17,-1.0,1.0,6.123233995736766E-17,84.0,104.0)" style="font-size:1.0000000000000013px;">carbamazepine</text>
  <rect x="96.0" y="-4.0" width="2.05761316872428" height="14.0" style="fill:cyan;opacity:0.3;"/>
  <text x="96.0" y="10.0" transform="matrix(6.123233995736766E-17,-1.0,1.0,6.123233995736766E-17,86.0,106.0)" style="font-size:1.0000000000000013px;">perampanel</text>
  <rect x="98.0" y="-4.0" width="2.05761316872428" height="14.0" style="fill:cyan;opacity:0.3;"/>
  <text x="98.0" y="10.0" transform="matrix(6.123233995736766E-17,-1.0,1.0,6.123233995736766E-17,88.0,108.0)" style="font-size:1.0000000000000013px;">gabapentin</text>
  <rect x="100.0" y="-4.0" width="2.05761316872428" height="14.0" style="fill:cyan;opacity:0.3;"/>
  <text x="100.0" y="10.0" transform="matrix(6.123233995736766E-17,-1.0,1.0,6.123233995736766E-17,90.0,110.0)" style="font-size:1.0000000000000013px;">metoclopramide</text>
  <rect x="102.0" y="-2.0" width="2.05761316872428" height="12.0" style="fill:cyan;opacity:0.3;"/>
  <text x="102.0" y="10.0" transform="matrix(6.123233995736766E-17,-1.0,1.0,6.123233995736766E-17,92.0,112.0)" style="font-size:1.0000000000000013px;">midazolam</text>
  <rect x="104.0" y="-2.0" width="2.05761316872428" height="12.0" style="fill:cyan;opacity:0.3;"/>
  <text x="104.0" y="10.0" transform="matrix(6.123233995736766E-17,-1.0,1.0,6.123233995736766E-17,94.0,114.0)" style="font-size:1.0000000000000013px;">adenosine</text>
  <rect x="106.0" y="-2.0" width="2.05761316872428" height="12.0" style="fill:cyan;opacity:0.3;"/>
  <text x="106.0" y="10.0" transform="matrix(6.123233995736766E-17,-1.0,1.0,6.123233995736766E-17,96.0,116.0)" style="font-size:1.0000000000000013px;">diphenhydramine</text>
  <rect x="108.0" y="-2.0" width="2.05761316872428" height="12.0" style="fill:cyan;opacity:0.3;"/>
  <text x="108.0" y="10.0" transform="matrix(6.123233995736766E-17,-1.0,1.0,6.123233995736766E-17,98.0,118.0)" style="font-size:1.0000000000000013px;">fluoxetine</text>
  <rect x="110.0" y="-2.0" width="2.05761316872428" height="12.0" style="fill:cyan;opacity:0.3;"/>
  <text x="110.0" y="10.0" transform="matrix(6.123233995736766E-17,-1.0,1.0,6.123233995736766E-17,100.0,120.0)" style="font-size:1.0000000000000013px;">tryptophan</text>
  <rect x="112.0" y="-2.0" width="2.05761316872428" height="12.0" style="fill:cyan;opacity:0.3;"/>
  <text x="112.0" y="10.0" transform="matrix(6.123233995736766E-17,-1.0,1.0,6.123233995736766E-17,102.0,122.0)" style="font-size:1.0000000000000013px;">acetylsalicylic</text>
  <rect x="114.0" y="-2.0" width="2.05761316872428" height="12.0" style="fill:cyan;opacity:0.3;"/>
  <text x="114.0" y="10.0" transform="matrix(6.123233995736766E-17,-1.0,1.0,6.123233995736766E-17,104.0,124.0)" style="font-size:1.0000000000000013px;">progesterone</text>
  <rect x="116.0" y="-2.0" width="2.05761316872428" height="12.0" style="fill:cyan;opacity:0.3;"/>
  <text x="116.0" y="10.0" transform="matrix(6.123233995736766E-17,-1.0,1.0,6.123233995736766E-17,106.0,126.0)" style="font-size:1.0000000000000013px;">dexamethasone</text>
  <rect x="119.0" y="0.0" width="2.05761316872428" height="10.0" style="fill:cyan;opacity:0.3;"/>
  <text x="119.0" y="10.0" transform="matrix(6.123233995736766E-17,-1.0,1.0,6.123233995736766E-17,109.0,129.0)" style="font-size:1.0000000000000013px;">lamotrigine</text>
  <rect x="121.0" y="0.0" width="2.05761316872428" height="10.0" style="fill:cyan;opacity:0.3;"/>
  <text x="121.0" y="10.0" transform="matrix(6.123233995736766E-17,-1.0,1.0,6.123233995736766E-17,111.0,131.0)" style="font-size:1.0000000000000013px;">ergotamine</text>
  <rect x="123.0" y="0.0" width="2.05761316872428" height="10.0" style="fill:cyan;opacity:0.3;"/>
  <text x="123.0" y="10.0" transform="matrix(6.123233995736766E-17,-1.0,1.0,6.123233995736766E-17,113.0,133.0)" style="font-size:1.0000000000000013px;">candesartan</text>
  <rect x="125.0" y="0.0" width="2.05761316872428" height="10.0" style="fill:cyan;opacity:0.3;"/>
  <text x="125.0" y="10.0" transform="matrix(6.123233995736766E-17,-1.0,1.0,6.123233995736766E-17,115.0,135.0)" style="font-size:1.0000000000000013px;">riociguat</text>
  <rect x="127.0" y="0.0" width="2.05761316872428" height="10.0" style="fill:cyan;opacity:0.3;"/>
  <text x="127.0" y="10.0" transform="matrix(6.123233995736766E-17,-1.0,1.0,6.123233995736766E-17,117.0,137.0)" style="font-size:1.0000000000000013px;">prednisone</text>
  <rect x="129.0" y="0.0" width="2.05761316872428" height="10.0" style="fill:cyan;opacity:0.3;"/>
  <text x="129.0" y="10.0" transform="matrix(6.123233995736766E-17,-1.0,1.0,6.123233995736766E-17,119.0,139.0)" style="font-size:1.0000000000000013px;">propofol</text>
  <rect x="131.0" y="0.0" width="2.05761316872428" height="10.0" style="fill:cyan;opacity:0.3;"/>
  <text x="131.0" y="10.0" transform="matrix(6.123233995736766E-17,-1.0,1.0,6.123233995736766E-17,120.99999999999999,141.0)" style="font-size:1.0000000000000013px;">valproic acid,</text>
  <rect x="133.0" y="0.0" width="2.05761316872428" height="10.0" style="fill:cyan;opacity:0.3;"/>
  <text x="133.0" y="10.0" transform="matrix(6.123233995736766E-17,-1.0,1.0,6.123233995736766E-17,122.99999999999999,143.0)" style="font-size:1.0000000000000013px;">escitalopram</text>
  <rect x="135.0" y="2.0" width="2.05761316872428" height="8.0" style="fill:cyan;opacity:0.3;"/>
  <text x="135.0" y="10.0" transform="matrix(6.123233995736766E-17,-1.0,1.0,6.123233995736766E-17,124.99999999999999,145.0)" style="font-size:1.0000000000000013px;">doxycycline</text>
  <rect x="137.0" y="2.0" width="2.05761316872428" height="8.0" style="fill:cyan;opacity:0.3;"/>
  <text x="137.0" y="10.0" transform="matrix(6.123233995736766E-17,-1.0,1.0,6.123233995736766E-17,126.99999999999999,147.0)" style="font-size:1.0000000000000013px;">interferon beta</text>
  <rect x="139.0" y="2.0" width="2.05761316872428" height="8.0" style="fill:cyan;opacity:0.3;"/>
  <text x="139.0" y="10.0" transform="matrix(6.123233995736766E-17,-1.0,1.0,6.123233995736766E-17,129.0,149.0)" style="font-size:1.0000000000000013px;">bosentan</text>
  <rect x="141.0" y="2.0" width="2.05761316872428" height="8.0" style="fill:cyan;opacity:0.3;"/>
  <text x="141.0" y="10.0" transform="matrix(6.123233995736766E-17,-1.0,1.0,6.123233995736766E-17,131.0,151.0)" style="font-size:1.0000000000000013px;">acetazolamide</text>
  <rect x="143.0" y="2.0" width="2.05761316872428" height="8.0" style="fill:cyan;opacity:0.3;"/>
  <text x="143.0" y="10.0" transform="matrix(6.123233995736766E-17,-1.0,1.0,6.123233995736766E-17,133.0,153.0)" style="font-size:1.0000000000000013px;">timolol</text>
  <rect x="145.0" y="2.0" width="2.05761316872428" height="8.0" style="fill:cyan;opacity:0.3;"/>
  <text x="145.0" y="10.0" transform="matrix(6.123233995736766E-17,-1.0,1.0,6.123233995736766E-17,135.0,155.0)" style="font-size:1.0000000000000013px;">digoxin</text>
  <rect x="147.0" y="2.0" width="2.05761316872428" height="8.0" style="fill:cyan;opacity:0.3;"/>
  <text x="147.0" y="10.0" transform="matrix(6.123233995736766E-17,-1.0,1.0,6.123233995736766E-17,137.0,157.0)" style="font-size:1.0000000000000013px;">fludrocortisone</text>
  <rect x="149.0" y="2.0" width="2.05761316872428" height="8.0" style="fill:cyan;opacity:0.3;"/>
  <text x="149.0" y="10.0" transform="matrix(6.123233995736766E-17,-1.0,1.0,6.123233995736766E-17,139.0,159.0)" style="font-size:1.0000000000000013px;">methylphenidate</text>
  <rect x="151.0" y="2.0" width="2.05761316872428" height="8.0" style="fill:cyan;opacity:0.3;"/>
  <text x="151.0" y="10.0" transform="matrix(6.123233995736766E-17,-1.0,1.0,6.123233995736766E-17,141.0,161.0)" style="font-size:1.0000000000000013px;">phenobarbital</text>
  <rect x="154.0" y="2.0" width="2.05761316872428" height="8.0" style="fill:cyan;opacity:0.3;"/>
  <text x="154.0" y="10.0" transform="matrix(6.123233995736766E-17,-1.0,1.0,6.123233995736766E-17,144.0,164.0)" style="font-size:1.0000000000000013px;">nitric oxide,</text>
  <rect x="156.0" y="2.0" width="2.05761316872428" height="8.0" style="fill:cyan;opacity:0.3;"/>
  <text x="156.0" y="10.0" transform="matrix(6.123233995736766E-17,-1.0,1.0,6.123233995736766E-17,146.0,166.0)" style="font-size:1.0000000000000013px;">anakinra</text>
  <rect x="158.0" y="2.0" width="2.05761316872428" height="8.0" style="fill:cyan;opacity:0.3;"/>
  <text x="158.0" y="10.0" transform="matrix(6.123233995736766E-17,-1.0,1.0,6.123233995736766E-17,148.0,168.0)" style="font-size:1.0000000000000013px;">montelukast</text>
  <rect x="160.0" y="2.0" width="2.05761316872428" height="8.0" style="fill:cyan;opacity:0.3;"/>
  <text x="160.0" y="10.0" transform="matrix(6.123233995736766E-17,-1.0,1.0,6.123233995736766E-17,150.0,170.0)" style="font-size:1.0000000000000013px;">frovatriptan</text>
  <rect x="162.0" y="2.0" width="2.05761316872428" height="8.0" style="fill:cyan;opacity:0.3;"/>
  <text x="162.0" y="10.0" transform="matrix(6.123233995736766E-17,-1.0,1.0,6.123233995736766E-17,152.0,172.0)" style="font-size:1.0000000000000013px;">lorazepam</text>
  <rect x="164.0" y="2.0" width="2.05761316872428" height="8.0" style="fill:cyan;opacity:0.3;"/>
  <text x="164.0" y="10.0" transform="matrix(6.123233995736766E-17,-1.0,1.0,6.123233995736766E-17,154.0,174.0)" style="font-size:1.0000000000000013px;">bisoprolol</text>
  <rect x="166.0" y="2.0" width="2.05761316872428" height="8.0" style="fill:cyan;opacity:0.3;"/>
  <text x="166.0" y="10.0" transform="matrix(6.123233995736766E-17,-1.0,1.0,6.123233995736766E-17,156.0,176.0)" style="font-size:1.0000000000000013px;">tadalafil</text>
  <rect x="168.0" y="4.0" width="2.05761316872428" height="6.0" style="fill:cyan;opacity:0.3;"/>
  <text x="168.0" y="10.0" transform="matrix(6.123233995736766E-17,-1.0,1.0,6.123233995736766E-17,158.0,178.0)" style="font-size:1.0000000000000013px;">midodrine</text>
  <rect x="170.0" y="4.0" width="2.05761316872428" height="6.0" style="fill:cyan;opacity:0.3;"/>
  <text x="170.0" y="10.0" transform="matrix(6.123233995736766E-17,-1.0,1.0,6.123233995736766E-17,160.0,180.0)" style="font-size:1.0000000000000013px;">oxcarbazepine</text>
  <rect x="172.0" y="4.0" width="2.05761316872428" height="6.0" style="fill:cyan;opacity:0.3;"/>
  <text x="172.0" y="10.0" transform="matrix(6.123233995736766E-17,-1.0,1.0,6.123233995736766E-17,162.0,182.0)" style="font-size:1.0000000000000013px;">cinnarizine</text>
  <rect x="174.0" y="4.0" width="2.05761316872428" height="6.0" style="fill:cyan;opacity:0.3;"/>
  <text x="174.0" y="10.0" transform="matrix(6.123233995736766E-17,-1.0,1.0,6.123233995736766E-17,164.0,184.0)" style="font-size:1.0000000000000013px;">ketoprofen</text>
  <rect x="176.0" y="4.0" width="2.05761316872428" height="6.0" style="fill:cyan;opacity:0.3;"/>
  <text x="176.0" y="10.0" transform="matrix(6.123233995736766E-17,-1.0,1.0,6.123233995736766E-17,166.0,186.0)" style="font-size:1.0000000000000013px;">eletriptan</text>
  <rect x="178.0" y="4.0" width="2.05761316872428" height="6.0" style="fill:cyan;opacity:0.3;"/>
  <text x="178.0" y="10.0" transform="matrix(6.123233995736766E-17,-1.0,1.0,6.123233995736766E-17,168.0,188.0)" style="font-size:1.0000000000000013px;">amoxicillin</text>
  <rect x="180.0" y="4.0" width="2.05761316872428" height="6.0" style="fill:cyan;opacity:0.3;"/>
  <text x="180.0" y="10.0" transform="matrix(6.123233995736766E-17,-1.0,1.0,6.123233995736766E-17,170.0,190.0)" style="font-size:1.0000000000000013px;">citalopram</text>
  <rect x="182.0" y="4.0" width="2.05761316872428" height="6.0" style="fill:cyan;opacity:0.3;"/>
  <text x="182.0" y="10.0" transform="matrix(6.123233995736766E-17,-1.0,1.0,6.123233995736766E-17,172.0,192.0)" style="font-size:1.0000000000000013px;">levonorgestrel</text>
  <rect x="184.0" y="4.0" width="2.05761316872428" height="6.0" style="fill:cyan;opacity:0.3;"/>
  <text x="184.0" y="10.0" transform="matrix(6.123233995736766E-17,-1.0,1.0,6.123233995736766E-17,174.0,194.0)" style="font-size:1.0000000000000013px;">clozapine</text>
  <rect x="186.0" y="4.0" width="2.05761316872428" height="6.0" style="fill:cyan;opacity:0.3;"/>
  <text x="186.0" y="10.0" transform="matrix(6.123233995736766E-17,-1.0,1.0,6.123233995736766E-17,176.0,196.0)" style="font-size:1.0000000000000013px;">sevoflurane</text>
  <rect x="189.0" y="4.0" width="2.05761316872428" height="6.0" style="fill:cyan;opacity:0.3;"/>
  <text x="189.0" y="10.0" transform="matrix(6.123233995736766E-17,-1.0,1.0,6.123233995736766E-17,179.0,199.0)" style="font-size:1.0000000000000013px;">folic acid</text>
  <rect x="191.0" y="4.0" width="2.05761316872428" height="6.0" style="fill:cyan;opacity:0.3;"/>
  <text x="191.0" y="10.0" transform="matrix(6.123233995736766E-17,-1.0,1.0,6.123233995736766E-17,181.0,201.0)" style="font-size:1.0000000000000013px;">goserelin</text>
  <rect x="193.0" y="4.0" width="2.05761316872428" height="6.0" style="fill:cyan;opacity:0.3;"/>
  <text x="193.0" y="10.0" transform="matrix(6.123233995736766E-17,-1.0,1.0,6.123233995736766E-17,183.0,203.0)" style="font-size:1.0000000000000013px;">lactulose</text>
  <rect x="195.0" y="4.0" width="2.05761316872428" height="6.0" style="fill:cyan;opacity:0.3;"/>
  <text x="195.0" y="10.0" transform="matrix(6.123233995736766E-17,-1.0,1.0,6.123233995736766E-17,185.0,205.0)" style="font-size:1.0000000000000013px;">apraclonidine</text>
  <rect x="197.0" y="4.0" width="2.05761316872428" height="6.0" style="fill:cyan;opacity:0.3;"/>
  <text x="197.0" y="10.0" transform="matrix(6.123233995736766E-17,-1.0,1.0,6.123233995736766E-17,187.0,207.0)" style="font-size:1.0000000000000013px;">clemastine</text>
  <rect x="199.0" y="4.0" width="2.05761316872428" height="6.0" style="fill:cyan;opacity:0.3;"/>
  <text x="199.0" y="10.0" transform="matrix(6.123233995736766E-17,-1.0,1.0,6.123233995736766E-17,189.0,209.0)" style="font-size:1.0000000000000013px;">nadolol</text>
  <rect x="201.0" y="4.0" width="2.05761316872428" height="6.0" style="fill:cyan;opacity:0.3;"/>
  <text x="201.0" y="10.0" transform="matrix(6.123233995736766E-17,-1.0,1.0,6.123233995736766E-17,191.0,211.0)" style="font-size:1.0000000000000013px;">aflibercept</text>
  <rect x="203.0" y="4.0" width="2.05761316872428" height="6.0" style="fill:cyan;opacity:0.3;"/>
  <text x="203.0" y="10.0" transform="matrix(6.123233995736766E-17,-1.0,1.0,6.123233995736766E-17,193.0,213.0)" style="font-size:1.0000000000000013px;">adalimumab</text>
  <rect x="205.0" y="4.0" width="2.05761316872428" height="6.0" style="fill:cyan;opacity:0.3;"/>
  <text x="205.0" y="10.0" transform="matrix(6.123233995736766E-17,-1.0,1.0,6.123233995736766E-17,195.0,215.0)" style="font-size:1.0000000000000013px;">desmopressin</text>
  <rect x="207.0" y="4.0" width="2.05761316872428" height="6.0" style="fill:cyan;opacity:0.3;"/>
  <text x="207.0" y="10.0" transform="matrix(6.123233995736766E-17,-1.0,1.0,6.123233995736766E-17,197.0,217.0)" style="font-size:1.0000000000000013px;">valproic acid.</text>
  <rect x="209.0" y="4.0" width="2.05761316872428" height="6.0" style="fill:cyan;opacity:0.3;"/>
  <text x="209.0" y="10.0" transform="matrix(6.123233995736766E-17,-1.0,1.0,6.123233995736766E-17,199.0,219.0)" style="font-size:1.0000000000000013px;">tetracycline</text>
  <rect x="211.0" y="4.0" width="2.05761316872428" height="6.0" style="fill:cyan;opacity:0.3;"/>
  <text x="211.0" y="10.0" transform="matrix(6.123233995736766E-17,-1.0,1.0,6.123233995736766E-17,201.0,221.0)" style="font-size:1.0000000000000013px;">omalizumab</text>
  <rect x="213.0" y="4.0" width="2.05761316872428" height="6.0" style="fill:cyan;opacity:0.3;"/>
  <text x="213.0" y="10.0" transform="matrix(6.123233995736766E-17,-1.0,1.0,6.123233995736766E-17,203.0,223.0)" style="font-size:1.0000000000000013px;">natalizumab</text>
  <rect x="215.0" y="4.0" width="2.05761316872428" height="6.0" style="fill:cyan;opacity:0.3;"/>
  <text x="215.0" y="10.0" transform="matrix(6.123233995736766E-17,-1.0,1.0,6.123233995736766E-17,205.0,225.0)" style="font-size:1.0000000000000013px;">iloprost</text>
  <rect x="217.0" y="4.0" width="2.05761316872428" height="6.0" style="fill:cyan;opacity:0.3;"/>
  <text x="217.0" y="10.0" transform="matrix(6.123233995736766E-17,-1.0,1.0,6.123233995736766E-17,207.0,227.0)" style="font-size:1.0000000000000013px;">almotriptan</text>
  <rect x="219.0" y="6.0" width="2.05761316872428" height="4.0" style="fill:cyan;opacity:0.3;"/>
  <text x="219.0" y="10.0" transform="matrix(6.123233995736766E-17,-1.0,1.0,6.123233995736766E-17,209.0,229.0)" style="font-size:1.0000000000000013px;">infliximab</text>
  <rect x="221.0" y="6.0" width="2.05761316872428" height="4.0" style="fill:cyan;opacity:0.3;"/>
  <text x="221.0" y="10.0" transform="matrix(6.123233995736766E-17,-1.0,1.0,6.123233995736766E-17,211.0,231.0)" style="font-size:1.0000000000000013px;">alprenolol</text>
  <rect x="223.0" y="6.0" width="2.05761316872428" height="4.0" style="fill:cyan;opacity:0.3;"/>
  <text x="223.0" y="10.0" transform="matrix(6.123233995736766E-17,-1.0,1.0,6.123233995736766E-17,213.0,233.0)" style="font-size:1.0000000000000013px;">phenytoin</text>
  <rect x="226.0" y="6.0" width="2.05761316872428" height="4.0" style="fill:cyan;opacity:0.3;"/>
  <text x="226.0" y="10.0" transform="matrix(6.123233995736766E-17,-1.0,1.0,6.123233995736766E-17,216.0,236.0)" style="font-size:1.0000000000000013px;">doxorubicin</text>
  <rect x="228.0" y="6.0" width="2.05761316872428" height="4.0" style="fill:cyan;opacity:0.3;"/>
  <text x="228.0" y="10.0" transform="matrix(6.123233995736766E-17,-1.0,1.0,6.123233995736766E-17,218.0,238.0)" style="font-size:1.0000000000000013px;">primidone</text>
  <rect x="230.0" y="6.0" width="2.05761316872428" height="4.0" style="fill:cyan;opacity:0.3;"/>
  <text x="230.0" y="10.0" transform="matrix(6.123233995736766E-17,-1.0,1.0,6.123233995736766E-17,220.0,240.0)" style="font-size:1.0000000000000013px;">treprostinil</text>
  <rect x="232.0" y="6.0" width="2.05761316872428" height="4.0" style="fill:cyan;opacity:0.3;"/>
  <text x="232.0" y="10.0" transform="matrix(6.123233995736766E-17,-1.0,1.0,6.123233995736766E-17,222.0,242.0)" style="font-size:1.0000000000000013px;">etanercept</text>
  <rect x="234.0" y="6.0" width="2.05761316872428" height="4.0" style="fill:cyan;opacity:0.3;"/>
  <text x="234.0" y="10.0" transform="matrix(6.123233995736766E-17,-1.0,1.0,6.123233995736766E-17,224.0,244.0)" style="font-size:1.0000000000000013px;">pindolol</text>
  <rect x="236.0" y="6.0" width="2.05761316872428" height="4.0" style="fill:cyan;opacity:0.3;"/>
  <text x="236.0" y="10.0" transform="matrix(6.123233995736766E-17,-1.0,1.0,6.123233995736766E-17,226.0,246.0)" style="font-size:1.0000000000000013px;">rituximab</text>
  <rect x="238.0" y="6.0" width="2.05761316872428" height="4.0" style="fill:cyan;opacity:0.3;"/>
  <text x="238.0" y="10.0" transform="matrix(6.123233995736766E-17,-1.0,1.0,6.123233995736766E-17,228.0,248.0)" style="font-size:1.0000000000000013px;">dabrafenib</text>
  <rect x="240.0" y="6.0" width="2.05761316872428" height="4.0" style="fill:cyan;opacity:0.3;"/>
  <text x="240.0" y="10.0" transform="matrix(6.123233995736766E-17,-1.0,1.0,6.123233995736766E-17,230.0,250.0)" style="font-size:1.0000000000000013px;">atropine</text>
  <rect x="242.0" y="6.0" width="2.05761316872428" height="4.0" style="fill:cyan;opacity:0.3;"/>
  <text x="242.0" y="10.0" transform="matrix(6.123233995736766E-17,-1.0,1.0,6.123233995736766E-17,232.0,252.0)" style="font-size:1.0000000000000013px;">memantine</text>
  <rect x="244.0" y="6.0" width="2.05761316872428" height="4.0" style="fill:cyan;opacity:0.3;"/>
  <text x="244.0" y="10.0" transform="matrix(6.123233995736766E-17,-1.0,1.0,6.123233995736766E-17,234.0,254.0)" style="font-size:1.0000000000000013px;">trastuzumab</text>
  <rect x="246.0" y="6.0" width="2.05761316872428" height="4.0" style="fill:cyan;opacity:0.3;"/>
  <text x="246.0" y="10.0" transform="matrix(6.123233995736766E-17,-1.0,1.0,6.123233995736766E-17,236.0,256.0)" style="font-size:1.0000000000000013px;">norethisterone</text>
  <rect x="248.0" y="6.0" width="2.05761316872428" height="4.0" style="fill:cyan;opacity:0.3;"/>
  <text x="248.0" y="10.0" transform="matrix(6.123233995736766E-17,-1.0,1.0,6.123233995736766E-17,237.99999999999997,258.0)" style="font-size:1.0000000000000013px;">canakinumab</text>
  <rect x="250.0" y="6.0" width="2.05761316872428" height="4.0" style="fill:cyan;opacity:0.3;"/>
  <text x="250.0" y="10.0" transform="matrix(6.123233995736766E-17,-1.0,1.0,6.123233995736766E-17,239.99999999999997,260.0)" style="font-size:1.0000000000000013px;">triamcinolone</text>
  <rect x="252.0" y="6.0" width="2.05761316872428" height="4.0" style="fill:cyan;opacity:0.3;"/>
  <text x="252.0" y="10.0" transform="matrix(6.123233995736766E-17,-1.0,1.0,6.123233995736766E-17,241.99999999999997,262.0)" style="font-size:1.0000000000000013px;">menthol</text>
  <rect x="254.0" y="6.0" width="2.05761316872428" height="4.0" style="fill:cyan;opacity:0.3;"/>
  <text x="254.0" y="10.0" transform="matrix(6.123233995736766E-17,-1.0,1.0,6.123233995736766E-17,243.99999999999997,264.0)" style="font-size:1.0000000000000013px;">mefenamic acid</text>
  <rect x="256.0" y="6.0" width="2.05761316872428" height="4.0" style="fill:cyan;opacity:0.3;"/>
  <text x="256.0" y="10.0" transform="matrix(6.123233995736766E-17,-1.0,1.0,6.123233995736766E-17,245.99999999999997,266.0)" style="font-size:1.0000000000000013px;">drotaverine</text>
  <rect x="258.0" y="6.0" width="2.05761316872428" height="4.0" style="fill:cyan;opacity:0.3;"/>
  <text x="258.0" y="10.0" transform="matrix(6.123233995736766E-17,-1.0,1.0,6.123233995736766E-17,247.99999999999997,268.0)" style="font-size:1.0000000000000013px;">calcitriol</text>
  <rect x="261.0" y="6.0" width="2.05761316872428" height="4.0" style="fill:cyan;opacity:0.3;"/>
  <text x="261.0" y="10.0" transform="matrix(6.123233995736766E-17,-1.0,1.0,6.123233995736766E-17,250.99999999999997,271.0)" style="font-size:1.0000000000000013px;">macitentan</text>
  <rect x="263.0" y="6.0" width="2.05761316872428" height="4.0" style="fill:cyan;opacity:0.3;"/>
  <text x="263.0" y="10.0" transform="matrix(6.123233995736766E-17,-1.0,1.0,6.123233995736766E-17,252.99999999999997,273.0)" style="font-size:1.0000000000000013px;">clopidogrel</text>
  <rect x="265.0" y="6.0" width="2.05761316872428" height="4.0" style="fill:cyan;opacity:0.3;"/>
  <text x="265.0" y="10.0" transform="matrix(6.123233995736766E-17,-1.0,1.0,6.123233995736766E-17,254.99999999999997,275.0)" style="font-size:1.0000000000000013px;">brimonidine</text>
  <rect x="267.0" y="6.0" width="2.05761316872428" height="4.0" style="fill:cyan;opacity:0.3;"/>
  <text x="267.0" y="10.0" transform="matrix(6.123233995736766E-17,-1.0,1.0,6.123233995736766E-17,257.0,277.0)" style="font-size:1.0000000000000013px;">icatibant</text>
  <rect x="269.0" y="6.0" width="2.05761316872428" height="4.0" style="fill:cyan;opacity:0.3;"/>
  <text x="269.0" y="10.0" transform="matrix(6.123233995736766E-17,-1.0,1.0,6.123233995736766E-17,259.0,279.0)" style="font-size:1.0000000000000013px;">trametinib</text>
  <rect x="271.0" y="6.0" width="2.05761316872428" height="4.0" style="fill:cyan;opacity:0.3;"/>
  <text x="271.0" y="10.0" transform="matrix(6.123233995736766E-17,-1.0,1.0,6.123233995736766E-17,261.0,281.0)" style="font-size:1.0000000000000013px;">famotidine</text>
  <rect x="273.0" y="6.0" width="2.05761316872428" height="4.0" style="fill:cyan;opacity:0.3;"/>
  <text x="273.0" y="10.0" transform="matrix(6.123233995736766E-17,-1.0,1.0,6.123233995736766E-17,263.0,283.0)" style="font-size:1.0000000000000013px;">tolfenamic acid</text>
  <rect x="275.0" y="6.0" width="2.05761316872428" height="4.0" style="fill:cyan;opacity:0.3;"/>
  <text x="275.0" y="10.0" transform="matrix(6.123233995736766E-17,-1.0,1.0,6.123233995736766E-17,265.0,285.0)" style="font-size:1.0000000000000013px;">chlordiazepoxid</text>
  <rect x="277.0" y="6.0" width="2.05761316872428" height="4.0" style="fill:cyan;opacity:0.3;"/>
  <text x="277.0" y="10.0" transform="matrix(6.123233995736766E-17,-1.0,1.0,6.123233995736766E-17,267.0,287.0)" style="font-size:1.0000000000000013px;">tocilizumab</text>
  <rect x="279.0" y="6.0" width="2.05761316872428" height="4.0" style="fill:cyan;opacity:0.3;"/>
  <text x="279.0" y="10.0" transform="matrix(6.123233995736766E-17,-1.0,1.0,6.123233995736766E-17,269.0,289.0)" style="font-size:1.0000000000000013px;">mefenamic acid,</text>
  <rect x="281.0" y="6.0" width="2.05761316872428" height="4.0" style="fill:cyan;opacity:0.3;"/>
  <text x="281.0" y="10.0" transform="matrix(6.123233995736766E-17,-1.0,1.0,6.123233995736766E-17,271.0,291.0)" style="font-size:1.0000000000000013px;">corticotropin</text>
  <rect x="283.0" y="6.0" width="2.05761316872428" height="4.0" style="fill:cyan;opacity:0.3;"/>
  <text x="283.0" y="10.0" transform="matrix(6.123233995736766E-17,-1.0,1.0,6.123233995736766E-17,273.0,293.0)" style="font-size:1.0000000000000013px;">amiloride</text>
  <rect x="285.0" y="6.0" width="2.05761316872428" height="4.0" style="fill:cyan;opacity:0.3;"/>
  <text x="285.0" y="10.0" transform="matrix(6.123233995736766E-17,-1.0,1.0,6.123233995736766E-17,275.0,295.0)" style="font-size:1.0000000000000013px;">kainic acid</text>
  <rect x="287.0" y="6.0" width="2.05761316872428" height="4.0" style="fill:cyan;opacity:0.3;"/>
  <text x="287.0" y="10.0" transform="matrix(6.123233995736766E-17,-1.0,1.0,6.123233995736766E-17,277.0,297.0)" style="font-size:1.0000000000000013px;">clonidine</text>
  <rect x="289.0" y="6.0" width="2.05761316872428" height="4.0" style="fill:cyan;opacity:0.3;"/>
  <text x="289.0" y="10.0" transform="matrix(6.123233995736766E-17,-1.0,1.0,6.123233995736766E-17,279.0,299.0)" style="font-size:1.0000000000000013px;">methysergide</text>
  <rect x="291.0" y="6.0" width="2.05761316872428" height="4.0" style="fill:cyan;opacity:0.3;"/>
  <text x="291.0" y="10.0" transform="matrix(6.123233995736766E-17,-1.0,1.0,6.123233995736766E-17,281.0,301.0)" style="font-size:1.0000000000000013px;">fosaprepitant</text>
  <rect x="293.0" y="6.0" width="2.05761316872428" height="4.0" style="fill:cyan;opacity:0.3;"/>
  <text x="293.0" y="10.0" transform="matrix(6.123233995736766E-17,-1.0,1.0,6.123233995736766E-17,283.0,303.0)" style="font-size:1.0000000000000013px;">eszopiclone</text>
  <rect x="296.0" y="6.0" width="2.05761316872428" height="4.0" style="fill:cyan;opacity:0.3;"/>
  <text x="296.0" y="10.0" transform="matrix(6.123233995736766E-17,-1.0,1.0,6.123233995736766E-17,286.0,306.0)" style="font-size:1.0000000000000013px;">pyridoxine</text>
  <rect x="298.0" y="6.0" width="2.05761316872428" height="4.0" style="fill:cyan;opacity:0.3;"/>
  <text x="298.0" y="10.0" transform="matrix(6.123233995736766E-17,-1.0,1.0,6.123233995736766E-17,288.0,308.0)" style="font-size:1.0000000000000013px;">danazol</text>
  <rect x="300.0" y="6.0" width="2.05761316872428" height="4.0" style="fill:cyan;opacity:0.3;"/>
  <text x="300.0" y="10.0" transform="matrix(6.123233995736766E-17,-1.0,1.0,6.123233995736766E-17,290.0,310.0)" style="font-size:1.0000000000000013px;">nifedipine</text>
  <rect x="302.0" y="6.0" width="2.05761316872428" height="4.0" style="fill:cyan;opacity:0.3;"/>
  <text x="302.0" y="10.0" transform="matrix(6.123233995736766E-17,-1.0,1.0,6.123233995736766E-17,292.0,312.0)" style="font-size:1.0000000000000013px;">trazodone</text>
  <rect x="304.0" y="6.0" width="2.05761316872428" height="4.0" style="fill:cyan;opacity:0.3;"/>
  <text x="304.0" y="10.0" transform="matrix(6.123233995736766E-17,-1.0,1.0,6.123233995736766E-17,294.0,314.0)" style="font-size:1.0000000000000013px;">dienogest</text>
  <rect x="306.0" y="6.0" width="2.05761316872428" height="4.0" style="fill:cyan;opacity:0.3;"/>
  <text x="306.0" y="10.0" transform="matrix(6.123233995736766E-17,-1.0,1.0,6.123233995736766E-17,296.0,316.0)" style="font-size:1.0000000000000013px;">hydroxyurea</text>
  <rect x="308.0" y="6.0" width="2.05761316872428" height="4.0" style="fill:cyan;opacity:0.3;"/>
  <text x="308.0" y="10.0" transform="matrix(6.123233995736766E-17,-1.0,1.0,6.123233995736766E-17,298.0,318.0)" style="font-size:1.0000000000000013px;">aripiprazole</text>
  <rect x="310.0" y="6.0" width="2.05761316872428" height="4.0" style="fill:cyan;opacity:0.3;"/>
  <text x="310.0" y="10.0" transform="matrix(6.123233995736766E-17,-1.0,1.0,6.123233995736766E-17,300.0,320.0)" style="font-size:1.0000000000000013px;">tapentadol</text>
  <rect x="312.0" y="6.0" width="2.05761316872428" height="4.0" style="fill:cyan;opacity:0.3;"/>
  <text x="312.0" y="10.0" transform="matrix(6.123233995736766E-17,-1.0,1.0,6.123233995736766E-17,302.0,322.0)" style="font-size:1.0000000000000013px;">nivolumab</text>
  <rect x="314.0" y="6.0" width="2.05761316872428" height="4.0" style="fill:cyan;opacity:0.3;"/>
  <text x="314.0" y="10.0" transform="matrix(6.123233995736766E-17,-1.0,1.0,6.123233995736766E-17,304.0,324.0)" style="font-size:1.0000000000000013px;">tegaserod</text>
  <rect x="316.0" y="6.0" width="2.05761316872428" height="4.0" style="fill:cyan;opacity:0.3;"/>
  <text x="316.0" y="10.0" transform="matrix(6.123233995736766E-17,-1.0,1.0,6.123233995736766E-17,306.0,326.0)" style="font-size:1.0000000000000013px;">obinutuzumab</text>
  <rect x="318.0" y="6.0" width="2.05761316872428" height="4.0" style="fill:cyan;opacity:0.3;"/>
  <text x="318.0" y="10.0" transform="matrix(6.123233995736766E-17,-1.0,1.0,6.123233995736766E-17,308.0,328.0)" style="font-size:1.0000000000000013px;">interferon beta</text>
  <rect x="320.0" y="6.0" width="2.05761316872428" height="4.0" style="fill:cyan;opacity:0.3;"/>
  <text x="320.0" y="10.0" transform="matrix(6.123233995736766E-17,-1.0,1.0,6.123233995736766E-17,310.0,330.0)" style="font-size:1.0000000000000013px;">ceftriaxone</text>
  <rect x="322.0" y="6.0" width="2.05761316872428" height="4.0" style="fill:cyan;opacity:0.3;"/>
  <text x="322.0" y="10.0" transform="matrix(6.123233995736766E-17,-1.0,1.0,6.123233995736766E-17,312.0,332.0)" style="font-size:1.0000000000000013px;">ascorbic acid</text>
  <rect x="324.0" y="6.0" width="2.05761316872428" height="4.0" style="fill:cyan;opacity:0.3;"/>
  <text x="324.0" y="10.0" transform="matrix(6.123233995736766E-17,-1.0,1.0,6.123233995736766E-17,314.0,334.0)" style="font-size:1.0000000000000013px;">promethazine</text>
  <rect x="326.0" y="6.0" width="2.05761316872428" height="4.0" style="fill:cyan;opacity:0.3;"/>
  <text x="326.0" y="10.0" transform="matrix(6.123233995736766E-17,-1.0,1.0,6.123233995736766E-17,316.0,336.0)" style="font-size:1.0000000000000013px;">phenoxybenzamin</text>
  <rect x="328.0" y="6.0" width="2.05761316872428" height="4.0" style="fill:cyan;opacity:0.3;"/>
  <text x="328.0" y="10.0" transform="matrix(6.123233995736766E-17,-1.0,1.0,6.123233995736766E-17,318.0,338.0)" style="font-size:1.0000000000000013px;">atenolol</text>
  <rect x="330.0" y="6.0" width="2.05761316872428" height="4.0" style="fill:cyan;opacity:0.3;"/>
  <text x="330.0" y="10.0" transform="matrix(6.123233995736766E-17,-1.0,1.0,6.123233995736766E-17,320.0,340.0)" style="font-size:1.0000000000000013px;">lenalidomide</text>
  <rect x="333.0" y="6.0" width="2.05761316872428" height="4.0" style="fill:cyan;opacity:0.3;"/>
  <text x="333.0" y="10.0" transform="matrix(6.123233995736766E-17,-1.0,1.0,6.123233995736766E-17,323.0,343.0)" style="font-size:1.0000000000000013px;">trimebutine</text>
  <rect x="335.0" y="8.0" width="2.05761316872428" height="2.0" style="fill:cyan;opacity:0.3;"/>
  <text x="335.0" y="10.0" transform="matrix(6.123233995736766E-17,-1.0,1.0,6.123233995736766E-17,325.0,345.0)" style="font-size:1.0000000000000013px;">alprazolam</text>
  <rect x="337.0" y="8.0" width="2.05761316872428" height="2.0" style="fill:cyan;opacity:0.3;"/>
  <text x="337.0" y="10.0" transform="matrix(6.123233995736766E-17,-1.0,1.0,6.123233995736766E-17,327.0,347.0)" style="font-size:1.0000000000000013px;">vorinostat</text>
  <rect x="339.0" y="8.0" width="2.05761316872428" height="2.0" style="fill:cyan;opacity:0.3;"/>
  <text x="339.0" y="10.0" transform="matrix(6.123233995736766E-17,-1.0,1.0,6.123233995736766E-17,329.0,349.0)" style="font-size:1.0000000000000013px;">folic acid,</text>
  <rect x="341.0" y="8.0" width="2.05761316872428" height="2.0" style="fill:cyan;opacity:0.3;"/>
  <text x="341.0" y="10.0" transform="matrix(6.123233995736766E-17,-1.0,1.0,6.123233995736766E-17,331.0,351.0)" style="font-size:1.0000000000000013px;">bevacizumab</text>
  <rect x="343.0" y="8.0" width="2.05761316872428" height="2.0" style="fill:cyan;opacity:0.3;"/>
  <text x="343.0" y="10.0" transform="matrix(6.123233995736766E-17,-1.0,1.0,6.123233995736766E-17,333.0,353.0)" style="font-size:1.0000000000000013px;">acebutolol</text>
  <rect x="345.0" y="8.0" width="2.05761316872428" height="2.0" style="fill:cyan;opacity:0.3;"/>
  <text x="345.0" y="10.0" transform="matrix(6.123233995736766E-17,-1.0,1.0,6.123233995736766E-17,335.0,355.0)" style="font-size:1.0000000000000013px;">tamoxifen</text>
  <rect x="347.0" y="8.0" width="2.05761316872428" height="2.0" style="fill:cyan;opacity:0.3;"/>
  <text x="347.0" y="10.0" transform="matrix(6.123233995736766E-17,-1.0,1.0,6.123233995736766E-17,337.0,357.0)" style="font-size:1.0000000000000013px;">ranitidine</text>
  <rect x="349.0" y="8.0" width="2.05761316872428" height="2.0" style="fill:cyan;opacity:0.3;"/>
  <text x="349.0" y="10.0" transform="matrix(6.123233995736766E-17,-1.0,1.0,6.123233995736766E-17,339.0,359.0)" style="font-size:1.0000000000000013px;">vincristine</text>
  <rect x="351.0" y="8.0" width="2.05761316872428" height="2.0" style="fill:cyan;opacity:0.3;"/>
  <text x="351.0" y="10.0" transform="matrix(6.123233995736766E-17,-1.0,1.0,6.123233995736766E-17,341.0,361.0)" style="font-size:1.0000000000000013px;">pizotifene</text>
  <rect x="353.0" y="8.0" width="2.05761316872428" height="2.0" style="fill:cyan;opacity:0.3;"/>
  <text x="353.0" y="10.0" transform="matrix(6.123233995736766E-17,-1.0,1.0,6.123233995736766E-17,343.0,363.0)" style="font-size:1.0000000000000013px;">atorvastatin</text>
  <rect x="355.0" y="8.0" width="2.05761316872428" height="2.0" style="fill:cyan;opacity:0.3;"/>
  <text x="355.0" y="10.0" transform="matrix(6.123233995736766E-17,-1.0,1.0,6.123233995736766E-17,345.0,365.0)" style="font-size:1.0000000000000013px;">rifaximin</text>
  <rect x="357.0" y="8.0" width="2.05761316872428" height="2.0" style="fill:cyan;opacity:0.3;"/>
  <text x="357.0" y="10.0" transform="matrix(6.123233995736766E-17,-1.0,1.0,6.123233995736766E-17,347.0,367.0)" style="font-size:1.0000000000000013px;">plerixafor</text>
  <rect x="359.0" y="8.0" width="2.05761316872428" height="2.0" style="fill:cyan;opacity:0.3;"/>
  <text x="359.0" y="10.0" transform="matrix(6.123233995736766E-17,-1.0,1.0,6.123233995736766E-17,349.0,369.0)" style="font-size:1.0000000000000013px;">pentobarbital</text>
  <rect x="361.0" y="8.0" width="2.05761316872428" height="2.0" style="fill:cyan;opacity:0.3;"/>
  <text x="361.0" y="10.0" transform="matrix(6.123233995736766E-17,-1.0,1.0,6.123233995736766E-17,351.0,371.0)" style="font-size:1.0000000000000013px;">decitabine</text>
  <rect x="363.0" y="8.0" width="2.05761316872428" height="2.0" style="fill:cyan;opacity:0.3;"/>
  <text x="363.0" y="10.0" transform="matrix(6.123233995736766E-17,-1.0,1.0,6.123233995736766E-17,353.0,373.0)" style="font-size:1.0000000000000013px;">naratriptan</text>
  <rect x="365.0" y="8.0" width="2.05761316872428" height="2.0" style="fill:cyan;opacity:0.3;"/>
  <text x="365.0" y="10.0" transform="matrix(6.123233995736766E-17,-1.0,1.0,6.123233995736766E-17,355.0,375.0)" style="font-size:1.0000000000000013px;">bupivacaine</text>
  <rect x="368.0" y="8.0" width="2.05761316872428" height="2.0" style="fill:cyan;opacity:0.3;"/>
  <text x="368.0" y="10.0" transform="matrix(6.123233995736766E-17,-1.0,1.0,6.123233995736766E-17,358.0,378.0)" style="font-size:1.0000000000000013px;">diazepam</text>
  <rect x="370.0" y="8.0" width="2.05761316872428" height="2.0" style="fill:cyan;opacity:0.3;"/>
  <text x="370.0" y="10.0" transform="matrix(6.123233995736766E-17,-1.0,1.0,6.123233995736766E-17,360.0,380.0)" style="font-size:1.0000000000000013px;">nitrous oxide</text>
  <rect x="372.0" y="8.0" width="2.05761316872428" height="2.0" style="fill:cyan;opacity:0.3;"/>
  <text x="372.0" y="10.0" transform="matrix(6.123233995736766E-17,-1.0,1.0,6.123233995736766E-17,362.0,382.0)" style="font-size:1.0000000000000013px;">lansoprazole</text>
  <rect x="374.0" y="8.0" width="2.05761316872428" height="2.0" style="fill:cyan;opacity:0.3;"/>
  <text x="374.0" y="10.0" transform="matrix(6.123233995736766E-17,-1.0,1.0,6.123233995736766E-17,364.0,384.0)" style="font-size:1.0000000000000013px;">vigabatrin</text>
  <rect x="376.0" y="8.0" width="2.05761316872428" height="2.0" style="fill:cyan;opacity:0.3;"/>
  <text x="376.0" y="10.0" transform="matrix(6.123233995736766E-17,-1.0,1.0,6.123233995736766E-17,366.0,386.0)" style="font-size:1.0000000000000013px;">pseudoephedrine</text>
  <rect x="378.0" y="8.0" width="2.05761316872428" height="2.0" style="fill:cyan;opacity:0.3;"/>
  <text x="378.0" y="10.0" transform="matrix(6.123233995736766E-17,-1.0,1.0,6.123233995736766E-17,368.0,388.0)" style="font-size:1.0000000000000013px;">prednisolone</text>
  <rect x="380.0" y="8.0" width="2.05761316872428" height="2.0" style="fill:cyan;opacity:0.3;"/>
  <text x="380.0" y="10.0" transform="matrix(6.123233995736766E-17,-1.0,1.0,6.123233995736766E-17,370.0,390.0)" style="font-size:1.0000000000000013px;">paroxetine</text>
  <rect x="382.0" y="8.0" width="2.05761316872428" height="2.0" style="fill:cyan;opacity:0.3;"/>
  <text x="382.0" y="10.0" transform="matrix(6.123233995736766E-17,-1.0,1.0,6.123233995736766E-17,372.0,392.0)" style="font-size:1.0000000000000013px;">somatostatin</text>
  <rect x="384.0" y="8.0" width="2.05761316872428" height="2.0" style="fill:cyan;opacity:0.3;"/>
  <text x="384.0" y="10.0" transform="matrix(6.123233995736766E-17,-1.0,1.0,6.123233995736766E-17,374.0,394.0)" style="font-size:1.0000000000000013px;">labetalol</text>
  <rect x="386.0" y="8.0" width="2.05761316872428" height="2.0" style="fill:cyan;opacity:0.3;"/>
  <text x="386.0" y="10.0" transform="matrix(6.123233995736766E-17,-1.0,1.0,6.123233995736766E-17,376.0,396.0)" style="font-size:1.0000000000000013px;">gemcitabine</text>
  <rect x="388.0" y="8.0" width="2.05761316872428" height="2.0" style="fill:cyan;opacity:0.3;"/>
  <text x="388.0" y="10.0" transform="matrix(6.123233995736766E-17,-1.0,1.0,6.123233995736766E-17,378.0,398.0)" style="font-size:1.0000000000000013px;">quetiapine</text>
  <rect x="390.0" y="8.0" width="2.05761316872428" height="2.0" style="fill:cyan;opacity:0.3;"/>
  <text x="390.0" y="10.0" transform="matrix(6.123233995736766E-17,-1.0,1.0,6.123233995736766E-17,380.0,400.0)" style="font-size:1.0000000000000013px;">clonazepam</text>
  <rect x="392.0" y="8.0" width="2.05761316872428" height="2.0" style="fill:cyan;opacity:0.3;"/>
  <text x="392.0" y="10.0" transform="matrix(6.123233995736766E-17,-1.0,1.0,6.123233995736766E-17,382.0,402.0)" style="font-size:1.0000000000000013px;">nimodipine</text>
  <rect x="394.0" y="8.0" width="2.05761316872428" height="2.0" style="fill:cyan;opacity:0.3;"/>
  <text x="394.0" y="10.0" transform="matrix(6.123233995736766E-17,-1.0,1.0,6.123233995736766E-17,384.0,404.0)" style="font-size:1.0000000000000013px;">niacin</text>
  <rect x="396.0" y="8.0" width="2.05761316872428" height="2.0" style="fill:cyan;opacity:0.3;"/>
  <text x="396.0" y="10.0" transform="matrix(6.123233995736766E-17,-1.0,1.0,6.123233995736766E-17,386.0,406.0)" style="font-size:1.0000000000000013px;">epinephrine</text>
  <rect x="398.0" y="8.0" width="2.05761316872428" height="2.0" style="fill:cyan;opacity:0.3;"/>
  <text x="398.0" y="10.0" transform="matrix(6.123233995736766E-17,-1.0,1.0,6.123233995736766E-17,388.0,408.0)" style="font-size:1.0000000000000013px;">medroxyprogeste</text>
  <rect x="400.0" y="8.0" width="2.05761316872428" height="2.0" style="fill:cyan;opacity:0.3;"/>
  <text x="400.0" y="10.0" transform="matrix(6.123233995736766E-17,-1.0,1.0,6.123233995736766E-17,390.0,410.0)" style="font-size:1.0000000000000013px;">reserpine</text>
  <rect x="403.0" y="8.0" width="2.05761316872428" height="2.0" style="fill:cyan;opacity:0.3;"/>
  <text x="403.0" y="10.0" transform="matrix(6.123233995736766E-17,-1.0,1.0,6.123233995736766E-17,393.0,413.0)" style="font-size:1.0000000000000013px;">chlorambucil</text>
  <rect x="405.0" y="8.0" width="2.05761316872428" height="2.0" style="fill:cyan;opacity:0.3;"/>
  <text x="405.0" y="10.0" transform="matrix(6.123233995736766E-17,-1.0,1.0,6.123233995736766E-17,395.0,415.0)" style="font-size:1.0000000000000013px;">fluticasone</text>
  <rect x="407.0" y="8.0" width="2.05761316872428" height="2.0" style="fill:cyan;opacity:0.3;"/>
  <text x="407.0" y="10.0" transform="matrix(6.123233995736766E-17,-1.0,1.0,6.123233995736766E-17,397.0,417.0)" style="font-size:1.0000000000000013px;">metamizole</text>
  <rect x="409.0" y="8.0" width="2.05761316872428" height="2.0" style="fill:cyan;opacity:0.3;"/>
  <text x="409.0" y="10.0" transform="matrix(6.123233995736766E-17,-1.0,1.0,6.123233995736766E-17,399.0,419.0)" style="font-size:1.0000000000000013px;">isosorbide dini</text>
  <rect x="411.0" y="8.0" width="2.05761316872428" height="2.0" style="fill:cyan;opacity:0.3;"/>
  <text x="411.0" y="10.0" transform="matrix(6.123233995736766E-17,-1.0,1.0,6.123233995736766E-17,401.0,421.0)" style="font-size:1.0000000000000013px;">methotrexate</text>
  <rect x="413.0" y="8.0" width="2.05761316872428" height="2.0" style="fill:cyan;opacity:0.3;"/>
  <text x="413.0" y="10.0" transform="matrix(6.123233995736766E-17,-1.0,1.0,6.123233995736766E-17,403.0,423.0)" style="font-size:1.0000000000000013px;">pomalidomide</text>
  <rect x="415.0" y="8.0" width="2.05761316872428" height="2.0" style="fill:cyan;opacity:0.3;"/>
  <text x="415.0" y="10.0" transform="matrix(6.123233995736766E-17,-1.0,1.0,6.123233995736766E-17,405.0,425.0)" style="font-size:1.0000000000000013px;">haloperidol</text>
  <rect x="417.0" y="8.0" width="2.05761316872428" height="2.0" style="fill:cyan;opacity:0.3;"/>
  <text x="417.0" y="10.0" transform="matrix(6.123233995736766E-17,-1.0,1.0,6.123233995736766E-17,407.0,427.0)" style="font-size:1.0000000000000013px;">lacosamide</text>
  <rect x="419.0" y="8.0" width="2.05761316872428" height="2.0" style="fill:cyan;opacity:0.3;"/>
  <text x="419.0" y="10.0" transform="matrix(6.123233995736766E-17,-1.0,1.0,6.123233995736766E-17,409.0,429.0)" style="font-size:1.0000000000000013px;">maprotiline</text>
  <rect x="421.0" y="8.0" width="2.05761316872428" height="2.0" style="fill:cyan;opacity:0.3;"/>
  <text x="421.0" y="10.0" transform="matrix(6.123233995736766E-17,-1.0,1.0,6.123233995736766E-17,411.0,431.0)" style="font-size:1.0000000000000013px;">bisacodyl</text>
  <rect x="423.0" y="8.0" width="2.05761316872428" height="2.0" style="fill:cyan;opacity:0.3;"/>
  <text x="423.0" y="10.0" transform="matrix(6.123233995736766E-17,-1.0,1.0,6.123233995736766E-17,413.0,433.0)" style="font-size:1.0000000000000013px;">oseltamivir</text>
  <rect x="425.0" y="8.0" width="2.05761316872428" height="2.0" style="fill:cyan;opacity:0.3;"/>
  <text x="425.0" y="10.0" transform="matrix(6.123233995736766E-17,-1.0,1.0,6.123233995736766E-17,415.0,435.0)" style="font-size:1.0000000000000013px;">tizanidine</text>
  <rect x="427.0" y="8.0" width="2.05761316872428" height="2.0" style="fill:cyan;opacity:0.3;"/>
  <text x="427.0" y="10.0" transform="matrix(6.123233995736766E-17,-1.0,1.0,6.123233995736766E-17,417.0,437.0)" style="font-size:1.0000000000000013px;">nitric oxide;</text>
  <rect x="429.0" y="8.0" width="2.05761316872428" height="2.0" style="fill:cyan;opacity:0.3;"/>
  <text x="429.0" y="10.0" transform="matrix(6.123233995736766E-17,-1.0,1.0,6.123233995736766E-17,419.0,439.0)" style="font-size:1.0000000000000013px;">risperidone</text>
  <rect x="431.0" y="8.0" width="2.05761316872428" height="2.0" style="fill:cyan;opacity:0.3;"/>
  <text x="431.0" y="10.0" transform="matrix(6.123233995736766E-17,-1.0,1.0,6.123233995736766E-17,421.0,441.0)" style="font-size:1.0000000000000013px;">halothane</text>
  <rect x="433.0" y="8.0" width="2.05761316872428" height="2.0" style="fill:cyan;opacity:0.3;"/>
  <text x="433.0" y="10.0" transform="matrix(6.123233995736766E-17,-1.0,1.0,6.123233995736766E-17,423.0,443.0)" style="font-size:1.0000000000000013px;">vancomycin</text>
  <rect x="435.0" y="8.0" width="2.05761316872428" height="2.0" style="fill:cyan;opacity:0.3;"/>
  <text x="435.0" y="10.0" transform="matrix(6.123233995736766E-17,-1.0,1.0,6.123233995736766E-17,425.0,445.0)" style="font-size:1.0000000000000013px;">drospirenone</text>
  <rect x="437.0" y="8.0" width="2.05761316872428" height="2.0" style="fill:cyan;opacity:0.3;"/>
  <text x="437.0" y="10.0" transform="matrix(6.123233995736766E-17,-1.0,1.0,6.123233995736766E-17,427.0,447.0)" style="font-size:1.0000000000000013px;">stiripentol</text>
  <rect x="440.0" y="8.0" width="2.05761316872428" height="2.0" style="fill:cyan;opacity:0.3;"/>
  <text x="440.0" y="10.0" transform="matrix(6.123233995736766E-17,-1.0,1.0,6.123233995736766E-17,430.0,450.0)" style="font-size:1.0000000000000013px;">sertraline</text>
  <rect x="442.0" y="8.0" width="2.05761316872428" height="2.0" style="fill:cyan;opacity:0.3;"/>
  <text x="442.0" y="10.0" transform="matrix(6.123233995736766E-17,-1.0,1.0,6.123233995736766E-17,432.0,452.0)" style="font-size:1.0000000000000013px;">azithromycin</text>
  <rect x="444.0" y="8.0" width="2.05761316872428" height="2.0" style="fill:cyan;opacity:0.3;"/>
  <text x="444.0" y="10.0" transform="matrix(6.123233995736766E-17,-1.0,1.0,6.123233995736766E-17,434.0,454.0)" style="font-size:1.0000000000000013px;">tenecteplase</text>
  <rect x="446.0" y="8.0" width="2.05761316872428" height="2.0" style="fill:cyan;opacity:0.3;"/>
  <text x="446.0" y="10.0" transform="matrix(6.123233995736766E-17,-1.0,1.0,6.123233995736766E-17,436.0,456.0)" style="font-size:1.0000000000000013px;">naproxene</text>
  <rect x="448.0" y="8.0" width="2.05761316872428" height="2.0" style="fill:cyan;opacity:0.3;"/>
  <text x="448.0" y="10.0" transform="matrix(6.123233995736766E-17,-1.0,1.0,6.123233995736766E-17,438.0,458.0)" style="font-size:1.0000000000000013px;">nebivolol</text>
  <rect x="450.0" y="8.0" width="2.05761316872428" height="2.0" style="fill:cyan;opacity:0.3;"/>
  <text x="450.0" y="10.0" transform="matrix(6.123233995736766E-17,-1.0,1.0,6.123233995736766E-17,440.0,460.0)" style="font-size:1.0000000000000013px;">phenol</text>
  <rect x="452.0" y="8.0" width="2.05761316872428" height="2.0" style="fill:cyan;opacity:0.3;"/>
  <text x="452.0" y="10.0" transform="matrix(6.123233995736766E-17,-1.0,1.0,6.123233995736766E-17,442.0,462.0)" style="font-size:1.0000000000000013px;">selexipag</text>
  <rect x="454.0" y="8.0" width="2.05761316872428" height="2.0" style="fill:cyan;opacity:0.3;"/>
  <text x="454.0" y="10.0" transform="matrix(6.123233995736766E-17,-1.0,1.0,6.123233995736766E-17,444.0,464.0)" style="font-size:1.0000000000000013px;">valproic acid;</text>
  <rect x="456.0" y="8.0" width="2.05761316872428" height="2.0" style="fill:cyan;opacity:0.3;"/>
  <text x="456.0" y="10.0" transform="matrix(6.123233995736766E-17,-1.0,1.0,6.123233995736766E-17,446.0,466.0)" style="font-size:1.0000000000000013px;">tiagabine</text>
  <rect x="458.0" y="8.0" width="2.05761316872428" height="2.0" style="fill:cyan;opacity:0.3;"/>
  <text x="458.0" y="10.0" transform="matrix(6.123233995736766E-17,-1.0,1.0,6.123233995736766E-17,448.0,468.0)" style="font-size:1.0000000000000013px;">meloxicam</text>
  <rect x="460.0" y="8.0" width="2.05761316872428" height="2.0" style="fill:cyan;opacity:0.3;"/>
  <text x="460.0" y="10.0" transform="matrix(6.123233995736766E-17,-1.0,1.0,6.123233995736766E-17,450.0,470.0)" style="font-size:1.0000000000000013px;">calcifediol</text>
  <rect x="462.0" y="8.0" width="2.05761316872428" height="2.0" style="fill:cyan;opacity:0.3;"/>
  <text x="462.0" y="10.0" transform="matrix(6.123233995736766E-17,-1.0,1.0,6.123233995736766E-17,452.0,472.0)" style="font-size:1.0000000000000013px;">kainic acid,</text>
  <rect x="464.0" y="8.0" width="2.05761316872428" height="2.0" style="fill:cyan;opacity:0.3;"/>
  <text x="464.0" y="10.0" transform="matrix(6.123233995736766E-17,-1.0,1.0,6.123233995736766E-17,454.0,474.0)" style="font-size:1.0000000000000013px;">cilostazol</text>
  <rect x="466.0" y="8.0" width="2.05761316872428" height="2.0" style="fill:cyan;opacity:0.3;"/>
  <text x="466.0" y="10.0" transform="matrix(6.123233995736766E-17,-1.0,1.0,6.123233995736766E-17,456.0,476.0)" style="font-size:1.0000000000000013px;">gabapentine</text>
  <rect x="468.0" y="8.0" width="2.05761316872428" height="2.0" style="fill:cyan;opacity:0.3;"/>
  <text x="468.0" y="10.0" transform="matrix(6.123233995736766E-17,-1.0,1.0,6.123233995736766E-17,458.0,478.0)" style="font-size:1.0000000000000013px;">duloxetine</text>
  <rect x="470.0" y="8.0" width="2.05761316872428" height="2.0" style="fill:cyan;opacity:0.3;"/>
  <text x="470.0" y="10.0" transform="matrix(6.123233995736766E-17,-1.0,1.0,6.123233995736766E-17,460.0,480.0)" style="font-size:1.0000000000000013px;">rifampicin</text>
  <rect x="472.0" y="8.0" width="2.05761316872428" height="2.0" style="fill:cyan;opacity:0.3;"/>
  <text x="472.0" y="10.0" transform="matrix(6.123233995736766E-17,-1.0,1.0,6.123233995736766E-17,462.0,482.0)" style="font-size:1.0000000000000013px;">dexmedetomidine</text>
  <rect x="475.0" y="8.0" width="2.05761316872428" height="2.0" style="fill:cyan;opacity:0.3;"/>
  <text x="475.0" y="10.0" transform="matrix(6.123233995736766E-17,-1.0,1.0,6.123233995736766E-17,465.0,485.0)" style="font-size:1.0000000000000013px;">butalbital</text>
  <rect x="477.0" y="8.0" width="2.05761316872428" height="2.0" style="fill:cyan;opacity:0.3;"/>
  <text x="477.0" y="10.0" transform="matrix(6.123233995736766E-17,-1.0,1.0,6.123233995736766E-17,467.0,487.0)" style="font-size:1.0000000000000013px;">meropenem</text>
  <rect x="479.0" y="8.0" width="2.05761316872428" height="2.0" style="fill:cyan;opacity:0.3;"/>
  <text x="479.0" y="10.0" transform="matrix(6.123233995736766E-17,-1.0,1.0,6.123233995736766E-17,468.99999999999994,489.0)" style="font-size:1.0000000000000013px;">acetylsalicylic</text>
  <rect x="481.0" y="8.0" width="2.05761316872428" height="2.0" style="fill:cyan;opacity:0.3;"/>
  <text x="481.0" y="10.0" transform="matrix(6.123233995736766E-17,-1.0,1.0,6.123233995736766E-17,470.99999999999994,491.0)" style="font-size:1.0000000000000013px;">minocycline</text>
  <rect x="483.0" y="8.0" width="2.05761316872428" height="2.0" style="fill:cyan;opacity:0.3;"/>
  <text x="483.0" y="10.0" transform="matrix(6.123233995736766E-17,-1.0,1.0,6.123233995736766E-17,472.99999999999994,493.0)" style="font-size:1.0000000000000013px;">nalbuphine</text>
  <rect x="485.0" y="8.0" width="2.05761316872428" height="2.0" style="fill:cyan;opacity:0.3;"/>
  <text x="485.0" y="10.0" transform="matrix(6.123233995736766E-17,-1.0,1.0,6.123233995736766E-17,474.99999999999994,495.0)" style="font-size:1.0000000000000013px;">cefpodoxime</text>
  <rect x="487.0" y="8.0" width="2.05761316872428" height="2.0" style="fill:cyan;opacity:0.3;"/>
  <text x="487.0" y="10.0" transform="matrix(6.123233995736766E-17,-1.0,1.0,6.123233995736766E-17,476.99999999999994,497.0)" style="font-size:1.0000000000000013px;">interferon beta</text>
  <rect x="489.0" y="8.0" width="2.05761316872428" height="2.0" style="fill:cyan;opacity:0.3;"/>
  <text x="489.0" y="10.0" transform="matrix(6.123233995736766E-17,-1.0,1.0,6.123233995736766E-17,478.99999999999994,499.0)" style="font-size:1.0000000000000013px;">buprenorphine</text>
  <rect x="491.0" y="8.0" width="2.05761316872428" height="2.0" style="fill:cyan;opacity:0.3;"/>
  <text x="491.0" y="10.0" transform="matrix(6.123233995736766E-17,-1.0,1.0,6.123233995736766E-17,480.99999999999994,501.0)" style="font-size:1.0000000000000013px;">bupropion</text>
  <rect x="493.0" y="8.0" width="2.05761316872428" height="2.0" style="fill:cyan;opacity:0.3;"/>
  <text x="493.0" y="10.0" transform="matrix(6.123233995736766E-17,-1.0,1.0,6.123233995736766E-17,482.99999999999994,503.0)" style="font-size:1.0000000000000013px;">carvedilol</text>
  <rect x="495.0" y="8.0" width="2.05761316872428" height="2.0" style="fill:cyan;opacity:0.3;"/>
  <text x="495.0" y="10.0" transform="matrix(6.123233995736766E-17,-1.0,1.0,6.123233995736766E-17,484.99999999999994,505.0)" style="font-size:1.0000000000000013px;">teriflunomide</text>
  <rect x="497.0" y="8.0" width="2.05761316872428" height="2.0" style="fill:cyan;opacity:0.3;"/>
  <text x="497.0" y="10.0" transform="matrix(6.123233995736766E-17,-1.0,1.0,6.123233995736766E-17,486.99999999999994,507.0)" style="font-size:1.0000000000000013px;">desipramine</text>
  <rect x="499.0" y="8.0" width="2.05761316872428" height="2.0" style="fill:cyan;opacity:0.3;"/>
  <text x="499.0" y="10.0" transform="matrix(6.123233995736766E-17,-1.0,1.0,6.123233995736766E-17,488.99999999999994,509.0)" style="font-size:1.0000000000000013px;">linezolid</text>
  <rect x="501.0" y="8.0" width="2.05761316872428" height="2.0" style="fill:cyan;opacity:0.3;"/>
  <text x="501.0" y="10.0" transform="matrix(6.123233995736766E-17,-1.0,1.0,6.123233995736766E-17,490.99999999999994,511.0)" style="font-size:1.0000000000000013px;">levodopa</text>
  <rect x="503.0" y="8.0" width="2.05761316872428" height="2.0" style="fill:cyan;opacity:0.3;"/>
  <text x="503.0" y="10.0" transform="matrix(6.123233995736766E-17,-1.0,1.0,6.123233995736766E-17,492.99999999999994,513.0)" style="font-size:1.0000000000000013px;">cisplatin</text>
  <rect x="505.0" y="8.0" width="2.05761316872428" height="2.0" style="fill:cyan;opacity:0.3;"/>
  <text x="505.0" y="10.0" transform="matrix(6.123233995736766E-17,-1.0,1.0,6.123233995736766E-17,494.99999999999994,515.0)" style="font-size:1.0000000000000013px;">glatiramer acet</text>
  <rect x="507.0" y="8.0" width="2.05761316872428" height="2.0" style="fill:cyan;opacity:0.3;"/>
  <text x="507.0" y="10.0" transform="matrix(6.123233995736766E-17,-1.0,1.0,6.123233995736766E-17,496.99999999999994,517.0)" style="font-size:1.0000000000000013px;">chorionic gonad</text>
 </g>
</svg>
